<?xml version="1.0" encoding="utf-8"?>
<!-- Generator: Adobe Illustrator 22.0.0, SVG Export Plug-In . SVG Version: 6.00 Build 0)  -->
<svg version="1.1" id="Capa_1" xmlns="http://www.w3.org/2000/svg" xmlns:xlink="http://www.w3.org/1999/xlink" x="0px" y="0px"
	 viewBox="0 0 669.3 109.9" style="enable-background:new 0 0 669.3 109.9;" xml:space="preserve">
<style type="text/css">
	.st0{fill:#FFFBBC;}
	.st1{fill:#AEA5DB;}
	.st2{fill:#813B96;}
	.st3{fill:#2950A3;}
	.st4{fill:#20626F;}
	.st5{fill:#F89A3C;}
	.st6{fill:#243468;}
	.st7{fill:#FFFFFF;}
	.st8{fill:#F89A3B;}
	.st9{fill:#F36C36;}
	.st10{fill:#82D1DB;}
	.st11{fill:#233468;}
	.st12{fill:#8A7EBB;}
	.st13{fill:#55C5D1;}
	.st14{fill:#53C5D2;}
</style>
<path class="st0" d="M7.7,66.7C126.4,48.9,99.4,116,335.9,36C456.6-4.8,479.3,59.2,582.6,22.5c162-57.4,124.2-61,124.2-61
	l-601.3-0.6H30.7L7.7,66.7z"/>
<path class="st1" d="M-12.8,73.9C55,56.1,24.9,151.8,162.5,51.1c67.3-49.2,94.3,15.3,153.4-21.4c92.6-57.4,71-61,71-61L43.1-31.8
	H0.4L-12.8,73.9z"/>
<g>
	<path class="st2" d="M305.7-21.5c37.8,16.1,55.5,59.9,39.5,97.7l-33-14c8.3-19.6-0.9-42.4-20.5-50.7C272,3.2,249.3,12.4,240.9,32
		l-33-14C224-19.8,267.9-37.5,305.7-21.5"/>
	<path class="st3" d="M250.5,36.1c6.1-14.4,22.7-21.1,37.1-15c14.4,6.1,21.1,22.7,15,37.1"/>
</g>
<g>
	<g>
		<path class="st4" d="M483.1,6.1c-0.3-1.9-2.8-3.3-4.3-2.6c-0.8,0.4-1.5,1-2.1,1.6c-1.8,1.9-1.4,3,1.1,3.5c1.7,0.3,3.3-0.1,4.6-1.2
			C482.8,7.1,482.9,6.4,483.1,6.1"/>
		<path class="st4" d="M455.9,23.1c-0.1-1-1.2-2.4-2.1-2.5c-0.3-0.1-0.8,0-1,0.2c-1.5,1-2.6,2.4-3.3,4.1c-0.1,0.3,0,0.8,0.2,1
			c0.8,0.9,2.5,1.2,3.4,0.5c0.8-0.7,1.6-1.4,2.4-2.2C455.7,23.9,455.8,23.4,455.9,23.1"/>
		<path class="st4" d="M459.9,10.7c-1.8,1-3.2,2.3-3.8,4.2c-0.1,0.3,0.1,0.8,0.3,0.9c0.8,0.7,1.8,1.1,2.8,0.6c1-0.5,2-1.2,2.9-2
			c0.7-0.6,0.7-1.5,0.1-2.2c-0.4-0.5-0.9-0.9-1.4-1.3C460.6,10.7,460.2,10.7,459.9,10.7"/>
		<path class="st4" d="M473.4,15.7c-0.3-1.1-1.4-2.3-2.3-2.4c-0.3,0-0.7,0-1,0.2c-1.2,0.9-2.4,1.9-3.1,3.4c-0.4,0.8-0.1,1.4,0.7,1.7
			c1.1,0.5,2.3,0.6,3.3-0.2c0.7-0.5,1.3-1,1.8-1.5C473.2,16.6,473.2,16,473.4,15.7"/>
		<path class="st4" d="M455.5,7.6c-0.5-1.7-2.2-2.6-3.5-1.7c-1,0.7-2,1.5-2.9,2.4c-0.8,0.9-0.4,1.9,0.8,2.3c1.1,0.4,2.1,0.4,3.1-0.3
			c0.7-0.5,1.4-0.9,1.9-1.5C455.4,8.6,455.4,8,455.5,7.6"/>
		<path class="st4" d="M458.6,25.4c0.9,0.4,1.5,0.7,2.2,0.9c1.6,0.4,3.8-1,4.2-2.6c0.1-0.3,0-0.8-0.1-1c-0.3-0.5-0.6-0.9-1-1.3
			c-0.8-0.8-1.5-0.9-2.4-0.1C460.3,22.2,459.1,23.3,458.6,25.4"/>
		<path class="st4" d="M491.5,11.2c0.3-0.2,0.9-0.4,1.3-0.8c0.7-0.6,0.7-1.5,0.2-2.2c-0.5-0.5-1-1.1-1.6-1.4
			c-0.4-0.2-1.1-0.3-1.5-0.2c-1.3,0.4-2.4,1.2-3.1,2.4c-0.3,0.6-0.1,1.3,0.5,1.6C488.5,11.1,489.8,11.5,491.5,11.2"/>
		<path class="st4" d="M467.9,10.6c0.7-0.4,1.3-0.6,1.8-0.9c1.5-1,1.5-2.1,0.3-3.3c-0.3-0.3-0.5-0.5-0.8-0.7
			c-0.6-0.4-1.2-0.4-1.8-0.1c-1.1,0.7-1.9,1.6-2.4,2.8c-0.2,0.5-0.1,1.2,0.4,1.4C466.2,10.1,467.1,10.3,467.9,10.6"/>
		<path class="st4" d="M456.2,30.5c-0.3-1.7-2-2.5-3.1-1.6c-1.2,0.9-2.3,1.8-3,3.2c-0.3,0.7-0.1,1.3,0.6,1.6
			c1.1,0.5,2.1,0.5,3.1-0.3c0.7-0.6,1.4-1.1,2-1.8C456,31.3,456.1,30.8,456.2,30.5"/>
		<path class="st4" d="M442.4,7.8c1.4-0.4,2.3-1.1,2.8-2.1c0.2-0.5,0.3-1.1-0.1-1.5c-0.4-0.5-0.9-0.9-1.5-1.2
			c-0.3-0.2-0.9-0.2-1.3,0c-1.2,0.6-2.1,1.4-2.8,2.5c-0.4,0.8-0.2,1.6,0.6,1.8C440.9,7.6,441.8,7.7,442.4,7.8"/>
		<path class="st4" d="M470,0.5c0.6,0.2,1.2,0.7,1.7,0.7c1.2-0.1,2.5-0.4,3.6-0.8c1.1-0.4,1.2-1.6,0.4-2.5c-0.3-0.3-0.7-0.6-1-0.9
			c-0.6-0.5-1.3-0.6-2-0.2C471.3-2.3,470.3-1.3,470,0.5"/>
		<path class="st4" d="M445.7,14.8c-0.4-1.9-2.5-2.6-3.7-1.4c-0.6,0.6-1.2,1.3-1.6,2.1c-0.4,0.7-0.1,1.4,0.7,1.8
			c1.9,0.9,3.6,0.3,4.5-1.6C445.6,15.4,445.6,15,445.7,14.8"/>
		<path class="st4" d="M458.4,3.2c0.6,0.9,1.7,1.2,2.6,1c0.9-0.1,1.9-0.6,2.7-1.1c0.8-0.4,0.8-1.5,0.3-2.2c-0.3-0.4-0.7-0.8-1.2-1.1
			c-0.3-0.2-0.8-0.3-1-0.2c-0.7,0.4-1.4,0.8-2,1.3C459.1,1.5,458.4,2.1,458.4,3.2"/>
		<path class="st4" d="M449.4,15.5c-0.4,0.2-0.7,0.2-0.8,0.4c-0.7,0.9-1.5,1.8-2.1,2.8c-0.5,0.8,0.1,1.7,1,1.8c0.5,0,1.1,0,1.5-0.3
			c0.6-0.3,1.2-0.8,1.8-1.3c1.1-1,1-2-0.2-2.9C450.2,15.8,449.8,15.7,449.4,15.5"/>
		<path class="st4" d="M434.9,5.2c0.4-0.2,0.8-0.3,1-0.6c0.2-0.3,0.5-0.8,0.4-1.2c-0.2-1.1-1.6-2.1-2.7-1.9
			c-0.5,0.1-1.1,0.3-1.5,0.5c-0.7,0.4-1.4,1-1.3,1.9c0.1,1,1.1,1.1,1.9,1.2C433.4,5.3,434.2,5.2,434.9,5.2"/>
		<path class="st4" d="M477.7,15c1.3,1,2.8,1,4.3,0.3c0.9-0.4,1.1-1.5,0.5-2.3c-1.2-1.3-2.2-1.4-3.5-0.4
			C478.2,13.3,477.5,13.8,477.7,15"/>
		<path class="st4" d="M488.6,4.2c0.5-0.3,0.9-0.4,1.1-0.7c0.3-0.3,0.5-0.8,0.2-1.2c-0.4-0.8-1.2-1.2-2-1c-0.8,0.2-1.5,0.7-1.7,1.6
			c0,0.3,0.2,0.8,0.5,0.9C487.3,4,488,4.1,488.6,4.2"/>
		<path class="st4" d="M390.5,14.1c-0.1,0.6-0.3,1.2-0.3,1.7c0,0.7,0.2,1.5,1,1.9c0.8,0.4,1.4-0.1,1.9-0.6c1.4-1.3,2.5-2.9,3.3-4.7
			c0.2-0.5,0.3-1,0.4-1.6c0.1-0.9-0.7-1.5-1.6-1.4c-1.3,0.2-2.5,0.6-3.1,1.9C391.5,12.2,391,13.2,390.5,14.1"/>
		<path class="st4" d="M444.1,27.4c-0.2,0-0.5-0.1-0.7-0.1c-1.5,0.2-3,0.6-4.4,1.4c-0.8,0.4-1.1,1.2-1,2c0.1,1,0.5,1.9,1.5,2.4
			c0.3,0.1,0.7,0.1,1.1,0c2-0.5,3.4-1.9,4.6-3.6C445.6,29,445,27.7,444.1,27.4"/>
		<path class="st4" d="M431.8,8.5c-1.8-0.4-3.6-0.1-5.2,0.9c-0.3,0.2-0.5,0.5-0.6,0.9c-0.3,1.2,0.9,2.9,2.1,3.1
			c1.8,0.2,3.4-0.1,4.8-1.4c1.2-1.3,0.6-2.5-0.5-3.1C432.2,8.6,432,8.6,431.8,8.5"/>
		<path class="st4" d="M408.1,36c-0.3,1.1,0.6,2.9,1.4,3.2c0.2,0.1,0.5,0.1,0.8,0.1c2.2-0.5,4-1.6,5.3-3.5c0.7-1-0.1-2.3-1.3-2.3
			c-0.4,0-0.7,0-1.1,0.1c-1.4,0.5-2.9,1.1-4.3,1.7C408.5,35.5,408.2,35.9,408.1,36"/>
		<path class="st4" d="M428.9,20.4c-0.3,1.1-0.1,1.9,0.4,2.7c0.5,0.9,1.2,1.1,2,0.5c1.6-1.2,2.8-2.8,3.7-4.6
			c0.3-0.6,0.2-1.2-0.2-1.8c-0.4-0.6-1-0.7-1.7-0.5C430.9,17.2,429.8,18.7,428.9,20.4"/>
		<path class="st4" d="M397.5,32.1c-0.2,0.9,0.1,1.6,0.7,2.2c0.4,0.6,1,0.8,1.7,0.6c2.1-0.7,3.7-1.9,4.8-3.8c0.6-1-0.2-2.4-1.4-2.3
			c-2.3,0.2-4.1,1.3-5.6,3C397.6,31.9,397.6,32,397.5,32.1"/>
		<path class="st4" d="M442.5,37.6c-0.2,0-0.5-0.1-0.9,0c-1.8,0.4-3.4,1.3-4.8,2.5c-0.8,0.7-0.9,1.6-0.5,2.5c0.4,1.1,1.4,1.5,2.4,1
			c1.7-0.9,3.2-2,4.4-3.6C443.8,39.2,443.5,38,442.5,37.6"/>
		<path class="st4" d="M427.6,37.8c0,0.2-0.1,0.4-0.1,0.5c-0.1,0.8-0.2,1.7,0.6,2.2c0.8,0.5,1.6,0.2,2.3-0.3
			c1.1-0.9,2.2-1.9,3.2-2.9c0.5-0.5,0.6-1.1,0.2-1.8c-0.3-0.6-1-1-1.8-0.9C430.1,34.8,428.1,36.2,427.6,37.8"/>
		<path class="st4" d="M403.6,16.2c-0.2,0-0.7,0-1.1,0c-1.6,0.3-2.8,1.2-3.8,2.4c-0.4,0.5-0.5,1.1-0.3,1.8c0.5,1.9,1.6,2.3,3.1,1
			c1-0.9,2-1.8,2.8-2.9C405,17.9,404.6,16.7,403.6,16.2"/>
		<path class="st4" d="M424,28.5c-0.2,0-0.7,0-1.1,0.1c-1.6,0.3-3,1.3-4.3,2.2c-0.5,0.3-0.6,0.9-0.4,1.4c0.2,0.5,0.4,1,0.7,1.4
			c0.3,0.5,0.9,0.7,1.4,0.5c1.8-0.7,3.3-1.8,4.4-3.4C425.2,30,424.9,28.9,424,28.5"/>
		<path class="st4" d="M417.6,7.9c-0.2,0-0.4-0.1-0.7,0c-1.7,0.2-3.1,1-4.3,2.2c-0.6,0.6-0.5,1.4,0,2.2c0.5,0.7,1.1,1.1,1.8,0.9
			c1.8-0.6,3.2-1.8,4-3.4C418.8,9.1,418.4,8.1,417.6,7.9"/>
		<path class="st4" d="M413.8,16.9c-0.2,0-0.6,0-1.1,0.1c-1.3,0.3-2.3,1.1-3.2,2c-0.9,1-0.7,2.5,0.4,3.3c0.3,0.2,0.9,0.3,1.3,0.1
			c1.6-0.7,2.8-1.9,3.7-3.5C415.3,18.2,414.8,17.2,413.8,16.9"/>
		<path class="st4" d="M425.5,23.1c0.2-0.7-0.3-1.5-0.8-1.6c-0.4-0.1-0.9-0.1-1.3,0c-1.4,0.3-2.5,1-3.6,1.8
			c-0.5,0.4-0.7,0.9-0.6,1.4c0.2,0.8,0.5,1.6,1.4,1.9c0.3,0.1,0.8,0.1,1-0.1c1.4-0.7,2.6-1.6,3.6-2.8
			C425.4,23.5,425.5,23.3,425.5,23.1"/>
		<path class="st4" d="M410.2,30.4c0.2,0,0.5,0.1,0.7,0c1.6-0.5,2.9-1.5,3.9-2.9c0.5-0.6,0.3-1.5-0.5-1.8c-0.6-0.2-1.3-0.4-1.8-0.3
			c-0.9,0.2-1.9,0.6-2.7,1.2c-1.3,0.9-1.2,2.7,0.1,3.7C410,30.3,410.1,30.3,410.2,30.4"/>
		<path class="st4" d="M409.4,8.4c0.4-0.9-0.3-2.1-1.3-2c-1.8,0.1-3.3,0.8-4.5,2.2c-0.6,0.7-0.2,1.5,0.2,2.3c0.5,0.9,1.2,1.2,2,0.6
			c1.1-0.7,2.1-1.6,3.2-2.5C409.2,8.8,409.3,8.5,409.4,8.4"/>
		<path class="st4" d="M431.3,27.7c-0.5,0-0.9-0.1-1.2,0c-1.3,0.2-2.3,0.9-3.2,1.9c-0.8,0.9-0.9,1.7-0.3,2.7c0.5,0.9,1.3,1.2,2,0.6
			c1-0.8,1.9-1.7,2.8-2.6c0.3-0.3,0.5-0.8,0.5-1.2C431.8,28.6,431.5,28.2,431.3,27.7"/>
		<path class="st4" d="M425.4,2.5c-1.7-0.3-3.1,0-4.3,0.7c-0.5,0.3-0.7,0.8-0.5,1.4c0.5,1.9,2.3,2.7,4.1,1.7c0.5-0.3,0.9-0.7,1.3-1
			c0.5-0.5,0.9-1.1,0.5-1.7C426.2,3.1,425.7,2.7,425.4,2.5"/>
		<path class="st4" d="M423.7,14.6c-0.1,0-0.4-0.1-0.7-0.1c-1.3,0.3-2.6,0.7-3.9,1.1c-0.8,0.3-1,1-0.7,1.8c0.5,1.4,1.7,1.9,3,1.4
			c1.2-0.5,2.2-1.2,2.9-2.3C424.8,15.8,424.5,14.9,423.7,14.6"/>
		<path class="st4" d="M422.3,37.4c-0.1,0-0.4-0.1-0.7,0c-1.3,0.4-2.6,0.8-3.8,1.3c-0.5,0.2-0.8,0.7-0.7,1.3
			c0.2,0.9,0.8,1.6,1.5,1.7c1.6,0.1,4-1.4,4.6-2.8C423.5,38.4,423,37.6,422.3,37.4"/>
		<path class="st4" d="M434.5,26.3c0,0.2-0.1,0.7,0,1.1c0.1,0.6,0.4,1.3,1,1.4c0.4,0.1,1.1-0.2,1.4-0.5c0.8-0.8,1.5-1.8,2.1-2.7
			c0.3-0.5,0.2-1-0.2-1.5c-0.4-0.5-0.9-0.6-1.5-0.5C436,23.8,435.1,24.7,434.5,26.3"/>
	</g>
	<path class="st5" d="M364,4.6l-1.6-8.1l-34.3-3.1c0,0,19.8,72.5,72.5,78.2c44.8,4.8,49.3-33,94.9-39.5s71.8-44,71.8-44
		s-15.3,15.2-40.8,22.2c-25.5,7-40.6,6.8-61.3,23.2c-20.8,16.4-29.4,25.6-55.6,17.8C383.2,43.7,364,4.6,364,4.6"/>
	<path class="st6" d="M309.3-5.8c1.2,3.3,2.5,6.5,3.9,9.7c1.4,3.2,2.9,6.3,4.5,9.5c3.1,6.3,6.6,12.3,10.3,18.3
		c3.8,5.9,7.8,11.7,12.3,17.2c4.5,5.5,9.3,10.7,14.7,15.5c2.7,2.4,5.5,4.7,8.4,6.8c3,2.1,6,4,9.3,5.7c6.5,3.4,13.5,5.9,21,7L395,84
		c0.5,0,0.9,0.1,1.4,0.1l1.4,0.1l1.4,0.1l1.4,0l1.4,0l2.7,0c3.6-0.1,7.3-0.4,10.9-0.9c3.6-0.5,7.2-1.3,10.8-2.3c3.5-1,7-2.4,10.3-4
		c6.7-3.3,12.6-7.7,18-12.4c5.4-4.7,10.3-9.5,15.4-13.7c1.3-1,2.6-2,3.9-2.9l1-0.7l1-0.6c0.7-0.4,1.4-0.8,2-1.2
		c2.8-1.5,5.8-2.6,9-3.5c6.4-1.8,13.3-3.1,20.1-5c6.9-1.9,13.7-4.4,20-7.9c6.3-3.4,12.2-7.6,17.5-12.2c5.3-4.7,10.2-9.7,14.7-15.1
		c2.2-2.7,4.4-5.4,6.5-8.3c2-2.8,4-5.7,5.9-8.6l-0.4-0.3c-8.3,11.1-17.5,21.6-28.3,30.3c-5.4,4.3-11.2,8.2-17.4,11.3
		c-6.2,3.1-12.7,5.4-19.4,7.1c-6.7,1.7-13.6,2.8-20.3,4.6c-3.4,0.9-6.7,2.1-9.8,3.6c-3.1,1.6-6,3.6-8.8,5.7
		c-5.5,4.3-10.5,9.2-15.7,13.7c-5.2,4.5-10.9,8.6-17.1,11.6c-3.1,1.5-6.3,2.8-9.6,3.8c-3.3,1-6.7,1.7-10.1,2.3
		c-3.4,0.5-6.9,0.8-10.3,0.9l-2.6,0l-1.3,0l-1.3,0l-1.3,0l-1.3-0.1l-1.3-0.1l-1.3-0.2c-6.8-0.9-13.5-3.1-19.6-6.3
		c-6.2-3.1-11.9-7.1-17.1-11.6c-5.3-4.5-10.1-9.5-14.6-14.7c-4.5-5.3-8.7-10.8-12.6-16.5c-3.9-5.7-7.6-11.6-11-17.7
		c-3.4-6-6.6-12.2-9.4-18.5L309.3-5.8z"/>
	<path class="st2" d="M377.9-1.7c0,0,8.3,50.4,42.7,50.9c34.5,0.5,32.3-21.6,74-34c41.7-12.4,27.2-2.5,55.2-17.9l1.1,5.5
		c0,0-12.8,8.6-28.5,13.6c-15.8,5-26.3,6.3-42.3,11.1c-18.5,5.5-35.6,38.9-70.7,29.3s-50.8-39.2-58.3-61.4L377.9-1.7z"/>
</g>
<g>
	<g>
		<path class="st3" d="M572.8,76.3c-45.9,0-83.3-37.4-83.3-83.3c0-45.9,37.4-83.3,83.3-83.3S656.1-52.9,656.1-7
			C656.1,39,618.7,76.3,572.8,76.3z M572.8-52.8c-25.3,0-45.8,20.6-45.8,45.8c0,25.3,20.6,45.8,45.8,45.8S618.6,18.3,618.6-7
			C618.6-32.2,598.1-52.8,572.8-52.8z"/>
	</g>
	<g>
		<path class="st7" d="M620,34.3c-0.4,0.3-0.7,0.5-1,0.8c-0.1,0.1-0.1,0.2-0.1,0.3c0.1,0.8-0.2,1-1.1,0.7c0.1-0.1,0.1-0.2,0.2-0.3
			c0.1-0.1,0.2-0.2,0.3-0.4c-0.1-0.1-0.2-0.3-0.4-0.5c0.4-0.3,0.8-0.6,1.2-0.9C619.3,33.7,619.9,34,620,34.3z"/>
		<path class="st7" d="M650,19.3c-0.2,0.1-0.4,0.3-0.6,0.4c-0.2,0.1-0.4,0.1-0.5,0.1c-0.1,0.5-0.2,1-0.3,1.4
			c-0.1,0.1-0.4,0.2-0.6,0.2c-0.1-0.2-0.2-0.4-0.2-0.6c0-0.2,0.2-0.5,0.3-0.7c0.2-0.2,0.3-0.3,0.2-0.6c0-0.1,0.2-0.4,0.4-0.5
			c0.1-0.1,0.3,0.1,0.5,0.1c0.2,0.1,0.4,0.1,0.6,0.2C649.9,19.2,649.9,19.3,650,19.3z"/>
		<path class="st7" d="M616.1,56.8c0.2,0.7,0.3,1.5,0.9,1.9c-0.2,0.3-0.3,0.5-0.5,0.6c-0.2,0.2-0.5,0.2-0.7,0.3
			c-0.1-0.2-0.2-0.5-0.2-0.7c0-0.5,0.1-1,0.1-1.6c0-0.2,0.1-0.3,0.2-0.5C616,56.9,616.1,56.9,616.1,56.8z"/>
		<path class="st7" d="M497.6,6.9c-0.1,0.2-0.1,0.4-0.2,0.7c0.3-0.1,0.5-0.2,0.6-0.2c0.1,0,0.2,0.2,0.3,0.4
			c-0.6,0.1-1.1,0.1-1.6,0.2c0,0.2,0.1,0.4,0,0.6c0,0.1-0.2,0.3-0.3,0.3c-0.2,0-0.4-0.1-0.6-0.2c-0.1-0.1,0-0.3,0-0.4
			c0.1-0.3,0.3-0.5,0.5-0.8C496.7,6.9,497,6.8,497.6,6.9z"/>
		<path class="st7" d="M652.2,11.9c0.1,0.2,0.2,0.3,0.2,0.4c0.1,0.3-0.2,0.7-0.4,0.5c-0.3-0.3-0.6-0.7-0.8-1
			c0.2-0.1,0.3-0.3,0.5-0.3c0.2,0,0.4,0.1,0.6,0.1c0.1-0.4-0.3-1.1,0.5-1c0.2,0,0.4,0.3,0.4,0.4C653.2,11.5,652.9,11.8,652.2,11.9z"
			/>
		<path class="st7" d="M621.9,31.1c0,0.2,0,0.4,0,0.5c0,0.3-0.2,0.5-0.5,0.5c-0.3,0-0.5-0.1-0.4-0.5c0-0.1,0-0.3,0-0.4
			c0,0-0.1-0.1,0-0.1c0.1-0.2,0.2-0.4,0.3-0.6c0.5,0.4,1.1-0.6,1.6,0.1c0.1,0.3,0,0.5-0.3,0.6C622.3,31.2,622.2,31.1,621.9,31.1z"/>
		<path class="st7" d="M564.6,41.4c-0.4-0.1-0.7-0.1-1-0.2c0-0.1,0-0.1-0.1-0.2c0.6-0.3,0.5-0.8,0.5-1.3c0-0.2,0.1-0.5,0.2-0.6
			c0.1-0.1,0.4-0.2,0.5-0.2c0.1,0.2,0.2,0.4,0.2,0.6C564.8,40,564.7,40.6,564.6,41.4z"/>
		<path class="st7" d="M615,25.3c0.3-0.1,0.4-0.2,0.6-0.2c0.3,0,0.4,0.2,0.4,0.5c0,0.3-0.2,0.5-0.5,0.3c-0.3-0.2-0.3,0-0.4,0.2
			c-0.3,0.3-0.6,0.3-0.8-0.1c-0.1-0.2-0.2-0.4-0.2-0.6c0-0.2,0.1-0.4,0.1-0.6c0.2,0.1,0.4,0.1,0.5,0.2C614.9,25,614.9,25.1,615,25.3
			z"/>
		<path class="st7" d="M495.7,14.3c0.3,0.3,0.6,0.5,1,0.8c0.4-0.2,0.7-0.6,1.2-0.1c-0.1,0.1-0.2,0.3-0.2,0.3
			c-0.7-0.1-1.2,0.6-1.9,0.8c0-0.6-0.1-1.1-0.1-1.6C495.6,14.4,495.7,14.4,495.7,14.3z"/>
		<path class="st7" d="M623.5,2.3c0-0.3,0-0.7,0-1c0-0.1,0.2-0.3,0.3-0.3c0.1,0,0.4,0.1,0.4,0.2c0.1,0.3,0.3,0.4,0.5,0.4
			c0.4,0,0.6,0.3,0.5,0.6c-0.1,0.4-0.5,0.3-0.8,0.2c-0.3,0-0.5-0.2-0.8-0.3C623.6,2.2,623.6,2.2,623.5,2.3z"/>
		<path class="st7" d="M506.4,13c-0.2,0.4-0.5,0.6-0.9,0.6c-0.2,0-0.4,0.2-0.6,0.1c-0.2,0-0.5-0.1-0.6-0.2c-0.1-0.3-0.2-0.6,0.2-0.8
			C505.3,12.4,505.6,12.5,506.4,13z"/>
		<path class="st7" d="M508.8,41.2c0.5,0.4,0.6,0.7,0,0.9c-0.4,0.2-0.3,0.3-0.1,0.5c0.6,0.4,0.7,0.4,0.4,1.3
			c-0.4-0.3-0.8-0.5-1.3-0.9C508.2,42.5,508.4,41.9,508.8,41.2z"/>
		<path class="st7" d="M521.8,51.3c0.2,0.2,0.4,0.3,0.4,0.5c0,0.1-0.2,0.4-0.4,0.4c-0.3,0-0.3,0.1-0.4,0.4c0,0.1-0.3,0.3-0.5,0.3
			c-0.3,0-0.9,0-0.8-0.5c0-0.4,0.4-0.6,0.8-0.6C521.2,51.7,521.4,51.5,521.8,51.3z"/>
		<path class="st7" d="M615.7,30.2c0.3-0.1,0.5-0.2,0.7-0.3c0.1,0.2,0.1,0.5,0.2,0.7c-0.1,0-0.1,0.1-0.2,0.1
			c-0.2-0.1-0.4-0.1-0.5-0.2c-0.3,0.2-0.6,0.6-0.8,0.6c-0.6,0-0.5-0.6-0.7-1C615,29.6,615,29.6,615.7,30.2z"/>
		<path class="st7" d="M535.5,66c0.2,0.2,0.3,0.4,0.4,0.5c0.2-0.1,0.5-0.3,0.7-0.4c0.1,0,0.1,0.1,0.2,0.1c-0.1,0.6-0.3,1.1-0.4,1.9
			c-0.5-0.4-0.9-0.6-1-0.9C535.1,66.9,535.4,66.5,535.5,66z"/>
		<path class="st7" d="M613.1,34.4c0.3,0.3,0.5,0.5,0.7,0.8c-0.1,0.1-0.1,0.2-0.2,0.2c-0.2-0.1-0.4-0.2-0.6-0.3
			c-0.6-0.2-0.5-0.8-0.8-1.3c-0.1-0.1,0.1-0.4,0.2-0.5c0.1-0.1,0.4-0.1,0.5,0c0.1,0.1,0.2,0.3,0.3,0.5
			C613.3,34,613.2,34.2,613.1,34.4z"/>
		<path class="st7" d="M539.5,38.9c0.5-0.5,0.9-0.9,1.4-0.3c0.1,0.1,0.3,0,0.5,0.1c0.2,0.1,0.3,0.2,0.4,0.4c0.1,0.1,0,0.4-0.1,0.4
			c-0.2,0.1-0.5,0.1-0.6,0c-0.3-0.3-0.6-0.4-1-0.4C539.9,39.1,539.7,39,539.5,38.9z"/>
		<path class="st7" d="M643.8,31.2c-0.3,0.4-0.7,0.6-1,0.4c-0.3-0.2-0.4-0.7-0.6-1.1c0,0,0.4-0.3,0.5-0.3
			C643,30.4,643.6,30.5,643.8,31.2z"/>
		<path class="st7" d="M506.7-0.1c-0.1-0.1-0.1-0.2-0.2-0.2c-0.4-0.3-0.3-0.8-0.3-1.1c0.1-0.4,0.6-0.4,0.7-0.1
			c0.2,0.5,0.4,1,0.3,1.6c0,0.2-0.2,0.3-0.4,0.4c-0.1-0.1-0.2-0.3-0.4-0.4C506.6,0,506.6,0,506.7-0.1z"/>
		<path class="st7" d="M498.9,0.9c0,0.3,0.1,0.6,0.1,0.9c0,0.2-0.3,0.5-0.4,0.4c-0.2-0.1-0.5-0.2-0.6-0.4c-0.1-0.2-0.2-0.5-0.2-0.8
			c0-0.2,0.3-0.4,0.5-0.5c0.1-0.1,0.3-0.1,0.5,0c0.1,0,0.2,0.2,0.2,0.3C499,0.8,498.9,0.8,498.9,0.9z"/>
		<path class="st7" d="M625.9,32.2c0.3-0.3,0.5-0.4,0.8,0c0.2,0.3,0.6,0.4,0.9,0.7c0.1,0.1,0.2,0.4,0.2,0.6c-0.2,0-0.4,0-0.5,0
			c-0.3,0-0.7,0-0.9-0.2c-0.2-0.2-0.3-0.6-0.4-0.9C626,32.3,625.9,32.3,625.9,32.2z"/>
		<path class="st7" d="M652.6,14.9c-0.2,0.3-0.4,0.7-0.6,1c-0.3,0-0.7,0-1-0.1c-0.2,0-0.4-0.2-0.5-0.3c-0.1-0.1,0-0.4,0.1-0.5
			c0.1-0.1,0.4,0,0.6,0c0.1,0,0.2,0.2,0.3,0.2c0.3-0.2,0.7-0.4,1-0.6C652.5,14.8,652.6,14.9,652.6,14.9z"/>
		<path class="st7" d="M519,1.8c0.4,0.5,0.7,0.9,0.9,1.3c0.2,0.3,0,0.7-0.4,0.7c-0.2,0-0.3,0-0.5,0c-0.1,0-0.2,0.1-0.5,0.1
			c0.1-0.3,0.1-0.5,0.2-0.7c0.1-0.2,0.4-0.4,0-0.7C518.7,2.5,518.9,2.2,519,1.8z"/>
		<path class="st7" d="M524.3,40.7c-0.2,0.1-0.3,0.1-0.4,0.1c-0.6-0.1-1.1-0.1-1.6,0.2c-0.1,0-0.4-0.3-0.6-0.5
			c0.2-0.1,0.4-0.4,0.6-0.4C522.9,40,523.5,40.3,524.3,40.7z"/>
		<path class="st7" d="M577.6,52.5c-0.2,0-0.5,0-0.8,0c0-0.4,0-0.8-0.3-1.1c-0.1-0.1,0-0.5,0.1-0.7c0.1-0.1,0.5-0.2,0.6-0.1
			c0.1,0.1,0.3,0.5,0.2,0.6C577,51.7,577.7,52,577.6,52.5z"/>
		<path class="st7" d="M505.5,23.6c0.3,0,0.7-0.2,0.9,0.3c0.2,0.3-0.1,0.6-0.3,0.7c-0.4,0.1-0.7,0-0.7-0.3c-0.3-0.1-0.6-0.1-0.8-0.3
			c-0.1-0.1,0.1-0.4,0.1-0.6C505,23.4,505.2,23.5,505.5,23.6z"/>
		<path class="st7" d="M627,52.5c-0.1,0.2-0.1,0.3-0.1,0.4c-0.2,0.2-1.1,0.1-1.4-0.2c-0.2-0.2-0.2-0.7,0-1c0.2-0.2,0.4-0.2,0.6,0
			c0.1,0.3,0.3,0.4,0.6,0.4C626.8,52.2,626.9,52.4,627,52.5z"/>
		<path class="st7" d="M550.5,37.1c-0.1,0.2-0.2,0.3-0.3,0.7c-0.2-0.3-0.4-0.6-0.5-0.8c-0.3-0.2-0.6-0.3-0.7-0.6
			c-0.1-0.1,0.2-0.5,0.4-0.6c0.2-0.1,0.7-0.1,0.8,0.1c0.1,0.2,0,0.6,0,1C550.1,36.9,550.3,37,550.5,37.1z"/>
		<path class="st7" d="M590.6,41.3c-0.2-0.4,0-0.7,0.4-0.7c0.4,0,1.1,0.5,1.1,0.7c0,0.3-0.6,0.6-1.1,0.6
			C590.7,41.9,590.6,41.8,590.6,41.3z"/>
		<path class="st7" d="M616.8,47c0.2-0.1,0.3-0.2,0.3-0.2c0.5,0.1,1.1,0.2,1.6,0.4c0.3,0.1,0.4,0.5,0.2,0.8
			c-0.3,0.3-0.5,0.2-0.8-0.1c-0.2-0.2-0.3-0.5-0.7-0.3C617.3,47.5,617,47.2,616.8,47z"/>
		<path class="st7" d="M494.9,16.2c-0.4-0.1-0.7-0.1-1.1-0.2c-0.2-0.1-0.3-0.2-0.5-0.4c0.1-0.2,0.2-0.4,0.4-0.5
			C494.7,14.8,495.2,15.3,494.9,16.2z"/>
		<path class="st7" d="M601.1,31.8c0.1-0.4,0.1-0.6,0.2-0.6c-0.2-0.3-0.4-0.6-0.3-0.6c0.2-0.3,0.5-0.6,0.8-0.8
			c0.1-0.1,0.5,0.3,0.8,0.6c-0.4,0.1-0.5,0.2-0.7,0.2c-0.3,0.1-0.6,0.3-0.3,0.7c0.1,0.1,0.1,0.4,0.1,0.4
			C601.6,31.7,601.4,31.7,601.1,31.8z"/>
		<path class="st7" d="M609.8,54.1c0.4,0,0.8,0,1.2,0c0.2,0,0.4-0.1,0.6-0.3c0.1,0.1,0.3,0.2,0.6,0.4c-0.6,0.3-1.3,0.1-1.4,0.8
			C610.3,54.9,609.8,54.8,609.8,54.1z"/>
		<path class="st7" d="M613.3,44.4c-0.2-0.2-0.3-0.4-0.4-0.6c-0.3,0.1-0.5,0.3-0.8,0.4c-0.1,0-0.2-0.3-0.3-0.4
			c0.4-0.3,0.6-0.5,1-0.7c0.1-0.1,0.4-0.1,0.5-0.1c0.1,0,0.1,0.3,0.2,0.4C613.5,43.6,613.8,44,613.3,44.4z"/>
		<path class="st7" d="M606.9,42.6c-1-0.3-1-0.4-0.6-1.1c-0.1-0.1-0.3-0.3-0.2-0.4c0-0.2,0.2-0.3,0.3-0.4c0.1-0.1,0.4,0,0.4,0
			c0.1,0.1,0.1,0.3,0.1,0.5c0,0.1,0,0.2,0,0.4C606.9,41.8,606.9,42.1,606.9,42.6z"/>
		<path class="st7" d="M555.5,35.7c0.2,0.4,0.4,0.6,0.4,0.8c0.1,0.3,0.1,0.5,0,0.8c-0.1,0.2-0.3,0.4-0.4,0.4c-0.2,0-0.4-0.2-0.5-0.4
			c-0.1-0.4,0-0.7,0-1.1C555.1,36.1,555.3,36,555.5,35.7z"/>
		<path class="st7" d="M585.4,54.1c0.2-0.1,0.3-0.2,0.5-0.4c0.1,0.2,0.3,0.5,0.2,0.6c-0.1,0.2-0.3,0.2-0.5,0.4
			c0.1,0.1,0.2,0.3,0.5,0.5c-0.2,0.1-0.3,0.2-0.5,0.4c-0.1-0.2-0.2-0.2-0.3-0.4c-0.5-1.1-0.5-1.2,0-1.7
			C585.3,53.7,585.4,53.9,585.4,54.1z"/>
		<path class="st7" d="M599,48.2c0.3-0.2,0.5-0.4,0.6-0.4c0.4,0.1,0.8,0.2,1.2,0c0,0,0.3,0.3,0.3,0.4c0,0.3-0.3,0.5-0.6,0.4
			c-0.2-0.1-0.4,0-0.6,0C599.7,48.7,599.4,48.4,599,48.2z"/>
		<path class="st7" d="M537.3,53.8c-0.4-0.2-0.7-0.4-1-0.6c-0.1-0.1-0.1-0.3,0-0.4c0.1-0.1,0.3-0.2,0.4-0.2c0.2,0,0.5,0,0.7,0.1
			c0.2,0.1,0.4,0.4,0.6,0.5C537.7,53.4,537.5,53.6,537.3,53.8z"/>
		<path class="st7" d="M588.5,63c-0.2,0.2-0.5,0.4-0.8,0.5c0,0-0.1,0-0.1-0.1c0.1-0.3,0.2-0.6,0.3-0.9c-0.1-0.1-0.3-0.3-0.3-0.4
			c-0.1-0.2-0.1-0.4,0-0.7c0-0.1,0.2-0.2,0.3-0.1c0.2,0.1,0.4,0.3,0.5,0.5C588.4,62.2,588.4,62.5,588.5,63z"/>
		<path class="st7" d="M509.8,16.9c0.3-0.1,0.5-0.2,0.8-0.3c0.3,0,0.6,0.1,0.8,0.1c0.1,0,0.3,0.2,0.3,0.3c0,0.1-0.1,0.3-0.2,0.3
			c-0.4,0.1-0.8,0.2-1.2,0.1c-0.2,0-0.4-0.3-0.6-0.4C509.8,17.1,509.8,17,509.8,16.9z"/>
		<path class="st7" d="M640.8,10.3c-0.2,0.2-0.3,0.4-0.4,0.4c-0.2,0-0.4-0.1-0.5-0.2c-0.2-0.2-0.4-0.5-0.5-0.7
			c-0.1-0.2-0.1-0.4-0.1-0.5c0.2,0,0.5-0.1,0.6-0.1C640.2,9.5,640.5,9.9,640.8,10.3z"/>
		<path class="st7" d="M609.6,64.6c-0.3,0-0.5-0.1-0.8-0.1c-0.2,0-0.5,0-0.7-0.1c-0.2-0.1-0.4-0.3-0.4-0.4c0-0.3,0.3-0.4,0.5-0.2
			c0.1,0,0.2,0.1,0.3,0.1c0.3-0.2,0.2-1,0.8-0.4c-0.1,0.1-0.2,0.3-0.4,0.5c0.2,0.2,0.5,0.3,0.7,0.4
			C609.6,64.4,609.6,64.5,609.6,64.6z"/>
		<path class="st7" d="M594.8,54.4c-0.1,0.2-0.2,0.3-0.3,0.4c-0.1,0.2-0.3,0.3-0.5,0.5c-0.2,0.2-0.4,0.3-0.7,0.1
			c-0.3-0.3-0.2-0.5,0.1-0.7c0.2-0.2,0.4-0.4,0.6-0.5c0.1-0.1,0.3-0.2,0.4-0.1C594.6,54.1,594.7,54.3,594.8,54.4z"/>
		<path class="st7" d="M523.9,5c0.1-0.2,0.3-0.3,0.4-0.5c0.1,0.2,0.3,0.3,0.5,0.6c-0.6,0.3-1,0.5-1.5,0.7c-0.1,0-0.4-0.1-0.4-0.2
			c-0.1-0.2-0.1-0.5,0-0.7c0-0.1,0.3-0.1,0.4-0.1C523.5,4.8,523.7,5,523.9,5z"/>
		<path class="st7" d="M589,45.3c-0.3-0.3-0.6-0.6-0.8-0.9c-0.1-0.1-0.1-0.3,0-0.5c0.1-0.1,0.3-0.2,0.4-0.2c0.3,0.2,0.7,0.4,0.9,0.7
			C589.7,44.9,589.4,45.1,589,45.3z"/>
		<path class="st7" d="M517.8,29c0.1,0.1,0.2,0.2,0.2,0.3c0,0.2,0,0.4-0.1,0.5c-0.1,0.1-0.4,0.1-0.5,0c-0.1-0.1-0.2-0.3-0.2-0.5
			c0-0.2,0.3-0.4,0.1-0.7c-0.1-0.1,0-0.5,0.1-0.5c0.1-0.1,0.4,0,0.6,0.1c0.1,0.1,0,0.4,0,0.6C517.9,28.8,517.8,28.9,517.8,29z"/>
		<path class="st7" d="M509.2,30.3c-0.3-0.2-0.5-0.3-0.7-0.4c-0.1,0.2-0.1,0.4-0.2,0.6c-0.1-0.1-0.2-0.1-0.2-0.1
			c-0.1-0.2-0.2-0.5-0.2-0.8c-0.1-0.4,0.3-0.7,0.6-0.7c0.4-0.1,0.5,0.2,0.5,0.5C509,29.7,509.1,30,509.2,30.3z"/>
		<path class="st7" d="M509.3,38.8c-0.1,0.3-0.2,0.6-0.3,0.9c0,0-0.1,0-0.1,0c-0.1-0.4-0.2-0.7-0.7-0.8c-0.1,0-0.3-0.5-0.4-0.8
			c0-0.1,0.1-0.2,0.2-0.2c0.1,0,0.3,0.1,0.4,0.1C508.8,38.3,509.1,38.5,509.3,38.8z"/>
		<path class="st7" d="M612.2,31.8c-0.1,0.1-0.2,0.4-0.4,0.5c-0.5,0.1-0.5-0.4-0.6-0.7c-0.1-0.4,0-0.6,0.4-0.7
			C612,30.7,612.2,30.9,612.2,31.8z"/>
		<path class="st7" d="M519.5,37.8c0.2,0,0.3,0.1,0.6,0.1c-0.1,0.2-0.2,0.4-0.2,0.4c-0.3-0.1-0.5-0.2-0.9-0.4c0,0-0.2,0.1-0.4,0.3
			c0-0.3,0-0.5,0-0.7c0.1-0.2,0.2-0.4,0.3-0.6c0.2,0.1,0.4,0.3,0.6,0.4C519.6,37.4,519.5,37.6,519.5,37.8z"/>
		<path class="st7" d="M528,45.4c0.5,0.3,0.5,0.6,0.2,1c-0.2,0.3-0.3,0.6-0.8,0.4c-0.4-0.3-0.4-0.5-0.1-0.8c0.1-0.1,0.2-0.2,0.3-0.3
			C527.9,45.6,527.9,45.5,528,45.4z"/>
		<path class="st7" d="M494.4,11.9c0.1,0.1,0.2,0.3,0.3,0.5c-0.1,0-0.1,0-0.2,0c-0.1,0.2-0.3,0.5-0.4,0.7c-0.1,0.4-0.4,0.5-0.6,0.2
			c-0.2-0.2-0.2-0.5-0.2-0.7c0-0.1,0.2-0.3,0.4-0.4C493.9,12.1,494.1,12,494.4,11.9z"/>
		<path class="st7" d="M630.5,51.2c-0.1,0.1-0.3,0.4-0.5,0.4c-0.3,0.1-0.8-0.3-0.7-0.6c0.1-0.2,0.3-0.5,0.6-0.6
			C630.2,50.3,630.5,50.6,630.5,51.2z"/>
		<path class="st7" d="M506.9,16.8c-0.5,0.5-0.7,0.6-1,0.2c-0.4-0.4-0.5-0.9-0.2-1C506.5,15.6,506.4,16.5,506.9,16.8z"/>
		<path class="st7" d="M498.9,12.2c-0.1-0.6-0.2-1.1-0.3-1.6c0-0.1,0.2-0.3,0.3-0.2c0.2,0,0.4,0.1,0.5,0.3
			C499.6,10.9,499.4,11.8,498.9,12.2z"/>
		<path class="st7" d="M575.9,56.2c0.1,0.9-0.1,1.1-0.6,1.1c-0.4,0-0.6-0.1-0.6-0.5c0-0.4,0.2-0.6,0.5-0.6
			C575.4,56.1,575.6,56.2,575.9,56.2L575.9,56.2z"/>
		<path class="st7" d="M524,6.1c0,0.5,0.6,0.9,0,1.2c-0.3,0.2-0.7,0.2-0.9-0.2C522.9,6.7,523.1,6.5,524,6.1z"/>
		<path class="st7" d="M514.5,44.4c0,0-0.3,0-0.3-0.1c-0.1-0.2-0.1-0.5,0-0.6c0.1-0.2,0.3-0.3,0.5-0.4c0.2-0.1,0.4-0.2,0.5-0.2
			c0.1,0,0.3,0.3,0.3,0.4c0,0.1-0.2,0.3-0.3,0.4C514.9,44.1,514.7,44.2,514.5,44.4z"/>
		<path class="st7" d="M616.7,16.8c-0.1-0.1-0.3-0.1-0.3-0.2c0-0.1,0-0.3,0.1-0.4c0.2-0.2,0.4-0.4,0.5-0.5c0.2-0.2,0.4-0.3,0.7,0
			c0.2,0.3,0.2,0.5-0.1,0.7C617.3,16.5,617,16.6,616.7,16.8z"/>
		<path class="st7" d="M492.5,5.6c-0.2,0.1-0.4,0.2-0.6,0.2c-0.2,0-0.4-0.1-0.6-0.1c0.1-0.2,0.2-0.4,0.4-0.5
			c0.2-0.1,0.5-0.3,0.8-0.3c0.2,0,0.4,0.1,0.6,0.2c0.1,0,0.1,0.3,0,0.4c-0.1,0.1-0.3,0.2-0.5,0.2C492.6,5.8,492.5,5.7,492.5,5.6z"/>
		<path class="st7" d="M584.2,50.6c-0.5,0-0.9-0.1-0.9-0.6c0-0.4,0.2-0.5,0.5-0.4c0.4,0.1,0.8,0.1,0.8,0.6
			C584.6,50.3,584.3,50.5,584.2,50.6z"/>
		<path class="st7" d="M574.6,51c-0.3,0.3-0.6,0.7-0.7,0.7c-0.3-0.1-0.5-0.4-0.7-0.7c0-0.1,0.3-0.5,0.5-0.5
			C574,50.5,574.2,50.8,574.6,51z"/>
		<path class="st7" d="M562.9,54.1c0.4,0.5,0.2,1,0.1,1.4c0,0.1-0.5,0.2-0.6,0.2c-0.2-0.1-0.3-0.5-0.2-0.6
			C562.3,54.7,562.6,54.4,562.9,54.1z"/>
		<path class="st7" d="M547.8,69c-0.4,0.1-0.6,0.2-0.9,0.2c-0.2,0-0.4-0.2-0.4-0.3c0-0.3,0.1-0.6,0.2-0.7c0.1-0.1,0.5-0.1,0.7,0.1
			C547.5,68.4,547.6,68.7,547.8,69z"/>
		<path class="st7" d="M603.3,50.2c-0.3,0.1-0.5,0.4-0.8,0.4c-0.2,0-0.5-0.3-0.5-0.5c-0.1-0.4,0.2-0.7,0.6-0.6
			c0.3,0,0.5,0.3,0.8,0.5C603.3,50,603.3,50.1,603.3,50.2z"/>
		<path class="st7" d="M561,55.7c0,0-0.1,0.1-0.1,0.2c-0.1,0-0.3,0-0.4-0.1c-0.2-0.2-0.4-0.4-0.5-0.7c-0.1-0.2-0.1-0.4,0-0.6
			c0-0.1,0.3-0.2,0.4-0.1c0.2,0.1,0.3,0.3,0.4,0.5C560.8,55.1,560.9,55.3,561,55.7z"/>
		<path class="st7" d="M511.2,43.4c-0.4-0.3-0.8-0.6-1.1-0.8c0.1-0.2,0.3-0.4,0.4-0.5c0.2-0.1,1.1,0.5,1,0.7
			C511.5,43,511.4,43.2,511.2,43.4z"/>
		<path class="st7" d="M628.8,29.3c0,0.4,0,0.7-0.5,0.5c-0.2-0.1-0.4,0.1-0.7,0.1c-0.2,0-0.4-0.1-0.5-0.2c-0.1,0-0.1-0.3,0-0.4
			c0.1-0.1,0.3-0.2,0.5-0.2C627.9,29.1,628.3,29.2,628.8,29.3z"/>
		<path class="st7" d="M557.5,50.8c0.1,0,0.2-0.1,0.4-0.1c0.2,0.4,0.3,0.9,0.5,1.3c0,0-0.4,0.2-0.6,0.2c-0.4,0-0.5-0.3-0.4-0.7
			C557.4,51.3,557.4,51.1,557.5,50.8z"/>
		<path class="st7" d="M598.6,65.9c0.1,0,0.2,0,0.4,0c0,0.2,0,0.4,0,0.6c0.2,0.1,0.4,0.2,0.5,0.4c0.1,0.1,0,0.4-0.1,0.5
			c-0.1,0.1-0.4,0.2-0.5,0.1c-0.1-0.1-0.3-0.3-0.3-0.4C598.7,66.7,598.7,66.3,598.6,65.9z"/>
		<path class="st7" d="M518.4,24.4c0-0.2-0.1-0.5,0-0.6c0.2-0.3,0.4-0.5,0.7-0.6c0.1-0.1,0.4,0.2,0.6,0.4c0.1,0.1-0.1,0.4-0.3,0.5
			C519.2,24.2,518.9,24.3,518.4,24.4z"/>
		<path class="st7" d="M579,63.6c-0.6-0.7,0.9-0.8,0.1-1.4c0.2,0,0.3-0.1,0.3-0.1c0.3,0.2,0.7,0.3,0.8,0.5c0.1,0.4-0.3,0.6-0.7,0.6
			C579.3,63.3,579.1,63.5,579,63.6z"/>
		<path class="st7" d="M615.6,37.6c-0.7-0.2-0.6-0.7-0.6-1.1c0-0.2,0.2-0.4,0.3-0.6c0.2,0.2,0.6,0.3,0.6,0.5
			C615.9,36.9,615.7,37.3,615.6,37.6z"/>
		<path class="st7" d="M542.6,37.1c-0.3-0.1-0.6-0.2-0.8-0.4c-0.1-0.1-0.1-0.4-0.2-0.7c0.3-0.1,0.6-0.4,0.9-0.1
			C542.7,36.3,543.1,36.6,542.6,37.1z"/>
		<path class="st7" d="M597.3,68c-0.1,0.2-0.1,0.3-0.2,0.5c0,0.1-0.2,0.2-0.1,0.2c0.2,0.3,0,0.4-0.2,0.4c-0.2,0-0.4-0.1-0.5-0.2
			c-0.1-0.1-0.2-0.3-0.4-0.6c0.4-0.2,0.8-0.3,1.2-0.5C597.1,67.9,597.2,68,597.3,68z"/>
		<path class="st7" d="M518.7,30.5c-0.2-0.3-0.3-0.6,0-0.9c0.1-0.1,0-0.4,0.1-0.6c0.2,0.2,0.5,0.3,0.7,0.6c0.1,0.1,0.2,0.4,0.2,0.6
			c0,0.1-0.3,0.3-0.5,0.3C519,30.5,518.8,30.4,518.7,30.5L518.7,30.5z"/>
		<path class="st7" d="M631.2,32.1c-0.2-0.3-0.3-0.6-0.4-0.8c-0.5,0.2-0.8,0.1-0.8-0.3c0-0.1,0.1-0.3,0.1-0.4c0.1-0.1,0.3,0,0.4,0
			c0.3,0.2,0.6,0.4,0.8,0.6C631.6,31.5,631.6,31.7,631.2,32.1z"/>
		<path class="st7" d="M626,38.6c-0.2,0.1-0.4,0.2-0.6,0.3c-0.2,0.1-0.3,0.3-0.5,0.5c-0.1-0.1-0.3-0.2-0.4-0.4
			c0.2-0.2,0.4-0.3,0.4-0.5c0-0.4,0.2-0.6,0.6-0.5C626,38,625.9,38.4,626,38.6L626,38.6z"/>
		<path class="st7" d="M507.3,32.5c0.2-0.1,0.3-0.2,0.5-0.3c0.6-0.6,0.8-0.5,1.2,0.3C508.3,33,507.8,33,507.3,32.5L507.3,32.5z"/>
		<path class="st7" d="M591.2,35.5c-0.2-0.1-0.3-0.2-0.5-0.3c0.3-0.2,0.5-0.4,0.8-0.1c0.3,0.3,0.7,0.5,0.5,1
			c-0.1,0.1-0.2,0.3-0.3,0.3c-0.2,0-0.3-0.2-0.4-0.3C591.2,35.9,591.2,35.7,591.2,35.5z"/>
		<path class="st7" d="M632.3,18.6c0.2,0.1,0.3,0.2,0.4,0.3c0.4,0.1,0.5,0.4,0.3,0.7c-0.2,0.4-0.5,0.4-0.8,0.3
			c-0.1,0-0.2-0.3-0.2-0.5C632,19.1,632.2,18.9,632.3,18.6z"/>
		<path class="st7" d="M596.9,70.9c-0.2-0.4-0.5-0.5-0.4-0.7c0-0.3,0-0.8,0.5-0.7c0.2,0,0.4,0.3,0.7,0.4
			C597.4,70.2,597.2,70.5,596.9,70.9z"/>
		<path class="st7" d="M515.2,45.6c0.5,0,0.7,0,1,0c0-0.3,0-0.5,0-0.8c0.2,0.1,0.4,0.6,0.3,0.9c0,0.1-0.1,0.2-0.1,0.2
			c-0.1,0.4-0.4,0.6-0.7,0.5C515.5,46.3,515.4,46,515.2,45.6z"/>
		<path class="st7" d="M493.2-1.8c0.4,0.3,0.8,1.4,0.7,2C493.3,0,492.9-1.2,493.2-1.8z"/>
		<path class="st7" d="M578,58.7c0.1-0.2,0.2-0.3,0.2-0.3c0.5,0.1,1,0.1,1.5,0.2c0.1,0,0.3,0.4,0.3,0.5c-0.1,0.3-0.3,0.1-0.5,0.1
			C578.9,59.3,578.6,58.7,578,58.7z"/>
		<path class="st7" d="M515.7,31.5c-0.2,0.1-0.3,0.3-0.5,0.4c-0.2-0.2-0.4-0.3-0.7-0.6c0.3,0,0.5-0.1,0.7-0.1
			c0.2-0.1,0.4-0.2,0.6-0.2c0.2,0,0.5-0.1,0.5,0c0.1,0.1,0.1,0.4,0,0.6c-0.1,0.1-0.3,0.1-0.5,0.1C515.9,31.7,515.8,31.6,515.7,31.5z
			"/>
		<path class="st7" d="M529.3,12.1c0.1,0.4,0.2,0.8,0.3,1.2c-0.3-0.2-0.4-0.3-0.5-0.4c-0.1,0.1-0.3,0.2-0.5,0.4c0-0.4-0.1-0.8,0-1
			C528.6,11.9,529,11.9,529.3,12.1z"/>
		<path class="st7" d="M587.6,50.2c0.3,0.4,0.5,0.6,0.6,0.9c0.1,0.2,0,0.4,0,0.7c-0.2,0-0.5,0-0.6-0.1c-0.1-0.1-0.2-0.4-0.2-0.6
			C587.3,50.9,587.5,50.7,587.6,50.2z"/>
		<path class="st7" d="M526.8,2.5c-0.4,0.3-0.7,0.5-0.9,0.6c-0.4-0.2-0.7-0.4-0.9-0.6c-0.1-0.1-0.2-0.2-0.2-0.3
			c0-0.1,0.1-0.2,0.2-0.3c0.1,0,0.3,0,0.4,0.1c0.3,0.7,0.7,0.5,1.2,0.3C526.5,2.4,526.6,2.5,526.8,2.5z"/>
		<path class="st7" d="M591.6,69.8c-0.1,0.1-0.2,0.3-0.3,0.3c-0.2,0.1-0.4,0.1-0.6,0.1c-0.2,0-0.4-0.1-0.5-0.2
			c-0.1-0.2-0.1-0.5,0.1-0.6c0.1-0.1,0.4,0,0.6,0C591.1,69.5,591.3,69.6,591.6,69.8z"/>
		<path class="st7" d="M563.3,50.6c0.1,0.1,0.3,0.2,0.4,0.3c-0.1,0.1-0.1,0.2-0.1,0.2c-0.2,0.2-0.5,0.4-0.7,0.6
			c-0.1,0.1-0.4,0.2-0.5,0.1c-0.2-0.1-0.3-0.3-0.3-0.5c0-0.1,0.2-0.2,0.4-0.3c0.3-0.1,0.5-0.2,0.8-0.3
			C563.3,50.7,563.3,50.6,563.3,50.6z"/>
		<path class="st7" d="M651.5,6.1c-0.4,0.3-0.6,0.6-0.8,0.6c-0.2,0-0.6-0.4-0.5-0.5c0.1-0.3,0.3-0.5,0.6-0.7
			C650.9,5.5,651.2,5.9,651.5,6.1z"/>
		<path class="st7" d="M613.2,60.2c0.1,0,0.3-0.1,0.5-0.1c0.1,0,0.1,0.3,0.1,0.4c0.1,0.2,0.2,0.3,0.3,0.5c0.1,0.2,0.1,0.3,0.1,0.5
			c0,0.1-0.3,0.2-0.3,0.2c-0.2-0.1-0.4-0.2-0.4-0.4C613.3,61,613.3,60.7,613.2,60.2z"/>
		<path class="st7" d="M502.9,6.9c-0.2,0.4-0.4,0.7-0.7,1c-0.2,0.2-0.5-0.1-0.4-0.4c0.1-0.3,0.2-0.7,0.4-0.9
			c0.1-0.1,0.3-0.2,0.5-0.1C502.7,6.5,502.8,6.7,502.9,6.9z"/>
		<path class="st7" d="M538.3,27.1c-0.1-0.3-0.3-0.6-0.4-0.9c0-0.1,0.1-0.4,0.2-0.4c0.2-0.1,0.5-0.1,0.7,0c0.1,0,0.2,0.3,0.1,0.4
			c-0.1,0.3-0.3,0.6-0.4,0.9C538.4,27.1,538.4,27.1,538.3,27.1z"/>
		<path class="st7" d="M566.7,48.2c-0.3,0.2-0.5,0.4-0.7,0.5c-0.3,0-0.6-0.1-0.7-0.5c0-0.3,0.2-0.6,0.6-0.6
			C566.1,47.7,566.3,48,566.7,48.2z"/>
		<path class="st7" d="M539.6,34.4c-0.4,0-0.6,0.1-0.8,0c-0.2,0-0.3-0.1-0.5-0.2c-0.1-0.1-0.3-0.2-0.3-0.3c0-0.2,0.1-0.4,0.3-0.5
			c0.1-0.1,0.4,0,0.5,0.1C539,33.7,539.2,34,539.6,34.4z"/>
		<path class="st7" d="M609.8,67c-0.1,0.1-0.1,0.3-0.3,0.4c-0.2,0.1-0.4,0.3-0.6,0.4c-0.2,0.1-0.4,0.1-0.6,0.1
			c-0.1,0-0.2-0.3-0.2-0.4c0.2-0.1,0.3-0.2,0.5-0.2c0.3-0.1,0.7-0.2,1.1-0.3C609.8,66.9,609.8,66.9,609.8,67z"/>
		<path class="st7" d="M606.2,67.8c-0.3-0.2-0.5-0.4-0.7-0.6c0,0,0.1,0,0.1,0c0-0.3,0-0.6,0-0.9c0-0.1,0.2-0.3,0.3-0.4
			c0.1,0.1,0.3,0.2,0.3,0.4C606.3,66.7,606.2,67.1,606.2,67.8z"/>
		<path class="st7" d="M519.2,6.4c0.2,0.2,0.2,0.5,0.6,0.4c0.1,0,0.3,0.2,0.5,0.4c0,0.1-0.1,0.1-0.1,0.2c-0.2,0-0.5,0.1-0.7,0.1
			c-0.3,0.1-0.5,0.2-0.6-0.2C518.9,7,518.6,6.5,519.2,6.4L519.2,6.4z"/>
		<path class="st7" d="M640.3,28.6c0.5-0.1,0.8-0.8,1.2-0.3c0.2,0.2-0.1,0.8-0.1,1.1c-0.1,0-0.1,0-0.2,0c-0.1-0.2-0.2-0.3-0.4-0.5
			C640.7,28.8,640.5,28.7,640.3,28.6z"/>
		<path class="st7" d="M503.1,12.4c-0.1-0.5-0.7-0.9-0.3-1.6C503.9,11.2,503.9,11.2,503.1,12.4z"/>
		<path class="st7" d="M583.1,52.2c0.1,0.1,0.3,0.1,0.3,0.2c0,0.3-0.1,0.6-0.2,0.9c0,0.1-0.3,0.2-0.4,0.2c-0.2,0-0.4-0.1-0.5-0.2
			c-0.1-0.1,0-0.4,0.1-0.5C582.6,52.6,582.9,52.4,583.1,52.2z"/>
		<path class="st7" d="M644.9,0.5c-0.2-0.3-0.4-0.5-0.4-0.7c0-0.3,0-0.7,0.5-0.7c0.2,0,0.6,0.3,0.5,0.5
			C645.4-0.1,645.2,0.1,644.9,0.5z"/>
		<path class="st7" d="M617.4,39.5c0,0.6-0.3,0.9-0.7,1c-0.1,0.1-0.4-0.2-0.6-0.4c0.1-0.2,0.2-0.4,0.3-0.5
			C616.7,39.6,617,39.6,617.4,39.5z"/>
		<path class="st7" d="M601.1,33.9c0.2-0.5,0.3-0.9,0.5-1.2c0.2-0.3,0.6-0.2,0.6,0.1C602.4,33.3,601.9,33.8,601.1,33.9z"/>
		<path class="st7" d="M640.6,13c-0.2,0.1-0.4,0.4-0.7,0.4c-0.3,0-0.6-0.2-0.5-0.6c0.1-0.2,0.4-0.6,0.6-0.6
			C640.3,12.2,640.6,12.4,640.6,13z"/>
		<path class="st7" d="M523.8,26.3c0.2,0.3,0.4,0.5,0.6,0.8c0,0.1-0.3,0.4-0.5,0.4c-0.3,0.1-0.6-0.1-0.6-0.5c0-0.2,0.2-0.5,0.3-0.7
			C523.7,26.3,523.7,26.3,523.8,26.3z"/>
		<path class="st7" d="M531.4,15.3c0.4-0.2,1.3,0.1,1.3,0.4c0,0.2-0.1,0.4-0.2,0.5c-0.1,0.1-0.4,0-0.5-0.1
			C531.8,15.9,531.6,15.6,531.4,15.3z"/>
		<path class="st7" d="M507,3.4c0.4,0,0.7,0,1,0c0.2,0,0.5,0.3,0.4,0.3c0,0.2-0.2,0.5-0.4,0.5c-0.3,0-0.6-0.2-0.9-0.3
			C507.1,3.9,507.1,3.6,507,3.4z"/>
		<path class="st7" d="M512.3,39.1c-0.1-0.1-0.1-0.3-0.2-0.4c0.1-0.1,0.1-0.1,0.2-0.1c0.3-0.1,0.5-0.1,0.8-0.1c0.2,0,0.4,0,0.6,0.1
			c0.1,0,0.1,0.4,0,0.4c-0.2,0.1-0.4,0.1-0.6,0.1C512.9,39,512.6,39,512.3,39.1z"/>
		<path class="st7" d="M601.3,52.8c-0.4-0.2-1,0.5-1.4-0.2c0.2-0.7,0.8-0.4,1.2-0.5c0.1,0,0.2,0.4,0.3,0.5
			C601.4,52.8,601.4,52.8,601.3,52.8z"/>
		<path class="st7" d="M525.5,42.2c-0.4,0.4-1,0.4-1.2,0c-0.1-0.2,0-0.4-0.1-0.6c0.2,0,0.5,0,0.7,0
			C525.1,41.7,525.3,41.9,525.5,42.2z"/>
		<path class="st7" d="M626.7,29.7c0.1,0.3,0.4,0.5,0.4,0.8c0,0.1-0.2,0.3-0.4,0.5c-0.2-0.2-0.5-0.4-0.7-0.7
			c-0.1-0.1,0.3-0.4,0.4-0.6C626.5,29.7,626.6,29.7,626.7,29.7z"/>
		<path class="st7" d="M640.2,7c-0.6,0.2-0.6,0.2-0.8-0.4c0.3,0,0.5,0,0.9,0c0.1,0,0.1-0.8,0.6-0.3c0.1,0.1,0.1,0.4,0.1,0.6
			C640.7,6.9,640.5,7,640.2,7z"/>
		<path class="st7" d="M503.3,33.1c-0.2-0.5-0.4-0.9-0.6-1.3c0,0,0.3-0.3,0.5-0.3c0.3,0,0.5,0.2,0.5,0.5
			C503.7,32.3,503.5,32.6,503.3,33.1z"/>
		<path class="st7" d="M515.9,1.2c0.1-0.4,0.1-0.8,0.2-1.2c0-0.1,0.2-0.1,0.3-0.2c0.4,0.3,0.5,0.6,0.2,1
			C516.5,1,516.5,1.6,515.9,1.2z"/>
		<path class="st7" d="M500.6,34.9c0.5,0.1,0.8,0.1,1.1,0.2c0.4,0.3,0.2,0.8,0.2,1.1c-0.1,0-0.1,0.1-0.2,0.1
			C501.4,36,501,35.5,500.6,34.9z"/>
		<path class="st7" d="M576.5,61.6c-0.1-0.4-0.7-0.5-0.6-1.1c0-0.3,0.1-0.5,0.4-0.5c0.2,0,0.4,0.3,0.4,0.4
			C576.7,60.8,576.6,61.2,576.5,61.6L576.5,61.6z"/>
		<path class="st7" d="M622.6,3.5c-0.2-0.3-0.5-0.5-0.5-0.7c0-0.4,0.3-0.6,0.7-0.6c0.3,0,0.5,0.2,0.4,0.5
			C623.1,2.9,622.9,3.1,622.6,3.5z"/>
		<path class="st7" d="M595.6,57.5c0.2,0.4,0.5,0.8,0.7,1.2c-0.1,0.1-0.3,0.2-0.5,0.2c0,0-0.2-0.3-0.3-0.4c-0.1-0.1-0.1-0.2-0.2-0.3
			C594.9,57.9,595,57.8,595.6,57.5z"/>
		<path class="st7" d="M649.1,5.8c-0.2,0.3-0.3,0.4-0.5,0.5c-0.2,0.1-0.4,0.2-0.6,0.2c-0.2,0-0.3,0-0.5-0.1c0.1-0.2,0.1-0.4,0.3-0.6
			c0.2-0.1,0.4-0.2,0.6-0.3C648.6,5.6,648.8,5.7,649.1,5.8z"/>
		<path class="st7" d="M569.8,47.1c-0.5-0.1-0.8-0.2-0.5-0.8c0.1-0.1,0-0.3,0-0.6c0.1-0.1,0.4-0.2,0.7-0.3
			C569.9,46,569.8,46.5,569.8,47.1z"/>
		<path class="st7" d="M502.4,23.2c-0.1-0.5-0.2-0.9-0.2-1.2c0-0.1,0.2-0.3,0.4-0.4c0.1-0.1,0.4,0,0.4,0.1c0.1,0.1,0.1,0.4,0.1,0.5
			C503,22.6,502.7,22.8,502.4,23.2z"/>
		<path class="st7" d="M535.3,55.9c0.3-0.1,0.6-0.3,0.8-0.3c0.2,0,0.4,0.2,0.6,0.3c0.1,0.1,0,0.4-0.2,0.5c-0.2,0.1-0.4,0.1-0.6,0
			C535.7,56.3,535.6,56.1,535.3,55.9z"/>
		<path class="st7" d="M641.1,5.8c0.1-0.1,0.3-0.4,0.4-0.4c0.4,0,0.6,0.3,0.7,0.7c0.1,0.3-0.1,0.4-0.4,0.4
			C641.3,6.5,641.1,6.3,641.1,5.8z"/>
		<path class="st7" d="M610.4,43.9c-0.1-0.1-0.2-0.2-0.2-0.4c0-0.2,0-0.5,0.2-0.6c0.1-0.1,0.5-0.1,0.6,0c0.1,0,0,0.4,0,0.6
			c0,0.1-0.1,0.2-0.1,0.3C610.8,44.4,610.6,44.1,610.4,43.9L610.4,43.9z"/>
		<path class="st7" d="M635.9,2.8c0.2-0.2,0.4-0.4,0.6-0.5c0.2-0.1,0.4,0,0.6,0c0.1,0,0.1,0.3,0.1,0.4c-0.1,0.2-0.3,0.4-0.4,0.4
			c-0.3,0-0.6-0.1-0.9-0.1C635.9,2.9,635.9,2.9,635.9,2.8z"/>
		<path class="st7" d="M546.7,67.1c-0.2-0.2-0.5-0.3-0.6-0.5c-0.1-0.1-0.1-0.4-0.1-0.6c0.2,0,0.5-0.1,0.6-0.1
			C546.9,66.1,546.9,66.7,546.7,67.1z"/>
		<path class="st7" d="M629.4,43.5c-0.6,0-0.9-0.4-0.9-0.9c0-0.2,0.2-0.3,0.3-0.5c0.2,0.1,0.4,0.2,0.4,0.4
			C629.4,42.9,629.3,43.2,629.4,43.5z"/>
		<path class="st7" d="M498.7,20.3c0.2,0.2,0.4,0.3,0.5,0.5c0.1,0.2,0.1,0.5,0,0.6c0,0.1-0.4,0.1-0.6,0
			C498.2,21.1,498.2,20.6,498.7,20.3z"/>
		<path class="st7" d="M624.9,8.1c0.3,0.1,0.6,0.2,0.8,0.4c0.2,0.2,0.2,0.4,0.2,0.7c0,0.1-0.3,0.3-0.4,0.2c-0.2-0.1-0.4-0.3-0.4-0.4
			C625,8.8,625,8.5,624.9,8.1z"/>
		<path class="st7" d="M621.9,55.4c-0.2,0.1-0.4,0.3-0.6,0.4c-0.4,0-0.6-0.3-0.5-0.7c0-0.2,0.3-0.5,0.4-0.5c0.3,0.1,0.6,0.3,0.8,0.5
			C622,55.3,621.9,55.3,621.9,55.4z"/>
		<path class="st7" d="M648.6,18.6c-0.2-0.1-0.5-0.2-0.6-0.4c-0.1-0.1-0.2-0.4-0.2-0.5c0-0.1,0.2-0.3,0.3-0.3c0.2,0,0.4,0.2,0.5,0.3
			C648.8,18,648.8,18.3,648.6,18.6z"/>
		<path class="st7" d="M633,30.3c-0.1,0.2-0.2,0.4-0.3,0.6c-0.2,0.2-0.4,0.3-0.6,0.5c-0.1-0.1-0.3-0.3-0.6-0.5
			c0.5-0.3,1-0.5,1.4-0.7C632.9,30.2,632.9,30.2,633,30.3z"/>
		<path class="st7" d="M511.8,37.2c-0.1-0.1-0.2-0.3-0.1-0.4c0.2-0.3,0.2-0.5,0-0.8c0-0.1,0.1-0.4,0.2-0.4c0.2-0.1,0.4-0.1,0.6,0
			c0.1,0,0.2,0.3,0.1,0.4C512.3,36.4,512.1,36.8,511.8,37.2z"/>
		<path class="st7" d="M494.9,19.2c0.3-0.1,0.6-0.2,1-0.2c0,0,0.2,0.4,0.2,0.5c-0.1,0.2-0.3,0.4-0.5,0.4
			C495.1,20,494.9,19.8,494.9,19.2z"/>
		<path class="st7" d="M595.7,65.4c-0.2-0.4-0.3-0.7-0.5-1.1c0.2-0.1,0.3-0.2,0.5-0.3c0.3,0.4,0.1,1.2,1,0.9c0,0.1,0,0.1,0,0.2
			C596.3,65.3,596,65.3,595.7,65.4z"/>
		<path class="st7" d="M643.1,24.1c0.1,0.3,0.2,0.5,0.2,0.8c0,0.2-0.1,0.4-0.2,0.6c-0.2-0.1-0.3-0.2-0.4-0.3
			c-0.1-0.1-0.1-0.3-0.2-0.5C642.4,24.2,642.6,24,643.1,24.1z"/>
		<path class="st7" d="M519.5,13.7c-0.2,0.2-0.3,0.4-0.5,0.5c-0.1,0.1-0.3,0.2-0.5,0.2c-0.1,0-0.3-0.2-0.3-0.2
			c0-0.2,0.1-0.3,0.2-0.5c0.1-0.1,0.2-0.1,0.2-0.2C519.2,13,519.2,13,519.5,13.7z"/>
		<path class="st7" d="M557.7,55.8c0,0.1-0.1,0.1-0.1,0.1c-0.2,0-0.4,0-0.5,0c-0.2-0.4-0.4-0.8-0.5-1.2c0.2-0.1,0.4-0.2,0.6-0.1
			c0.1,0,0.3,0.3,0.2,0.4C557.2,55.4,557.6,55.6,557.7,55.8z"/>
		<path class="st7" d="M630.6,29.2c0.2-0.2,0.4-0.5,0.6-0.6c0.2-0.1,0.5-0.1,0.6,0c0.1,0.1,0.1,0.4,0.2,0.6c-0.2,0-0.4,0.1-0.6,0.1
			C631.2,29.3,630.9,29.3,630.6,29.2z"/>
		<path class="st7" d="M590.1,67.4c0.2,0.1,0.3,0.2,0.6,0.3c-0.2,0.3-0.3,0.7-0.6,0.9c-0.3,0.2-0.6-0.2-0.5-0.6
			C589.8,67.8,589.9,67.6,590.1,67.4z"/>
		<path class="st7" d="M509.6,10.7c-0.8,0.6-1.2-0.3-1.7-0.1c0,0,0-0.1,0-0.1c0.1-0.1,0.2-0.3,0.4-0.4
			C508.6,10.2,509,10.4,509.6,10.7z"/>
		<path class="st7" d="M520.9,47.2c0.4,0.1,0.8,0.1,1,0.3c0.1,0.2,0,0.6-0.1,0.9C521.1,48.2,521,47.8,520.9,47.2z"/>
		<path class="st7" d="M570.9,70.2c-0.1,0.3-0.2,0.6,0.2,0.8c0.1,0,0,0.4,0.1,0.6c-0.3,0-0.5,0-0.8,0c0-0.2,0-0.4,0.1-0.5
			c0.2-0.2,0.3-0.3,0.1-0.6c0,0,0.1-0.2,0.2-0.3C570.8,70.2,570.9,70.2,570.9,70.2z"/>
		<path class="st7" d="M496.8,24.4c-0.1-0.2-0.2-0.3-0.2-0.4c0-0.3,0.6-0.9,0.9-0.8c0.1,0,0.4,0.4,0.3,0.4
			C497.5,23.8,497.2,24.1,496.8,24.4z"/>
		<path class="st7" d="M521.9,18.8c0.4,0.6,0.5,1.1,0.2,1.2c-0.1,0.1-0.4-0.1-0.5-0.2C521.1,19.3,521.2,19.1,521.9,18.8z"/>
		<path class="st7" d="M619,9.6c0,0.3,0.1,0.5,0,0.7c-0.1,0.2-0.4,0.3-0.6,0.4c-0.1,0-0.4-0.2-0.4-0.3c0-0.2,0.1-0.4,0.3-0.6
			C618.5,9.7,618.7,9.7,619,9.6z"/>
		<path class="st7" d="M536.4,49.6c-0.2-0.3-0.3-0.6-0.5-0.9c0.5,0.1,1.2-0.3,1.2,0.5C537.2,49.7,536.7,49.6,536.4,49.6z"/>
		<path class="st7" d="M519.5,45.2c-0.3,0.4-0.3,1-0.8,0.9c-0.2,0-0.4-0.4-0.4-0.6C518.4,45,518.9,45.3,519.5,45.2z"/>
		<path class="st7" d="M624.2,31.9c-0.7-0.6-0.7-0.6-0.7-1.2C624.4,30.5,624.5,30.7,624.2,31.9z"/>
		<path class="st7" d="M518.7,30.4c0,0.2,0,0.3,0,0.5c0.1,0.3-0.1,0.6-0.4,0.5c-0.2-0.1-0.4-0.4-0.6-0.6c0-0.1,0.2-0.4,0.4-0.4
			C518.3,30.3,518.5,30.4,518.7,30.4L518.7,30.4z"/>
		<path class="st7" d="M536.2,61.8c0.4-0.3,0.6-0.5,0.8-0.6c0.1,0,0.4,0.3,0.3,0.5c-0.1,0.2-0.3,0.5-0.5,0.6
			C536.8,62.3,536.5,62,536.2,61.8z"/>
		<path class="st7" d="M579.7,72.1c-0.2,0.1-0.5,0.3-0.7,0.3c-0.4,0-0.4-0.3-0.4-0.6c0-0.2,0.3-0.4,0.4-0.4c0.3,0.1,0.5,0.3,0.7,0.5
			C579.7,71.9,579.7,72,579.7,72.1z"/>
		<path class="st7" d="M539.4,46.3c-0.2-0.4-0.4-0.7-0.4-1c-0.1-0.3,0.2-0.5,0.5-0.4c0.2,0,0.4,0.2,0.6,0.3
			C539.8,45.6,539.6,45.9,539.4,46.3z"/>
		<path class="st7" d="M531.6,41.7c0.3,0.3,0.5,0.5,0.6,0.7c-0.2,0.2-0.4,0.4-0.7,0.6c-0.1,0-0.4-0.2-0.4-0.2
			C531.3,42.4,531.4,42.2,531.6,41.7z"/>
		<path class="st7" d="M571.2,60.5c0.2-0.2,0.4-0.3,0.6-0.5c0.1-0.2,0.2-0.4,0.4-0.6c0.4,0.4,0.4,0.7,0.1,1.1
			C571.9,60.8,571.5,60.7,571.2,60.5z"/>
		<path class="st7" d="M612,50.9c0.2,0,0.5-0.2,0.7-0.1c0.1,0.1,0.2,0.4,0.3,0.6c0.1,0.2,0.1,0.4,0,0.7c-0.3-0.3-0.7-0.7-1-1
			C612,51,612,51,612,50.9z"/>
		<path class="st7" d="M576.6,58.8C576.6,58.8,576.7,58.7,576.6,58.8c0.4,0,0.9,0,0.8,0.5c0,0.2-0.3,0.4-0.5,0.5
			C576.7,59.8,576.5,59.2,576.6,58.8z"/>
		<path class="st7" d="M514.4,3.7c-0.4,0-0.7,0.7-1.1,0.1c-0.1-0.1,0-0.6,0.2-0.6C514,2.9,514.2,3.3,514.4,3.7z"/>
		<path class="st7" d="M548.3,32.9c-0.2,0.2-0.4,0.5-0.6,0.6c-0.1,0.1-0.4,0-0.6-0.1c-0.1-0.1-0.2-0.3-0.1-0.4
			c0.1-0.1,0.3-0.3,0.5-0.3C547.8,32.7,548,32.8,548.3,32.9z"/>
		<path class="st7" d="M652.2,1.2c0.2-0.2,0.4-0.5,0.6-0.5c0.3,0.1,0.5,0.4,0.8,0.6C653,1.5,652.6,1.7,652.2,1.2z"/>
		<path class="st7" d="M550.5,66.1c0.2,0.2,0.4,0.5,0.5,0.7c0,0.1-0.2,0.4-0.3,0.4c-0.2,0-0.6-0.1-0.6-0.2c0-0.3,0.1-0.5,0.2-0.8
			C550.4,66.1,550.4,66.1,550.5,66.1z"/>
		<path class="st7" d="M511.1,2.8c0-0.5-0.4-1,0.2-1.3c0.1-0.1,0.5,0.1,0.6,0.2C512.1,2.4,511.5,2.5,511.1,2.8z"/>
		<path class="st7" d="M633.7,44.3c0.2,0.2,0.4,0.5,0.5,0.7c0,0.1-0.2,0.3-0.4,0.4c-0.4,0.1-0.6-0.2-0.6-0.5c0-0.2,0.1-0.4,0.2-0.5
			C633.6,44.4,633.6,44.4,633.7,44.3z"/>
		<path class="st7" d="M560.1,60.7c0.5-0.2,0.8,0.1,1.1,0.4c0.1,0.1,0.1,0.3,0,0.4c-0.1,0.1-0.3,0.1-0.4,0.1
			C560.5,61.4,560,61.3,560.1,60.7z"/>
		<path class="st7" d="M621.5,34.8c-0.2,0.2-0.4,0.4-0.6,0.6c-0.1,0.1-0.4,0-0.6,0c0-0.2,0-0.5,0.1-0.6c0.3-0.2,0.6-0.2,1-0.3
			C621.4,34.6,621.4,34.7,621.5,34.8z"/>
		<path class="st7" d="M557.2,60c0.1,0.2,0.4,0.4,0.4,0.6c-0.1,0.2-0.3,0.4-0.5,0.6c-0.1-0.2-0.4-0.3-0.4-0.5c0-0.2,0.2-0.4,0.3-0.6
			C557.1,60,557.2,60,557.2,60z"/>
		<path class="st7" d="M544,33.4c0-0.1,0-0.2-0.1-0.4c0.2,0,0.4,0,0.6,0.1c0,0.1,0,0.2,0,0.3c-0.1,0.2-0.2,0.5-0.4,0.6
			c-0.1,0.1-0.4,0.1-0.6,0.1c-0.1,0-0.2-0.3-0.2-0.3c0.1-0.1,0.3-0.2,0.4-0.3C543.9,33.4,543.9,33.4,544,33.4z"/>
		<path class="st7" d="M530.7,40.3c0,0.1,0,0.3,0,0.4c-0.1,0.2-0.3,0.4-0.5,0.4c-0.1,0-0.3-0.3-0.4-0.5c-0.1-0.1,0-0.3,0-0.6
			C530.2,40.2,530.5,40.3,530.7,40.3L530.7,40.3z"/>
		<path class="st7" d="M531.5,40.7c-0.4,0.1-0.6,0-0.8-0.3l0,0c0-0.3,0.1-0.6,0.1-0.8c0.5-0.1,0.8,0.2,0.7,0.8
			C531.6,40.4,531.5,40.6,531.5,40.7C531.5,40.7,531.5,40.7,531.5,40.7z"/>
		<path class="st7" d="M565.9,66.5c0.3,0.3,0.5,0.5,0.8,0.7c-0.1,0.1-0.4,0.4-0.4,0.3c-0.3-0.2-0.5-0.4-0.7-0.7
			C565.6,66.8,565.7,66.7,565.9,66.5z"/>
		<path class="st7" d="M587.4,66.6c0.3-0.1,0.5-0.3,0.8-0.3c0.2,0,0.4,0.1,0.5,0.2c0.1,0.1,0.1,0.3,0,0.4c-0.1,0.1-0.3,0.2-0.5,0.2
			c-0.3,0-0.6-0.1-0.9-0.2C587.3,66.7,587.3,66.7,587.4,66.6z"/>
		<path class="st7" d="M542.8,66.8c-0.3,0.2-0.5,0.5-0.6,0.5c-0.2-0.1-0.3-0.3-0.5-0.5c0.2-0.2,0.4-0.4,0.6-0.4
			C542.3,66.3,542.5,66.5,542.8,66.8z"/>
		<path class="st7" d="M527,37.6c0.2,0.3,0.5,0.6,0.4,0.7c-0.1,0.2-0.4,0.4-0.6,0.5c-0.1-0.2-0.4-0.3-0.3-0.5
			C526.5,38.1,526.8,37.9,527,37.6z"/>
		<path class="st7" d="M567.8,64.8c0.3-0.2,0.5-0.5,0.8-0.7c0.2,0.3,0.5,0.7,0.2,1C568.5,65.4,568.1,65.2,567.8,64.8z"/>
		<path class="st7" d="M546.3,63.3c0.5,0.2,1,0.3,0.8,0.8c0,0.1-0.3,0.3-0.4,0.3C546,64.3,546.5,63.8,546.3,63.3z"/>
		<path class="st7" d="M507.9,6.4c-0.3,0.2-0.5,0.4-0.7,0.4c-0.2,0-0.4-0.2-0.6-0.3c0.1-0.2,0.3-0.5,0.5-0.5
			C507.3,5.9,507.5,6.1,507.9,6.4z"/>
		<path class="st7" d="M583.2,56.4c-0.1-0.2-0.3-0.4-0.3-0.5c0-0.2,0.1-0.4,0.1-0.7c0,0,0.3,0,0.4,0c0.1,0.2,0.2,0.4,0.2,0.6
			c0,0.2-0.1,0.3-0.2,0.5C583.4,56.4,583.3,56.4,583.2,56.4z"/>
		<path class="st7" d="M496.8,0.2c0-0.5,0.3-0.8,0.7-0.7c0.3,0.1,0.6,0.4,0.4,0.7C497.5,0.8,497.2,0.2,496.8,0.2z"/>
		<path class="st7" d="M638.2,42.8c0.2,0.3,0.5,0.5,0.5,0.6c-0.1,0.2-0.3,0.4-0.5,0.6c-0.2-0.2-0.4-0.3-0.4-0.5
			C637.8,43.4,638,43.2,638.2,42.8z"/>
		<path class="st7" d="M610.9,50.7c-0.3,0.2-0.5,0.4-0.7,0.4c-0.1,0-0.4-0.4-0.4-0.4c0.1-0.2,0.3-0.4,0.6-0.5
			C610.4,50.2,610.6,50.5,610.9,50.7z"/>
		<path class="st7" d="M524.7,50.5c-0.3,0.3-0.5,0.6-0.7,0.5c-0.2,0-0.4-0.3-0.6-0.5c0.2-0.2,0.4-0.4,0.6-0.4
			C524.2,50.1,524.4,50.3,524.7,50.5z"/>
		<path class="st7" d="M547.1,62c0.3,0,0.4,0.1,0.6,0.1c0.3,0,0.5,0.1,0.5,0.3c0,0.2-0.3,0.4-0.4,0.6c-0.2-0.1-0.4-0.3-0.5-0.4
			C547.2,62.4,547.1,62.2,547.1,62z"/>
		<path class="st7" d="M636.7,1.3c-0.3,0.2-0.5,0.4-0.7,0.4c-0.2,0-0.3-0.3-0.5-0.5c0.2-0.1,0.4-0.4,0.6-0.4
			C636.2,0.8,636.4,1.1,636.7,1.3z"/>
		<path class="st7" d="M548.1,70.7c0.2,0.3,0.4,0.5,0.5,0.7c0,0.1-0.2,0.3-0.3,0.5c-0.2-0.2-0.5-0.3-0.6-0.5
			C547.7,71.2,547.9,71,548.1,70.7z"/>
		<path class="st7" d="M529.3,16.3c-0.1-0.5-0.2-0.9,0.3-1.1c0.1-0.1,0.5,0.1,0.6,0.2C530.2,15.9,529.7,16,529.3,16.3z"/>
		<path class="st7" d="M530.2,13.9c-0.1,0.3-0.2,0.6-0.3,0.6c-0.3,0-0.7-0.1-1-0.1c0,0-0.1-0.2-0.1-0.3c0-0.1,0.2-0.2,0.3-0.2
			C529.5,13.9,529.7,13.9,530.2,13.9z"/>
		<path class="st7" d="M640.8,31.5c-0.4-0.3-0.7-0.6-0.4-1c0.3-0.3,0.6-0.1,0.8,0.1C641.5,31.1,641,31.2,640.8,31.5z"/>
		<path class="st7" d="M520.4,41.7c-0.4,0.2-0.6,0.4-0.8,0.5c-0.1,0-0.4-0.3-0.4-0.4c0.1-0.2,0.3-0.4,0.5-0.5
			C519.9,41.3,520.1,41.5,520.4,41.7z"/>
		<path class="st7" d="M517.1,35.9c-0.3,0.2-0.6,0.5-0.8,0.5c-0.2,0-0.3-0.3-0.5-0.5c0.2-0.1,0.4-0.4,0.6-0.4
			C516.5,35.4,516.7,35.7,517.1,35.9z"/>
		<path class="st7" d="M499.4,4.5c0.2,0.1,0.5,0.2,0.7,0.3c0.2,0,0.5,0,0.7,0c-0.2,0.7-0.4,0.3-0.6,0.3c-0.2,0.1-0.5,0.3-0.6,0.2
			c-0.2-0.2-0.3-0.5-0.4-0.8C499.3,4.5,499.4,4.5,499.4,4.5z"/>
		<path class="st7" d="M621.6,20c0.3,0.1,0.5,0.2,0.8,0.4c0.1,0,0,0.4-0.1,0.4c-0.2,0.1-0.5,0.2-0.6,0.1c-0.2-0.2-0.2-0.5-0.4-0.7
			C621.5,20.2,621.6,20.1,621.6,20z"/>
		<path class="st7" d="M580.2,53.9c-0.4,0.1-0.6,0.2-0.7,0.2c-0.2-0.1-0.5-0.2-0.6-0.4c-0.1-0.1,0.1-0.3,0.2-0.5
			c0.2,0.1,0.4,0.2,0.5,0.3C579.8,53.6,579.9,53.8,580.2,53.9z"/>
		<path class="st7" d="M606.9,55.2c-0.1-0.3-0.2-0.6-0.3-0.9c0.2-0.1,0.4-0.3,0.6-0.3c0.1,0,0.4,0.4,0.4,0.4
			C607.4,54.8,607.1,55,606.9,55.2z"/>
		<path class="st7" d="M520.3,48.6c-0.4,0.2-0.6,0.4-0.9,0.4c-0.1,0-0.3-0.3-0.4-0.4c0.2-0.2,0.4-0.4,0.6-0.4
			C519.7,48.1,519.9,48.3,520.3,48.6z"/>
		<path class="st7" d="M625.1,48.8c-0.3,0.3-0.5,0.7-1,0.4c-0.1-0.1-0.1-0.5,0-0.6C624.4,48.2,624.7,48.3,625.1,48.8z"/>
		<path class="st7" d="M539.5,57c0.4-0.1,0.7-0.8,1.1-0.2c0.3,0.5,0,0.8-0.6,0.7C539.8,57.5,539.7,57.2,539.5,57z"/>
		<path class="st7" d="M579.9,65c0,0.1,0,0.4-0.1,0.4c-0.3,0.1-0.5,0.2-0.8,0.3c0,0-0.2-0.2-0.2-0.3c0.1-0.3,0.2-0.6,0.7-0.6
			C579.6,64.9,579.7,64.9,579.9,65C579.9,65,579.9,65,579.9,65z"/>
		<path class="st7" d="M629.1,48.7c0.1,0.2,0.3,0.4,0.3,0.6c0.1,0.4-0.2,0.5-0.5,0.4c-0.2,0-0.4-0.3-0.4-0.4c0-0.2,0.3-0.4,0.4-0.6
			C628.9,48.7,629,48.7,629.1,48.7z"/>
		<path class="st7" d="M630.7,43.3c-0.1,0.3-0.2,0.5-0.4,0.8c-0.1,0.1-0.3,0.2-0.5,0.2c-0.1,0-0.2-0.2-0.2-0.3
			c0-0.2,0.1-0.4,0.2-0.5c0.2-0.1,0.5-0.2,0.7-0.3C630.6,43.2,630.7,43.2,630.7,43.3z"/>
		<path class="st7" d="M575.9,56.2L575.9,56.2c0-0.1,0-0.2-0.1-0.3c0-0.4,0.2-0.6,0.6-0.6c0.1,0,0.3,0.4,0.3,0.5
			c-0.1,0.3-0.3,0.6-0.7,0.4C575.9,56.2,575.9,56.2,575.9,56.2z"/>
		<path class="st7" d="M576.4,44.8c-0.2-0.1-0.5-0.2-0.6-0.4c-0.1-0.1,0.1-0.4,0.2-0.6c0.1-0.1,0.5-0.1,0.5,0
			c0.1,0.3,0.1,0.6,0.1,0.9C576.6,44.7,576.5,44.8,576.4,44.8z"/>
		<path class="st7" d="M506.2,28.2c-0.2,0.2-0.3,0.3-0.4,0.5c-0.3-0.3-0.6-0.5-0.9-0.8c0.1-0.1,0.3-0.3,0.4-0.4
			C505.6,27.7,505.8,27.9,506.2,28.2z"/>
		<path class="st7" d="M626,38.7c0.7,0.1,0.7,0.1,0.4,0.8c-0.1,0.2-0.2,0.4-0.3,0.6C625.7,39.8,625.7,39.8,626,38.7L626,38.7z"/>
		<path class="st7" d="M505.6,3.6c-0.2-0.4-0.4-0.6-0.4-0.7c0-0.2,0.3-0.4,0.5-0.5c0.1,0,0.5,0.3,0.4,0.4C506,3,505.8,3.2,505.6,3.6
			z"/>
		<path class="st7" d="M578.5,39.5c-0.3,0.2-0.5,0.4-0.6,0.3c-0.2-0.1-0.4-0.3-0.4-0.4c0-0.2,0.2-0.4,0.4-0.5
			C578,39.1,578.2,39.2,578.5,39.5z"/>
		<path class="st7" d="M576.5,61.6c0.1,0.3,0.2,0.6-0.2,0.8c-0.2,0.1-0.4,0.1-0.6,0c-0.1,0-0.1-0.3-0.1-0.4c0.1-0.1,0.2-0.3,0.4-0.3
			C576.1,61.5,576.3,61.6,576.5,61.6L576.5,61.6z"/>
		<path class="st7" d="M620.5,51c-0.3,0.2-0.5,0.3-0.8,0.4c-0.2,0.1-0.4,0.1-0.5,0c-0.1-0.1-0.2-0.3-0.1-0.4
			c0.1-0.2,0.3-0.4,0.5-0.3C619.9,50.7,620.1,50.9,620.5,51z"/>
		<path class="st7" d="M531.4,50.3c-0.3,0.2-0.5,0.4-0.7,0.4c-0.4,0-0.5-0.2-0.5-0.5c0-0.2,0.3-0.4,0.5-0.3
			C530.9,49.9,531.1,50.1,531.4,50.3z"/>
		<path class="st7" d="M548.9,40.8c-0.3-0.2-0.4-0.3-0.5-0.3c0.3-0.4,0.5-0.8,0.8-1.3C549.7,39.9,548.9,40.2,548.9,40.8z"/>
		<path class="st7" d="M609,24.8c0.2,0.3,0.4,0.5,0.4,0.7c0,0.1-0.3,0.4-0.4,0.4c-0.2-0.1-0.4-0.3-0.5-0.5
			C608.5,25.3,608.8,25.1,609,24.8z"/>
		<path class="st7" d="M595.7,69.6c-0.1,0.2-0.2,0.5-0.3,0.7c-0.1,0.1-0.4,0.2-0.6,0.2c-0.1,0-0.3-0.2-0.2-0.3
			c0.1-0.2,0.2-0.4,0.3-0.5C595.1,69.6,595.4,69.7,595.7,69.6z"/>
		<path class="st7" d="M615.7,43.2c-0.4,0-0.6,0.1-0.9,0.1c-0.2,0-0.3-0.2-0.4-0.3c0-0.1,0-0.4,0.1-0.4c0.2-0.1,0.4-0.1,0.6,0
			C615.3,42.6,615.4,42.9,615.7,43.2z"/>
		<path class="st7" d="M565.5,73c-0.2-0.4-0.4-0.5-0.5-0.7c-0.1-0.3,0-0.5,0.3-0.5c0.2,0,0.5,0.2,0.5,0.4
			C565.9,72.4,565.7,72.7,565.5,73z"/>
		<path class="st7" d="M524.6,37.8c0.1,0.2,0.3,0.4,0.3,0.5c0,0.2-0.2,0.4-0.4,0.6c-0.2-0.2-0.4-0.3-0.5-0.5c0-0.2,0.2-0.4,0.3-0.6
			C524.4,37.8,524.5,37.8,524.6,37.8z"/>
		<path class="st7" d="M644.1,20.3c0.5,0.3,0.9,0.5,0.5,1c-0.1,0.1-0.5,0.2-0.6,0.1C643.5,21,644,20.7,644.1,20.3z"/>
		<path class="st7" d="M544.9,43.6c-0.3,0.2-0.5,0.4-0.7,0.4c-0.1,0-0.3-0.3-0.5-0.4c0.2-0.2,0.3-0.4,0.6-0.5
			C544.4,43.1,544.6,43.4,544.9,43.6z"/>
		<path class="st7" d="M557.5,44.6c-0.1-0.2-0.3-0.4-0.3-0.7c0-0.1,0.2-0.3,0.4-0.4c0.2,0.2,0.4,0.4,0.5,0.6c0,0.1-0.2,0.3-0.3,0.5
			C557.7,44.6,557.6,44.6,557.5,44.6z"/>
		<path class="st7" d="M511.8,5.5c-0.3,0.2-0.5,0.4-0.7,0.4c-0.2,0-0.4-0.3-0.5-0.4c0.2-0.2,0.4-0.4,0.5-0.4
			C511.3,5,511.4,5.3,511.8,5.5z"/>
		<path class="st7" d="M517.5,38.5c0.4,0.1,0.8,0.1,0.8,0.6c0,0.1-0.4,0.4-0.6,0.4C517.1,39.4,517.5,38.9,517.5,38.5z"/>
		<path class="st7" d="M642.8,9.4c-0.1-0.2-0.3-0.4-0.3-0.6c0-0.2,0.3-0.3,0.4-0.5c0.2,0.2,0.4,0.4,0.4,0.6c0,0.1-0.2,0.3-0.3,0.5
			C642.9,9.4,642.9,9.4,642.8,9.4z"/>
		<path class="st7" d="M605.8,48.8c0.1,0.2,0.2,0.3,0.3,0.5c0,0,0,0.1-0.1,0.1c-0.3,0.1-0.5,0.2-0.8,0.3c0,0-0.2-0.3-0.2-0.4
			C605.1,48.9,605.4,48.8,605.8,48.8C605.8,48.8,605.8,48.8,605.8,48.8z"/>
		<path class="st7" d="M601.2,41.8c-0.4-0.2-1,0.2-0.9-0.5c0-0.2,0.1-0.3,0.2-0.5c0.2,0.1,0.4,0.1,0.5,0.3
			C601.1,41.2,601.1,41.5,601.2,41.8z"/>
		<path class="st7" d="M506,18.9c-0.3,0.2-0.4,0.4-0.6,0.4c-0.2,0-0.4-0.2-0.6-0.4c0.1-0.2,0.3-0.5,0.4-0.5
			C505.5,18.4,505.7,18.7,506,18.9z"/>
		<path class="st7" d="M543.2,32.6c-0.3,0.2-0.5,0.4-0.6,0.4c-0.2,0-0.4-0.3-0.6-0.4c0.2-0.2,0.3-0.4,0.5-0.4
			C542.7,32.1,542.9,32.4,543.2,32.6z"/>
		<path class="st7" d="M618.8,53.5c-0.3,0.2-0.5,0.5-0.6,0.4c-0.2-0.1-0.4-0.3-0.6-0.4c0.2-0.2,0.3-0.4,0.5-0.4
			C618.2,53,618.4,53.3,618.8,53.5z"/>
		<path class="st7" d="M623,31.5c0,0.4,0,0.7,0,1.1c-0.2,0.2-0.5,0.3-0.8-0.1C622,32.3,622.2,32.1,623,31.5z"/>
		<path class="st7" d="M525.9,12c-0.2-0.3-0.4-0.4-0.5-0.6c0.2-0.2,0.4-0.3,0.6-0.4c0.1,0,0.4,0.3,0.3,0.4
			C526.3,11.5,526.1,11.7,525.9,12z"/>
		<path class="st7" d="M648,26.2c0.3,0.3,0.4,0.5,0.6,0.7c-0.2,0.1-0.3,0.3-0.5,0.3c-0.2-0.1-0.4-0.3-0.7-0.4
			C647.6,26.6,647.7,26.4,648,26.2z"/>
		<path class="st7" d="M644.7,29.5c-0.2-0.3-0.5-0.5-0.5-0.6c0.1-0.2,0.3-0.4,0.5-0.5c0.2,0.1,0.4,0.3,0.4,0.5
			C645.2,29,645,29.2,644.7,29.5z"/>
		<path class="st7" d="M606.8,65.1c-0.4,0.2-0.6,0.4-0.7,0.4c-0.2,0-0.4-0.2-0.5-0.4c0.2-0.2,0.4-0.4,0.6-0.5
			C606.2,64.6,606.5,64.8,606.8,65.1z"/>
		<path class="st7" d="M576.1,41.9c0.3,0,0.5-0.1,0.8,0c0.1,0,0.4,0.1,0.4,0.2c0,0.2-0.1,0.4-0.2,0.5c-0.1,0.1-0.4,0.1-0.5,0
			c-0.2-0.1-0.4-0.3-0.6-0.5C576.1,42,576.1,42,576.1,41.9z"/>
		<path class="st7" d="M621.7,24.6c-0.1-0.4-0.8-0.6-0.3-1.1c0.1-0.1,0.5-0.1,0.6,0.1C622.4,24,622.1,24.3,621.7,24.6z"/>
		<path class="st7" d="M613.5,21.3c-0.1-0.4-0.1-0.8,0.4-0.9c0.1,0,0.5,0.2,0.5,0.4C614.3,21.3,613.9,21.4,613.5,21.3z"/>
		<path class="st7" d="M553.4,68.9c-0.3,0.2-0.5,0.4-0.6,0.4c-0.2,0-0.4-0.2-0.6-0.4c0.1-0.2,0.3-0.5,0.4-0.5
			C552.9,68.5,553.1,68.7,553.4,68.9z"/>
		<path class="st7" d="M617.7,42.1c0.2,0.3,0.5,0.6,0.4,0.7c0,0.2-0.3,0.3-0.5,0.5c-0.1-0.2-0.4-0.4-0.4-0.6
			C617.3,42.6,617.5,42.4,617.7,42.1z"/>
		<path class="st7" d="M608.4,56.1c0.1,0,0.3-0.1,0.4-0.1c0.1,0.3,0.3,0.5,0.3,0.8c0,0.2,0,0.4,0,0.5c0,0.1-0.3,0.1-0.4,0.1
			c-0.1-0.1-0.2-0.3-0.2-0.4C608.5,56.7,608.4,56.4,608.4,56.1z"/>
		<path class="st7" d="M634.2,35.3c-0.3,0.1-0.5,0.3-0.8,0.3c-0.1,0-0.3-0.2-0.4-0.4c0.2-0.2,0.5-0.4,0.7-0.4c0.1,0,0.3,0.2,0.4,0.3
			C634.2,35.1,634.2,35.2,634.2,35.3z"/>
		<path class="st7" d="M609.4,28.4c-0.2-0.3-0.4-0.5-0.5-0.6c-0.1-0.3,0.2-0.5,0.5-0.4c0.2,0,0.4,0.3,0.4,0.4
			C609.9,27.9,609.7,28,609.4,28.4z"/>
		<path class="st7" d="M642.5,27.4c-0.4,0.1-0.7,0.6-1,0.1c-0.1-0.1,0-0.6,0.1-0.7C642.1,26.6,642.3,26.9,642.5,27.4z"/>
		<path class="st7" d="M547.9,44c0.2-0.4,0.4-0.7,0.8-0.5c0.2,0.1,0.4,0.5,0.3,0.5C548.7,44.5,548.3,44.2,547.9,44z"/>
		<path class="st7" d="M617.6,44.2c-0.2,0.1-0.4,0.3-0.5,0.2c-0.2-0.1-0.4-0.3-0.6-0.4c0.2-0.1,0.4-0.4,0.6-0.4
			c0.2,0,0.4,0.3,0.5,0.4C617.6,44,617.6,44.1,617.6,44.2z"/>
		<path class="st7" d="M617.6,60.1c0,0.4,0.1,0.7,0.1,1c0,0.2-0.1,0.4-0.2,0.5c-0.1,0-0.3-0.1-0.4-0.2c-0.1-0.1-0.1-0.4-0.1-0.5
			C617.1,60.6,617.3,60.5,617.6,60.1z"/>
		<path class="st7" d="M550.1,55.1c-0.1-0.2-0.3-0.5-0.4-0.7c0-0.1,0.2-0.4,0.3-0.4c0.4,0,0.5,0.3,0.5,0.7c0,0.2-0.1,0.3-0.2,0.4
			C550.2,55.1,550.1,55.1,550.1,55.1z"/>
		<path class="st7" d="M571.9,55c0.2-0.3,0.4-0.5,0.5-0.5c0.2,0.1,0.4,0.3,0.6,0.5c-0.2,0.2-0.3,0.4-0.5,0.4
			C572.3,55.5,572.1,55.2,571.9,55z"/>
		<path class="st7" d="M564.6,61.5c0.2,0.3,0.4,0.5,0.4,0.7c0,0.1-0.3,0.3-0.4,0.5c-0.2-0.2-0.4-0.4-0.5-0.6
			C564.1,61.9,564.4,61.7,564.6,61.5z"/>
		<path class="st7" d="M637-0.8c0.2,0.3,0.4,0.5,0.5,0.7c0,0-0.2,0.3-0.4,0.3c-0.3,0.1-0.6-0.1-0.5-0.5C636.7-0.3,636.8-0.5,637-0.8
			z"/>
		<path class="st7" d="M555.6,54.8c0.4,0.3,0.8,0.5,0.4,0.9c-0.1,0.1-0.5,0.1-0.7,0C554.9,55.3,555.4,55.1,555.6,54.8z"/>
		<path class="st7" d="M580.1,47.3c-0.3,0.2-0.5,0.4-0.7,0.5c-0.2,0-0.3-0.3-0.5-0.4c0.2-0.2,0.4-0.4,0.6-0.5
			C579.6,46.8,579.8,47,580.1,47.3z"/>
		<path class="st7" d="M554.7,52c0.2,0.3,0.4,0.4,0.5,0.6c-0.2,0.2-0.4,0.4-0.6,0.5c-0.1,0-0.4-0.3-0.4-0.4
			C554.3,52.5,554.5,52.3,554.7,52z"/>
		<path class="st7" d="M619.5,53.5c0.3,0,0.6,0.1,0.8,0.2c0.1,0,0.1,0.4,0,0.5c-0.1,0.1-0.4,0.3-0.5,0.2c-0.2-0.2-0.3-0.4-0.5-0.6
			C619.4,53.6,619.5,53.6,619.5,53.5z"/>
		<path class="st7" d="M559.4,53.4c-0.3,0.3-0.5,0.4-0.7,0.6c-0.1-0.2-0.4-0.4-0.4-0.6c0-0.1,0.2-0.4,0.3-0.4
			C558.8,53,559,53.2,559.4,53.4z"/>
		<path class="st7" d="M541.4,53.5c-0.3,0.2-0.5,0.5-0.7,0.5c-0.1,0-0.3-0.3-0.5-0.4c0.2-0.2,0.4-0.4,0.7-0.5
			C541,53.1,541.1,53.3,541.4,53.5z"/>
		<path class="st7" d="M611.3,20.8c-0.3,0.2-0.5,0.4-0.6,0.4c-0.2-0.1-0.4-0.3-0.6-0.5c0.2-0.1,0.3-0.4,0.5-0.4
			C610.8,20.3,611,20.6,611.3,20.8z"/>
		<path class="st7" d="M638.8,33.7c0.2,0.3,0.4,0.5,0.5,0.7c0,0.2-0.3,0.3-0.4,0.5c-0.2-0.2-0.4-0.4-0.5-0.6
			C638.3,34.2,638.5,34,638.8,33.7z"/>
		<path class="st7" d="M534.9,49.9c0.2,0.3,0.4,0.4,0.6,0.6c-0.2,0.1-0.4,0.4-0.6,0.4c-0.1,0-0.4-0.3-0.4-0.4
			C534.4,50.4,534.7,50.2,534.9,49.9z"/>
		<path class="st7" d="M557.3,69.7c0.2,0.3,0.5,0.4,0.5,0.6c0,0.2-0.3,0.5-0.4,0.5c-0.2,0-0.4-0.2-0.6-0.4
			C557,70.1,557.1,69.9,557.3,69.7z"/>
		<path class="st7" d="M535,58.7c-0.4,0-0.8,0.6-1.1,0c-0.1-0.1,0.1-0.5,0.3-0.5C534.6,58,534.9,58.1,535,58.7z"/>
		<path class="st7" d="M548.4,56c0.2,0.3,0.5,0.5,0.5,0.7c0,0.1-0.3,0.3-0.4,0.5c-0.2-0.2-0.4-0.3-0.5-0.5
			C548,56.5,548.2,56.3,548.4,56z"/>
		<path class="st7" d="M590.2,72.5c-0.3,0.2-0.5,0.4-0.6,0.4c-0.2-0.1-0.4-0.3-0.6-0.4c0.1-0.2,0.3-0.5,0.4-0.5
			C589.7,72.1,589.9,72.3,590.2,72.5z"/>
		<path class="st7" d="M535.2,23.5c0.2,0.3,0.4,0.7,0.5,1c-0.1,0.1-0.1,0.1-0.2,0.2c-0.2-0.1-0.5-0.1-0.6-0.2
			c-0.1-0.3-0.1-0.6-0.2-0.9C535,23.6,535.1,23.5,535.2,23.5z"/>
		<path class="st7" d="M648.9,25.9c-0.2-0.2-0.3-0.4-0.4-0.7c0,0,0.2-0.3,0.3-0.3c0.2,0,0.5,0.1,0.5,0.1c0,0.3-0.1,0.5-0.1,0.8
			C649.1,25.8,649,25.9,648.9,25.9z"/>
		<path class="st7" d="M507.3,32.5c-0.1,0.1-0.2,0.2-0.3,0.2c-0.2,0-0.4,0-0.6-0.1c0-0.2,0.1-0.6,0.2-0.6c0.2-0.1,0.5,0,0.7,0.1
			C507.3,32.1,507.3,32.3,507.3,32.5L507.3,32.5z"/>
		<path class="st7" d="M591.6,64c-0.1-0.4-0.1-0.8,0.4-0.9c0.2,0,0.5,0.3,0.5,0.4C592.4,64.1,592,64,591.6,64z"/>
		<path class="st7" d="M590.8,64.2c-0.2-0.2-0.4-0.4-0.5-0.5c0.2-0.1,0.4-0.4,0.4-0.4c0.2,0.1,0.4,0.3,0.6,0.5
			C591.1,63.8,591,64,590.8,64.2z"/>
		<path class="st7" d="M517.3,34c0.2,0.3,0.5,0.5,0.4,0.6c-0.1,0.2-0.3,0.4-0.5,0.5c0,0-0.4-0.3-0.4-0.4
			C516.9,34.6,517.1,34.4,517.3,34z"/>
		<path class="st7" d="M597.6,37.1c-0.3,0.2-0.4,0.4-0.6,0.5c-0.2-0.2-0.3-0.4-0.4-0.7c0-0.1,0.3-0.4,0.4-0.3
			C597.2,36.7,597.4,36.9,597.6,37.1z"/>
		<path class="st7" d="M534.6,37.6c-0.2,0.1-0.4,0.3-0.6,0.3c-0.2,0-0.3-0.3-0.4-0.5c0.2-0.1,0.3-0.3,0.5-0.3c0.2,0,0.4,0.2,0.5,0.3
			C534.6,37.5,534.6,37.5,534.6,37.6z"/>
		<path class="st7" d="M614.9,46.1c0-0.4,0.4-0.9,0.7-0.9c0.7,0.1,0.2,0.5,0.2,0.8C615.4,46,615.2,46,614.9,46.1z"/>
		<path class="st7" d="M579,48.2c-0.2,0.1-0.3,0.2-0.5,0.3c-0.3,0.1-0.6,0-0.5-0.4c0-0.2,0.3-0.4,0.4-0.4c0.2,0,0.4,0.2,0.6,0.3
			C579,48,579,48.1,579,48.2z"/>
		<path class="st7" d="M598.7,49.4c-0.3,0.2-0.6,0.4-0.7,0.4c-0.2-0.1-0.3-0.4-0.4-0.6c0,0,0.3-0.3,0.4-0.3
			C598.2,48.9,598.4,49.1,598.7,49.4z"/>
		<path class="st7" d="M632.9,48.8c0.4,0,0.8,0.1,1.3,0.1c-0.2,0.3-0.4,0.5-0.6,0.7C633.2,49.5,632.8,49.4,632.9,48.8z"/>
		<path class="st7" d="M571.7,69.4c-0.3,0.2-0.5,0.4-0.7,0.4c-0.2,0-0.4-0.3-0.4-0.5c0-0.2,0.2-0.3,0.4-0.5
			C571.2,68.9,571.4,69.1,571.7,69.4z"/>
		<path class="st7" d="M584.9,69.7c0.1-0.5,0.2-0.9,0.8-0.8c0.1,0,0.3,0.3,0.3,0.3C585.8,69.8,585.4,69.8,584.9,69.7z"/>
		<path class="st7" d="M596.4,60.4c-0.3,0.2-0.5,0.4-0.7,0.4c-0.1,0-0.3-0.3-0.5-0.4c0.2-0.2,0.4-0.4,0.6-0.4
			C596,59.9,596.2,60.2,596.4,60.4z"/>
		<path class="st7" d="M654.2,5.7C654.1,6,654,6.2,654,6.3c0,0-0.1,0-0.1,0c-0.1-0.2-0.1-0.3-0.2-0.6c-0.1,0-0.3-0.1-0.7-0.1
			c0.2-0.3,0.4-0.4,0.5-0.6C653.7,5.3,653.9,5.5,654.2,5.7z"/>
		<path class="st7" d="M551,72.2c-0.2-0.3-0.4-0.6-0.5-0.9c0.2-0.1,0.4-0.3,0.8-0.5c0,0.5,0,0.9,0,1.2
			C551.1,72.1,551.1,72.1,551,72.2z"/>
		<path class="st7" d="M582.1,53.9c-0.3,0.2-0.5,0.4-0.6,0.4c-0.2,0-0.4-0.3-0.4-0.4c0-0.2,0.2-0.4,0.4-0.4
			C581.7,53.4,581.9,53.7,582.1,53.9z"/>
		<path class="st7" d="M651.2,7.8c0.1,0.3,0.2,0.5,0.3,0.8c0,0.1,0,0.4,0,0.4c-0.2,0-0.4,0-0.7,0c0.1-0.5,0.2-0.9,0.3-1.3
			C651.1,7.7,651.1,7.8,651.2,7.8z"/>
		<path class="st7" d="M522.1,15.1c-0.2,0.1-0.4,0.3-0.5,0.2c-0.2,0-0.3-0.3-0.5-0.4c0.2-0.1,0.3-0.4,0.5-0.4c0.2,0,0.3,0.2,0.5,0.3
			C522.2,14.9,522.1,15,522.1,15.1z"/>
		<path class="st7" d="M634.7,0c-0.3,0.2-0.5,0.4-0.6,0.3c-0.2-0.1-0.4-0.3-0.5-0.4c0.2-0.1,0.3-0.4,0.5-0.4
			C634.2-0.4,634.4-0.2,634.7,0z"/>
		<path class="st7" d="M520.7,18c-0.2-0.3-0.4-0.5-0.4-0.6c0.1-0.2,0.4-0.3,0.6-0.4c0.1,0,0.3,0.3,0.3,0.4
			C521.1,17.6,520.9,17.8,520.7,18z"/>
		<path class="st7" d="M565.5,50.6c0.2,0.3,0.4,0.5,0.4,0.7c0,0.1-0.2,0.3-0.3,0.4c-0.2-0.2-0.4-0.3-0.5-0.6
			C565,51.2,565.2,50.9,565.5,50.6z"/>
		<path class="st7" d="M549.9,35.3c-0.2-0.3-0.4-0.5-0.5-0.8c0.2-0.1,0.4-0.3,0.5-0.3c0.2,0.1,0.4,0.3,0.5,0.5
			C550.4,34.8,550.1,35,549.9,35.3z"/>
		<path class="st7" d="M612,34.6c-0.3,0.3-0.5,0.5-0.6,0.5c-0.2-0.1-0.4-0.3-0.5-0.5c0,0,0.2-0.4,0.3-0.4
			C611.4,34.3,611.6,34.5,612,34.6z"/>
		<path class="st7" d="M640.3,38.1c-0.2-0.3-0.5-0.5-0.5-0.6c0-0.1,0.3-0.4,0.4-0.4c0.2,0.1,0.4,0.3,0.5,0.5
			C640.8,37.7,640.5,37.9,640.3,38.1z"/>
		<path class="st7" d="M628.2,50.9c0.2,0.3,0.3,0.4,0.4,0.5c-0.2,0.1-0.3,0.4-0.5,0.4c-0.1,0-0.3-0.2-0.4-0.3
			C627.8,51.4,628,51.2,628.2,50.9z"/>
		<path class="st7" d="M623.8,45.1c0.3-0.2,0.5-0.4,0.8-0.5c0.1,0,0.3,0.3,0.3,0.4c-0.1,0.2-0.2,0.4-0.4,0.5
			C624.3,45.6,624.1,45.4,623.8,45.1z"/>
		<path class="st7" d="M603.4,68.7c0,0.1-0.1,0.3-0.2,0.6c-0.4-0.3-0.7-0.5-1.2-0.7c0.2-0.2,0.3-0.3,0.4-0.4
			C602.8,68.4,603,68.5,603.4,68.7z"/>
		<path class="st7" d="M540.7,33c-0.2,0.2-0.4,0.4-0.5,0.5c-0.2-0.2-0.4-0.3-0.4-0.5c0-0.1,0.3-0.4,0.4-0.4
			C540.2,32.5,540.4,32.8,540.7,33z"/>
		<path class="st7" d="M590.3,55.1c-0.3,0.2-0.5,0.4-0.6,0.3c-0.2-0.1-0.4-0.3-0.5-0.4c0.2-0.1,0.4-0.4,0.5-0.4
			C589.9,54.7,590.1,54.9,590.3,55.1z"/>
		<path class="st7" d="M649.3,1c-0.4-0.1-0.8-0.2-0.7-0.7c0-0.1,0.5-0.3,0.6-0.2C649.8,0.4,649.5,0.7,649.3,1z"/>
		<path class="st7" d="M550.8,69.3c-0.2-0.3-0.5-0.4-0.5-0.6c0-0.1,0.2-0.3,0.4-0.5c0.2,0.2,0.4,0.4,0.5,0.6
			C551.2,68.8,551,69,550.8,69.3z"/>
		<path class="st7" d="M516.4,46.4c0.4,0.1,0.7,0.2,1,0.3c-0.1,0.2-0.2,0.5-0.3,0.5c-0.2,0-0.5,0-0.6-0.2
			C516.3,47,516.4,46.7,516.4,46.4z"/>
		<path class="st7" d="M652.7,8.5c0.2,0.3,0.4,0.5,0.3,0.7c0,0.2-0.2,0.3-0.4,0.5c-0.2-0.2-0.4-0.3-0.4-0.5
			C652.2,9,652.4,8.8,652.7,8.5z"/>
		<path class="st7" d="M629.9,21.5c-0.3,0.2-0.5,0.4-0.5,0.4c-0.2-0.1-0.4-0.3-0.6-0.5c0.2-0.1,0.4-0.3,0.6-0.3
			C629.4,21,629.6,21.3,629.9,21.5z"/>
		<path class="st7" d="M552.6,65.8c-0.2,0.1-0.4,0.4-0.5,0.3c-0.2,0-0.3-0.3-0.5-0.4c0.1-0.1,0.3-0.4,0.4-0.3c0.2,0,0.4,0.2,0.6,0.3
			C552.6,65.7,552.6,65.8,552.6,65.8z"/>
		<path class="st7" d="M578.9,56c-0.2,0.4-0.5,0.7-0.9,0.5c-0.1-0.1-0.1-0.4-0.1-0.5C578.2,55.6,578.6,55.7,578.9,56z"/>
		<path class="st7" d="M593.1,60.4c-0.2-0.3-0.5-0.5-0.4-0.6c0.1-0.2,0.3-0.4,0.5-0.5c0,0,0.4,0.2,0.3,0.3
			C593.5,59.8,593.3,60,593.1,60.4z"/>
		<path class="st7" d="M594.5,39.9c-0.3,0.2-0.5,0.5-0.6,0.5c-0.1,0-0.3-0.2-0.5-0.4c0.2-0.2,0.4-0.4,0.6-0.5
			C594.1,39.5,594.3,39.7,594.5,39.9z"/>
		<path class="st7" d="M615.2,49.7c-0.3,0.2-0.5,0.4-0.7,0.4c-0.2,0-0.3-0.2-0.5-0.4c0.2-0.1,0.3-0.4,0.5-0.4
			C614.6,49.4,614.8,49.6,615.2,49.7z"/>
		<path class="st7" d="M553.1,59.5c-0.2,0.2-0.3,0.3-0.4,0.4c-0.2-0.2-0.4-0.4-0.6-0.6C552.4,58.8,552.4,58.8,553.1,59.5z"/>
		<path class="st7" d="M624.4,20.5c-0.2-0.2-0.5-0.4-0.5-0.5c0.1-0.2,0.2-0.4,0.4-0.5c0.1,0,0.5,0.2,0.5,0.4
			C624.8,20,624.6,20.2,624.4,20.5z"/>
		<path class="st7" d="M642.5,3.2c-0.3,0.2-0.5,0.5-0.5,0.5c-0.2-0.1-0.4-0.3-0.6-0.5c0.1-0.1,0.3-0.4,0.4-0.4
			C642,2.8,642.2,3,642.5,3.2z"/>
		<path class="st7" d="M609.7,49.9c-0.4,0.3-0.6,0.4-0.8,0.5c-0.1,0-0.4-0.3-0.3-0.4c0.1-0.2,0.3-0.4,0.5-0.5
			C609.1,49.6,609.3,49.8,609.7,49.9z"/>
		<path class="st7" d="M528.6,17.2c-0.3,0.2-0.5,0.4-0.6,0.3c-0.2-0.1-0.4-0.3-0.4-0.6c0-0.1,0.3-0.4,0.4-0.3
			C528.2,16.7,528.4,16.9,528.6,17.2z"/>
		<path class="st7" d="M509.1,19.8c0.2,0.3,0.5,0.5,0.4,0.6c0,0.2-0.3,0.3-0.5,0.4c-0.1,0-0.4-0.2-0.4-0.3
			C508.7,20.2,508.9,20.1,509.1,19.8z"/>
		<path class="st7" d="M568.3,44.9c0.3,0.1,0.6,0.2,0.9,0.3c0,0.1,0.1,0.1,0.1,0.2c-0.2,0.1-0.4,0.4-0.6,0.4
			C568.3,45.6,568,45.4,568.3,44.9z"/>
		<path class="st7" d="M519.9,35.2c0.2,0.3,0.4,0.4,0.3,0.5c-0.1,0.2-0.3,0.4-0.5,0.5c-0.2-0.2-0.3-0.3-0.5-0.5
			C519.5,35.7,519.6,35.5,519.9,35.2z"/>
		<path class="st7" d="M572.5,43.8c0.1,0.2,0.4,0.4,0.4,0.6c0,0.1-0.3,0.3-0.4,0.5c-0.1-0.1-0.4-0.3-0.4-0.4c0-0.2,0.1-0.4,0.2-0.6
			C572.4,43.8,572.5,43.8,572.5,43.8z"/>
		<path class="st7" d="M528.9,31.9c-0.2-0.3-0.4-0.5-0.5-0.7c0.2-0.1,0.3-0.3,0.5-0.3c0.2,0,0.4,0.2,0.5,0.4
			C529.3,31.5,529.1,31.7,528.9,31.9z"/>
		<path class="st7" d="M654.6,1.2c0.2,0.2,0.4,0.3,0.5,0.5c-0.2,0.2-0.3,0.4-0.5,0.5c-0.1,0-0.4-0.2-0.4-0.4
			C654.2,1.6,654.4,1.5,654.6,1.2z"/>
		<path class="st7" d="M542.2,47c0.2,0.3,0.4,0.4,0.5,0.6c0,0.1-0.3,0.4-0.4,0.4c-0.2-0.1-0.4-0.3-0.5-0.5
			C541.8,47.5,542,47.3,542.2,47z"/>
		<path class="st7" d="M509.9,13.3c0.4-0.1,0.8-0.1,0.8,0.4c0,0.2-0.3,0.5-0.4,0.5C509.8,14.1,509.9,13.6,509.9,13.3z"/>
		<path class="st7" d="M569.8,43.4c-0.2-0.3-0.4-0.4-0.5-0.6c0-0.1,0.3-0.5,0.3-0.4c0.2,0.1,0.5,0.2,0.6,0.4
			C570.3,42.9,570,43.1,569.8,43.4z"/>
		<path class="st7" d="M571.4,40.7c0.2,0.3,0.4,0.6,0.4,0.7c-0.1,0.2-0.4,0.3-0.5,0.5c-0.1-0.2-0.3-0.3-0.3-0.5
			C570.9,41.1,571.2,41,571.4,40.7z"/>
		<path class="st7" d="M605.8,48.8c-0.5-0.6,0.2-0.3,0.4-0.6c0,0,0,0,0-0.1c0-0.2,0-0.3,0-0.5c0.1,0.1,0.3,0.2,0.4,0.4
			c0.1,0.2,0.1,0.5,0.2,0.7C606.4,48.9,606.1,48.4,605.8,48.8L605.8,48.8z"/>
		<path class="st7" d="M584.3,63.2c0.4,0.8-0.5,0.7-0.8,1.1c-0.1-0.2-0.1-0.4-0.1-0.6C583.7,63.5,584,63.4,584.3,63.2z"/>
		<path class="st7" d="M527.2,57.6c0.2,0.3,0.4,0.5,0.3,0.6c-0.1,0.2-0.3,0.4-0.4,0.5c-0.1-0.2-0.4-0.3-0.4-0.5
			C526.7,58.1,527,57.9,527.2,57.6z"/>
		<path class="st7" d="M595.7,37.6c0.4-0.1,0.7-0.1,0.8,0.3c0,0.2-0.2,0.5-0.4,0.5C595.7,38.4,595.6,38.1,595.7,37.6z"/>
		<path class="st7" d="M535.5,58.9c0.2,0.2,0.3,0.4,0.5,0.5c-0.2,0.2-0.4,0.3-0.6,0.5c-0.1-0.2-0.3-0.3-0.3-0.4
			C535.1,59.3,535.3,59.2,535.5,58.9z"/>
		<path class="st7" d="M549.9,41.9c-0.2-0.3-0.5-0.5-0.5-0.7c0-0.2,0.2-0.3,0.4-0.5c0.1,0.2,0.3,0.3,0.4,0.5
			C550.2,41.3,550.1,41.5,549.9,41.9z"/>
		<path class="st7" d="M502.5,38c0.3-0.3,0.6-0.6,0.8-0.2c0.3,0.4,0.1,0.7-0.4,0.8C502.8,38.4,502.6,38.2,502.5,38z"/>
		<path class="st7" d="M522,10.8c-0.3,0.2-0.5,0.4-0.7,0.4c-0.2,0-0.4-0.2-0.5-0.3c0.2-0.2,0.4-0.4,0.6-0.4
			C521.5,10.4,521.7,10.7,522,10.8z"/>
		<path class="st7" d="M630.2,46c-0.3,0.3-0.5,0.4-0.7,0.5c-0.1,0-0.4-0.3-0.3-0.4c0-0.2,0.2-0.4,0.4-0.4
			C629.8,45.6,630,45.8,630.2,46z"/>
		<path class="st7" d="M618.6,37.7c0.2-0.4,0.3-0.8,0.5-1.2c0.2,0.1,0.3,0.2,0.6,0.3c-0.4,0.4-0.7,0.7-1,1
			C618.7,37.8,618.7,37.8,618.6,37.7z"/>
		<path class="st7" d="M531.5,40.7c0.6,0,0.4,0.4,0.4,0.9c-0.4-0.1-0.7-0.2-1.2-0.4C531.1,41,531.3,40.8,531.5,40.7L531.5,40.7z"/>
		<path class="st7" d="M546.4,72.1c1.2-0.4,1.4-0.3,1.5,0.4C547.4,72.4,546.9,72.2,546.4,72.1z"/>
		<path class="st7" d="M636.8,12c0.3-0.2,0.4-0.8,0.9-0.5c0.1,0,0.2,0.4,0.1,0.5C637.5,12.4,637.2,12.2,636.8,12z"/>
		<path class="st7" d="M575.1,68.4c-0.1,0.2-0.2,0.4-0.3,0.5c-0.1,0.1-0.4,0.2-0.5,0.2c-0.1,0-0.2-0.2-0.2-0.3
			c0.1-0.2,0.2-0.4,0.4-0.4C574.7,68.2,574.9,68.3,575.1,68.4z"/>
		<path class="st7" d="M627.1,12.7c-0.4,0.2-0.5,0.3-0.7,0.3c-0.1,0-0.3-0.2-0.4-0.4c0.2-0.1,0.3-0.4,0.5-0.4
			C626.6,12.2,626.7,12.5,627.1,12.7z"/>
		<path class="st7" d="M523,14.9c-0.4-0.2-0.6-0.4-0.3-0.8c0.1-0.1,0.5-0.2,0.5-0.1C523.5,14.3,523.4,14.6,523,14.9z"/>
		<path class="st7" d="M591.4,60.5c-0.3,0.2-0.5,0.4-0.6,0.4c-0.2-0.1-0.4-0.3-0.6-0.4c0.2-0.1,0.3-0.4,0.5-0.4
			C590.9,60.1,591.1,60.3,591.4,60.5z"/>
		<path class="st7" d="M590,58.4c0.1-0.2,0.1-0.5,0.3-0.6c0.1-0.1,0.4,0,0.6,0.1c0.1,0,0.1,0.3,0.1,0.4c-0.2,0.1-0.5,0.2-0.7,0.3
			C590.1,58.6,590.1,58.5,590,58.4z"/>
		<path class="st7" d="M552,56c-0.3,0.2-0.5,0.4-0.6,0.4c-0.2-0.1-0.4-0.3-0.5-0.4c0,0,0.2-0.4,0.3-0.4
			C551.4,55.7,551.6,55.8,552,56z"/>
		<path class="st7" d="M636.4,25.2c0.3-0.2,0.5-0.4,0.7-0.5c0.1,0,0.4,0.3,0.3,0.4c-0.1,0.2-0.2,0.4-0.4,0.5
			C636.9,25.7,636.6,25.4,636.4,25.2z"/>
		<path class="st7" d="M564.5,55.2c-0.2-0.2-0.4-0.4-0.4-0.5c0.1-0.2,0.3-0.4,0.5-0.4c0.1,0,0.4,0.3,0.4,0.4
			C565,54.8,564.8,54.9,564.5,55.2z"/>
		<path class="st7" d="M545.7,54.7c-0.2,0.1-0.3,0.3-0.5,0.3c-0.1,0-0.4-0.3-0.4-0.4c0.1-0.2,0.3-0.4,0.5-0.5
			c0.2-0.1,0.4,0.1,0.6,0.2C545.8,54.5,545.7,54.6,545.7,54.7z"/>
		<path class="st7" d="M509.5,26.4c-0.2-0.3-0.4-0.5-0.4-0.7c0-0.1,0.3-0.4,0.4-0.3c0.2,0.1,0.4,0.3,0.5,0.5
			C510,26,509.7,26.2,509.5,26.4z"/>
		<path class="st7" d="M552.8,51.9c-0.2,0.2-0.4,0.3-0.6,0.6c-0.1-0.4-0.2-0.7-0.3-1c0-0.1,0-0.3,0.1-0.3c0.1,0,0.2,0,0.3,0.1
			C552.5,51.4,552.6,51.6,552.8,51.9z"/>
		<path class="st7" d="M621.5,39.9c-0.3,0.2-0.4,0.3-0.5,0.4c-0.2-0.2-0.4-0.4-0.4-0.6c0-0.1,0.3-0.4,0.4-0.4
			C621.1,39.5,621.2,39.7,621.5,39.9z"/>
		<path class="st7" d="M628.8,47.6c-0.3,0.2-0.5,0.4-0.6,0.3c-0.2-0.1-0.3-0.4-0.4-0.6c0.2-0.1,0.3-0.3,0.5-0.3
			C628.5,47.2,628.6,47.4,628.8,47.6z"/>
		<path class="st7" d="M559.4,61.8c-0.2,0.2-0.4,0.4-0.5,0.4c-0.2-0.1-0.4-0.3-0.4-0.4c0-0.2,0.3-0.3,0.4-0.5
			C559.1,61.4,559.2,61.5,559.4,61.8z"/>
		<path class="st7" d="M593.3,64.5c0.1,0.2,0.3,0.4,0.3,0.5c0,0.1-0.2,0.3-0.3,0.5c-0.2-0.1-0.4-0.3-0.5-0.4c0-0.2,0.2-0.4,0.3-0.5
			C593.2,64.5,593.3,64.5,593.3,64.5z"/>
		<path class="st7" d="M572.7,42.3c0.2,0.3,0.4,0.5,0.4,0.8c0,0.1-0.2,0.2-0.3,0.3c-0.2-0.2-0.3-0.4-0.4-0.6
			C572.3,42.7,572.5,42.6,572.7,42.3z"/>
		<path class="st7" d="M529.4,11.7c-0.1-0.4-0.1-0.8,0.4-0.8c0.1,0,0.4,0.3,0.4,0.4C530.2,11.7,529.8,11.7,529.4,11.7z"/>
		<path class="st7" d="M572.4,46.9c-0.2,0.2-0.4,0.4-0.5,0.4c-0.2-0.1-0.4-0.3-0.5-0.5c0-0.1,0.2-0.3,0.3-0.4
			C572,46.5,572.2,46.7,572.4,46.9z"/>
		<path class="st7" d="M570.2,59.9c0.2,0.3,0.4,0.5,0.4,0.7c0,0.2-0.2,0.3-0.3,0.5c-0.2-0.2-0.4-0.3-0.5-0.6
			C569.8,60.3,570,60.1,570.2,59.9z"/>
		<path class="st7" d="M624.5,26.3c0.3,0.3,0.5,0.6,0.2,0.9c-0.1,0.1-0.5,0-0.6-0.1C623.9,26.7,624.2,26.5,624.5,26.3z"/>
		<path class="st7" d="M518.2,27.4c-0.2,0-0.4-0.1-0.7-0.1c-0.1,0-0.3-0.1-0.4-0.2c0-0.1,0-0.3,0.1-0.4c0.2-0.1,0.4-0.1,0.5,0
			c0.2,0.1,0.4,0.4,0.5,0.6C518.3,27.3,518.3,27.3,518.2,27.4z"/>
		<path class="st7" d="M567.3,52.1c-1,0.4-1,0.4-1.1-0.3C566.5,51.8,567,51.2,567.3,52.1z"/>
		<path class="st7" d="M527.7,51.8c-0.3,0.2-0.5,0.4-0.7,0.4c-0.1,0-0.3-0.2-0.4-0.4c0.2-0.1,0.4-0.4,0.6-0.4
			C527.3,51.3,527.5,51.6,527.7,51.8z"/>
		<path class="st7" d="M621.4,37.6c-0.1,0.4-0.3,0.7-0.8,0.5c-0.1,0-0.2-0.4-0.2-0.5C620.8,37.3,621.1,37.3,621.4,37.6z"/>
		<path class="st7" d="M637.3,34.1c-0.2,0.2-0.4,0.4-0.5,0.4c-0.2-0.1-0.4-0.3-0.4-0.4c0-0.2,0.3-0.3,0.4-0.5
			C636.9,33.7,637.1,33.9,637.3,34.1z"/>
		<path class="st7" d="M642,13c0.2,0.3,0.5,0.6,0.1,0.9c-0.1,0.1-0.5-0.1-0.6-0.2C641.3,13.3,641.7,13.2,642,13z"/>
		<path class="st7" d="M530.4,41.9c-0.3,0.2-0.5,0.3-0.7,0.3c-0.1,0-0.3-0.3-0.3-0.5c0-0.2,0.3-0.3,0.4-0.5
			C530,41.5,530.1,41.6,530.4,41.9z"/>
		<path class="st7" d="M584.4,38.8c-0.3,0.2-0.5,0.3-0.7,0.3c-0.2,0-0.3-0.2-0.5-0.3c0.2-0.1,0.3-0.4,0.5-0.4
			C583.9,38.3,584.1,38.6,584.4,38.8z"/>
		<path class="st7" d="M495.5,4.9c0.4,0.1,0.8,0.1,1.2,0.2c0,0.1,0,0.1,0.1,0.2c-0.2,0.1-0.4,0.3-0.5,0.3
			C495.9,5.6,495.5,5.6,495.5,4.9z"/>
		<path class="st7" d="M583.3,59c0-0.3,0.1-0.6,0.1-0.9c0.6,0,0.7,0.5,0.7,0.8C584,59.4,583.6,58.9,583.3,59z"/>
		<path class="st7" d="M645.1,15.8c-0.3,0.2-0.5,0.4-0.5,0.4c-0.2-0.1-0.3-0.3-0.5-0.5c0.1-0.1,0.3-0.3,0.4-0.3
			C644.6,15.4,644.8,15.6,645.1,15.8z"/>
		<path class="st7" d="M535.5,21.6c-0.3,0.2-0.5,0.4-0.7,0.4c-0.1,0-0.3-0.2-0.4-0.3c0.2-0.2,0.3-0.4,0.5-0.4
			C535.1,21.1,535.3,21.4,535.5,21.6z"/>
		<path class="st7" d="M507.2,14.9c0.1,0.7,0.1,0.7-0.9,0.5C506.2,15.1,506.2,15.1,507.2,14.9z"/>
		<path class="st7" d="M613.4,58.4c-0.2-0.3-0.4-0.5-0.4-0.7c0.1-0.2,0.3-0.3,0.4-0.5c0.1,0.1,0.3,0.3,0.3,0.4
			C613.8,57.8,613.6,58,613.4,58.4z"/>
		<path class="st7" d="M494,10.1c-0.3,0.2-0.5,0.4-0.6,0.6c-0.1-0.1-0.3-0.3-0.3-0.4c0.1-0.2,0.2-0.4,0.4-0.5
			C493.5,9.8,493.7,10,494,10.1z"/>
		<path class="st7" d="M526.3,9.4c-0.2,0.3-0.3,0.5-0.6,0.9c-0.2-0.2-0.4-0.5-0.4-0.6C525.5,9.4,525.8,9.1,526.3,9.4z"/>
		<path class="st7" d="M521.9,55.5c0.2,0.3,0.4,0.5,0.4,0.7c0,0.2-0.2,0.3-0.3,0.5c-0.1-0.2-0.4-0.3-0.4-0.5
			C521.6,56,521.7,55.8,521.9,55.5z"/>
		<path class="st7" d="M495.4,24.4c0.9,0,1,0.3,0.6,1.3C495.8,25.2,495.6,24.8,495.4,24.4z"/>
		<path class="st7" d="M567.8,45c-0.2-0.3-0.4-0.5-0.5-0.7c0-0.1,0.3-0.3,0.4-0.4c0.1,0.2,0.3,0.3,0.4,0.5
			C568.2,44.5,568,44.7,567.8,45z"/>
		<path class="st7" d="M605.8,53.6c0.1,0.5,0,0.8-0.4,0.8c-0.1,0-0.3-0.3-0.3-0.4C605.1,53.5,605.5,53.5,605.8,53.6z"/>
		<path class="st7" d="M627,27.4c-0.2-0.3-0.4-0.5-0.4-0.6c0.1-0.2,0.3-0.4,0.4-0.4c0.1,0,0.3,0.2,0.5,0.3
			C627.4,26.9,627.2,27.1,627,27.4z"/>
		<path class="st7" d="M512,32.2c-0.3-0.2-0.9,0.1-0.9-0.5c0-0.1,0.2-0.3,0.4-0.3C511.8,31.4,512.1,31.7,512,32.2z"/>
		<path class="st7" d="M564.2,69.8c0.2-0.1,0.6-0.3,0.6-0.2c0.2,0.3,0.3,0.6,0.4,0.9c-0.1,0-0.1,0.1-0.2,0.1
			c-0.3-0.2-0.5-0.4-0.8-0.6C564.2,70,564.2,69.9,564.2,69.8z"/>
		<path class="st7" d="M521.4,1.7c0.2,0.3,0.4,0.5,0.5,0.7c0,0.1-0.3,0.4-0.4,0.3c-0.2-0.1-0.4-0.3-0.4-0.5
			C521,2.2,521.2,2,521.4,1.7z"/>
		<path class="st7" d="M530.5,46.8c-0.2-0.3-0.4-0.5-0.4-0.6c0-0.2,0.2-0.4,0.3-0.5c0.1,0.1,0.4,0.3,0.4,0.4
			C530.8,46.2,530.7,46.4,530.5,46.8z"/>
		<path class="st7" d="M579.5,75.5c-0.2,0-0.4,0.2-0.6,0.1c-0.1,0-0.1-0.3-0.1-0.5c0-0.2,0-0.4,0-0.7c0.1,0,0.1,0,0.2,0
			C579.2,74.8,579.3,75.1,579.5,75.5z"/>
		<path class="st7" d="M495,10.5c0-0.1-0.1-0.1-0.1-0.2c0-0.2,0-0.5,0-0.7c0.2,0.1,0.5,0.2,0.6,0.3c0.2,0.3-0.1,0.5-0.4,0.5
			C495.1,10.5,495,10.5,495,10.5L495,10.5z"/>
		<path class="st7" d="M506.3,29.4c-0.3,0.1-0.5,0.3-0.6,0.3c-0.2-0.1-0.3-0.3-0.4-0.5c0.2-0.1,0.3-0.4,0.5-0.3
			C505.9,28.9,506.1,29.1,506.3,29.4z"/>
		<path class="st7" d="M499.2,30.4c0.4,0.1,0.8,0.2,1.2,0.3c-0.1,0.5-0.5,0.3-0.8,0.4c-0.1,0-0.3-0.3-0.5-0.5
			C499.1,30.6,499.1,30.5,499.2,30.4z"/>
		<path class="st7" d="M643.8,35.8c0,0.5-0.2,0.7-0.6,0.6c-0.1-0.1-0.4-0.3-0.3-0.4C643.1,35.5,643.5,35.7,643.8,35.8z"/>
		<path class="st7" d="M621.5,0.7c-0.3,0.2-0.5,0.4-0.9,0.7c0.1-0.4,0.1-0.7,0.2-1c0-0.1,0.3-0.2,0.3-0.2
			C621.3,0.4,621.4,0.6,621.5,0.7z"/>
		<path class="st7" d="M551.5,41.3c0.2,0.2,0.4,0.4,0.5,0.6c0,0.1-0.3,0.4-0.4,0.4c-0.2,0-0.4-0.2-0.5-0.4
			C551.1,41.8,551.4,41.6,551.5,41.3z"/>
		<path class="st7" d="M516,1.9c-0.2,0.3-0.3,0.5-0.5,0.7c-0.1,0-0.1,0-0.2,0c-0.1-0.3-0.2-0.6-0.3-0.9c0,0,0.1-0.1,0.1-0.1
			C515.4,1.7,515.7,1.8,516,1.9z"/>
		<path class="st7" d="M553,50.6c-0.2,0.1-0.3,0.2-0.5,0.2c-0.2,0-0.3-0.2-0.5-0.3c0.1-0.2,0.3-0.4,0.4-0.4c0.2,0,0.4,0.2,0.5,0.3
			C553,50.4,553,50.5,553,50.6z"/>
		<path class="st7" d="M565.6,75c0.2,0.2,0.4,0.4,0.4,0.5c-0.2,0.2-0.4,0.3-0.5,0.5c-0.1-0.1-0.3-0.3-0.3-0.4
			C565.2,75.4,565.4,75.3,565.6,75z"/>
		<path class="st7" d="M570.1,52.6c0.2,0.3,0.4,0.6,0.6,1.1c-0.2,0.1-0.4,0.1-0.6,0.2c0-0.2-0.1-0.4-0.1-0.5c0-0.2-0.1-0.4-0.1-0.7
			C570,52.6,570.1,52.6,570.1,52.6z"/>
		<path class="st7" d="M590.9,66.1c0.2-0.4,0.4-0.6,0.8-0.4c0.1,0.1,0.1,0.4,0,0.5C591.5,66.6,591.2,66.4,590.9,66.1z"/>
		<path class="st7" d="M653.8,9c-0.5-0.3-0.8-0.6-0.5-1c0-0.1,0.4-0.1,0.5,0C654.2,8.4,653.8,8.6,653.8,9z"/>
		<path class="st7" d="M610.5,58.3c-0.3,0.2-0.5,0.4-0.5,0.3c-0.2-0.1-0.3-0.3-0.5-0.5c0.1-0.1,0.3-0.3,0.4-0.3
			C610.1,57.9,610.2,58,610.5,58.3z"/>
		<path class="st7" d="M563.2,61.2c0.1-0.2,0.1-0.4,0.2-0.6c0.1-0.1,0.1-0.3,0.2-0.4c0.1,0,0.3,0,0.4,0.1c0.1,0.1,0,0.3,0,0.4
			C563.7,60.8,563.8,61.6,563.2,61.2L563.2,61.2z"/>
		<path class="st7" d="M645.1,12.5c0.2-0.1,0.4-0.2,0.7-0.2c0.2,0,0.3,0.2,0.5,0.3c-0.2,0.1-0.3,0.3-0.5,0.3c-0.2,0-0.4-0.2-0.7-0.3
			C645.1,12.5,645.1,12.5,645.1,12.5z"/>
		<path class="st7" d="M492.3,4.2c-0.3,0.2-0.5,0.5-0.6,0.4c-0.2-0.1-0.4-0.3-0.5-0.5c0.1-0.1,0.3-0.3,0.4-0.3
			C491.8,3.9,492,4,492.3,4.2z"/>
		<path class="st7" d="M606.5,38c-0.3,0.2-0.5,0.3-0.7,0.3c-0.1,0-0.3-0.2-0.4-0.3c0.2-0.2,0.3-0.4,0.5-0.4
			C606,37.6,606.1,37.8,606.5,38z"/>
		<path class="st7" d="M527.1,29.8c0.3,0,0.5-0.1,0.8-0.1c0.1,0,0.3,0.2,0.3,0.2c-0.1,0.2-0.2,0.4-0.3,0.5
			C527.6,30.2,527.3,30.1,527.1,29.8z"/>
		<path class="st7" d="M523.8,36.3c0.2,0.3,0.4,0.5,0.5,0.6c-0.2,0.1-0.3,0.3-0.5,0.3c-0.1,0-0.4-0.2-0.3-0.3
			C523.4,36.7,523.6,36.6,523.8,36.3z"/>
		<path class="st7" d="M634.8,47.4c-0.2,0.2-0.4,0.3-0.5,0.4c-0.2-0.2-0.4-0.4-0.5-0.6c0-0.1,0.2-0.2,0.3-0.4
			C634.3,47,634.5,47.1,634.8,47.4z"/>
		<path class="st7" d="M543.6,59.1c0.2,0.2,0.4,0.4,0.8,0.7c-0.3,0.1-0.6,0.3-0.7,0.2c-0.2-0.2-0.2-0.5-0.3-0.7
			C543.4,59.2,543.5,59.1,543.6,59.1z"/>
		<path class="st7" d="M624.2,37.8c-0.3,0.2-0.5,0.5-0.6,0.4c-0.2-0.1-0.3-0.3-0.4-0.5c0,0,0.2-0.3,0.3-0.3
			C623.7,37.4,623.9,37.6,624.2,37.8z"/>
		<path class="st7" d="M633.8,44.3c-0.2-0.1-0.3-0.2-0.5-0.3c0.1-0.1,0.2-0.4,0.3-0.4c0.2,0,0.4,0.2,0.7,0.2
			C634.1,43.9,634,44.1,633.8,44.3z"/>
		<path class="st7" d="M628.1,24.8c0,0.3-0.1,0.7-0.1,1c-0.1,0-0.2,0-0.3,0.1c-0.1-0.2-0.2-0.4-0.2-0.6
			C627.6,25.1,627.4,24.5,628.1,24.8z"/>
		<path class="st7" d="M504.1,1.9c0.2-0.1,0.5-0.3,0.7-0.2c0.1,0,0.2,0.3,0.3,0.5c0,0.1-0.1,0.1-0.1,0.2c-0.3,0-0.6-0.1-0.9-0.1
			C504.1,2.1,504.1,2,504.1,1.9z"/>
		<path class="st7" d="M523.6,11.4c-0.4-0.1-0.7-0.2-1.1-0.3c0,0,0-0.1,0-0.1c0.4-0.1,0.8-0.1,1.3-0.2
			C523.8,11,523.7,11.2,523.6,11.4z"/>
		<path class="st7" d="M580.6,72.7c-0.3,0.1-0.5,0.1-0.8,0.2c0-0.2,0-0.4-0.1-0.6c0.3,0,0.5,0,0.8,0
			C580.6,72.5,580.6,72.6,580.6,72.7z"/>
		<path class="st7" d="M534.3,62.4c0.3-0.2,0.5-0.4,0.6-0.4c0.2,0,0.3,0.2,0.5,0.3c-0.1,0.1-0.2,0.4-0.4,0.4
			C534.8,62.7,534.6,62.5,534.3,62.4z"/>
		<path class="st7" d="M650,19.3c-0.1,0-0.1-0.1-0.2-0.1c-0.1-0.2-0.1-0.5-0.2-0.8c0.8,0,0.9,0.4,0.7,1
			C650.2,19.4,650.1,19.4,650,19.3z"/>
		<path class="st7" d="M530.6,21.3c-1,0.1-1,0.1-0.9-0.5C530.2,20.7,530.2,20.7,530.6,21.3z"/>
		<path class="st7" d="M544.9,61.6c-0.1,0.3,0.1,0.7-0.5,0.7c-0.1,0-0.2-0.2-0.3-0.3c0.2-0.2,0.5-0.4,0.7-0.6
			C544.8,61.5,544.8,61.5,544.9,61.6z"/>
		<path class="st7" d="M649.2,16.8c0.4,0,0.9,0,1.3,0C650.4,17.3,649.7,17.3,649.2,16.8z"/>
		<path class="st7" d="M507.8,26.8c0.2,0.1,0.5,0.2,0.8,0.4c-0.1,0.2-0.2,0.4-0.4,0.5c-0.2-0.3-0.4-0.5-0.6-0.8
			C507.7,26.9,507.7,26.8,507.8,26.8z"/>
		<path class="st7" d="M526.7,23.8c0.2,0.3,0.4,0.6,0.5,1c-0.6,0.1-0.8-0.2-0.7-0.9C526.6,23.9,526.6,23.9,526.7,23.8z"/>
		<path class="st7" d="M532.3,58.6c-0.2,0.2-0.4,0.4-0.5,0.4c-0.2-0.1-0.4-0.3-0.6-0.4c0.1-0.1,0.3-0.3,0.4-0.3
			C531.8,58.3,532,58.5,532.3,58.6z"/>
		<path class="st7" d="M491.2,0.6c-0.1-0.2-0.3-0.4-0.4-0.6c0-0.2,0.1-0.4,0.2-0.6c0.9,0.3,0.1,0.8,0.4,1.1
			C491.3,0.6,491.2,0.6,491.2,0.6z"/>
		<path class="st7" d="M639.3,41.1c-0.1,0.4-0.1,0.9-0.7,0.8C638.5,41.3,638.6,41.1,639.3,41.1z"/>
		<path class="st7" d="M555.3,48.9c0-0.3,0-0.6,0-0.8c0-0.1,0.2-0.2,0.4-0.3c0.1,0.1,0.2,0.3,0.2,0.4c-0.1,0.3-0.2,0.5-0.3,0.8
			C555.5,48.9,555.4,48.9,555.3,48.9z"/>
		<path class="st7" d="M534.6,30.7c0.2,0.3,0.4,0.5,0.5,0.7c-0.2,0.1-0.4,0.3-0.5,0.2C534.3,31.5,534.3,31.2,534.6,30.7z"/>
		<path class="st7" d="M525.4,25c-0.5,0.1-0.7-0.1-0.7-0.5c0-0.1,0.4-0.4,0.5-0.3C525.7,24.3,525.4,24.7,525.4,25z"/>
		<path class="st7" d="M609.2,42.6c-0.3-0.4-0.4-0.7-0.6-0.9c0-0.1,0.1-0.1,0.1-0.2c0.3,0.2,0.6,0.3,0.9,0.5
			C609.5,42.1,609.4,42.3,609.2,42.6z"/>
		<path class="st7" d="M501.2,24.6c0.3,0.4,0.6,0.7,1,1.1C500.9,25.4,500.9,25.4,501.2,24.6z"/>
		<path class="st7" d="M569.2,54.4c-0.4-0.4-0.4-0.4-0.1-0.9C569.9,53.8,569.9,53.9,569.2,54.4z"/>
		<path class="st7" d="M637.2,38c-0.5-0.7-0.5-0.7,0.1-1.1C637.5,37.3,637.6,37.7,637.2,38z"/>
		<path class="st7" d="M615.1,64.5c-0.4,0.4-0.7,0.3-0.9,0.1c-0.1-0.1,0-0.4,0.1-0.4C614.7,63.8,614.7,64.5,615.1,64.5z"/>
		<path class="st7" d="M546.2,39c0.4,0.7,0.4,0.7-0.6,1C545.8,39.6,546,39.3,546.2,39z"/>
		<path class="st7" d="M509.6,10.2c0.1-0.3,0.1-0.5,0.2-0.8c0.1,0,0.1-0.1,0.2-0.1c0.1,0.2,0.3,0.5,0.4,0.7
			c-0.2,0.1-0.4,0.2-0.7,0.3C509.7,10.3,509.6,10.2,509.6,10.2z"/>
		<path class="st7" d="M515.1,11.1c0,0.3,0.1,0.5,0.1,0.8c0,0-0.1,0.1-0.1,0.1c-0.2-0.1-0.5-0.2-0.5-0.3c0-0.2,0.1-0.5,0.2-0.7
			C514.9,11.1,515,11.1,515.1,11.1z"/>
		<path class="st7" d="M580.1,50c0.1-0.4,0.2-0.8,0.3-1.2c0.1,0.1,0.2,0.1,0.3,0.1C580.4,49.3,581.2,49.9,580.1,50z"/>
		<path class="st7" d="M633.8,46.5c-0.5,0.1-0.8,0.1-1.3,0.1c0.2-0.4,0.4-0.6,0.6-0.9C633.4,45.9,633.6,46.1,633.8,46.5z"/>
		<path class="st7" d="M583.5,69.3c0.1,0.2,0.1,0.5,0.2,0.7c-0.2,0-0.4,0-0.6,0c0-0.2,0.1-0.5,0.1-0.7
			C583.3,69.3,583.4,69.3,583.5,69.3z"/>
		<path class="st7" d="M586.8,71.6c-0.2,0.1-0.4,0.3-0.7,0.4c-0.4-0.3-0.3-0.6,0-0.8c0.1-0.1,0.5,0.1,0.7,0.2
			C586.8,71.5,586.8,71.5,586.8,71.6z"/>
		<path class="st7" d="M489.8,1.8c0.1-0.3-0.4-0.9,0.3-1.1C490.3,1.2,490.3,1.2,489.8,1.8z"/>
		<path class="st7" d="M632.6,9c-0.2-0.1-0.3-0.2-0.5-0.4c0.2-0.2,0.3-0.4,0.5-0.5c0.1,0,0.1,0,0.2,0c0,0.3,0.1,0.6,0.1,0.8
			C632.8,8.9,632.7,9,632.6,9z"/>
		<path class="st7" d="M594.1,37.6c-0.4-0.1-1,0.5-1.1-0.6c0.4,0.1,0.8,0.2,1.1,0.3C594.2,37.5,594.2,37.5,594.1,37.6z"/>
		<path class="st7" d="M555.7,42.4c0.4,0.3,0.6,0.5,0.8,0.7c0,0.1,0,0.1-0.1,0.2c-0.3-0.1-0.6-0.1-0.9-0.2
			C555.5,43,555.6,42.8,555.7,42.4z"/>
		<path class="st7" d="M521.2,44.6c-0.3-0.2-0.5-0.4-0.7-0.5c0.1-0.1,0.2-0.3,0.4-0.3C521.3,43.8,521.2,44.1,521.2,44.6z"/>
		<path class="st7" d="M516.8,49.7c0.4,0,0.7,0,1.2,0C517,50.3,517,50.3,516.8,49.7z"/>
		<path class="st7" d="M647.1,30c-0.3,0.9-0.5,1-1.1,0.4C646.4,30.2,646.7,30.1,647.1,30z"/>
		<path class="st7" d="M637.5,38.6c0.2,0.2,0.4,0.5,0.1,0.9c0,0.1-0.2,0-0.4,0c0-0.3,0-0.6,0-0.9C637.3,38.6,637.4,38.6,637.5,38.6z
			"/>
		<path class="st7" d="M513.1,39.9c-0.3,0.2-0.5,0.3-0.7,0.3c-0.1,0-0.3-0.2-0.4-0.3c0.1-0.2,0.3-0.4,0.4-0.4
			C512.6,39.5,512.8,39.7,513.1,39.9z"/>
		<path class="st7" d="M572.7,51.9c-0.5-0.4-0.6-0.7-0.2-0.9c0.1-0.1,0.3,0,0.5-0.1C572.9,51.2,572.8,51.5,572.7,51.9z"/>
		<path class="st7" d="M614.5,26.8c0.5,0.4,0.5,0.6,0.3,0.9c-0.1,0.1-0.3,0-0.5-0.1C614.4,27.4,614.4,27.1,614.5,26.8z"/>
		<path class="st7" d="M593.4,39c-0.4-0.2-0.7-0.3-1.2-0.6c0.5-0.1,0.8-0.1,1.2-0.2C593.4,38.6,593.4,38.8,593.4,39z"/>
		<path class="st7" d="M551.5,52.5c-0.3,0-0.5,0.1-0.8,0.1c0-0.2,0-0.3,0-0.5c0.3,0,0.5,0,0.8,0C551.5,52.2,551.5,52.4,551.5,52.5z"
			/>
		<path class="st7" d="M568.9,56.6c-0.3,0-0.5,0-0.8-0.1c0-0.2,0.1-0.4,0.1-0.6c0.2,0.1,0.5,0.2,0.7,0.4
			C569,56.4,568.9,56.5,568.9,56.6z"/>
		<path class="st7" d="M544.3,57.4c0.1,0.2,0.3,0.3,0.4,0.5c-0.2,0.2-0.5,0.3-0.7,0.5c-0.1-0.2-0.2-0.3-0.3-0.5
			C543.8,57.7,544,57.6,544.3,57.4z"/>
		<path class="st7" d="M536.8,64.2c0.2-0.2,0.3-0.4,0.5-0.7c0.1,0.1,0.3,0.2,0.3,0.3c0.1,0.6-0.5,0.3-0.6,0.5
			C536.9,64.3,536.9,64.2,536.8,64.2z"/>
		<path class="st7" d="M633.5,14.8c0.2-0.2,0.3-0.3,0.5-0.5c0.1,0.2,0.2,0.3,0.4,0.5c-0.2,0.1-0.4,0.2-0.7,0.4
			C633.6,15,633.6,14.9,633.5,14.8z"/>
		<path class="st7" d="M608.1,38.2c0.2-0.1,0.5-0.2,0.7-0.3c0,0.1,0.1,0.1,0.1,0.2c-0.1,0.2-0.2,0.5-0.3,0.8
			c-0.2-0.2-0.4-0.3-0.5-0.4C608.1,38.4,608.1,38.3,608.1,38.2z"/>
		<path class="st7" d="M646.1,29c0.2-0.2,0.4-0.3,0.6-0.5c0.4,0.4,0.3,0.7-0.2,0.9C646.4,29.3,646.3,29.2,646.1,29z"/>
		<path class="st7" d="M563.2,61.2c-0.2,0.7-0.7,0.3-1.1,0.6c0-0.1-0.1-0.1-0.1-0.2c0.3-0.2,0.5-0.4,0.8-0.6
			C563,61,563.1,61.1,563.2,61.2L563.2,61.2z"/>
		<path class="st7" d="M642.2,32.1c0.3,0.7-0.2,0.8-0.6,1C641.6,32.6,641.8,32.3,642.2,32.1z"/>
		<path class="st7" d="M607.2,53c0.2-0.2,0.5-0.4,0.8-0.7c0.1,0.2,0.2,0.3,0.3,0.6c-0.4,0.1-0.7,0.2-1,0.3
			C607.3,53.2,607.3,53.1,607.2,53z"/>
		<path class="st7" d="M588.6,55.3c0.2,0.8,0.2,0.8-0.5,0.8C587.8,55.5,588.3,55.5,588.6,55.3z"/>
		<path class="st7" d="M528.2,25.3c0.1,0.2,0.1,0.5,0.2,0.7c-0.2,0-0.4,0.1-0.5,0.1c-0.3-0.2-0.2-0.5,0-0.8
			C528,25.3,528.1,25.3,528.2,25.3z"/>
		<path class="st7" d="M541,49.6c-0.2,0.3-0.4,0.5-0.7,0.9c-0.1-0.4-0.2-0.5-0.2-0.8c0.3-0.1,0.5-0.2,0.8-0.3
			C541,49.5,541,49.6,541,49.6z"/>
		<path class="st7" d="M577.7,74.9c-0.2-0.1-0.4-0.3-0.7-0.4c0.1-0.1,0.3-0.4,0.3-0.4c0.2,0.1,0.4,0.3,0.5,0.5
			C577.9,74.7,577.8,74.8,577.7,74.9z"/>
		<path class="st7" d="M523.2,45.2c0.3,0.3,0.5,0.4,0.7,0.6c0,0.1-0.1,0.1-0.1,0.2c-0.3,0-0.6,0-0.9,0c0,0-0.1-0.1-0.1-0.1
			C522.9,45.7,523,45.5,523.2,45.2z"/>
		<path class="st7" d="M572,75.8c-0.2,0-0.3,0.1-0.3,0.1c-0.1,0-0.2,0-0.5-0.1c0.2-0.3,0.3-0.5,0.4-0.8c0.1,0,0.1,0,0.2,0
			C571.9,75.3,571.9,75.5,572,75.8z"/>
		<path class="st7" d="M619.6,51.8c0.1,0.3,0.2,0.5,0.3,0.8c0,0.1-0.1,0.1-0.1,0.2c-0.2-0.1-0.5-0.2-0.8-0.4
			C619.2,52.1,619.3,52,619.6,51.8z"/>
		<path class="st7" d="M550.8,47.7c-0.1,0.2-0.3,0.4-0.4,0.6c-0.1,0-0.1,0-0.2,0c-0.1-0.2-0.3-0.5-0.2-0.6
			C550.2,47.4,550.5,47.4,550.8,47.7z"/>
		<path class="st7" d="M547.1,31.5c-0.2,0.1-0.4,0.3-0.6,0.4c0,0-0.3-0.3-0.3-0.4c0.2-0.3,0.4-0.3,0.7-0.2
			C547,31.3,547.1,31.4,547.1,31.5z"/>
		<path class="st7" d="M531.9,32.2c-0.1-0.2-0.3-0.3-0.4-0.5c0.2-0.3,0.5-0.4,0.7-0.2c0.1,0.1,0,0.4,0,0.6
			C532.1,32.2,532,32.2,531.9,32.2z"/>
		<path class="st7" d="M559.9,69.6c0.1-0.2,0.3-0.4,0.4-0.6c0.1,0.1,0.4,0.2,0.4,0.3c0,0.4-0.4,0.4-0.6,0.5
			C560.1,69.7,560,69.7,559.9,69.6z"/>
		<path class="st7" d="M628.2,39.5c-0.5,0.5-0.7,0.1-1.2-0.1C627.7,39,627.8,39.1,628.2,39.5z"/>
		<path class="st7" d="M593.8,51.9c0.4-0.3,0.7-0.7,1.1-0.2C594.6,52.1,594.6,52.1,593.8,51.9z"/>
		<path class="st7" d="M536.1,25.5c0.2-0.2,0.3-0.3,0.5-0.6c0.2,0.4,0.3,0.7,0.4,1.1c0,0-0.1,0-0.1,0.1
			C536.6,25.9,536.4,25.7,536.1,25.5z"/>
		<path class="st7" d="M512.8,29.9c-0.1-0.3-0.3-0.5-0.3-0.7c0-0.1,0.2-0.2,0.4-0.3c0.1,0.1,0.3,0.3,0.2,0.4
			C513.1,29.5,513,29.6,512.8,29.9z"/>
		<path class="st7" d="M549.7,55.9c0.5,0,0.8,0.1,0.8,0.5c0,0.1-0.2,0.2-0.4,0.3C550,56.4,549.9,56.2,549.7,55.9z"/>
		<path class="st7" d="M608.6,23.7c-0.2,0.1-0.4,0.2-0.6,0.4c-0.1-0.2-0.1-0.3-0.2-0.5c0.2-0.1,0.5-0.1,0.7-0.2
			C608.6,23.5,608.6,23.6,608.6,23.7z"/>
		<path class="st7" d="M607.8,22.5c0.1-0.3,0.3-0.6,0.6-0.4c0.1,0,0.1,0.2,0.2,0.3c-0.2,0.1-0.5,0.2-0.7,0.3
			C607.8,22.7,607.8,22.6,607.8,22.5z"/>
		<path class="st7" d="M547.7,52.2c-0.2,0.1-0.3,0.3-0.5,0.4c-0.4-0.2-0.4-0.5-0.2-0.7c0.1-0.1,0.5,0,0.7,0
			C547.7,52,547.7,52.1,547.7,52.2z"/>
		<path class="st7" d="M518.2,48.4c-0.2-0.1-0.5-0.2-0.5-0.3c0-0.2,0.2-0.4,0.3-0.6c0.1,0,0.1,0,0.2,0c0.1,0.2,0.1,0.5,0.2,0.7
			C518.3,48.3,518.3,48.3,518.2,48.4z"/>
		<path class="st7" d="M639.7,21.1c-0.5-0.1-0.8-0.2-0.7-0.6c0-0.1,0.3-0.2,0.4-0.2C639.4,20.5,639.5,20.7,639.7,21.1z"/>
		<path class="st7" d="M498.6,19.4c-0.3,0-0.6,0-0.8,0.1c0-0.1,0-0.2,0-0.4c0.3,0,0.6,0,0.9,0C498.6,19.2,498.6,19.3,498.6,19.4z"/>
		<path class="st7" d="M644.3,19.2c-0.2-0.1-0.5-0.2-0.7-0.3c0.1-0.1,0.1-0.4,0.3-0.4C644.2,18.4,644.3,18.7,644.3,19.2z"/>
		<path class="st7" d="M601.4,45.5c0.4,0,0.7,0,0.6,0.5c0,0.1-0.2,0.3-0.3,0.3C601.2,46.2,601.2,45.9,601.4,45.5z"/>
		<path class="st7" d="M584.4,46.1c-0.5-0.1-0.7-0.2-0.9-0.3c0,0,0-0.1,0-0.1c0.3-0.1,0.5-0.2,0.8-0.3
			C584.3,45.6,584.3,45.8,584.4,46.1z"/>
		<path class="st7" d="M631.4,17.4c0.1-0.1,0.3-0.2,0.4-0.4c0.1,0,0.1,0,0.2,0c0,0.3,0,0.5,0.1,0.8c-0.2-0.1-0.4-0.1-0.6-0.2
			C631.4,17.6,631.4,17.5,631.4,17.4z"/>
		<path class="st7" d="M630.8,17c0-0.4,0-0.6,0-0.8c0.2,0,0.4,0,0.5,0.1C631.5,16.6,631.4,16.8,630.8,17z"/>
		<path class="st7" d="M622.2,40.4c-0.2,0.5-0.4,0.7-0.7,0.6c-0.1-0.1-0.1-0.3-0.2-0.5C621.6,40.5,621.9,40.4,622.2,40.4z"/>
		<path class="st7" d="M622.3,12.9c0.1,0.3,0.1,0.5,0.2,0.8c-0.2,0-0.4,0.2-0.5,0.1C621.8,13.5,621.9,13.3,622.3,12.9z"/>
		<path class="st7" d="M503.3,12.7c0.2,0.4,0.3,0.6,0.4,0.9c-0.4,0-0.7,0-0.8-0.4C502.9,13.1,503.1,13,503.3,12.7z"/>
		<path class="st7" d="M525,44.7c0.2-0.8,0.6-0.4,1.1-0.2C525.7,44.5,525.5,45.2,525,44.7z"/>
		<path class="st7" d="M650.3,12.7c0.1-0.2,0.2-0.5,0.3-0.5c0.2,0,0.4,0.2,0.6,0.2c0,0.1,0,0.1,0,0.2c-0.2,0.1-0.5,0.1-0.7,0.2
			C650.4,12.7,650.3,12.7,650.3,12.7z"/>
		<path class="st7" d="M579.9,65C579.9,65,579.9,65,579.9,65c-0.1-0.5,0.1-0.6,0.5-0.6c0.1,0,0.2,0.3,0.4,0.6
			C580.4,65,580.1,65,579.9,65z"/>
		<path class="st7" d="M600.3,37.8c0-0.2,0-0.5,0-0.7c0.1,0,0.4,0,0.4,0.1C600.9,37.4,600.8,37.7,600.3,37.8z"/>
		<path class="st7" d="M610.4,43.9c-0.2,0.6-0.2,0.6-0.7,0.7C609.5,43.9,609.5,43.9,610.4,43.9L610.4,43.9z"/>
		<path class="st7" d="M618.2,33c0.2,0.1,0.5,0.3,0.7,0.4c0,0.1,0,0.1,0,0.2c-0.2,0-0.5,0.2-0.6,0.1c-0.1-0.1-0.2-0.4-0.3-0.6
			C618.1,33.1,618.1,33,618.2,33z"/>
		<path class="st7" d="M519.3,6.4c-0.1-0.2-0.2-0.4-0.3-0.5c0-0.1,0.1-0.1,0.1-0.2c0.2,0.1,0.7,0.1,0.7,0.2
			C519.9,6.3,519.6,6.4,519.3,6.4L519.3,6.4z"/>
		<path class="st7" d="M495,10.5c0.1,0.3,0.3,0.5,0.4,0.8c-0.3,0.5-0.5,0-0.8-0.2C494.7,10.9,494.9,10.7,495,10.5L495,10.5z"/>
		<path class="st7" d="M626.3,44.6c-0.1-0.2-0.2-0.4-0.3-0.6c0.2-0.1,0.4-0.2,0.6-0.3c0,0,0.1,0.1,0.1,0.1c-0.1,0.2-0.1,0.5-0.2,0.7
			C626.4,44.6,626.4,44.6,626.3,44.6z"/>
		<path class="st7" d="M507.5,10.7c-0.2,0.4-0.5,0.5-0.8,0.3c-0.1-0.1-0.1-0.3,0-0.4C507,10.2,507.2,10.7,507.5,10.7z"/>
		<path class="st7" d="M545.4,51.1c-0.1,0.2-0.2,0.5-0.3,0.7c-0.1,0-0.1,0-0.2,0c-0.1-0.2-0.2-0.4-0.2-0.7c0-0.1,0.3-0.1,0.5-0.2
			C545.3,51,545.3,51,545.4,51.1z"/>
		<path class="st7" d="M525.7,52.4c0.2-0.1,0.4-0.3,0.6-0.4c0.1,0.2,0.1,0.3,0.2,0.5c-0.2,0.1-0.5,0.1-0.7,0.2
			C525.8,52.6,525.7,52.5,525.7,52.4z"/>
		<path class="st7" d="M528.3,38c0.3,0.1,0.6,0.1,0.9,0.2c-0.1,0.2-0.1,0.4-0.2,0.7c-0.3-0.3-0.5-0.6-0.7-0.8
			C528.3,38,528.3,38,528.3,38z"/>
		<path class="st7" d="M541.3,61.9c-0.2-0.1-0.4-0.2-0.5-0.3c0.1-0.4,0.4-0.5,0.7-0.3c0.1,0.1,0.1,0.4,0.1,0.6
			C541.4,61.8,541.4,61.9,541.3,61.9z"/>
	</g>
	<g>
		<path class="st8" d="M644.1,8.3l-8.8-14.9c0,0,10.2-13.1,9.7-14.5c-0.5-1.3-16.3-8.5-16.3-8.5s7.8-13.3,6.6-15.9
			c-1.2-2.6-15.7-2.1-15.7-2.1s1.3-11.8,0.4-13.2c-0.9-1.4-16.7,0.9-16.7,0.9s-4.7-13.9-5.1-14.9c-0.3-1-1-0.8-1-0.8L585-66.2
			c0,0-12.8-13.2-14.2-13c-1.4,0.2-11.2,14.6-11.2,14.6s-11.8-9.9-14.5-9.2c-2.8,0.7-4.8,15.1-4.8,15.1s-11.4-3.3-12.9-2.7
			c-1.5,0.6-1.9,16.7-1.9,16.7s-14.5,2.3-15.5,2.4c-1,0.2-1,0.8-1,0.8l7.2,13.6c0,0-14,3-13.9,4.2c0.1,1.2,0.1,0.7,0.1,0.7L512-8.2
			c0,0-11.1,13.2-10.6,14.6c0.5,1.3,16.3,8.5,16.3,8.5s-7.8,13.3-6.6,15.9c1.2,2.6,15.7,2.1,15.7,2.1s-1.3,11.8-0.4,13.2
			c0.9,1.4,16.7-0.9,16.7-0.9s4.7,13.9,5.1,14.9c0.3,1,1,0.8,1,0.8l12.2-9.4c0,0,12.8,13.2,14.2,13c1.4-0.2,11.2-14.6,11.2-14.6
			s11.8,9.9,14.5,9.2C604,58.4,606,44,606,44s11.4,3.3,12.9,2.7s1.9-16.7,1.9-16.7s14.5-2.3,15.5-2.4c1-0.2,1-0.8,1-0.8l-7.2-13.6
			c0,0,14-3,13.9-4.2C644.1,7.8,644.1,8.3,644.1,8.3z M572.8,38.9c-25.3,0-45.8-20.6-45.8-45.9c0-25.3,20.6-45.9,45.8-45.9
			c25.3,0,45.9,20.6,45.9,45.9C618.6,18.3,598.1,38.9,572.8,38.9z"/>
	</g>
	<g>
		<path class="st9" d="M574.1,56.3c-0.8,0-2.6-0.6-11.9-9.9c-0.9,0.6-2.4,1.7-3.6,2.6c-4.5,3.4-5.9,4.3-7.1,4.3c0,0,0,0,0,0
			c-1.2,0-2.8,0-5.2-13.4c-12.6,2.9-13.8,2.4-14.3,2.1c-0.9-0.4-2.1-1-2-13.5c-11.4,0.8-11.8,0-12.4-0.9c-0.5-0.8-0.9-1.5,4.2-14.2
			c-14.5-5.8-14.9-7.1-15.1-7.8c-0.3-1-0.8-2.3,10.8-13.3l-7.7-12.2c-0.3-0.5-0.3-1.1-0.1-1.6c0.2-0.5,0.7-0.9,1.3-1
			c4.2-0.6,9-1.4,11.1-1.9c-0.4-1.1-1.2-2.9-1.8-4.2c-2.3-5.4-3-7.1-2.7-8.2c0.2-1,0.5-2.5,12.3-4.3c-0.3-13.2,0.5-14.3,0.9-14.7
			c0.6-0.8,1.5-1.9,13.6,0.8c1.6-11.3,2.5-11.6,3.4-11.9c0.9-0.3,1.7-0.6,13,7c8.7-13,10-13.1,10.7-13.2c1-0.1,2.3-0.3,10.9,12.4
			c1-0.6,2.7-1.6,4-2.4c5.1-3.1,6.6-3.9,7.7-3.8c1,0.1,2.5,0.2,5.9,11.6c13.1-2.1,14.2-1.4,14.7-1.1c0.9,0.5,2,1.2,1.1,13.6
			c11.4,0,11.8,0.9,12.3,1.7c0.4,0.8,0.8,1.6-5.2,13.8c14,6.8,14.4,8.1,14.6,8.8c0.2,0.8,0.5,2-7.4,13.5c1,1,2.5,2.5,4,4.1
			c4.8,5,5.6,6.6,4.6,8c-0.4,0.5-1.1,1.5-12.5,3.2c0.4,1.1,1,2.7,1.5,4c2.1,5.5,2.6,7.2,2.3,8.3c-0.3,1-0.7,2.5-12.5,3.6
			c-0.4,13.2-1.3,14.2-1.6,14.7c-0.7,0.8-1.5,1.8-13.5-1.5c-2.2,11.2-3.1,11.4-4,11.7c-0.9,0.3-1.7,0.5-12.6-7.7
			c-9.3,12.5-10.6,12.6-11.4,12.6C574.2,56.3,574.2,56.3,574.1,56.3z M574.6,53L574.6,53L574.6,53z M562.5,42.6c0.2,0,0.3,0,0.5,0.1
			c0.3,0.1,0.6,0.2,0.8,0.5c3.8,3.9,8.5,8.3,10.3,9.5c1.7-1.6,6.2-7.4,10-12.4c0.3-0.4,0.7-0.6,1.1-0.7c0.5-0.1,0.9,0.1,1.3,0.3
			c3.9,2.9,8.4,6.2,10.6,7.6c0.6-2.1,1.6-6.5,2.3-10.3c0.1-0.5,0.4-0.9,0.8-1.1c0.4-0.3,0.9-0.3,1.4-0.2c4.4,1.3,9.8,2.5,11.8,2.7
			c0.4-2.2,0.7-8.4,0.9-13.7c0-0.9,0.7-1.6,1.5-1.7c4.2-0.4,9.1-1.1,10.9-1.7c-0.4-1.4-1.4-4.1-2-5.8c-2-5.5-2.3-6.4-1.8-7.5
			c0.3-0.5,0.7-0.8,1.2-0.9c4.1-0.6,8.8-1.4,11-2c-1.5-1.9-5.1-5.7-8.3-8.7c-0.6-0.6-0.7-1.5-0.2-2.2c3.1-4.5,6.5-9.9,7.4-11.9
			c-1.9-1.4-8.4-4.8-14-7.5c-0.4-0.2-0.7-0.6-0.9-1c-0.1-0.4-0.1-0.9,0.1-1.3c2.2-4.4,4.5-9.5,5.5-11.8c-2.2-0.2-6.7-0.4-10.6-0.3
			c0,0,0,0,0,0c-0.5,0-0.9-0.2-1.3-0.6c-0.3-0.4-0.5-0.8-0.4-1.3c0.4-4.6,0.6-10.1,0.4-12.1c-2.2,0-8.4,0.8-13.6,1.7
			c-0.9,0.1-1.7-0.4-1.9-1.2c-1.1-4-2.8-8.7-3.7-10.4c-1.3,0.6-3.8,2.1-5.4,3.1c-5,3-5.9,3.5-7,3.1c-0.4-0.1-0.7-0.4-0.9-0.7
			c-3.1-4.6-6.8-9.8-8.5-11.6c-1.7,1.9-5.8,7.7-9.1,12.7c-0.3,0.4-0.6,0.6-1.1,0.7c-0.4,0.1-0.9,0-1.3-0.3c-4-2.7-8.7-5.8-11-7
			c-0.5,2.1-1.3,6.6-1.8,10.4c-0.1,0.5-0.3,0.9-0.7,1.2c-0.4,0.3-0.9,0.4-1.4,0.3c-4.5-1-9.9-2-11.9-2c-0.3,2.2-0.3,8.4-0.2,13.7
			c0,0.9-0.6,1.6-1.5,1.7c-4.1,0.6-9,1.6-10.8,2.2c0.4,1.3,1.6,4,2.3,5.7c2.3,5.4,2.7,6.3,2.2,7.4c-0.4,0.8-0.8,1.6-11.5,3.2l7,11.2
			c0.4,0.7,0.3,1.6-0.3,2.1c-4.2,3.9-8.8,8.7-10.4,10.8c2.3,1.3,8.7,4.1,14.2,6.3c0.4,0.2,0.8,0.5,0.9,0.9c0.2,0.4,0.2,0.9,0,1.3
			c-1.9,4.5-3.9,9.8-4.6,12.2c2.2,0.1,6.7-0.1,10.6-0.4c0.5,0,0.9,0.1,1.3,0.5c0.3,0.3,0.5,0.8,0.5,1.3c-0.1,4.6,0.1,10.1,0.4,12.1
			c2.2-0.2,8.3-1.4,13.4-2.7c0.5-0.1,0.9,0,1.3,0.2c0.4,0.3,0.7,0.7,0.7,1.1c0.8,4.5,2,9.9,2.8,12c1.2-0.8,3.2-2.2,4.5-3.2
			C560.3,43.4,561.5,42.6,562.5,42.6z M551.2,49.9L551.2,49.9L551.2,49.9z M598.1,48.1L598.1,48.1L598.1,48.1z M520.6,26.6
			L520.6,26.6L520.6,26.6z M519.7,25.2 M626.7,22.2L626.7,22.2L626.7,22.2z M634.2-18L634.2-18L634.2-18z M625.8-38.9L625.8-38.9
			L625.8-38.9z M625-40.2L625-40.2L625-40.2z M594.1-63.5 M549.6-64.3"/>
	</g>
</g>
<g>
	<path class="st7" d="M24.6,55.9c-0.1-1.9,2-3.6,3.5-3.2c0.8,0.3,1.6,0.6,2.3,1.1c2,1.4,1.9,2.5-0.3,3.4c-1.5,0.6-3,0.5-4.5-0.3
		C25.1,56.8,24.8,56.2,24.6,55.9"/>
	<path class="st7" d="M53,66.5c-0.1-1,0.7-2.4,1.4-2.7c0.3-0.1,0.7-0.2,1-0.1c1.6,0.6,2.9,1.8,3.9,3.2c0.2,0.2,0.2,0.7,0,1
		c-0.6,1-2.1,1.6-3.1,1.1c-0.9-0.5-1.8-1-2.6-1.6C53.3,67.2,53.1,66.7,53,66.5"/>
	<path class="st7" d="M46.9,55.8c1.9,0.6,3.4,1.5,4.3,3.2c0.1,0.2,0,0.7-0.1,0.9c-0.6,0.8-1.5,1.3-2.5,1c-1.1-0.3-2.1-0.8-3.1-1.3
		c-0.8-0.4-0.9-1.3-0.5-2c0.3-0.5,0.7-1,1.1-1.4C46.3,55.9,46.7,55.9,46.9,55.8"/>
	<path class="st7" d="M35.4,62.9c0-1.1,0.9-2.4,1.7-2.6c0.3-0.1,0.7-0.1,1,0c1.3,0.6,2.6,1.4,3.5,2.5c0.5,0.6,0.4,1.3-0.3,1.7
		c-1,0.7-2,0.9-3.1,0.4c-0.7-0.3-1.4-0.6-2-1.1C35.7,63.7,35.6,63.2,35.4,62.9"/>
	<path class="st7" d="M50.4,52.1c0.1-1.7,1.6-2.8,2.9-2.3c1.1,0.4,2.2,1,3.1,1.7c0.9,0.7,0.7,1.6-0.3,2.3c-0.9,0.6-1.9,0.8-2.9,0.4
		c-0.7-0.3-1.4-0.6-2.1-1C50.7,52.9,50.6,52.4,50.4,52.1"/>
	<path class="st7" d="M50.9,69.1c-0.8,0.5-1.3,0.9-1.9,1.2c-1.4,0.6-3.7-0.3-4.3-1.6c-0.1-0.3-0.2-0.7-0.1-1
		c0.2-0.5,0.4-0.9,0.7-1.3c0.6-0.9,1.2-1.1,2.2-0.6C48.8,66.5,50.1,67.3,50.9,69.1"/>
	<path class="st7" d="M17.8,62.2c-0.3-0.1-0.9-0.2-1.4-0.5c-0.7-0.4-1-1.3-0.6-2c0.3-0.6,0.7-1.2,1.2-1.6c0.3-0.3,0.9-0.5,1.4-0.5
		c1.3,0.1,2.5,0.6,3.4,1.6c0.4,0.5,0.4,1.2-0.2,1.6C20.5,61.6,19.4,62.1,17.8,62.2"/>
	<path class="st7" d="M39.5,57.1c-0.7-0.2-1.3-0.3-1.9-0.5c-1.5-0.7-1.8-1.6-0.9-3c0.2-0.3,0.4-0.6,0.6-0.8c0.4-0.5,1-0.6,1.6-0.4
		c1.1,0.4,2.1,1.1,2.7,2.2c0.3,0.5,0.3,1-0.1,1.4C41,56.4,40.2,56.8,39.5,57.1"/>
	<path class="st7" d="M54.1,73.4c0-1.6,1.4-2.6,2.6-2.1c1.2,0.6,2.4,1.3,3.3,2.4c0.4,0.5,0.3,1.1-0.3,1.6c-0.9,0.6-1.9,0.9-2.9,0.3
		c-0.7-0.4-1.5-0.8-2.2-1.3C54.4,74.1,54.2,73.6,54.1,73.4"/>
	<path class="st7" d="M62.6,49.8c-1.4-0.1-2.3-0.5-3-1.4c-0.3-0.4-0.5-1-0.2-1.5c0.3-0.5,0.7-1,1.1-1.4c0.3-0.2,0.8-0.4,1.2-0.3
		c1.2,0.3,2.2,0.9,3,1.8c0.5,0.6,0.5,1.4-0.2,1.8C63.9,49.3,63.1,49.6,62.6,49.8"/>
	<path class="st7" d="M54.1,44.1c-1.1-0.3-1.9-0.4-2.7-0.7c-0.8-0.3-1.1-1.1-0.7-1.9c0.6-1.3,1.4-1.8,2.9-1.4c1,0.2,2,0.5,2.7,1.3
		c0.6,0.7,0.6,1.4-0.3,1.9C55.3,43.7,54.6,43.9,54.1,44.1"/>
	<path class="st7" d="M35.7,48.3c-0.5,0.3-1,0.9-1.5,0.9c-1.2,0.1-2.4,0.1-3.5-0.1c-1.1-0.2-1.4-1.3-0.8-2.2c0.2-0.4,0.5-0.7,0.8-1
		c0.5-0.6,1.1-0.8,1.8-0.5C33.9,45.9,35,46.7,35.7,48.3"/>
	<path class="st7" d="M60.9,56.9c0-1.8,1.8-2.9,3.2-2c0.7,0.4,1.3,1,1.9,1.6c0.5,0.6,0.4,1.3-0.3,1.8c-1.6,1.2-3.3,0.9-4.5-0.6
		C61.1,57.4,61,57.1,60.9,56.9"/>
	<path class="st7" d="M46.9,48.6c-0.4,1-1.3,1.4-2.2,1.5c-0.9,0-1.9-0.2-2.7-0.5c-0.8-0.3-1-1.2-0.7-2c0.2-0.5,0.5-0.9,0.9-1.3
		c0.2-0.2,0.6-0.5,0.9-0.4c0.7,0.2,1.5,0.5,2.1,0.8C45.9,47.2,46.7,47.6,46.9,48.6"/>
	<path class="st7" d="M57.5,58.3c0.4,0.1,0.7,0.1,0.8,0.2c0.9,0.7,1.7,1.4,2.5,2.2c0.6,0.6,0.3,1.6-0.6,1.8c-0.5,0.1-1,0.2-1.5,0
		c-0.7-0.2-1.3-0.5-1.9-0.8C55.7,61,55.6,60,56.6,59C56.8,58.7,57.2,58.5,57.5,58.3"/>
	<path class="st7" d="M9.3,60.8c-0.4-0.1-0.8-0.1-1-0.3c-0.3-0.3-0.6-0.7-0.6-1c0-1,1.1-2.2,2.1-2.3c0.5,0,1,0,1.5,0.2
		c0.7,0.3,1.5,0.7,1.6,1.5c0.1,1-0.9,1.2-1.6,1.5C10.6,60.5,9.9,60.6,9.3,60.8"/>
	<path class="st7" d="M69.1,46c-0.4-0.1-0.8-0.1-1-0.3c-0.3-0.3-0.6-0.7-0.6-1c0-1,1.1-2.2,2.1-2.3c0.5,0,1,0,1.5,0.2
		c0.7,0.3,1.5,0.7,1.6,1.5c0.1,1-0.9,1.2-1.6,1.5C70.4,45.8,69.7,45.8,69.1,46"/>
	<path class="st7" d="M31.3,63.1c-1,1.2-2.4,1.4-3.9,1.1c-1-0.2-1.3-1.2-0.8-2c0.8-1.4,1.8-1.7,3.2-1C30.5,61.6,31.3,62,31.3,63.1"
		/>
	<path class="st7" d="M43.5,42.7c-0.3,0-0.6-0.1-0.8-0.1c-0.7-0.2-1.3-0.4-1.6-1.2c-0.2-0.6,0.2-1.5,0.9-2c0.3-0.2,0.7-0.3,0.9-0.3
		c1.1,0.2,2.1,0.8,2.7,1.8c0.1,0.2,0.1,0.7-0.1,0.9C45.1,42.5,44.3,42.7,43.5,42.7"/>
	<path class="st7" d="M61.3,42.3c-0.2,0-0.3,0-0.5,0c-1.1-0.1-1.8-0.8-1.6-1.6c0.3-1.1,1.2-1.8,2.2-1.6c0.2,0,0.3,0.1,0.5,0.1
		c1,0.4,1.7,1.1,1.6,1.7C63.4,41.6,62.3,42.3,61.3,42.3"/>
	<path class="st7" d="M44.6,36.9c-0.1-1.3,1.2-2.4,2.2-1.9c0.5,0.2,1,0.6,1.4,1c0.3,0.3,0.3,0.8-0.1,1.1c-0.8,0.7-1.8,1-2.8,0.5
		C45,37.5,44.7,37.1,44.6,36.9"/>
	<path class="st7" d="M19.2,55.2C18.7,55,18.3,55,18,54.8c-0.4-0.2-0.6-0.6-0.4-1.1c0.3-0.8,0.9-1.3,1.7-1.3c0.8,0,1.5,0.3,1.8,1.1
		c0.1,0.2-0.1,0.8-0.3,0.9C20.3,54.8,19.7,55,19.2,55.2"/>
	<path class="st7" d="M111.8,45.9c0.2,0.6,0.5,1,0.6,1.5c0.1,0.7,0.1,1.4-0.5,1.9c-0.7,0.6-1.3,0.1-1.9-0.2c-1.6-1-2.8-2.2-3.9-3.7
		c-0.3-0.4-0.5-0.9-0.6-1.4c-0.2-0.8,0.4-1.6,1.2-1.6c1.2-0.1,2.4,0.1,3.2,1.2C110.5,44.3,111.2,45.1,111.8,45.9"/>
	<path class="st7" d="M64.7,68.3c0.2,0,0.4-0.2,0.7-0.2c1.5-0.1,2.9,0,4.3,0.5c0.8,0.3,1.3,0.8,1.3,1.7c0.1,1-0.1,1.9-1,2.5
		c-0.2,0.2-0.6,0.3-1,0.2c-2-0.1-3.5-1.1-4.9-2.5C63.6,70,63.9,68.8,64.7,68.3"/>
	<path class="st7" d="M72.5,48.4c1.6-0.7,3.3-0.8,5-0.2c0.3,0.1,0.6,0.4,0.7,0.7c0.5,1.1-0.3,2.9-1.4,3.2c-1.6,0.6-3.2,0.6-4.7-0.4
		c-1.4-0.9-1-2.2-0.1-3C72.2,48.7,72.4,48.6,72.5,48.4"/>
	<path class="st7" d="M99.7,69.5c0.5,1,0,2.8-0.7,3.2c-0.2,0.1-0.5,0.2-0.7,0.2c-2.2,0-4-0.8-5.6-2.3c-0.8-0.8-0.4-2.2,0.8-2.4
		c0.3-0.1,0.7-0.1,1-0.1c1.4,0.2,2.9,0.5,4.3,0.8C99.2,69,99.5,69.4,99.7,69.5"/>
	<path class="st7" d="M77.5,58.9c0.5,0.9,0.4,1.8,0.2,2.6c-0.3,0.9-0.9,1.2-1.8,0.9c-1.7-0.8-3.1-2.1-4.3-3.5
		c-0.4-0.5-0.4-1.1-0.2-1.7c0.3-0.6,0.8-0.8,1.5-0.8C75,56.3,76.3,57.5,77.5,58.9"/>
	<path class="st7" d="M108.7,63.8c0.4,0.8,0.2,1.5-0.2,2.2c-0.3,0.6-0.8,1-1.4,0.9c-2-0.2-3.8-1.1-5.2-2.6c-0.8-0.8-0.2-2.3,0.9-2.4
		c2.2-0.3,4,0.5,5.8,1.7C108.6,63.6,108.6,63.7,108.7,63.8"/>
	<path class="st7" d="M68.1,77.4c0.2,0,0.5-0.2,0.8-0.2c1.8,0,3.4,0.5,4.9,1.4c0.8,0.5,1.1,1.3,0.9,2.2c-0.2,1.1-1,1.7-2.1,1.4
		c-1.7-0.5-3.4-1.3-4.8-2.5C67.2,79.1,67.3,78,68.1,77.4"/>
	<path class="st7" d="M81.9,74.8c0.1,0.2,0.1,0.3,0.2,0.5c0.3,0.7,0.5,1.5-0.1,2.2c-0.6,0.7-1.5,0.5-2.1,0.2
		c-1.2-0.6-2.4-1.3-3.5-2.1c-0.5-0.3-0.7-0.9-0.6-1.6c0.2-0.7,0.7-1.1,1.5-1.2C79.1,72.5,81.2,73.4,81.9,74.8"/>
	<path class="st7" d="M100.1,50.3c0.2,0,0.6-0.2,1-0.2c1.5,0,2.8,0.6,4,1.5c0.5,0.4,0.7,1,0.6,1.6c-0.1,1.9-1,2.4-2.7,1.5
		c-1.1-0.6-2.2-1.3-3.2-2.1C99.1,52.1,99.2,50.9,100.1,50.3"/>
	<path class="st7" d="M83.5,65.5c0.2,0,0.6-0.2,1-0.2c1.6,0,3,0.6,4.4,1.2c0.5,0.2,0.8,0.7,0.7,1.3c-0.1,0.5-0.2,1-0.4,1.5
		C89,69.8,88.5,70.1,88,70c-1.8-0.3-3.4-1.1-4.7-2.3C82.7,67.1,82.7,66,83.5,65.5"/>
	<path class="st7" d="M85.5,45.2c0.2,0,0.4-0.2,0.6-0.2c1.6-0.1,3,0.4,4.4,1.2c0.6,0.4,0.8,1.2,0.4,2.1c-0.3,0.8-0.8,1.2-1.5,1.1
		c-1.7-0.3-3.3-1-4.4-2.4C84.6,46.5,84.9,45.6,85.5,45.2"/>
	<path class="st7" d="M90.8,52.8c0.2,0,0.6-0.1,1-0.1c1.3,0,2.3,0.6,3.3,1.3c1,0.7,1.1,2.2,0.2,3.2c-0.2,0.3-0.8,0.4-1.1,0.4
		c-1.7-0.3-3-1.3-4-2.6C89.7,54.3,89.9,53.3,90.8,52.8"/>
	<path class="st7" d="M81.1,60.8c-0.3-0.6-0.1-1.5,0.5-1.7c0.4-0.2,0.8-0.3,1.2-0.3c1.3,0,2.5,0.4,3.7,1c0.5,0.2,0.8,0.7,0.8,1.2
		c0,0.8-0.1,1.6-0.9,2c-0.3,0.1-0.7,0.2-1,0.1c-1.4-0.4-2.7-1-3.9-1.9C81.3,61.2,81.2,60.9,81.1,60.8"/>
	<path class="st7" d="M96.6,64.7c-0.2,0-0.4,0.2-0.7,0.1c-1.6-0.2-2.9-0.9-4.1-1.9c-0.6-0.5-0.5-1.4,0.1-1.8
		c0.5-0.3,1.1-0.6,1.6-0.6c0.9,0,1.9,0.2,2.7,0.6c1.4,0.6,1.6,2.2,0.6,3.4C96.8,64.5,96.8,64.6,96.6,64.7"/>
	<path class="st7" d="M93.3,44.1c-0.5-0.8-0.1-2,0.8-2.1c1.7-0.3,3.2,0.1,4.6,1.2c0.7,0.6,0.5,1.4,0.2,2.1c-0.3,0.9-0.9,1.3-1.7,1
		c-1.2-0.5-2.3-1.1-3.4-1.7C93.5,44.5,93.4,44.2,93.3,44.1"/>
	<path class="st7" d="M76.6,66.1c0.5-0.1,0.8-0.2,1.1-0.2c1.2,0,2.3,0.4,3.3,1.2c0.9,0.7,1.1,1.4,0.8,2.5c-0.3,0.9-1,1.3-1.8,0.9
		c-1.1-0.5-2.1-1.2-3-1.9c-0.3-0.2-0.6-0.7-0.7-1C76.3,67.1,76.5,66.6,76.6,66.1"/>
	<path class="st7" d="M77.3,41.7c1.6-0.6,2.8-0.6,4.1-0.2c0.5,0.2,0.8,0.7,0.7,1.2c-0.1,1.9-1.7,2.9-3.5,2.3
		c-0.5-0.2-0.9-0.5-1.4-0.7c-0.5-0.3-1-0.8-0.8-1.5C76.7,42.4,77.1,41.9,77.3,41.7"/>
	<path class="st7" d="M81.1,52.6c0.1,0,0.4-0.2,0.6-0.2c1.3,0.1,2.5,0.1,3.8,0.3c0.8,0.1,1.1,0.7,1,1.5c-0.2,1.4-1.2,2.1-2.5,1.9
		c-1.2-0.2-2.3-0.7-3.1-1.6C80.4,53.9,80.5,53,81.1,52.6"/>
	<path class="st7" d="M86.8,73.5c0.1,0,0.4-0.2,0.6-0.1c1.3,0.1,2.5,0.3,3.8,0.5c0.5,0.1,0.9,0.5,0.9,1.1c0,0.9-0.4,1.7-1.1,1.9
		c-1.4,0.4-4-0.5-4.8-1.7C85.9,74.6,86.1,73.7,86.8,73.5"/>
	<path class="st7" d="M73.4,65.4c0.1,0.2,0.2,0.6,0.2,1c0,0.6-0.1,1.3-0.7,1.5c-0.4,0.1-1.1,0-1.4-0.2c-0.9-0.6-1.7-1.4-2.5-2.1
		c-0.4-0.4-0.4-0.9-0.1-1.4c0.3-0.5,0.7-0.7,1.3-0.7C71.5,63.4,72.5,64.1,73.4,65.4"/>
</g>
</svg>
