<?xml version="1.0" encoding="utf-8"?>
<!-- Generator: Adobe Illustrator 22.0.0, SVG Export Plug-In . SVG Version: 6.00 Build 0)  -->
<svg version="1.1" id="Capa_1" xmlns="http://www.w3.org/2000/svg" xmlns:xlink="http://www.w3.org/1999/xlink" x="0px" y="0px"
	 viewBox="0 0 692.8 126.1" style="enable-background:new 0 0 692.8 126.1;" xml:space="preserve">
<style type="text/css">
	.st0{fill:#FFFBBC;}
	.st1{fill:#AEA5DB;}
	.st2{fill:#813B96;}
	.st3{fill:#2950A3;}
	.st4{fill:#20626F;}
	.st5{fill:#F89A3C;}
	.st6{fill:#243468;}
	.st7{fill:#FFFFFF;}
	.st8{fill:#F89A3B;}
	.st9{fill:#F36C36;}
	.st10{fill:#82D1DB;}
	.st11{fill:#233468;}
	.st12{fill:#8A7EBB;}
	.st13{fill:#55C5D1;}
	.st14{fill:#53C5D2;}
</style>
<path class="st0" d="M714,70.8C595.2,53,622.3,120.1,385.8,40.1C265-0.7,242.3,63.3,139,26.6c-162-57.4-124.2-61-124.2-61L616.1-35
	h74.8L714,70.8z"/>
<path class="st10" d="M714,71.5c-67.9-17.8-37.7,77.8-175.4-22.8C471.3-0.5,444.3,64,385.2,27.3c-92.6-57.4-71-61-71-61L658-34.3
	h42.7L714,71.5z"/>
<g>
	<path class="st7" d="M674.6,58.1c0.1-1.9-2-3.6-3.5-3.2c-0.8,0.3-1.6,0.6-2.3,1.1c-2,1.4-1.9,2.5,0.3,3.4c1.5,0.6,3,0.5,4.5-0.3
		C674.1,59,674.4,58.4,674.6,58.1"/>
	<path class="st7" d="M646.3,68.8c0.1-1-0.7-2.4-1.4-2.7c-0.3-0.1-0.7-0.2-1-0.1c-1.6,0.6-2.9,1.8-3.9,3.2c-0.2,0.2-0.2,0.7,0,1
		c0.6,1,2.1,1.6,3.1,1.1c0.9-0.5,1.8-1,2.6-1.6C646,69.4,646.1,69,646.3,68.8"/>
	<path class="st7" d="M652.3,58c-1.9,0.6-3.4,1.5-4.3,3.2c-0.1,0.2,0,0.7,0.1,0.9c0.6,0.8,1.5,1.3,2.5,1c1.1-0.3,2.1-0.8,3.1-1.3
		c0.8-0.4,0.9-1.3,0.5-2c-0.3-0.5-0.7-1-1.1-1.4C653,58.2,652.6,58.1,652.3,58"/>
	<path class="st7" d="M663.8,65.2c0-1.1-0.9-2.4-1.7-2.6c-0.3-0.1-0.7-0.1-1,0c-1.3,0.6-2.6,1.4-3.5,2.5c-0.5,0.6-0.4,1.3,0.3,1.7
		c1,0.7,2,0.9,3.1,0.4c0.7-0.3,1.4-0.6,2-1.1C663.5,66,663.7,65.4,663.8,65.2"/>
	<path class="st7" d="M648.8,54.4c-0.1-1.7-1.6-2.8-2.9-2.3c-1.1,0.4-2.2,1-3.1,1.7c-0.9,0.7-0.7,1.6,0.3,2.3
		c0.9,0.6,1.9,0.8,2.9,0.4c0.7-0.3,1.4-0.6,2.1-1C648.5,55.2,648.7,54.6,648.8,54.4"/>
	<path class="st7" d="M648.4,71.4c0.8,0.5,1.3,0.9,1.9,1.2c1.4,0.6,3.7-0.3,4.3-1.6c0.1-0.3,0.2-0.7,0.1-1c-0.2-0.5-0.4-0.9-0.7-1.3
		c-0.6-0.9-1.2-1.1-2.2-0.6C650.5,68.7,649.2,69.6,648.4,71.4"/>
	<path class="st7" d="M681.5,64.4c0.3-0.1,0.9-0.2,1.4-0.5c0.7-0.4,1-1.3,0.6-2c-0.3-0.6-0.7-1.2-1.2-1.6c-0.3-0.3-0.9-0.5-1.4-0.5
		c-1.3,0.1-2.5,0.6-3.4,1.6c-0.4,0.5-0.4,1.2,0.2,1.6C678.7,63.8,679.9,64.4,681.5,64.4"/>
	<path class="st7" d="M659.7,59.4c0.7-0.2,1.3-0.3,1.9-0.5c1.5-0.7,1.8-1.6,0.9-3c-0.2-0.3-0.4-0.6-0.6-0.8c-0.4-0.5-1-0.6-1.6-0.4
		c-1.1,0.4-2.1,1.1-2.7,2.2c-0.3,0.5-0.3,1,0.1,1.4C658.3,58.7,659,59,659.7,59.4"/>
	<path class="st7" d="M645.1,75.7c0-1.6-1.4-2.6-2.6-2.1c-1.2,0.6-2.4,1.3-3.3,2.4c-0.4,0.5-0.3,1.1,0.3,1.6
		c0.9,0.6,1.9,0.9,2.9,0.3c0.7-0.4,1.5-0.8,2.2-1.3C644.9,76.3,645,75.9,645.1,75.7"/>
	<path class="st7" d="M636.6,52.1c1.4-0.1,2.3-0.5,3-1.4c0.3-0.4,0.5-1,0.2-1.5c-0.3-0.5-0.7-1-1.1-1.4c-0.3-0.2-0.8-0.4-1.2-0.3
		c-1.2,0.3-2.2,0.9-3,1.8c-0.5,0.6-0.5,1.4,0.2,1.8C635.3,51.5,636.1,51.8,636.6,52.1"/>
	<path class="st7" d="M645.2,46.4c1.1-0.3,1.9-0.4,2.7-0.7c0.8-0.3,1.1-1.1,0.7-1.9c-0.6-1.3-1.4-1.8-2.9-1.4c-1,0.2-2,0.5-2.7,1.3
		c-0.6,0.7-0.6,1.4,0.3,1.9C644,45.9,644.7,46.2,645.2,46.4"/>
	<path class="st7" d="M663.6,50.5c0.5,0.3,1,0.9,1.5,0.9c1.2,0.1,2.4,0.1,3.5-0.1c1.1-0.2,1.4-1.3,0.8-2.2c-0.2-0.4-0.5-0.7-0.8-1
		c-0.5-0.6-1.1-0.8-1.8-0.5C665.4,48.1,664.2,48.9,663.6,50.5"/>
	<path class="st7" d="M638.4,59.1c0-1.8-1.8-2.9-3.2-2c-0.7,0.4-1.3,1-1.9,1.6c-0.5,0.6-0.4,1.3,0.3,1.8c1.6,1.2,3.3,0.9,4.5-0.6
		C638.2,59.7,638.3,59.3,638.4,59.1"/>
	<path class="st7" d="M652.3,50.8c0.4,1,1.3,1.4,2.2,1.5c0.9,0,1.9-0.2,2.7-0.5c0.8-0.3,1-1.2,0.7-2c-0.2-0.5-0.5-0.9-0.9-1.3
		c-0.2-0.2-0.6-0.5-0.9-0.4c-0.7,0.2-1.5,0.5-2.1,0.8C653.3,49.4,652.5,49.8,652.3,50.8"/>
	<path class="st7" d="M641.7,60.5c-0.4,0.1-0.7,0.1-0.8,0.2c-0.9,0.7-1.7,1.4-2.5,2.2c-0.6,0.6-0.3,1.6,0.6,1.8c0.5,0.1,1,0.2,1.5,0
		c0.6-0.2,1.3-0.5,1.9-0.8c1.2-0.7,1.3-1.7,0.3-2.7C642.4,60.9,642,60.7,641.7,60.5"/>
	<path class="st7" d="M689.9,63c0.4-0.1,0.8-0.1,1-0.3c0.3-0.3,0.6-0.7,0.6-1c0-1-1.1-2.2-2.1-2.3c-0.5,0-1,0-1.5,0.2
		c-0.7,0.3-1.5,0.7-1.6,1.5c-0.1,1,0.9,1.2,1.6,1.5C688.6,62.8,689.3,62.9,689.9,63"/>
	<path class="st7" d="M630.2,48.2c0.4-0.1,0.8-0.1,1-0.3c0.3-0.3,0.6-0.7,0.6-1c0-1-1.1-2.2-2.1-2.3c-0.5,0-1,0-1.5,0.2
		c-0.7,0.3-1.5,0.7-1.6,1.5c-0.1,1,0.9,1.2,1.6,1.5C628.8,48,629.5,48.1,630.2,48.2"/>
	<path class="st7" d="M668,65.4c1,1.2,2.4,1.4,3.9,1.1c1-0.2,1.3-1.2,0.8-2c-0.8-1.4-1.8-1.7-3.2-1C668.7,63.8,668,64.2,668,65.4"/>
	<path class="st7" d="M655.7,44.9c0.3,0,0.6-0.1,0.8-0.1c0.7-0.2,1.3-0.4,1.6-1.2c0.2-0.6-0.2-1.5-0.9-2c-0.3-0.2-0.7-0.3-0.9-0.3
		c-1.1,0.2-2.1,0.8-2.7,1.8c-0.1,0.2-0.1,0.7,0.1,0.9C654.2,44.8,655,44.9,655.7,44.9"/>
	<path class="st7" d="M638,44.6c0.2,0,0.3,0,0.5,0c1.1-0.1,1.8-0.8,1.6-1.6c-0.3-1.1-1.2-1.8-2.2-1.6c-0.2,0-0.3,0.1-0.5,0.1
		c-1,0.4-1.7,1.1-1.6,1.7C635.8,43.9,636.9,44.5,638,44.6"/>
	<path class="st7" d="M654.7,39.1c0.1-1.3-1.2-2.4-2.2-1.9c-0.5,0.2-1,0.6-1.4,1c-0.3,0.3-0.3,0.8,0.1,1.1c0.8,0.7,1.8,1,2.8,0.5
		C654.3,39.7,654.5,39.3,654.7,39.1"/>
	<path class="st7" d="M680.1,57.4c0.5-0.2,0.9-0.2,1.2-0.4c0.4-0.2,0.6-0.6,0.4-1.1c-0.3-0.8-0.9-1.3-1.7-1.3
		c-0.8,0-1.5,0.3-1.8,1.1c-0.1,0.2,0.1,0.8,0.3,0.9C678.9,57,679.6,57.2,680.1,57.4"/>
	<path class="st7" d="M587.5,48.1c-0.2,0.6-0.5,1-0.6,1.5c-0.1,0.7,0,1.4,0.5,1.9c0.7,0.6,1.3,0.1,1.9-0.2c1.6-1,2.8-2.2,3.9-3.7
		c0.3-0.4,0.5-0.9,0.6-1.4c0.2-0.8-0.4-1.6-1.2-1.6c-1.2-0.1-2.4,0.1-3.2,1.2C588.8,46.6,588.1,47.3,587.5,48.1"/>
	<path class="st7" d="M634.5,70.5c-0.2,0-0.4-0.2-0.7-0.2c-1.5-0.1-2.9,0-4.3,0.5c-0.8,0.3-1.3,0.8-1.3,1.7c-0.1,1,0.1,1.9,1,2.5
		c0.2,0.2,0.6,0.3,1,0.2c2-0.1,3.5-1.1,4.9-2.5C635.7,72.2,635.3,71,634.5,70.5"/>
	<path class="st7" d="M626.7,50.7c-1.6-0.7-3.3-0.8-5-0.2c-0.3,0.1-0.6,0.4-0.7,0.7c-0.5,1.1,0.3,2.9,1.4,3.2
		c1.6,0.6,3.2,0.6,4.7-0.4c1.4-0.9,1-2.2,0.1-3C627,50.9,626.9,50.8,626.7,50.7"/>
	<path class="st7" d="M599.6,71.7c-0.5,1,0,2.8,0.7,3.2c0.2,0.1,0.5,0.2,0.7,0.2c2.2,0,4-0.8,5.6-2.3c0.8-0.8,0.4-2.2-0.8-2.4
		c-0.3-0.1-0.7-0.1-1-0.1c-1.4,0.2-2.9,0.5-4.3,0.8C600.1,71.3,599.8,71.6,599.6,71.7"/>
	<path class="st7" d="M621.8,61.2c-0.5,0.9-0.4,1.8-0.2,2.6c0.3,0.9,0.9,1.2,1.8,0.9c1.7-0.8,3.1-2.1,4.3-3.5
		c0.4-0.5,0.4-1.1,0.2-1.7c-0.3-0.6-0.8-0.8-1.5-0.8C624.3,58.5,622.9,59.8,621.8,61.2"/>
	<path class="st7" d="M590.6,66c-0.4,0.8-0.2,1.5,0.2,2.2c0.3,0.6,0.8,1,1.4,0.9c2-0.2,3.8-1.1,5.2-2.6c0.8-0.8,0.2-2.3-0.9-2.4
		c-2.2-0.3-4,0.5-5.8,1.7C590.7,65.9,590.6,66,590.6,66"/>
	<path class="st7" d="M631.1,79.6c-0.2,0-0.5-0.2-0.8-0.2c-1.8,0-3.4,0.5-4.9,1.4c-0.8,0.5-1.1,1.3-0.9,2.2c0.2,1.1,1,1.7,2.1,1.4
		c1.7-0.5,3.4-1.3,4.8-2.5C632,81.3,632,80.2,631.1,79.6"/>
	<path class="st7" d="M617.3,77c-0.1,0.2-0.1,0.3-0.2,0.5c-0.3,0.7-0.5,1.5,0.1,2.2c0.6,0.7,1.5,0.5,2.1,0.2
		c1.2-0.6,2.4-1.3,3.5-2.1c0.5-0.3,0.7-0.9,0.6-1.6c-0.2-0.7-0.7-1.1-1.5-1.2C620.2,74.7,618,75.6,617.3,77"/>
	<path class="st7" d="M599.1,52.5c-0.2,0-0.6-0.2-1-0.2c-1.5,0-2.8,0.6-4,1.5c-0.5,0.4-0.7,1-0.6,1.6c0.1,1.9,1,2.4,2.7,1.5
		c1.1-0.6,2.2-1.3,3.2-2.1C600.1,54.3,600,53.1,599.1,52.5"/>
	<path class="st7" d="M615.7,67.7c-0.2,0-0.6-0.2-1-0.2c-1.6,0-3,0.6-4.4,1.2c-0.5,0.2-0.8,0.7-0.7,1.3c0.1,0.5,0.2,1,0.4,1.5
		c0.2,0.5,0.7,0.8,1.2,0.7c1.8-0.3,3.4-1.1,4.7-2.3C616.6,69.3,616.5,68.3,615.7,67.7"/>
	<path class="st7" d="M613.7,47.4c-0.2,0-0.4-0.2-0.6-0.2c-1.6-0.1-3,0.4-4.4,1.2c-0.6,0.4-0.8,1.2-0.4,2.1c0.3,0.8,0.8,1.2,1.5,1.1
		c1.7-0.3,3.3-1,4.4-2.4C614.6,48.8,614.3,47.8,613.7,47.4"/>
	<path class="st7" d="M608.4,55c-0.2,0-0.6-0.1-1-0.1c-1.3,0-2.3,0.6-3.3,1.3c-1,0.7-1.1,2.2-0.2,3.2c0.2,0.3,0.8,0.4,1.1,0.4
		c1.7-0.3,3-1.3,4-2.6C609.6,56.5,609.3,55.5,608.4,55"/>
	<path class="st7" d="M618.2,63.1c0.3-0.6,0-1.5-0.5-1.7c-0.4-0.2-0.8-0.3-1.2-0.3c-1.3,0-2.5,0.4-3.7,1c-0.5,0.2-0.8,0.7-0.8,1.2
		c0,0.8,0.1,1.6,0.9,2c0.3,0.1,0.7,0.2,1,0.1c1.4-0.4,2.7-1,3.9-1.9C618,63.4,618.1,63.2,618.2,63.1"/>
	<path class="st7" d="M602.6,66.9c0.2,0,0.4,0.2,0.7,0.1c1.6-0.2,2.9-0.9,4.1-1.9c0.6-0.5,0.5-1.4-0.1-1.8c-0.5-0.3-1.1-0.6-1.6-0.6
		c-0.9,0-1.9,0.2-2.7,0.6c-1.4,0.6-1.6,2.2-0.6,3.4C602.4,66.8,602.5,66.8,602.6,66.9"/>
	<path class="st7" d="M606,46.3c0.5-0.8,0.1-2-0.8-2.1c-1.7-0.3-3.2,0.1-4.6,1.2c-0.7,0.6-0.5,1.4-0.2,2.1c0.3,0.9,0.9,1.3,1.7,1
		c1.2-0.5,2.3-1.1,3.4-1.7C605.7,46.7,605.9,46.4,606,46.3"/>
	<path class="st7" d="M622.6,68.4c-0.5-0.1-0.8-0.2-1.1-0.2c-1.2,0-2.3,0.4-3.3,1.2c-0.9,0.7-1.1,1.4-0.8,2.5c0.3,0.9,1,1.3,1.8,0.9
		c1.1-0.5,2.1-1.2,3-1.9c0.3-0.2,0.6-0.7,0.7-1C622.9,69.3,622.7,68.8,622.6,68.4"/>
	<path class="st7" d="M622,43.9c-1.6-0.6-2.8-0.6-4.1-0.2c-0.5,0.2-0.8,0.7-0.7,1.2c0.1,1.9,1.7,2.9,3.5,2.3
		c0.5-0.2,0.9-0.5,1.4-0.7c0.5-0.3,1-0.8,0.8-1.5C622.6,44.6,622.1,44.2,622,43.9"/>
	<path class="st7" d="M618.1,54.8c-0.1,0-0.4-0.2-0.6-0.2c-1.3,0.1-2.5,0.1-3.8,0.3c-0.8,0.1-1.1,0.7-1,1.5c0.2,1.4,1.2,2.1,2.5,1.9
		c1.2-0.2,2.3-0.7,3.1-1.6C618.9,56.2,618.8,55.2,618.1,54.8"/>
	<path class="st7" d="M612.5,75.7c-0.1,0-0.4-0.2-0.6-0.1c-1.3,0.1-2.5,0.3-3.8,0.5c-0.5,0.1-0.9,0.5-0.9,1.1c0,0.9,0.4,1.7,1.1,1.9
		c1.4,0.4,4-0.5,4.8-1.7C613.4,76.8,613.1,76,612.5,75.7"/>
	<path class="st7" d="M625.9,67.7c-0.1,0.2-0.2,0.6-0.2,1c0,0.6,0.1,1.3,0.7,1.5c0.4,0.1,1.1,0,1.4-0.2c0.9-0.6,1.7-1.4,2.5-2.1
		c0.4-0.4,0.4-0.9,0.1-1.4c-0.3-0.5-0.7-0.7-1.3-0.7C627.7,65.6,626.7,66.3,625.9,67.7"/>
</g>
<path class="st11" d="M381.9-16.6c-37.8,16.1-55.5,59.9-39.5,97.7l33-14c-8.3-19.6,0.9-42.4,20.5-50.7c19.6-8.3,42.4,0.9,50.7,20.5
	l33-14C463.6-14.9,419.8-32.6,381.9-16.6"/>
<path class="st12" d="M437.1,40.9c-6.1-14.4-22.7-21.1-37.1-15c-14.4,6.1-21.1,22.7-15,37.1"/>
<path class="st2" d="M91.1,10.1c-16.7,35.8-1.2,78.6,34.7,95.3l17.2-36.8c-15.5-7.2-22.3-25.8-15-41.3c7.2-15.5,25.8-22.3,41.3-15
	l17.2-36.8C150.5-41.3,107.8-25.7,91.1,10.1"/>
<path class="st9" d="M325.3-6.5H149.9c4.7,13.6,15.5,30.5,24.6,41.4c13.9,16.5,30.5,30.7,49,41.7c5.5,3.3,11.2,6.3,17.3,8
	c8.9,2.5,27.1,5.7,33.8-1.6c6.8-7.4-0.5-22.7,6.4-29.9c5-5.2,21.7-5.2,28.1-8.4C327.2,36.1,328.7,13.1,325.3-6.5"/>
<path class="st13" d="M143.6-6.5c0,0,26.3,91.9,110.1,100.9c64.9,7,13.8-33.9,46-38.8c42-6.4,31.7-62.1,31.7-62.1h10.4
	c0,0,20.9,52.7,1.7,63.8c-19.3,11.1-30.3,4-38,13.7c-7.7,9.7,9,46.8-41.6,46.8c-61,0-107.4-39.2-140.1-124.3H143.6z"/>
<path class="st8" d="M320.5,1c-0.1-2.5-0.3-5-0.5-7.5h-2.4c0.1,2.5,0.2,5.1,0.2,7.6c0,3.3-0.2,6.7-0.6,9.9c-0.4,3.3-1.1,6.5-2.2,9.5
	c-1.2,3-2.8,5.7-5,7.9c-2.2,2.2-4.9,4-7.8,5.5c-1.4,0.8-2.9,1.5-4.5,2.2c-0.8,0.4-1.5,0.7-2.2,1c-0.8,0.3-1.5,0.7-2.3,1
	c-1.5,0.6-3.1,1.3-4.7,1.9c-1.6,0.7-3.1,1.4-4.7,2.2c-1.5,0.8-3.1,1.7-4.5,2.7c-0.7,0.5-1.4,1.1-2.1,1.8c-0.3,0.3-0.6,0.7-1,1
	c-0.3,0.4-0.6,0.8-0.8,1.2c-1,1.6-1.6,3.4-1.9,5.1c-0.4,1.7-0.5,3.5-0.7,5.2l-0.3,5.1c-0.1,1.7-0.3,3.3-0.6,4.9
	c-0.3,1.6-0.8,3.2-1.7,4.6c-0.8,1.4-2,2.5-3.3,3.3c-1.4,0.8-2.9,1.3-4.5,1.6c-1.6,0.3-3.2,0.4-4.9,0.4c-3.3-0.1-6.6-0.6-9.8-1.3
	c-1.6-0.4-3.2-0.8-4.8-1.3c-1.6-0.5-3.2-1-4.7-1.6c-3-1.2-6-2.7-8.9-4.4c-1.4-0.8-2.9-1.7-4.3-2.6c-1.4-0.9-2.8-1.8-4.2-2.7
	c-2.8-1.8-5.5-3.8-8.2-5.8c-5.4-4-10.5-8.3-15.4-12.8c-0.6-0.6-1.2-1.1-1.8-1.7l-1.8-1.7c-1.2-1.2-2.4-2.3-3.6-3.5
	c-2.4-2.4-4.6-4.8-6.9-7.3c-1.1-1.3-2.2-2.5-3.3-3.8c-1-1.3-2.1-2.6-3.1-3.9c-2-2.7-3.9-5.4-5.8-8.2c-1.9-2.8-3.7-5.6-5.5-8.4
	c-1.8-2.8-3.6-5.7-5.3-8.6c-1.2-2.1-2.4-4.1-3.5-6.2h-2.6c1.2,2.5,2.5,5,3.8,7.5c1.6,3,3.3,5.9,5,8.9c1.7,2.9,3.5,5.8,5.3,8.7
	c1.8,2.9,3.7,5.7,5.7,8.5c1,1.4,2,2.8,3.1,4.1c1.1,1.4,2.2,2.7,3.2,4c8.8,10.4,18.9,19.8,30.1,27.6c2.8,2,5.6,3.9,8.5,5.7
	c2.9,1.8,5.8,3.5,8.9,5.1c1.5,0.8,3.1,1.5,4.7,2.2c1.6,0.7,3.2,1.3,4.9,1.8c1.7,0.5,3.4,0.9,5,1.3c1.7,0.4,3.4,0.7,5,1
	c1.7,0.3,3.4,0.5,5.1,0.6c1.7,0.1,3.4,0.2,5.2,0.1c1.7-0.1,3.5-0.2,5.2-0.6c1.7-0.4,3.4-1,4.9-1.9c1.5-0.9,2.8-2.2,3.7-3.8
	c0.9-1.5,1.5-3.2,1.9-4.9c0.4-1.7,0.6-3.4,0.8-5.1c0.2-1.7,0.3-3.4,0.6-5c0.2-1.7,0.5-3.3,1-4.8c0.5-1.5,1.1-3,2-4.2
	c0.5-0.6,1-1.1,1.6-1.6c0.6-0.5,1.2-0.9,1.9-1.4c1.3-0.8,2.8-1.6,4.3-2.2c1.5-0.6,3-1.3,4.6-1.9c1.6-0.6,3.1-1.2,4.7-1.8
	c0.8-0.3,1.6-0.6,2.4-1c0.8-0.3,1.6-0.7,2.4-1.1c1.5-0.7,3.1-1.5,4.6-2.3c3-1.7,6.1-3.6,8.6-6.3c1.3-1.3,2.4-2.8,3.3-4.3
	c0.9-1.5,1.7-3.2,2.3-4.9c1.2-3.4,1.8-6.8,2.2-10.3C320.6,7.9,320.7,4.4,320.5,1"/>
<path class="st11" d="M304.1-2.2c-0.1-0.6-3.1-2.4-6.8-4.4H182.7c-1.5,1.8-9.9,12.1-8.9,13.3c1.1,1.3,15.9,7,15.9,7
	S185,31,186.4,32.2c1.5,1.1,14.6-1.9,14.6-1.9s4.4,17.4,5.5,18.1c1.1,0.7,14.2-4.8,14.2-4.8s8.5,14.9,10.7,14.6c0.1,0,0.1,0,0.2,0
	c1.5-0.6,11.7-12.8,11.7-12.8s14.8,10,16.4,9c1.6-1,2.9-14.5,2.9-14.5s17.9,1.3,18.9,0.5c1-0.8,0-15,0-15s16.8-3.3,17.3-5.5
	c0.4-2.2-8.1-11.3-8.1-11.3S304.4-0.6,304.1-2.2"/>
<path class="st7" d="M198.6-6.5c0,22.3,18.1,40.3,40.3,40.3c22.3,0,40.3-18.1,40.3-40.3"/>
<g>
	<path class="st7" d="M312.7,58.1c0-1-1.1-2.5-1.9-2.8c-0.3-0.1-0.8-0.1-1.1,0c-1.4,0.7-2.7,1.6-3.7,2.8c-0.6,0.7-0.4,1.3,0.3,1.9
		c1.8,1.3,5,0.6,6.1-1.3C312.6,58.6,312.7,58.3,312.7,58.1"/>
	<path class="st7" d="M319.5,60c0-1-1.1-2.4-1.9-2.5c-0.2,0-0.4,0-0.6,0.1c-1.2,0.7-2.3,1.5-3,2.8c-0.4,0.9-0.2,1.4,0.7,1.9
		c0.6,0.3,1.3,0.5,1.9,0.1c0.8-0.4,1.6-0.9,2.3-1.5C319.2,60.7,319.3,60.2,319.5,60"/>
	<path class="st7" d="M348,24.7c-0.9-0.8-2.9-0.8-3.6-0.2c-0.2,0.1-0.3,0.3-0.4,0.6c-0.3,1.6-0.5,3.1,0.2,4.6
		c0.4,1.1,1.1,1.3,2.2,0.9c0.8-0.3,1.4-0.7,1.5-1.5c0.2-1,0.4-2.1,0.4-3.1C348.3,25.5,348,25,348,24.7"/>
	<path class="st7" d="M339.1,47c-0.1,1.5,1.2,2.3,2.1,2.5c0.3,0,0.7-0.1,1-0.3c0.9-0.7,1.5-1.6,1.9-2.7c0.5-1.2-0.5-3.1-1.7-3.4
		c-0.3-0.1-0.6-0.1-0.9,0.1C340,43.9,339.2,45.3,339.1,47"/>
	<path class="st7" d="M343.7,36.4c0-1.6-0.4-2.9-1.3-4c-0.6-0.7-1.1-0.7-1.9-0.1c-2.3,1.6-1.3,5.7,1,6.2c1,0.2,1.8-0.1,2.1-1.1
		C343.7,37.1,343.7,36.6,343.7,36.4"/>
	<path class="st7" d="M332.5,48.4c-0.3,0.1-0.6,0.2-0.8,0.4c-1.3,0.8-2.1,2.1-3.1,3.2c-0.3,0.4-0.2,1,0.2,1.4
		c1.3,1.1,2.2,1.4,3.5,0.2c0.6-0.5,1.2-0.9,1.7-1.5c0.6-0.6,0.8-1.3,0.3-2c-0.3-0.5-0.7-1-1.1-1.4C333.1,48.6,332.8,48.5,332.5,48.4
		"/>
	<path class="st7" d="M333.3,44.6c-0.2-0.9-0.7-1.6-1.4-2.2c-0.4-0.3-0.9-0.2-1.3,0c-1.2,0.7-2.3,1.7-2.9,3c-0.3,0.6-0.5,1.3,0,1.9
		c0.6,0.6,1.3,1.2,2.2,0.9c1.5-0.5,2.6-1.7,3.3-3.2C333.3,45,333.3,44.8,333.3,44.6"/>
	<path class="st7" d="M334.7,43.4c0,1.6,1.2,2.7,2.4,2.6c0.4,0,0.9-0.4,1-0.7c0.5-1.1,1-2.3,1.3-3.5c0.3-0.9-0.7-2.2-1.6-2.3
		c-0.3,0-0.6,0-0.9,0.1c-0.7,0.3-1.3,0.8-1.6,1.5C335.1,41.9,334.8,42.9,334.7,43.4"/>
	<path class="st7" d="M258.8,106.7c-0.9,0.3-1.3,1-1.7,1.7c-0.4,0.8-0.1,1.4,0.8,1.7c1.5,0.5,3.1,0.5,4.6-0.1
		c0.3-0.1,0.7-0.3,0.9-0.6c0.6-0.6,0.6-1.6,0-2.2c-0.8-0.7-1.7-1.2-2.9-0.9C259.9,106.5,259.3,106.6,258.8,106.7"/>
	<path class="st7" d="M243.4,102.7c-0.1-0.1-0.3-0.5-0.6-0.6c-1.1-0.6-2.2-1.2-3.4-1.6c-1.4-0.5-2.9,1.1-2.5,2.5
		c0.1,0.3,0.4,0.7,0.7,0.8c1.5,0.8,3.1,1.1,4.7,1.1C243.2,104.8,243.8,103.8,243.4,102.7"/>
	<path class="st7" d="M319.9,54.4c1.2-0.1,2.4-0.4,3.3-1.2c0.7-0.6,0.9-1.4,0.4-2.2c-0.2-0.4-0.5-0.8-0.8-1.1
		c-0.4-0.5-1-0.7-1.6-0.4c-1,0.6-2,1.2-2.9,2c-1,1-0.7,2.1,0.6,2.6C319.3,54.3,319.6,54.3,319.9,54.4"/>
	<path class="st7" d="M270,109.3c1.1-0.4,2.2-0.6,3.2-1c0.8-0.3,1-1.1,0.5-1.9c-0.3-0.4-0.5-0.9-0.9-1.2c-0.2-0.2-0.7-0.4-1-0.4
		c-1.1,0.3-2.3,0.7-3.3,1.2c-0.4,0.2-0.7,0.6-0.9,0.9c-0.3,0.5-0.3,1.1,0.2,1.4C268.5,108.6,269.3,108.9,270,109.3"/>
	<path class="st7" d="M294.9,66.9c0.2-0.1,0.6-0.1,0.9-0.2c1.1-0.6,2-1.2,2.8-2.2c0.5-0.6,0.6-1.2,0.1-1.9c-0.2-0.4-0.5-0.7-0.8-1.1
		c-0.3-0.4-0.8-0.5-1.2-0.2c-0.5,0.3-1,0.6-1.4,1.1c-0.7,0.8-1.2,1.7-1.8,2.5c-0.8,1.2,0,1.8,1.1,2
		C294.6,66.9,294.7,66.9,294.9,66.9"/>
	<path class="st7" d="M296.3,74.4c0.1,0,0.5-0.1,0.7-0.2c1-0.8,1.8-1.8,2.3-3c0.3-1-0.2-2.3-1.2-2.8c-0.3-0.1-0.8-0.1-1,0
		c-0.5,0.3-1,0.8-1.2,1.2c-0.5,0.8-0.9,1.7-1.2,2.6C294.2,73.3,295,74.3,296.3,74.4"/>
	<path class="st7" d="M285.3,98.6c0,0.2,0,0.6,0.1,1c0.2,0.7,0.8,1.1,1.5,1.2c0.6,0.1,1-0.2,1.3-0.7c0.5-1,1-2,1.4-3
		c0.3-0.8-0.6-2.4-1.4-2.5c-0.3-0.1-0.6,0-0.8,0.2C286.1,95.6,285.3,96.8,285.3,98.6"/>
	<path class="st7" d="M232.9,94.6c-1.1,0.3-1.6,2.2-0.9,2.8c1.4,1.3,3,1.9,4.9,1.7c0.9-0.1,1.3-1.1,0.8-1.9
		c-0.1-0.2-0.2-0.4-0.4-0.5c-1.2-0.7-2.4-1.4-3.7-2.1C233.4,94.6,233,94.6,232.9,94.6"/>
	<path class="st7" d="M327.4,57.9c0.1-1.7-1.7-3-3-2.4c-1.1,0.5-2.1,1.1-2.9,2.1c-0.3,0.5-0.3,1.1,0.2,1.4c0.4,0.3,0.9,0.6,1.4,0.7
		c1.4,0.2,2.7-0.2,3.8-1C327.2,58.4,327.3,58,327.4,57.9"/>
	<path class="st7" d="M261.5,101.7c0.1-0.2,0.5-0.6,0.7-1c0.2-0.5-0.1-1-0.6-1.3c-1.4-1.1-3.1-1.1-4.7-0.7c-0.8,0.2-1.4,1.4-1.3,2.2
		c0.1,0.3,0.3,0.5,0.5,0.7C257.2,102,260.2,102.1,261.5,101.7"/>
	<path class="st7" d="M233.8,104.6c-0.7,0.3-1.4,1.8-1.1,2.5c0.1,0.3,0.3,0.5,0.6,0.7c1.2,0.8,2.6,1.1,4.1,1.1
		c0.2,0,0.4-0.1,0.7-0.1c0.9-0.3,1.2-1.4,0.6-2c-1.2-1.2-2.7-1.8-4.3-2.2C234.1,104.5,234,104.6,233.8,104.6"/>
	<path class="st7" d="M303.5,68.2c0.1,0,0.4-0.1,0.5-0.2c0.8-0.5,1.6-1,2.3-1.7c0.8-0.7,0.8-1.5,0.2-2.4c-0.2-0.2-0.4-0.5-0.6-0.7
		c-0.6-0.5-1.2-0.6-1.8-0.1c-0.9,0.7-1.8,1.6-2.3,2.7C301.2,67.2,302,68.3,303.5,68.2"/>
	<path class="st7" d="M290.2,105.4c0.1,0,0.2,0,0.2,0c1.4-0.4,1.9-1.6,2.3-2.8c0.3-1.1-0.2-1.9-1-2.5c-0.4-0.3-0.8-0.3-1.2,0
		c-0.9,0.6-1.7,1.4-2.2,2.5C287.7,104,288.6,105.4,290.2,105.4"/>
	<path class="st7" d="M279.9,110.7c0.1-1.6-1.5-2.7-2.8-2.1c-1.1,0.5-2,1.3-2.7,2.3c-0.4,0.6-0.3,1.2,0.3,1.6
		c0.6,0.4,1.2,0.7,1.9,0.6c1-0.2,2-0.6,2.8-1.4C279.7,111.4,279.8,110.9,279.9,110.7"/>
	<path class="st7" d="M339.6,53.4c-0.2-0.8-0.6-1.5-1.4-2c-0.2-0.1-0.6-0.2-0.9,0c-1,0.6-2.1,1.2-2.7,2.3c-0.5,0.7-0.3,1.4,0.4,2
		c1.1,0.9,2.1,0.9,3.2,0C339,55.1,339.5,54.4,339.6,53.4"/>
	<path class="st7" d="M291,80.9c0,1,0.4,1.6,1.4,1.9c0.7,0.3,1.3,0.1,1.7-0.6c0.4-0.6,0.6-1.3,1-2c0.4-0.9,0.2-1.7-0.5-2.4
		c-0.8-0.8-1.5-0.8-2.3,0C291.3,78.7,291.3,79.9,291,80.9"/>
	<path class="st7" d="M251.2,99.8c-0.1-0.1-0.2-0.4-0.5-0.5c-1-0.8-2.2-1.3-3.5-1.4c-1.1-0.1-2.3,1.4-1.9,2.4
		c0.1,0.2,0.3,0.6,0.6,0.6c1.4,0.4,2.7,0.7,4.1,0.9C251,102,251.7,100.8,251.2,99.8"/>
	<path class="st7" d="M244.7,113.4c1.1-0.4,1.4-1.4,0.7-2c-1.2-1.1-2.6-1.6-4.2-1.6c-0.2,0-0.5,0.2-0.7,0.4c-0.2,0.3-0.4,0.6-0.5,1
		c-0.5,1.1-0.2,1.7,1,1.9c0.9,0.2,1.9,0.3,2.9,0.4C244.1,113.5,244.5,113.4,244.7,113.4"/>
	<path class="st7" d="M297.9,93.6c0-0.7-0.9-1.9-1.6-2c-0.3,0-0.6,0.1-0.8,0.2c-1.1,0.8-1.7,1.8-1.9,3.2c-0.2,1.2,1.1,2.4,2.2,2.1
		c0.3-0.1,0.6-0.3,0.7-0.5c0.5-0.8,0.9-1.7,1.3-2.6C298,94,297.9,93.8,297.9,93.6"/>
	<path class="st7" d="M254.2,109.7c-0.1-0.1-0.3-0.4-0.6-0.7c-0.9-0.7-2-1-3.1-1.1c-1.1,0-2.2,1.3-2,2.4c0.1,0.3,0.3,0.6,0.5,0.7
		c1.5,0.6,3,0.7,4.6,0.3C254.2,111.2,254.5,110.4,254.2,109.7"/>
	<path class="st7" d="M251.9,106.8c1.2-0.5,1.5-1.7,0.6-2.4c-0.7-0.6-1.5-1-2.4-1.2c-1.4-0.2-2.3,0.3-2.8,1.6
		c-0.2,0.5-0.2,1,0.3,1.2C249,106.9,250.5,106.9,251.9,106.8"/>
	<path class="st7" d="M267.1,110.9c-1,0.1-2.1,0.4-3,1.3c-0.5,0.5-0.4,1.2,0.2,1.5c1.4,0.8,2.8,1.1,4.3,0.4c0.9-0.4,1.1-1.2,0.7-2
		C268.9,111.3,268.3,110.8,267.1,110.9"/>
	<path class="st7" d="M144.4,7c-0.6-0.7-1.5-0.8-2.3-0.8c-0.9,0-1.3,0.5-1.2,1.5c0.2,1.6,0.9,3,2.1,4c0.3,0.2,0.6,0.5,0.9,0.6
		c0.8,0.3,1.8-0.2,1.9-1c0.2-1,0.3-2.1-0.5-3C145,7.9,144.7,7.4,144.4,7"/>
	<path class="st7" d="M136.4,0.9c0.8,0.8,1.5,1.7,2.4,2.4c0.7,0.6,1.5,0.4,1.9-0.4c0.3-0.4,0.6-0.9,0.7-1.4c0.1-0.3,0.1-0.8-0.1-1
		c-0.8-0.9-1.6-1.7-2.5-2.5c-0.3-0.3-0.8-0.3-1.3-0.4c-0.6-0.1-1.1,0.2-1.2,0.8C136.3-0.8,136.4,0,136.4,0.9"/>
	<path class="st7" d="M139.5,14.1c1.5-0.6,1.7-2.6,0.6-3.4c-1-0.8-2-1.3-3.3-1.4c-0.7-0.1-1.2,0.3-1.3,0.9c-0.1,0.7-0.1,1.4,0.3,1.9
		c0.7,0.8,1.5,1.5,2.5,1.9C138.8,14.2,139.2,14.1,139.5,14.1"/>
	<path class="st7" d="M133.7,2.7c-0.5-0.8-1.3-1.7-2.5-2.1c-0.7-0.2-1.2,0.2-1.3,0.9c-0.2,1.6,0.3,3,1.5,4c0.7,0.6,1.6,0.5,2.1-0.3
		C134.1,4.6,134.2,3.8,133.7,2.7"/>
	<path class="st7" d="M283.4,103.5c-0.1-1.6-1.8-2.5-2.9-1.7c-0.7,0.5-1.3,1.2-1.9,1.8c-0.4,0.5-0.3,1.2,0.2,1.6
		c1,0.8,1.8,0.9,2.9,0.2c0.5-0.3,1-0.7,1.4-1.1C283.2,104.1,283.3,103.7,283.4,103.5"/>
	<path class="st7" d="M332.7,33.4c0,1,0.6,1.8,1.6,1.9c0.3,0,0.7-0.1,1-0.4c0.8-0.7,1.1-1.7,1.3-2.8c0.1-0.6-0.1-1.2-0.6-1.6
		c-0.5-0.5-1.2-0.6-1.8-0.2C333.2,31.1,332.8,32.2,332.7,33.4"/>
	<path class="st7" d="M167.7,61.3c0.1,1.5-1.2,2.3-2.1,2.5c-0.3,0-0.7-0.1-1-0.3c-0.9-0.7-1.5-1.6-1.9-2.7c-0.5-1.2,0.5-3.1,1.7-3.4
		c0.3-0.1,0.6-0.1,0.9,0.1C166.8,58.2,167.6,59.5,167.7,61.3"/>
	<path class="st7" d="M160.9,52.2c-0.7-1.5-1-2.8-0.6-4.1c0.2-0.9,0.7-1.1,1.7-1c2.7,0.4,3.7,4.4,2,6c-0.8,0.7-1.6,0.8-2.3,0
		C161.3,52.8,161.1,52.4,160.9,52.2"/>
	<path class="st7" d="M180.4,64.3c0.3,0.1,0.6,0.2,0.8,0.4c1.3,0.8,2.1,2.1,3.1,3.2c0.3,0.4,0.2,1-0.2,1.4c-1.3,1.1-2.2,1.4-3.5,0.2
		c-0.6-0.5-1.2-0.9-1.7-1.5c-0.6-0.6-0.8-1.3-0.3-2c0.3-0.5,0.7-1,1.1-1.4C179.8,64.4,180.1,64.4,180.4,64.3"/>
	<path class="st7" d="M174.4,58.5c0.1-0.7,0.6-1.3,1.2-1.8c0.3-0.3,0.7-0.2,1.1,0c1.1,0.6,1.9,1.5,2.5,2.6c0.3,0.5,0.4,1.1,0,1.6
		c-0.5,0.5-1.1,1-1.8,0.7c-1.3-0.5-2.2-1.4-2.8-2.7C174.4,58.8,174.4,58.7,174.4,58.5"/>
	<path class="st7" d="M158.5,41.1c0.1-0.7,0.6-1.3,1.2-1.8c0.3-0.3,0.7-0.2,1.1,0c1.1,0.6,1.9,1.5,2.5,2.6c0.3,0.5,0.4,1.1,0,1.6
		c-0.5,0.5-1.1,1-1.8,0.7c-1.3-0.5-2.2-1.4-2.8-2.7C158.5,41.5,158.6,41.3,158.5,41.1"/>
	<path class="st7" d="M172.1,57.6c0,1.6-1.2,2.7-2.4,2.6c-0.4,0-0.9-0.4-1-0.7c-0.5-1.1-1-2.3-1.3-3.5c-0.3-0.9,0.7-2.2,1.6-2.3
		c0.3,0,0.6,0,0.9,0.1c0.7,0.3,1.3,0.8,1.6,1.5C171.7,56.2,172,57.1,172.1,57.6"/>
	<path class="st7" d="M170.4,65.1c0.2-0.8,0.6-1.5,1.4-2c0.2-0.1,0.6-0.2,0.9,0c1,0.6,2.1,1.2,2.7,2.3c0.5,0.7,0.3,1.4-0.4,2
		c-1.1,0.9-2.1,0.9-3.2,0C171,66.8,170.5,66.1,170.4,65.1"/>
	<path class="st7" d="M157.8,47.6c0,1-0.6,1.8-1.6,1.9c-0.3,0-0.7-0.1-1-0.4c-0.8-0.7-1.1-1.7-1.3-2.8c-0.1-0.6,0.1-1.2,0.6-1.6
		c0.5-0.5,1.2-0.6,1.8-0.2C157.3,45.4,157.7,46.5,157.8,47.6"/>
	<path class="st7" d="M297.5,88.6c0.2-0.1,0.6-0.2,0.7-0.5c0.5-1,0.9-2,1.3-3.1c0.2-0.7-0.2-1.3-0.7-1.7c-0.4-0.3-0.8-0.3-1.2,0
		c-1.1,0.7-2,3-1.7,4.2C296,88,296.7,88.5,297.5,88.6"/>
	<path class="st7" d="M289.6,88.3c0,1.1,0.8,2,1.9,2.1c0.2,0,0.5,0,0.6-0.2c0.9-0.6,1.3-1.5,1.2-2.5c-0.1-0.9-0.6-1.6-1.4-1.9
		c-0.3-0.1-0.8-0.1-1.1,0.1C290.1,86.3,289.7,87.2,289.6,88.3"/>
	<path class="st7" d="M286.4,106.8c0.1-0.9-0.6-1.9-1.2-2c-0.3-0.1-0.6,0-0.8,0.2c-0.9,0.6-1.5,1.4-2,2.3c-0.3,0.5-0.1,1,0.3,1.4
		c0.9,0.7,1.8,0.6,2.5-0.3C285.8,107.7,286.2,107.1,286.4,106.8"/>
	<path class="st7" d="M151.1,22.3c-0.2-0.1-0.5-0.4-0.8-0.5c-0.7-0.3-1.3,0-1.9,0.4c-0.5,0.4-0.5,1-0.3,1.4c0.4,1,0.9,2.1,1.5,3
		c0.4,0.7,2.2,1,2.9,0.5c0.2-0.2,0.4-0.5,0.4-0.8C152.9,24.8,152.5,23.4,151.1,22.3"/>
	<path class="st7" d="M142.6,21.9c0,0.1-0.1,0.1-0.1,0.2c-0.5,1.3,0,2.5,0.7,3.6c0.6,0.9,1.6,1,2.6,0.8c0.5-0.1,0.8-0.5,0.8-0.9
		c0.1-1.1-0.1-2.2-0.6-3.3C145.3,20.7,143.7,20.6,142.6,21.9"/>
	<path class="st7" d="M146.9,35.3c0.6,0.4,2.1,0.5,2.5,0c0.2-0.2,0.3-0.5,0.3-0.8c0.1-1.3-0.4-2.5-1.2-3.5c-0.8-0.9-2.5-0.7-3,0.4
		c-0.1,0.2-0.2,0.6-0.1,0.9c0.3,0.9,0.8,1.8,1.2,2.7C146.7,35.1,146.8,35.2,146.9,35.3"/>
	<path class="st7" d="M151.1,38.1c0,0.2-0.2,0.6-0.1,0.9c0.5,1,1,2,1.6,2.9c0.4,0.6,1.1,0.7,1.8,0.5c0.5-0.1,0.8-0.4,0.8-0.9
		c0.1-1.3-1.1-3.4-2.2-3.9C152.6,37.4,151.7,37.5,151.1,38.1"/>
	<path class="st7" d="M156.3,32.2c-0.8-0.7-2.1-0.6-2.8,0.2c-0.1,0.2-0.3,0.4-0.3,0.6c-0.1,1.1,0.4,1.9,1.2,2.5
		c0.7,0.5,1.6,0.5,2.4,0.1c0.3-0.1,0.5-0.5,0.6-0.9C157.6,33.8,157.1,32.9,156.3,32.2"/>
	<path class="st7" d="M140.4,17c-0.8-0.7-2.1-0.6-2.8,0.2c-0.1,0.2-0.3,0.4-0.3,0.6c-0.1,1.1,0.4,1.9,1.2,2.5
		c0.7,0.5,1.6,0.5,2.4,0.1c0.3-0.1,0.5-0.5,0.6-0.9C141.7,18.7,141.2,17.7,140.4,17"/>
	<path class="st7" d="M144,18c0.7,0.6,1.8,0.8,2.3,0.4c0.2-0.2,0.4-0.5,0.4-0.7c0.1-1.1-0.1-2.1-0.6-3c-0.2-0.5-0.7-0.7-1.3-0.6
		c-1.1,0.3-1.6,1-1.4,2.1C143.6,16.9,143.9,17.6,144,18"/>
	<path class="st7" d="M274.3,103.3c0.5,0,0.8-0.1,1-0.1c1-0.1,1.6-0.6,1.6-1.3c-0.1-1-1.1-2-2.1-1.9c-0.9,0.2-1.7,0.6-2.2,1.4
		c-0.2,0.4-0.2,1,0.2,1.2C273.4,102.9,274,103.1,274.3,103.3"/>
	<path class="st7" d="M265.3,105.3c0.5,0,0.8-0.1,1-0.1c1-0.1,1.6-0.6,1.6-1.3c-0.1-1-1.1-2-2.1-1.9c-0.9,0.2-1.7,0.6-2.2,1.4
		c-0.2,0.4-0.2,1,0.2,1.2C264.3,104.9,264.9,105.1,265.3,105.3"/>
	<path class="st7" d="M341.1,12.7c0.3,0.9,1,1.4,1.7,1.7c0.8,0.4,1.4,0.1,1.7-0.8c0.5-1.5,0.5-3.1-0.1-4.6c-0.1-0.3-0.3-0.7-0.6-0.9
		c-0.6-0.6-1.6-0.6-2.2,0c-0.7,0.8-1.2,1.7-0.9,2.9C340.9,11.6,341,12.2,341.1,12.7"/>
	<path class="st7" d="M339.2,7.9c-0.2-0.1-0.6-0.5-1-0.7c-0.5-0.2-1,0.1-1.3,0.6c-1.1,1.4-1.1,3.1-0.7,4.7c0.2,0.8,1.4,1.4,2.2,1.3
		c0.3-0.1,0.5-0.3,0.7-0.5C339.5,12.1,339.7,9.2,339.2,7.9"/>
	<path class="st7" d="M337.4,18.1c-0.1,0.1-0.4,0.2-0.5,0.5c-0.8,1-1.3,2.2-1.4,3.5c-0.1,1.1,1.4,2.3,2.4,1.9
		c0.3-0.1,0.6-0.3,0.6-0.6c0.4-1.4,0.7-2.7,0.9-4.1C339.5,18.3,338.4,17.6,337.4,18.1"/>
	<path class="st7" d="M344.3,17.5c-0.5-1.2-1.7-1.5-2.4-0.6c-0.6,0.7-1,1.5-1.2,2.4c-0.2,1.4,0.3,2.3,1.6,2.8c0.5,0.2,1,0.2,1.2-0.3
		C344.4,20.4,344.4,18.8,344.3,17.5"/>
	<path class="st7" d="M337.5,1.8c0-0.5-0.1-0.8-0.1-1c-0.1-1-0.6-1.6-1.3-1.6c-1,0.1-2,1.1-1.9,2.1c0.2,0.9,0.6,1.7,1.4,2.2
		c0.4,0.2,1,0.2,1.2-0.2C337.1,2.8,337.3,2.2,337.5,1.8"/>
	<path class="st7" d="M342.8,4c0-0.5-0.1-0.8-0.1-1c-0.1-1-0.6-1.6-1.3-1.6c-1.1,0.1-2,1.1-1.9,2.1c0.2,0.9,0.6,1.7,1.4,2.2
		c0.4,0.2,1,0.2,1.2-0.2C342.5,5,342.7,4.4,342.8,4"/>
	<path class="st7" d="M206.5,92.4c-0.9-0.2-1.6,0.2-2.3,0.7c-0.7,0.5-0.8,1.2-0.1,1.9c1.1,1.1,2.5,1.8,4.1,2c0.4,0,0.8,0,1.1-0.1
		c0.8-0.2,1.3-1.2,1-1.9c-0.4-1-1-1.8-2.1-2.1C207.5,92.8,207,92.6,206.5,92.4"/>
	<path class="st7" d="M194.7,81.8c0-0.2-0.1-0.6-0.3-0.9c-0.7-1-1.4-2.1-2.3-3c-1-1-3-0.4-3.4,1c-0.1,0.3,0,0.8,0.2,1
		c1,1.4,2.2,2.4,3.7,3.2C193.5,83.6,194.6,82.9,194.7,81.8"/>
	<path class="st7" d="M215.3,99.9c1.2,0.2,2.2,0.5,3.3,0.5c0.9,0.1,1.4-0.6,1.3-1.4c0-0.5-0.1-1.1-0.2-1.5c-0.1-0.3-0.4-0.7-0.7-0.8
		c-1.2-0.2-2.3-0.4-3.5-0.5c-0.4,0-0.9,0.2-1.2,0.4c-0.5,0.3-0.8,0.9-0.5,1.3C214.3,98.6,214.8,99.2,215.3,99.9"/>
	<path class="st7" d="M189,69.8c-1.1-0.2-2.5,1.2-2.1,2.1c0.6,1.8,1.8,3.1,3.5,3.8c0.8,0.3,1.7-0.4,1.6-1.3c0-0.2,0-0.5-0.1-0.6
		c-0.7-1.2-1.5-2.4-2.3-3.6C189.5,70,189.2,69.9,189,69.8"/>
	<path class="st7" d="M211.2,89.2c0.2-0.1,0.7-0.3,1.1-0.6c0.4-0.4,0.3-1,0.1-1.5c-0.8-1.6-2.2-2.4-3.9-2.8
		c-0.8-0.2-1.9,0.6-2.1,1.4c-0.1,0.2,0,0.6,0.2,0.8C207.3,87.5,209.8,89,211.2,89.2"/>
	<path class="st7" d="M185.3,79.1c-0.8,0-2.1,1-2.1,1.7c0,0.3,0.1,0.6,0.2,0.9c0.7,1.3,1.8,2.2,3.1,2.8c0.2,0.1,0.4,0.1,0.6,0.2
		c0.9,0.1,1.7-0.7,1.5-1.5c-0.5-1.6-1.6-2.8-2.9-3.9C185.6,79.1,185.4,79.1,185.3,79.1"/>
	<path class="st7" d="M223.4,105.7c0.8-1.4-0.1-3.1-1.5-3.1c-1.2,0-2.4,0.2-3.5,0.8c-0.6,0.3-0.8,0.9-0.5,1.5
		c0.3,0.6,0.7,1.2,1.4,1.4c1,0.3,2.1,0.4,3.1,0.1C222.9,106.1,223.2,105.8,223.4,105.7"/>
	<path class="st7" d="M202.9,82.8c0-0.1,0-0.4-0.2-0.7c-0.6-1.2-1.3-2.1-2.4-2.9c-0.9-0.6-2.7,0.2-2.8,1.3c0,0.3,0,0.7,0.2,0.8
		c1,0.9,2.1,1.9,3.2,2.7C201.7,84.6,202.9,83.9,202.9,82.8"/>
	<path class="st7" d="M179.8,75.2c1.1,0.1,1.8-0.6,1.6-1.5c-0.5-1.5-1.6-2.6-3-3.4c-0.2-0.1-0.6-0.1-0.8,0.1
		c-0.3,0.1-0.6,0.4-0.9,0.6c-0.9,0.8-0.9,1.4,0.1,2.2c0.8,0.6,1.6,1.1,2.4,1.7C179.3,75,179.6,75.1,179.8,75.2"/>
	<path class="st7" d="M201,93c0-0.2-0.1-0.5-0.2-0.9c-0.5-1.1-1.3-1.8-2.3-2.4c-1-0.6-2.6,0.1-2.9,1.3c-0.1,0.2,0,0.6,0.2,0.8
		c1,1.2,2.4,2,3.9,2.4C200.3,94.3,201,93.8,201,93"/>
	<path class="st7" d="M200.3,89.3c1.3,0.1,2.1-0.9,1.7-1.9c-0.3-0.8-0.8-1.6-1.6-2.1c-1.1-0.8-2.2-0.8-3.2,0.1
		c-0.4,0.3-0.6,0.8-0.3,1.2C197.7,88,199,88.8,200.3,89.3"/>
	<path class="st7" d="M212,100c-0.9-0.4-2-0.6-3.2-0.2c-0.6,0.2-0.9,0.9-0.5,1.5c0.8,1.4,2,2.2,3.6,2.4c1,0.1,1.6-0.5,1.6-1.5
		C213.4,101.2,213.1,100.5,212,100"/>
	<path class="st7" d="M229.8,100.8c0.6-1.5-0.4-3.1-1.8-2.9c-0.9,0.1-1.7,0.4-2.6,0.7c-0.6,0.3-0.8,0.9-0.5,1.5
		c0.5,1.1,1.2,1.6,2.4,1.5c0.6,0,1.2-0.2,1.7-0.3C229.4,101.3,229.6,101,229.8,100.8"/>
	<path class="st7" d="M221.9,96.5c0.5,0.2,0.7,0.3,0.9,0.4c1,0.3,1.7,0.2,2-0.4c0.4-1-0.1-2.3-1-2.6c-0.9-0.3-1.8-0.2-2.6,0.2
		c-0.4,0.2-0.6,0.8-0.4,1.1C221.2,95.8,221.6,96.2,221.9,96.5"/>
	<path class="st7" d="M212.9,94.1c0.5,0.2,0.7,0.3,0.9,0.4c1,0.3,1.7,0.2,2-0.4c0.4-1-0.1-2.3-1-2.6c-0.9-0.3-1.8-0.2-2.6,0.2
		c-0.4,0.2-0.6,0.8-0.4,1.1C212.2,93.4,212.7,93.8,212.9,94.1"/>
	<path class="st7" d="M349,41.6c0.1-1.1,0.8-2.3,0.4-3.7c-0.3-1.1-0.9-1.5-2.1-1.3c-0.9,0.2-1.4,0.6-1.6,1.4
		c-0.1,0.3-0.1,0.6-0.2,0.9c-0.4,1,0,1.9,0.7,2.7C347.2,42.8,348.4,42.8,349,41.6"/>
</g>
</svg>
