<svg id="Capa_1" data-name="Capa 1" xmlns="http://www.w3.org/2000/svg" viewBox="0 0 1080 1920"><defs><style>.cls-1{fill:#87cdd9;}.cls-2{fill:#ada4d1;}.cls-3{fill:#fdf6be;}.cls-4{fill:#7f3f91;}.cls-5{fill:#2c52a0;}.cls-6{fill:#226370;}.cls-7{fill:#f4993e;}.cls-8{fill:#233567;}.cls-9{fill:#fff;}.cls-10{fill:#f4993d;}.cls-11{fill:#ed6e3a;}.cls-12{fill:#8a7fbb;}.cls-13{fill:#5cc1ce;}</style></defs><path class="cls-1" d="M-15.45,679.92c1.37-96.78,117.27-21.43,34.34-241.45C-21.69,330.92,74,318.81,47,226.76,4.83,82.57-7.91,110-7.91,110L-135.39,566.53l-15.73,56.73Z"/><path class="cls-2" d="M1063.77,668.52c3-114.33-137.8-30.81-29.2-286.94,53-125.26-59.49-144.07-23.25-251.64,56.62-168.5,70.4-135.53,70.4-135.53L1210.8,540.29l15.93,67.83Z"/><path class="cls-3" d="M25.5,1524.31c-5.92-161,79.52-114.91,8.32-442.36-36.29-167.12,52.48-187.79,19-331.08C.62,526.18-9.86,576.06-9.86,576.06L-100.94,1378l-11.23,99.77Z"/><path class="cls-2" d="M118.42,1943.1c-23.89-91,104.56-50.6-30.6-235.29-66-90.33,20.53-126.57-28.73-205.9-77-124.29-81.87-95.3-81.87-95.3l-.67,461.46v57.31Z"/><path class="cls-4" d="M-49.63,885.38a100.25,100.25,0,0,1,131.14-53L62.72,876.65a52,52,0,0,0-40.54,95.7L3.39,1016.64a100.39,100.39,0,0,1-53-131.26"/><path class="cls-5" d="M27.69,959.47a38,38,0,1,1,29.66-69.93"/><path class="cls-6" d="M7.42,351.2C4.87,351.6,3,355,3.93,357a11.33,11.33,0,0,0,2.15,2.82c2.55,2.41,4,1.88,4.69-1.48a7.27,7.27,0,0,0-1.61-6.17c-.4-.54-1.34-.67-1.74-.94"/><path class="cls-6" d="M30.24,387.71c-1.35.13-3.23,1.61-3.36,2.81a1.58,1.58,0,0,0,.27,1.35,12,12,0,0,0,5.5,4.43A1.56,1.56,0,0,0,34,396a3.73,3.73,0,0,0,.68-4.57c-.94-1.07-1.88-2.14-3-3.22a6.2,6.2,0,0,0-1.47-.53"/><path class="cls-6" d="M13.59,382.34a10,10,0,0,0,5.64,5.1,1.26,1.26,0,0,0,1.21-.41,3.31,3.31,0,0,0,.8-3.75,18.32,18.32,0,0,0-2.68-3.9,2,2,0,0,0-2.95-.13,11.55,11.55,0,0,0-1.75,1.88,1.79,1.79,0,0,0-.27,1.21"/><path class="cls-6" d="M20.3,364.22c-1.47.4-3.08,1.88-3.22,3.08a2.43,2.43,0,0,0,.27,1.35,12.47,12.47,0,0,0,4.56,4.16,1.5,1.5,0,0,0,2.29-.94,4.09,4.09,0,0,0-.27-4.43,18.32,18.32,0,0,0-2-2.42c-.4-.54-1.2-.54-1.61-.8"/><path class="cls-6" d="M9.43,388.24c-2.28.67-3.49,3-2.28,4.7a29.27,29.27,0,0,0,3.22,3.89c1.21,1.08,2.55.54,3.09-1.07a4.19,4.19,0,0,0-.4-4.16,13.13,13.13,0,0,0-2-2.55c-.27-.67-1.07-.67-1.61-.81"/><path class="cls-6" d="M33.32,384.08a22.87,22.87,0,0,0,1.21-2.95c.54-2.15-1.34-5.1-3.49-5.64a2.19,2.19,0,0,0-1.34.14A8.55,8.55,0,0,0,28,377c-1.07,1.07-1.2,2-.13,3.22a9.17,9.17,0,0,0,5.5,3.89"/><path class="cls-6" d="M14.26,339.92a8.12,8.12,0,0,0-1.07-1.74,2.11,2.11,0,0,0-2.95-.27,9.26,9.26,0,0,0-1.88,2.15,3.52,3.52,0,0,0-.27,2,7.16,7.16,0,0,0,3.22,4.16,1.57,1.57,0,0,0,2.15-.67,9.48,9.48,0,0,0,.8-5.64"/><path class="cls-6" d="M13.46,371.6c-.54-.94-.81-1.75-1.21-2.42-1.34-2-2.82-2-4.43-.4a6.93,6.93,0,0,0-.94,1.07,2.24,2.24,0,0,0-.13,2.42,7.92,7.92,0,0,0,3.76,3.22,1.42,1.42,0,0,0,1.87-.54c.41-1.07.68-2.28,1.08-3.35"/><path class="cls-6" d="M40.17,387.3c-2.28.41-3.36,2.69-2.15,4.16a12.4,12.4,0,0,0,4.3,4,1.48,1.48,0,0,0,2.14-.81,3.67,3.67,0,0,0-.4-4.16,22,22,0,0,0-2.42-2.68,6.72,6.72,0,0,0-1.47-.54"/><path class="cls-6" d="M9.7,405.83a5.62,5.62,0,0,0-2.82-3.76,1.81,1.81,0,0,0-2,.13,6,6,0,0,0-1.61,2,2,2,0,0,0,0,1.75,9.11,9.11,0,0,0,3.35,3.76c1.08.53,2.15.27,2.42-.81a16,16,0,0,0,.67-3.08"/><path class="cls-6" d="M-.1,368.78c.27-.81.94-1.61.94-2.28a19.46,19.46,0,0,0-1.07-4.83c-.54-1.48-2.15-1.61-3.36-.54-.4.4-.8.94-1.21,1.34a2.23,2.23,0,0,0-.26,2.69,6.94,6.94,0,0,0,5,3.62"/><path class="cls-6" d="M19.1,401.4c-2.55.53-3.49,3.35-1.88,5A11,11,0,0,0,20,408.51a1.66,1.66,0,0,0,2.41-.94,4.18,4.18,0,0,0-2.15-6,3.37,3.37,0,0,1-1.2-.13"/><path class="cls-6" d="M3.53,384.35a3.36,3.36,0,0,0,1.34-3.49,9.48,9.48,0,0,0-1.48-3.62,2,2,0,0,0-2.95-.41A5.76,5.76,0,0,0-1,378.44a1.78,1.78,0,0,0-.27,1.35,18.45,18.45,0,0,0,1.75,2.68c.8.94,1.61,1.88,3.09,1.88"/><path class="cls-6" d="M20,396.43c.26.54.26.94.53,1.07a38.79,38.79,0,0,0,3.76,2.82A1.61,1.61,0,0,0,26.75,399a3.34,3.34,0,0,0-.41-2,13.53,13.53,0,0,0-1.74-2.42c-1.34-1.48-2.69-1.34-3.89.27-.27.54-.41,1.07-.67,1.61"/><path class="cls-6" d="M6.21,415.89c-.27-.53-.4-1.07-.81-1.34A2.35,2.35,0,0,0,3.79,414a3.5,3.5,0,0,0-2.55,3.63,9.13,9.13,0,0,0,.68,2,2.75,2.75,0,0,0,2.55,1.75c1.34-.14,1.47-1.48,1.61-2.56a11.22,11.22,0,0,0,.13-2.95"/><path class="cls-6" d="M19.36,358.44a5.27,5.27,0,0,0,.41-5.77,2,2,0,0,0-3.09-.67c-1.75,1.61-1.88,3-.54,4.7.94,1.07,1.61,2,3.22,1.74"/><path class="cls-6" d="M4.87,343.81c-.4-.67-.54-1.2-.94-1.47a1.25,1.25,0,0,0-1.61-.27A2.34,2.34,0,0,0,1,344.75,2.87,2.87,0,0,0,3.12,347c.41,0,1.08-.27,1.21-.68a17.55,17.55,0,0,0,.54-2.55"/><path class="cls-6" d="M18.16,475.49a16.9,16.9,0,0,0,2.28.4A2.65,2.65,0,0,0,23,474.55c.53-1.08-.14-1.88-.81-2.55a19,19,0,0,0-6.31-4.43,10.31,10.31,0,0,0-2.14-.54,1.79,1.79,0,0,0-1.88,2.15c.27,1.74.8,3.35,2.55,4.16,1.21.8,2.55,1.48,3.76,2.15"/><path class="cls-6" d="M36,403.54c0,.27-.14.67-.14.94a16.08,16.08,0,0,0,1.88,5.91,2.52,2.52,0,0,0,2.69,1.34,3.74,3.74,0,0,0,3.22-2,2.84,2.84,0,0,0,0-1.48c-.67-2.68-2.55-4.56-4.83-6.17-.67-.54-2.42.27-2.82,1.47"/><path class="cls-6" d="M10.64,420.05a9.17,9.17,0,0,0,1.21,7,2,2,0,0,0,1.21.81A3.94,3.94,0,0,0,17.22,425a7.63,7.63,0,0,0-1.88-6.44c-1.75-1.61-3.36-.81-4.16.67-.41.27-.41.53-.54.8"/><path class="cls-6" d="M47.55,451.86c1.48.41,3.89-.8,4.3-1.88a2.66,2.66,0,0,0,.13-1.07,11.25,11.25,0,0,0-4.7-7.11,2,2,0,0,0-3.08,1.74,5.71,5.71,0,0,0,.13,1.48c.67,1.88,1.48,3.89,2.28,5.77a3.94,3.94,0,0,0,.94,1.07"/><path class="cls-6" d="M26.61,424a4.22,4.22,0,0,0,3.63-.54c1.2-.67,1.47-1.61.67-2.69a17.22,17.22,0,0,0-6.18-5,2.27,2.27,0,0,0-2.41.27,1.85,1.85,0,0,0-.67,2.28c.67,2.95,2.68,4.43,5,5.64"/><path class="cls-6" d="M42.32,466.09a3,3,0,0,0,3-.94,1.92,1.92,0,0,0,.8-2.28,11.1,11.1,0,0,0-5.1-6.44,2.06,2.06,0,0,0-3.08,1.88,11,11,0,0,0,4,7.51c.14.14.27.14.41.27"/><path class="cls-6" d="M49.7,405.69a3.42,3.42,0,0,0,0,1.21,14.88,14.88,0,0,0,3.35,6.44,2.69,2.69,0,0,0,3.36.67,2.2,2.2,0,0,0,1.34-3.22,17,17,0,0,0-4.83-5.9,2,2,0,0,0-3.22.8"/><path class="cls-6" d="M50,425.69a6.15,6.15,0,0,1,.67.13c1.07.14,2.28.27,3-.8a2.66,2.66,0,0,0-.4-3.09c-1.21-1.47-2.55-2.95-3.89-4.29a1.83,1.83,0,0,0-2.42-.27,2.33,2.33,0,0,0-1.21,2.41c.27,2.55,2.15,5.24,4.3,5.91"/><path class="cls-6" d="M21,457.9v1.48a8.67,8.67,0,0,0,3.23,5.1,2.51,2.51,0,0,0,2.41.4c2.55-.67,3.09-2.14,1.34-4.16A25.64,25.64,0,0,0,24.06,457c-.8-.94-2.41-.4-3.09.94"/><path class="cls-6" d="M37.48,430.52a6.36,6.36,0,0,0,.14,1.48,15.59,15.59,0,0,0,3,5.77,1.49,1.49,0,0,0,1.88.54,8.47,8.47,0,0,0,1.88-.94,1.55,1.55,0,0,0,.67-1.88,12.47,12.47,0,0,0-4.56-5.91,2,2,0,0,0-3,.94"/><path class="cls-6" d="M9.83,439.11a2.27,2.27,0,0,0,0,.94,9.64,9.64,0,0,0,3,5.77c.8.81,1.88.67,3,0s1.48-1.47,1.21-2.41A9.1,9.1,0,0,0,12.38,438a1.79,1.79,0,0,0-2.55,1.07"/><path class="cls-6" d="M21.91,444.21a7,7,0,0,0,.14,1.48A9,9,0,0,0,24.73,450a3,3,0,0,0,4.43-.53,2,2,0,0,0,.14-1.75,10.49,10.49,0,0,0-4.7-5,2,2,0,0,0-2.69,1.47"/><path class="cls-6" d="M30.24,428.51a1.81,1.81,0,0,0-2.15,1.07,3.7,3.7,0,0,0,0,1.75,12.63,12.63,0,0,0,2.41,4.83,1.89,1.89,0,0,0,1.88.8,3.09,3.09,0,0,0,2.55-1.87,1.53,1.53,0,0,0-.13-1.35A14.68,14.68,0,0,0,31,428.91a1.16,1.16,0,0,0-.8-.4"/><path class="cls-6" d="M40,449c0-.26.14-.67,0-.93a10,10,0,0,0-3.89-5.24,1.5,1.5,0,0,0-2.41.67,5.46,5.46,0,0,0-.41,2.42,9.77,9.77,0,0,0,1.61,3.62,3,3,0,0,0,5-.13A.52.52,0,0,1,40,449"/><path class="cls-6" d="M10.51,450.12a1.92,1.92,0,0,0-2.69,1.74,8.21,8.21,0,0,0,2.95,6c.94.81,2,.27,3.09-.26s1.61-1.62.81-2.69a45.27,45.27,0,0,0-3.36-4.29,8.05,8.05,0,0,0-.8-.54"/><path class="cls-6" d="M36.41,420.72a6.56,6.56,0,0,0,0,1.61,7.19,7.19,0,0,0,2.55,4.3,2.7,2.7,0,0,0,3.62.4c1.21-.67,1.62-1.74.81-2.68a46,46,0,0,0-3.49-3.76,2.47,2.47,0,0,0-1.61-.67,11.65,11.65,0,0,0-1.88.8"/><path class="cls-6" d="M2.59,428.64a8.16,8.16,0,0,0,.94,5.77,1.48,1.48,0,0,0,1.87.68,3.58,3.58,0,0,0,2.29-5.51,18.83,18.83,0,0,0-1.35-1.74c-.67-.67-1.47-1.21-2.28-.67a5,5,0,0,0-1.47,1.47"/><path class="cls-6" d="M18.83,430.92a7.54,7.54,0,0,0-.14.94c.41,1.75.94,3.49,1.48,5.24a1.69,1.69,0,0,0,2.42.94,2.9,2.9,0,0,0,1.87-4,8.06,8.06,0,0,0-3.08-3.89,1.65,1.65,0,0,0-2.55.8"/><path class="cls-6" d="M49.43,432.8a2.19,2.19,0,0,0,0,.94c.54,1.75,1.07,3.49,1.74,5.1a1.53,1.53,0,0,0,1.75.94,2.73,2.73,0,0,0,2.28-2,7.62,7.62,0,0,0-3.76-6.17c-.67-.41-1.74.26-2,1.2"/><path class="cls-6" d="M34.53,416.43a5.54,5.54,0,0,0,1.48,0c.8-.14,1.74-.54,1.88-1.34a2.53,2.53,0,0,0-.67-1.88,23.46,23.46,0,0,0-3.63-2.82,1.64,1.64,0,0,0-2,.27,1.91,1.91,0,0,0-.67,2c.27,1.75,1.47,2.95,3.62,3.76"/><path class="cls-7" d="M5.4,511.06-5.47,513.2l-4.16,46s97.31-26.57,105-97.31c6.45-60.13-44.29-66.17-53-127.38s-59.06-96.37-59.06-96.37,20.4,20.54,29.8,54.76,9.12,54.5,31.14,82.28,34.36,39.46,23.89,74.63C57.89,485.29,5.4,511.06,5.4,511.06"/><path class="cls-8" d="M-8.55,584.48c4.43-1.62,8.72-3.36,13-5.24s8.45-3.89,12.75-6c8.45-4.16,16.51-8.86,24.56-13.82a250.52,250.52,0,0,0,23.09-16.51,180.82,180.82,0,0,0,20.8-19.73c3.22-3.63,6.31-7.39,9.13-11.28a106.82,106.82,0,0,0,7.65-12.48,88.34,88.34,0,0,0,9.39-28.19l.14-1.74c0-.67.13-1.21.13-1.88l.14-1.88.13-1.88v-7.38a133.58,133.58,0,0,0-1.21-14.63,111.53,111.53,0,0,0-3.08-14.5,88,88,0,0,0-5.37-13.82,113.15,113.15,0,0,0-16.65-24.16c-6.31-7.25-12.75-13.83-18.39-20.67-1.34-1.75-2.68-3.49-3.89-5.24l-.94-1.34-.8-1.34c-.54-.94-1.08-1.88-1.61-2.69A59.08,59.08,0,0,1,55.74,346c-2.42-8.59-4.16-17.85-6.71-27a121.3,121.3,0,0,0-10.61-26.84,131,131,0,0,0-16.37-23.49A187.78,187.78,0,0,0,1.78,248.92C-1.84,246-5.47,243-9.36,240.19s-7.65-5.36-11.54-7.91l-.41.53c14.9,11.14,29,23.49,40.67,38a133.49,133.49,0,0,1,15.17,23.35,128.8,128.8,0,0,1,9.53,26c2.28,9,3.76,18.26,6.18,27.25a72.24,72.24,0,0,0,4.83,13.15,83.31,83.31,0,0,0,7.65,11.81c5.77,7.39,12.35,14.1,18.39,21.08a106.58,106.58,0,0,1,15.57,22.95,89.84,89.84,0,0,1,5.1,12.88,116.16,116.16,0,0,1,3.08,13.56,119.33,119.33,0,0,1,1.21,13.83v8.72l-.13,1.74-.14,1.75-.27,1.74A79.42,79.42,0,0,1,97.08,497a111.51,111.51,0,0,1-15.57,22.95,180.72,180.72,0,0,1-19.73,19.6,268.3,268.3,0,0,1-22.15,16.91c-7.65,5.24-15.57,10.2-23.76,14.77S-.5,580.05-9,583.8Z"/><path class="cls-4" d="M-3,492.4s67.65-11.14,68.32-57.31-29-43.36-45.64-99.33-3.35-36.51-24-74.09L3,260.19a169.32,169.32,0,0,1,18.25,38.26c6.71,21.2,8.46,35.3,14.9,56.77,7.38,24.83,52.21,47.79,39.33,94.9S22.85,518.3-6.94,528.37Z"/><path class="cls-5" d="M111.64,32.77A112,112,0,0,1-.16,144.57,112,112,0,0,1-112,32.77,112,112,0,0,1-.16-79,111.9,111.9,0,0,1,111.64,32.77Zm-173.28,0A61.55,61.55,0,0,0-.16,94.24,61.55,61.55,0,0,0,61.31,32.77,61.55,61.55,0,0,0-.16-28.71,61.56,61.56,0,0,0-61.64,32.77Z"/><path class="cls-9" d="M18.49,133.7c.27.13.54.13.94.27a5.54,5.54,0,0,1-.27-.81c0-.13.27-.26.54-.4.13.81.13,1.48.27,2.15.27,0,.54-.14.8,0a.61.61,0,0,1,.41.4,2,2,0,0,1-.27.81c-.14.13-.4,0-.54,0a5.24,5.24,0,0,1-1.07-.67A1.46,1.46,0,0,1,18.49,133.7Z"/><path class="cls-9" d="M64.8,43.77c-.14.54-.14.94-.27,1.34-.13,0-.13,0-.27.14-.4-.81-1.07-.67-1.74-.67a.94.94,0,0,1-1.08-.94,1.85,1.85,0,0,1,.81-.27C62.92,43.5,63.73,43.64,64.8,43.77Z"/><path class="cls-9" d="M28.42,136.25a10.32,10.32,0,0,0,1.08-1.34c-.27-.54-.81-.94-.14-1.61a2.34,2.34,0,0,0,.41.27c-.14.94.8,1.61,1.07,2.55-.8,0-1.48.13-2.15.13C28.56,136.39,28.56,136.25,28.42,136.25Z"/><path class="cls-9" d="M26.68,121.89a1.28,1.28,0,0,1,.8,1.21c0,.27.27.53.14.8a1.5,1.5,0,0,1-.27.81c-.4.13-.8.27-1.07-.27C25.87,123.37,26,123,26.68,121.89Z"/><path class="cls-9" d="M64.53,118.67c.54-.67.94-.81,1.21,0,.27.53.4.4.67.13.54-.8.54-.94,1.74-.53-.4.53-.67,1.07-1.2,1.74A18.23,18.23,0,0,0,64.53,118.67Z"/><path class="cls-9" d="M78.09,101.22c.27-.27.4-.54.67-.54s.53.27.53.54.14.4.54.54c.14,0,.4.4.4.67s0,1.2-.67,1.07-.8-.54-.8-1.07A12.46,12.46,0,0,0,78.09,101.22Z"/><path class="cls-9" d="M97.82,82.83c.27-.27.53-.4.67-.54-.14-.27-.4-.67-.54-.94s.14-.13.14-.26c.8.13,1.47.4,2.55.53-.54.67-.81,1.21-1.21,1.34C99,83.37,98.49,83,97.82,82.83Z"/><path class="cls-9" d="M61.44,77.46c-.67-.67-1.2-1.21-.4-1.88.13-.13,0-.4.13-.67a1.09,1.09,0,0,1,.54-.54c.14-.13.54,0,.54.14a.86.86,0,0,1,0,.8,1.76,1.76,0,0,0-.54,1.35A1.86,1.86,0,0,1,61.44,77.46Z"/><path class="cls-9" d="M9.1,121.49c-.14.13-.27.13-.27.26-.4.54-1.08.41-1.48.41a.49.49,0,0,1-.13-.94,3.78,3.78,0,0,1,2.14-.4c.27,0,.41.26.54.53-.13.14-.4.27-.54.54A1,1,0,0,0,9.1,121.49Z"/><path class="cls-9" d="M10.44,132c.4,0,.8-.14,1.21-.14s.67.4.53.54-.26.67-.53.8a2.45,2.45,0,0,1-1.08.27c-.27,0-.53-.4-.67-.67a.61.61,0,0,1,0-.67c0-.13.27-.27.4-.27A.14.14,0,0,0,10.44,132Z"/><path class="cls-9" d="M11.65,105a10.1,10.1,0,0,1,1.74-1.21.6.6,0,0,1,.94.54V105a2.6,2.6,0,0,1,.14.67c-.41-.14-.68-.14-.94-.27s-.54-.54-.94,0A3.36,3.36,0,0,0,11.65,105Z"/><path class="cls-9" d="M63.86,97.86a1.06,1.06,0,0,1,.13.54,3,3,0,0,0,.27,2.15c0,.13-.4.53-.67.8-.13-.27-.54-.53-.54-.8A4.71,4.71,0,0,1,63.86,97.86Z"/><path class="cls-9" d="M79.7,26.32V27.4a1.93,1.93,0,0,0-1.48.4c-.13.13-.67,0-.94-.14s-.27-.67-.13-.8.67-.4.8-.27C78.62,27.13,79,26.19,79.7,26.32Z"/><path class="cls-9" d="M40.91,123.1c0-.41-.27-.94.4-1.21.4-.27.81.13.94.4.13.54,0,.94-.4.94-.14.4-.14.81-.41,1.08s-.53-.14-.8-.14A3,3,0,0,1,40.91,123.1Z"/><path class="cls-9" d="M59,62.7a3.2,3.2,0,0,0,.94.4,11.78,11.78,0,0,1-1.08.67c-.27.4-.4.81-.8.94-.14.13-.67-.27-.81-.54s-.13-.94.14-1.07a4.52,4.52,0,0,1,1.34,0C58.76,63.23,58.89,63,59,62.7Z"/><path class="cls-9" d="M64.66,8.87c-.53.27-.93,0-.93-.53s.67-1.48.93-1.48c.41,0,.81.81.81,1.48C65.47,8.74,65.34,8.87,64.66,8.87Z"/><path class="cls-9" d="M31,137.32c-.13.54-.13.94-.26,1.48a2.45,2.45,0,0,1-.54.67,1.32,1.32,0,0,1-.67-.53C29.1,137.59,29.77,136.92,31,137.32Z"/><path class="cls-9" d="M57.15,56c.54-.27.8-.54,1.07-.54a1.44,1.44,0,0,1,1.08,0c.26.13.53.4.53.54a.92.92,0,0,1-.53.67,5.64,5.64,0,0,1-1.48,0A2.71,2.71,0,0,0,57.15,56Z"/><path class="cls-9" d="M81.85,15.85a2.45,2.45,0,0,0-.54-.67c.27-.13.67-.4.8-.27s.27.41.54.67a2.88,2.88,0,0,0,.67-.67,2.31,2.31,0,0,0,.54.67c-.27.14-.27.27-.54.41-1.47.67-1.61.67-2.28,0C81.31,16,81.58,15.85,81.85,15.85Z"/><path class="cls-9" d="M81.44,80.41a12.36,12.36,0,0,1-.8,1.35.42.42,0,0,1-.54,0,1.1,1.1,0,0,1-.27-.54,2.2,2.2,0,0,1,.14-.94c.13-.27.53-.54.67-.81A5.22,5.22,0,0,0,81.44,80.41Z"/><path class="cls-9" d="M93.79,11.69a2.83,2.83,0,0,1,.67,1.08.13.13,0,0,1-.13.13l-1.21-.4c-.13.13-.4.4-.54.4a1.17,1.17,0,0,1-.94,0,.25.25,0,0,1-.13-.4,1.55,1.55,0,0,1,.67-.67A6.78,6.78,0,0,0,93.79,11.69Z"/><path class="cls-9" d="M31.91,117.33c-.13-.41-.26-.68-.4-1.08s.14-.8.14-1.07a.58.58,0,0,1,.4-.4c.13,0,.4.13.4.26a3.3,3.3,0,0,1,.14,1.61c0,.27-.41.54-.54.81C32.18,117.33,32.05,117.33,31.91,117.33Z"/><path class="cls-9" d="M82.25,3.24a1.59,1.59,0,0,1,.53.4c.27.13.41.4.68.67a.65.65,0,0,1,.13.94c-.4.4-.67.27-.94-.13A3.42,3.42,0,0,1,82,4.31c-.13-.13-.27-.4-.13-.54S82.11,3.37,82.25,3.24Z"/><path class="cls-9" d="M15.94,98.4c-.27-.13-.4-.4-.67-.54.27-.13.4-.4.81-.67.4.81.67,1.34.94,2,0,.13-.14.53-.27.53a1.1,1.1,0,0,1-.94,0c-.14,0-.14-.4-.14-.53S15.94,98.67,15.94,98.4Z"/><path class="cls-9" d="M70,11a9,9,0,0,1-1.2,1.08.63.63,0,0,1-.68,0,1.08,1.08,0,0,1-.26-.54,4,4,0,0,1,.94-1.21C69.5,10.08,69.77,10.48,70,11Z"/><path class="cls-9" d="M48.16,106.59c.13-.14.26-.27.4-.27a1,1,0,0,1,.67.13.62.62,0,0,1,0,.67,1,1,0,0,1-.67.27c-.27,0-.54-.4-.94-.13-.14.13-.67,0-.67-.14s0-.53.13-.8.54,0,.81,0A.29.29,0,0,0,48.16,106.59Z"/><path class="cls-9" d="M49.9,118.13a8.05,8.05,0,0,0-.54.94c.27.13.54.13.81.27a.4.4,0,0,0-.14.27,2.55,2.55,0,0,1-1.07.27.82.82,0,0,1-.94-.81c-.13-.54.27-.67.67-.67A3.77,3.77,0,0,0,49.9,118.13Z"/><path class="cls-9" d="M61.31,118l1.21.4v.13c-.54.14-.94.27-1.08.94,0,.14-.67.41-1.07.54a.29.29,0,0,1-.27-.27c0-.13.14-.4.14-.54A5,5,0,0,1,61.31,118Z"/><path class="cls-9" d="M60,104.31c0-.27.13-.41.13-.81l.54.27A9.4,9.4,0,0,1,60.1,105a2.41,2.41,0,0,0,.4.53h-.94l-.8-.4c.13-.27.4-.54.54-.8S59.7,104.31,60,104.31Z"/><path class="cls-9" d="M70.17,92.9c.4-.67.8-.67,1.34-.27s.81.4.54,1.07-.67.54-1.08.14l-.4-.41C70.44,93,70.3,93,70.17,92.9Z"/><path class="cls-9" d="M25.2,138a3.26,3.26,0,0,1,.67-.41v.27c.27.14.68.4.94.54.54.13.67.54.27.8a1.27,1.27,0,0,1-.94.27c-.13,0-.4-.27-.53-.53A6.7,6.7,0,0,1,25.2,138Z"/><path class="cls-9" d="M31.78,121.22c.67.67.81.94.27,1.34s-1.21.67-1.34.27C30.17,121.75,31.38,121.89,31.78,121.22Z"/><path class="cls-9" d="M25.61,132c-.81.13-1.48.26-2.15.4-.14,0-.4-.27-.27-.4a.75.75,0,0,1,.4-.68C23.86,131,25.07,131.28,25.61,132Z"/><path class="cls-9" d="M84.66,28.6c1.21-.13,1.48.14,1.48.81s-.13.81-.67.81-.81-.27-.81-.68c-.13-.26,0-.53,0-.94Z"/><path class="cls-9" d="M17.42,98.27c.67,0,1.21-.81,1.61,0a.77.77,0,0,1-.27,1.2C18.22,99.74,18,99.47,17.42,98.27Z"/><path class="cls-9" d="M68.83,111s0,.4-.14.4a.86.86,0,0,1-.8,0,1.29,1.29,0,0,1-.54-.67,2.18,2.18,0,0,1-.27-.67c0-.14.4-.41.54-.41s.4.27.53.41A5.88,5.88,0,0,0,68.83,111Z"/><path class="cls-9" d="M16.75,140.55a1.9,1.9,0,0,1,.27.8c0,.27-.14.54-.14.81a1.34,1.34,0,0,1-.67-.54,2.63,2.63,0,0,1-.4-1.07,1.85,1.85,0,0,1,.27-.81c0-.13.4-.13.53,0a1,1,0,0,1,.27.67C17,140.41,16.88,140.55,16.75,140.55Z"/><path class="cls-9" d="M77.15,17.46c0,.68-.14,1.21-.81,1.21s-.67-.27-.53-.67.13-1.07.8-1.07C76.74,16.93,77,17.33,77.15,17.46Z"/><path class="cls-9" d="M77.68,30.35c.41.4.94.8.94.94a2.08,2.08,0,0,1-.94.94c-.13,0-.67-.4-.67-.67S77.42,30.89,77.68,30.35Z"/><path class="cls-9" d="M81.85,46.05a1.89,1.89,0,0,1,1.87-.13c.14,0,.27.67.27.8s-.67.41-.8.27A2.94,2.94,0,0,1,81.85,46.05Z"/><path class="cls-9" d="M101.84,66.32a4.8,4.8,0,0,1,.27,1.21.61.61,0,0,1-.4.54,1.59,1.59,0,0,1-.94-.27.87.87,0,0,1,.13-.94C101,66.72,101.44,66.59,101.84,66.32Z"/><path class="cls-9" d="M84,48.6a.49.49,0,0,0,.27.14.81.81,0,0,1-.13.53,2.5,2.5,0,0,1-.94.68.89.89,0,0,1-.81,0c-.13,0-.27-.41-.13-.54a1.34,1.34,0,0,1,.67-.54A5.43,5.43,0,0,0,84,48.6Z"/><path class="cls-9" d="M67.48,115.45c-.4.53-.8,1.07-1.07,1.47a2.79,2.79,0,0,1-.67-.53c-.14-.27.67-1.48.94-1.35A1.16,1.16,0,0,1,67.48,115.45Z"/><path class="cls-9" d="M77.42,53.3c0-.13-.14-.27-.14-.54.54-.26,1.21-.4,1.75-.67a2.79,2.79,0,0,1,.26.81c0,.54-.4.67-.93.54A2.51,2.51,0,0,1,77.42,53.3Z"/><path class="cls-9" d="M42,105.78c-.27,0-.67.14-.8,0a1.74,1.74,0,0,1-.81-.94c-.13-.13.27-.53.54-.8s.53.13.67.4A5.48,5.48,0,0,1,42,105.78Z"/><path class="cls-9" d="M94.6,24.44c-.94.81-1.08-1.2-1.88-.13a.56.56,0,0,0-.14-.4c.27-.41.41-.94.67-1.08.54-.13.81.41.81.94A2.58,2.58,0,0,0,94.6,24.44Z"/><path class="cls-9" d="M59,73.3a2.7,2.7,0,0,1-.54,1.07c-.13.14-.54.14-.94.27-.13-.4-.54-.8-.13-1.21S58.36,72.63,59,73.3Z"/><path class="cls-9" d="M100.5-.12c.27.14.4.14.67.27s.27.27.27.13c.4-.26.54,0,.54.27a1,1,0,0,1-.27.67,6.34,6.34,0,0,1-.81.54c-.26-.54-.4-1.07-.67-1.61A.28.28,0,0,0,100.5-.12Z"/><path class="cls-9" d="M50.17,105.38c-.4.27-.81.4-1.21,0-.13-.13-.54,0-.8-.13.26-.27.4-.68.8-.94a1.4,1.4,0,0,1,.81-.27c.13,0,.4.4.4.67s-.14.54,0,.67Z"/><path class="cls-9" d="M52.85,120.68c-.13-.27-.27-.4-.4-.67-.81-.81-.67-1.07.4-1.61.67.94.67,1.61,0,2.28Z"/><path class="cls-9" d="M56.88,8.07c-.13.27-.27.4-.4.67-.27-.4-.54-.67-.14-1.07S57,6.73,57.69,7c.13.14.4.27.4.41s-.27.4-.4.53A1.66,1.66,0,0,1,56.88,8.07Z"/><path class="cls-9" d="M104.39.42c-.53.27-.67.67-.94.53s-1.07,0-.93-.67c0-.26.4-.53.53-.94A11,11,0,0,0,104.39.42Z"/><path class="cls-9" d="M70.44,110.08v-1.34H69.36a1.26,1.26,0,0,1,1.21-.41.49.49,0,0,1,.27.14c.54.13.8.53.67.94S71,109.81,70.44,110.08Z"/><path class="cls-9" d="M6.81,139.61a3.64,3.64,0,0,1,2.69-.94A2.31,2.31,0,0,1,6.81,139.61Z"/><path class="cls-9" d="M88,25.79a1.74,1.74,0,0,1-.4-.27c.13-.67.13-1.34.27-2,0-.13.53-.4.67-.4.4.14.13.4.13.67C88.82,24.58,88,25,88,25.79Z"/><path class="cls-9" d="M51.51,109.41c.13.26.4.4.54.67-.27.27-.41.53-.81.94,0-.41-.13-.67-.13-.94a1.85,1.85,0,0,1-.27-.81c0-.27-.13-.67,0-.67a.86.86,0,0,1,.8,0,1,1,0,0,1,.14.67C51.78,109.14,51.64,109.27,51.51,109.41Z"/><path class="cls-9" d="M25.47,91.15l1.61-.4a3.94,3.94,0,0,1-.53.67c.13.13.26.4.53.67-.53,0-1.07.14-1.34,0C25.2,92.09,25.2,91.55,25.47,91.15Z"/><path class="cls-9" d="M76.61,12.9a4.68,4.68,0,0,1,1.21-.8c.27-.14.54,0,.94,0,0,.26,0,.67-.14.8a1.44,1.44,0,0,1-.8.27C77.55,13.3,77.28,13,76.61,12.9Z"/><path class="cls-9" d="M12.59,94.51a8.28,8.28,0,0,1,.8,1.21,4.86,4.86,0,0,1-.8,1.2c-.14.14-.27.27-.41.27s-.26-.13-.4-.27a.76.76,0,0,1,.14-.53c.93-.41.67-.94.4-1.61C12.45,94.91,12.59,94.78,12.59,94.51Z"/><path class="cls-9" d="M102.92,7.53c.13.14.4.27.4.4a1.77,1.77,0,0,1,.13.81,1,1,0,0,1-.26.67c-.27.13-.67.13-.81-.13s0-.54,0-.81A8.05,8.05,0,0,1,102.92,7.53Z"/><path class="cls-9" d="M77.15,45.52c.13-.14.27-.41.4-.54a.42.42,0,0,0,.27.13c.27.27.54.67.8.94s.27.54.14.67a.75.75,0,0,1-.67.41c-.14,0-.27-.27-.41-.54s-.26-.67-.4-1.07Z"/><path class="cls-9" d="M18.49,126.59a4.62,4.62,0,0,1,1.34.94c.27.26-.13.67-.53.53a3.35,3.35,0,0,1-1.21-.53.59.59,0,0,1-.13-.67Z"/><path class="cls-9" d="M45.6,79.07c-.4.14-.8.4-1.2.54-.14,0-.54-.14-.54-.27a1.18,1.18,0,0,1,0-.94c0-.13.4-.27.54-.13.4.13.8.4,1.2.53Z"/><path class="cls-9" d="M73.93,41c.26.41.53.67.67.94a.86.86,0,0,1-.67.94.77.77,0,0,1-.81-.8A11.82,11.82,0,0,0,73.93,41Z"/><path class="cls-9" d="M55.4,77.33c0,.53.14.8,0,1.07s-.13.4-.27.67-.26.4-.4.4a.74.74,0,0,1-.67-.4c-.13-.13,0-.53.14-.67S54.87,77.86,55.4,77.33Z"/><path class="cls-9" d="M17.82,104.71c.27-.27.67-.27.54-.81,0-.13.27-.4.53-.67.14,0,.14.14.27.14,0,.26.14.67.14.94s.27.67-.27.8-1.07.4-1.21-.4Z"/><path class="cls-9" d="M25.87,126.32c-.67.13-1.2.94-2.14.4C24.26,125.24,24.26,125.24,25.87,126.32Z"/><path class="cls-9" d="M79.29,18.94c.14-.13.14-.4.27-.4a3.72,3.72,0,0,1,1.21.27c.14,0,.27.4.27.53a1,1,0,0,1-.27.67c-.13.14-.54,0-.67-.13S79.56,19.21,79.29,18.94Z"/><path class="cls-9" d="M44.53,98.53c.4-.26.67-.53,1.07-.8a.93.93,0,0,1,.54.67.62.62,0,0,1-.67.81,2.75,2.75,0,0,1-.94-.41Z"/><path class="cls-9" d="M29.77,88.33c-.27-.53.13-1.74.53-1.74a1,1,0,0,1,.67.27c.14.13,0,.53-.13.67A6.93,6.93,0,0,1,29.77,88.33Z"/><path class="cls-9" d="M13.79,121.08v-1.34c0-.27.41-.67.41-.54.27,0,.67.27.67.54a4.41,4.41,0,0,1-.4,1.21A1.89,1.89,0,0,0,13.79,121.08Z"/><path class="cls-9" d="M61.71,114c-.13.13-.4.13-.54.27C61,114.1,61,114.1,61,114a3,3,0,0,1-.13-1.07,1.77,1.77,0,0,1,.13-.81c0-.13.54-.13.54,0a1.77,1.77,0,0,1,.13.81A1.5,1.5,0,0,0,61.71,114Z"/><path class="cls-9" d="M65.87,96.25c.54.54.54,1.34,0,1.61-.27.14-.53,0-.8.14v-.94A2.25,2.25,0,0,1,65.87,96.25Z"/><path class="cls-9" d="M53.66,126.05c-.67.27-1.21.54-1.75.81,0,0-.4-.41-.4-.68a.64.64,0,0,1,.67-.67A5,5,0,0,1,53.66,126.05Z"/><path class="cls-9" d="M10.84,109.14c-.54-.14-1.07-.14-1.61-.27-.13,0-.13-.27-.27-.4.4-.54.81-.67,1.34-.27C10.57,108.33,11.38,108.33,10.84,109.14Z"/><path class="cls-9" d="M56.07,129.67c.14-.67.14-1.07.27-1.47.41-.54,1.08-.27,1.48-.27,0,.13.13.13.13.27A12.47,12.47,0,0,1,56.07,129.67Z"/><path class="cls-9" d="M91.91,27.8c-.54.13-.67.94-1.47.8-.41,0-.68-.13-.68-.53s.41-.54.54-.54a6.46,6.46,0,0,1,1.61.27Z"/><path class="cls-9" d="M86.41,2.16c.54-.27,1.07-.67,1.61-.94a1.08,1.08,0,0,1,.27.67,5.45,5.45,0,0,0-.54.41c-.13.13-.27.13-.4.27C87,3.1,86.81,3,86.41,2.16Z"/><path class="cls-9" d="M72.45,36.79c-.13.67-.27,1.08-1.07.67-.14-.13-.41,0-.81,0a3.08,3.08,0,0,1-.4-.94A12.56,12.56,0,0,0,72.45,36.79Z"/><path class="cls-9" d="M40.37,127.26a10.46,10.46,0,0,1-1.61.27c-.13,0-.4-.27-.54-.54s0-.54.14-.54.53-.13.67-.13C39.56,126.45,39.83,126.86,40.37,127.26Z"/><path class="cls-9" d="M84.26,83.1a5.91,5.91,0,0,1-.4-1.07c0-.27.27-.54.4-.81s.54,0,.67.27a.81.81,0,0,1,0,.8C84.8,82.56,84.53,82.7,84.26,83.1Z"/><path class="cls-9" d="M99.29,67.8c-.26.27-.4.67-.67.8s-.53.14-.8.14c0-.27-.14-.67-.14-.81C98,67.53,98.76,67.53,99.29,67.8Z"/><path class="cls-9" d="M36.48,132.22c.27-.26.4-.53.67-.67a.86.86,0,0,1,.8,0c.14,0,.14.54,0,.81A.83.83,0,0,1,36.48,132.22Z"/><path class="cls-9" d="M59.16,114.64c-.13.14-.4.27-.54.14a.81.81,0,0,0-1.07,0c-.13,0-.54-.14-.54-.27a.89.89,0,0,1,0-.81c0-.13.41-.27.54-.13C58.09,114,58.62,114.24,59.16,114.64Z"/><path class="cls-9" d="M35,137.32a4,4,0,0,1-.27-1.34,3.53,3.53,0,0,1,.67-.27.91.91,0,0,1,.54.68C36.08,137.06,35.81,137.32,35,137.32Z"/><path class="cls-9" d="M97,2c-.53.27-.94.4-1.47.67-.14-.27-.27-.4-.41-.67.54-.4,1.61-.14,1.21-1.34h.27A6.69,6.69,0,0,1,97,2Z"/><path class="cls-9" d="M27.62,104.31c.27.26.54.4.67.67a1,1,0,0,1,.27.67c0,.13-.27.4-.27.4-.27,0-.4-.13-.67-.27s-.14-.27-.27-.27C26.68,104.71,26.68,104.71,27.62,104.31Z"/><path class="cls-9" d="M84.13,53c.13,0,.13.14.13.14v.67a7.86,7.86,0,0,1-1.61.67c-.13-.27-.27-.54-.13-.81s.4-.4.53-.26C83.59,53.7,83.86,53.17,84.13,53Z"/><path class="cls-9" d="M99.7,9.54a4.22,4.22,0,0,0,.4-.8c.4.27.94.4,1.21.8s-.27.81-.81.68C100.23,10,100,9.81,99.7,9.54Z"/><path class="cls-9" d="M23.59,117.59c.81,1.08-.4,1.61-.13,2.29h-.14c-.13-.14-.4-.27-.53-.54A15.86,15.86,0,0,1,23.59,117.59Z"/><path class="cls-9" d="M72.58,102.43c.14-.54.14-1.08.41-1.35a2,2,0,0,1,1.2.14C73.93,102.16,73.39,102.29,72.58,102.43Z"/><path class="cls-9" d="M103.45,35.32c.41.13.81.26,1.08-.27,0-.14.54,0,.8-.14V36a1,1,0,0,1-.67-.14c-.27-.27-.4-.4-.8-.13a2.34,2.34,0,0,1-.41-.27Z"/><path class="cls-9" d="M42,134.77c-.27.14-.4.27-.54.27-.4,0-1.2-.8-1.07-1.21,0-.13.54-.53.54-.4C41.18,133.83,41.58,134.24,42,134.77Z"/><path class="cls-9" d="M34.46,101.08c.81-.53,1.48-.67,1.62-.26.13.13-.14.53-.27.67C35.14,102.16,34.87,102,34.46,101.08Z"/><path class="cls-9" d="M75.81,81.62c-.41.27-.81.4-1.21.67.13-.67-.41-1.61.67-1.61C75.94,80.55,75.81,81.22,75.81,81.62Z"/><path class="cls-9" d="M69.9,104.31c.54.4,1.34.4,1.21,1.07,0,.27-.54.54-.81.54C69.63,105.78,70,105.11,69.9,104.31Z"/><path class="cls-9" d="M50,105.38h.68c.4-.13.8.13.67.54s-.54.53-.81.8c-.13,0-.54-.27-.54-.54s0-.53,0-.8Z"/><path class="cls-9" d="M92.18,81.89a13,13,0,0,1-.81-1.07c0-.14.41-.54.68-.41a2,2,0,0,1,.8.68A6.43,6.43,0,0,0,92.18,81.89Z"/><path class="cls-9" d="M106,23.5a3,3,0,0,1,.4.94c0,.54-.4.54-.81.54s-.53-.4-.53-.54a2.38,2.38,0,0,1,.67-.94Z"/><path class="cls-9" d="M71.38,77.6a3.6,3.6,0,0,1-1.35.53c-.4.14-.67-.27-.53-.67s.27-.54.4-.8A9.35,9.35,0,0,0,71.38,77.6Z"/><path class="cls-9" d="M65.2,88.07a3.94,3.94,0,0,1,.94-.81,6,6,0,0,1,.81.94,2.06,2.06,0,0,1-.27.54A14,14,0,0,0,65.2,88.07Z"/><path class="cls-9" d="M90.44,34.91c-.27-.27-.41-.53-.68-.8a3,3,0,0,1-.8-.54,1,1,0,0,1,1.48-.13A1.21,1.21,0,0,1,90.44,34.91Z"/><path class="cls-9" d="M88.15,27.66h0c0-.53,0-1.2.67-1.07.27,0,.54.4.68.67S88.69,27.8,88.15,27.66Z"/><path class="cls-9" d="M14.2,111.15c0,.54.94.94.13,1.48-.13.13-.8,0-.8-.27C13.12,111.69,13.66,111.42,14.2,111.15Z"/><path class="cls-9" d="M53.39,65.65a4.76,4.76,0,0,1,.81.81c.13.13,0,.53-.14.8s-.4.27-.54.13a1.14,1.14,0,0,1-.4-.67A3.24,3.24,0,0,1,53.39,65.65Z"/><path class="cls-9" d="M98,62.7a3.91,3.91,0,0,1,.94-.67c.14,0,.54.26.54.4s-.14.8-.27.8A3.22,3.22,0,0,1,98.09,63C98,62.83,98,62.83,98,62.7Z"/><path class="cls-9" d="M13,115.58c-.67,0-1.34.54-1.75-.27-.13-.13.14-.67.27-.8C12.45,114.24,12.59,115,13,115.58Z"/><path class="cls-9" d="M90.7,49.81c-.26-.67.14-1.07.54-1.47a.4.4,0,0,1,.54,0,.81.81,0,0,1,.13.53C91.64,49.27,91.51,50,90.7,49.81Z"/><path class="cls-9" d="M89.76,53.7c.27-.13.54-.53.81-.53a3.2,3.2,0,0,1,.8.67c-.26.13-.4.54-.67.54s-.53-.27-.8-.41A.4.4,0,0,1,89.76,53.7Z"/><path class="cls-9" d="M54.06,71.42a1,1,0,0,0-.54.14,1.66,1.66,0,0,1,.14-.81h.4c.27.13.67.27.81.54s.13.53.13.8-.4.27-.4.27-.27-.4-.4-.54S54.06,71.56,54.06,71.42Z"/><path class="cls-9" d="M63.32,89.27h.54a.91.91,0,0,1,.54.67c0,.14-.41.41-.67.54s-.41,0-.81,0a3.06,3.06,0,0,0,.4-1.21Z"/><path class="cls-9" d="M63.86,88.2a.85.85,0,0,1-.4,1.07h0c-.41,0-.81-.13-1.08-.13-.13-.67.27-1.07,1.08-.94,0-.13.27,0,.4,0Z"/><path class="cls-9" d="M98.49,42A7,7,0,0,0,99.43,41c.13.14.54.54.4.54a3.24,3.24,0,0,1-.94.94Z"/><path class="cls-9" d="M98.62,13.17c-.13-.4-.4-.67-.4-1.07a1,1,0,0,1,.27-.68.42.42,0,0,1,.54,0,1.08,1.08,0,0,1,.26.68A4,4,0,0,1,99,13.3C98.76,13.3,98.76,13.3,98.62,13.17Z"/><path class="cls-9" d="M98.89,73c.27.4.67.67.67.81s-.4.4-.67.67c-.27-.27-.54-.54-.54-.81C98.22,73.7,98.49,73.43,98.89,73Z"/><path class="cls-9" d="M59.7,94.24c.4-.27.8-.67.94-.54a2,2,0,0,1,.67.81c-.27.13-.4.53-.67.4S60.1,94.51,59.7,94.24Z"/><path class="cls-9" d="M96.21,39.48c-.27-.41-.67-.67-.94-1.08.4-.27.94-.67,1.34-.27S96.74,39.07,96.21,39.48Z"/><path class="cls-9" d="M94.19,68.33c.27-.67.41-1.34,1.08-1.07.13,0,.4.4.4.54C95.54,68.74,94.86,68.07,94.19,68.33Z"/><path class="cls-9" d="M17.82,119.88c.27.4.54.67.54.94s-.27.53-.4.8c-.27-.13-.68-.4-.68-.67S17.42,120.41,17.82,119.88Z"/><path class="cls-9" d="M84.93,18.81c-.27.13-.53.4-.67.4s-.54-.14-.94-.14v-.53a1.85,1.85,0,0,1,.81-.27c.27,0,.4.13.67.27S84.93,18.67,84.93,18.81Z"/><path class="cls-9" d="M9.5,134.77c-.67,0-1.07-.4-.94-.94s.54-.8.94-.53C10.3,133.83,9.5,134.24,9.5,134.77Z"/><path class="cls-9" d="M77,97.33c.41.4.81.67.67.94s-.4.53-.67.8c-.27-.27-.53-.54-.53-.8S76.74,97.73,77,97.33Z"/><path class="cls-9" d="M92.45,67.26c0-.4.13-.54.13-.8s.14-.68.41-.68.53.41.8.54a2.58,2.58,0,0,1-.54.67A1.77,1.77,0,0,1,92.45,67.26Z"/><path class="cls-9" d="M104.13,65.92a11.36,11.36,0,0,1,.94-.67c.13,0,.4.27.67.4-.27.27-.41.67-.67.81S104.53,66.19,104.13,65.92Z"/><path class="cls-9" d="M31.11,91.15c-.67.14-1.21.27-1.48-.4-.13-.13.14-.67.27-.81C30.57,89.94,30.71,90.62,31.11,91.15Z"/><path class="cls-9" d="M27.89,89.94c.4.14.8.27.8.41,0,.4-.13.94-.13,1.34a1.4,1.4,0,0,1-.4.13c-.14,0-.27-.27-.27-.4Z"/><path class="cls-9" d="M65.2,103.1c.27.53.54.8.67,1.07a1,1,0,0,1-.53.54,1.69,1.69,0,0,1-.68-.67C64.66,103.77,64.93,103.5,65.2,103.1Z"/><path class="cls-9" d="M57.42,107.53c.27.4.67.8.67,1.07s-.4.4-.67.67c-.14-.27-.54-.53-.54-.8S57.15,108.06,57.42,107.53Z"/><path class="cls-9" d="M15.27,131.28c.13-.26.27-.67.4-.93v-.94c.94.26.41.53.41.8s.4.67.26.81a2.69,2.69,0,0,1-1.07.53Z"/><path class="cls-9" d="M81.58,22.83c.13.54.27.81.27.94s-.27.67-.54.81-.4-.14-.67-.27a2.8,2.8,0,0,1,.4-.67C81.17,23.37,81.44,23.24,81.58,22.83Z"/><path class="cls-9" d="M74.46,103.23c.27.54.54.81.54,1.21,0,.13-.4.4-.54.54-.27-.27-.53-.54-.53-.81S74.06,103.77,74.46,103.23Z"/><path class="cls-9" d="M85.74,77.46c-.14-.54-1.08-.94-.27-1.47s1.07,0,.94.8C86.41,77.06,86,77.19,85.74,77.46Z"/><path class="cls-9" d="M96.48,23.24c.13,0,.53,0,.53.13.14.4.27.67.4,1.07,0,0-.26.27-.4.27-.4-.13-.8-.27-.8-.94.13-.13.13-.27.27-.53Z"/><path class="cls-9" d="M84.66,28.6h0a.48.48,0,0,0-.4.14.71.71,0,0,1-.8-.81c0-.13.53-.4.67-.4.4.13.8.4.53.94Z"/><path class="cls-9" d="M69.36,27.93c-.13.27-.27.67-.53.81s-.54-.14-.81-.27-.13-.67,0-.67a3.58,3.58,0,0,1,1.21-.14A.5.5,0,0,1,69.36,27.93Z"/><path class="cls-9" d="M47.08,122.16a2.22,2.22,0,0,0,.67.53c-.4.41-.67.81-1.07,1.21l-.54-.53C46.41,123,46.68,122.69,47.08,122.16Z"/><path class="cls-9" d="M14.06,123c-.53.27-.8.54-.94.54s-.53-.4-.67-.67.4-.67.54-.54S13.53,122.69,14.06,123Z"/><path class="cls-9" d="M62.25,25.11c.27.41.54.68.4.81s-.4.54-.54.54a.91.91,0,0,1-.67-.54C61.71,25.79,61.85,25.52,62.25,25.11Z"/><path class="cls-9" d="M91.91,27.8c.4-.14.81-.27,1.08.27a.87.87,0,0,1,0,.8c0,.14-.41.14-.54.14s-.4-.27-.4-.54c-.27-.13-.14-.4-.14-.67Z"/><path class="cls-9" d="M76.74,88.33c.27.41.54.67.54.94,0,.54-.27.67-.67.67a.51.51,0,0,1-.4-.67C76.21,89,76.48,88.74,76.74,88.33Z"/><path class="cls-9" d="M64,64.84c-.26.41-.4.54-.4.68a18.13,18.13,0,0,0-1.74-1.08C62.79,63.77,63.19,64.84,64,64.84Z"/><path class="cls-9" d="M102.65,2c.27.13.67.27.94.4a1.5,1.5,0,0,1,.27.81c0,.13-.27.4-.41.26a2.88,2.88,0,0,1-.67-.4C102.65,2.83,102.78,2.43,102.65,2Z"/><path class="cls-9" d="M107.21,42.56c-.53.27-.67.54-.94.67s-.67,0-.67-.4.27-.67.54-.67S106.81,42.3,107.21,42.56Z"/><path class="cls-9" d="M60,97.46c.27-.13.53-.4.67-.4s.53.27.8.53c-.27.27-.4.54-.67.68s-.53-.27-.8-.41Z"/><path class="cls-9" d="M67.75,70.21c.27.41.54.67.54.94s-.4.41-.54.67c-.27-.26-.54-.4-.67-.8C67.08,70.88,67.48,70.62,67.75,70.21Z"/><path class="cls-9" d="M69.09,53.3a1.88,1.88,0,0,1-.94.4c-.13,0-.4-.26-.53-.53a3.39,3.39,0,0,1,.8-.67c.14,0,.41.26.67.4Z"/><path class="cls-9" d="M16.61,114.64c.27.4.54.67.54.94s-.4.54-.54.67c-.27-.27-.53-.54-.53-.67S16.34,115.18,16.61,114.64Z"/><path class="cls-9" d="M60.91,107c.13-.54.13-1.07.8-1.07.14,0,.54.53.54.8C62.11,107.53,61.44,107,60.91,107Z"/><path class="cls-9" d="M34.6,122.43c.27.4.54.53.54.8s-.27.54-.54.81c-.27-.14-.67-.41-.67-.54C33.93,123.1,34.33,122.83,34.6,122.43Z"/><path class="cls-9" d="M53,72.5c.27.4.53.67.53.8s-.4.54-.53.81c-.27-.27-.54-.41-.54-.68S52.72,72.9,53,72.5Z"/><path class="cls-9" d="M25.34,95.72c-.41.26-.54.53-.81.67a2.68,2.68,0,0,1-.53-.81c0-.13.4-.54.53-.4S24.93,95.45,25.34,95.72Z"/><path class="cls-9" d="M65.47,28.34a3,3,0,0,1,0-1.08c0-.13.13-.53.27-.53a1,1,0,0,1,.67.26.62.62,0,0,1,0,.67,3.42,3.42,0,0,1-.67.81C65.6,28.34,65.6,28.34,65.47,28.34Z"/><path class="cls-9" d="M101.71,58.8c.27.41.54.68.54.81s-.27.54-.54.81c-.27-.14-.67-.41-.67-.54A4.75,4.75,0,0,1,101.71,58.8Z"/><path class="cls-9" d="M68.29,66.19c-.54-.27-.94-.54-.67-1.08.13-.27.67-.53.67-.4C69,65.11,68.56,65.65,68.29,66.19Z"/><path class="cls-9" d="M83.19,63.23c-.27.14-.67.41-.94.54s-.54-.27-.54-.4c0-.54.4-.67.94-.67a.69.69,0,0,1,.54.27Z"/><path class="cls-9" d="M83.05,34c-.4-.27-.67-.53-.67-.67a3.65,3.65,0,0,1,.67-.8c.27.27.54.4.54.67S83.32,33.7,83.05,34Z"/><path class="cls-9" d="M91.78,43.77c.4-.27.67-.54.94-.54s.4.41.67.54a3.42,3.42,0,0,1-.81.67C92.31,44.44,92.05,44,91.78,43.77Z"/><path class="cls-9" d="M82.78,55.85c.41-.54.68-1.07,1.21-.54a1.1,1.1,0,0,1,0,.94C83.46,56.79,83.19,56.12,82.78,55.85Z"/><path class="cls-9" d="M72.72,23c.27.4.53.67.67.94s-.4.4-.54.67a3.68,3.68,0,0,1-.67-.81C72.05,23.64,72.32,23.37,72.72,23Z"/><path class="cls-9" d="M79,57.06c.4-.27.53-.54.8-.67a3.6,3.6,0,0,1,.67.8,1,1,0,0,1-.53.54A11.36,11.36,0,0,1,79,57.06Z"/><path class="cls-9" d="M80.91,50.75c.4.4.53.67.8.94-.27.13-.54.54-.8.54s-.54-.27-.54-.41S80.64,51.29,80.91,50.75Z"/><path class="cls-9" d="M81,74.91c.27.4.67.67.67.94s-.4.4-.54.67a2.6,2.6,0,0,1-.67-.94C80.5,75.45,80.77,75.31,81,74.91Z"/><path class="cls-9" d="M76.21,83.64a4.67,4.67,0,0,0,.8-.81c.14.27.54.54.54.81a1,1,0,0,1-.54.53C76.88,84.31,76.61,83.9,76.21,83.64Z"/><path class="cls-9" d="M102.78,53.57c.41-.27.54-.67.81-.67a.93.93,0,0,1,.67.54c0,.26-.27.53-.54.8A5.87,5.87,0,0,1,102.78,53.57Z"/><path class="cls-9" d="M88,83.5c0,.54.8,1.08,0,1.48-.13.13-.67-.14-.67-.4C87.08,84,87.21,83.64,88,83.5Z"/><path class="cls-9" d="M84.4,65.52c.4-.27.67-.68.93-.68s.41.41.68.54c-.27.27-.41.54-.68.67S84.8,65.78,84.4,65.52Z"/><path class="cls-9" d="M106.54,9.41c.27.4.54.67.54.81s-.4.53-.54.8c-.27-.13-.67-.4-.67-.54A4.83,4.83,0,0,1,106.54,9.41Z"/><path class="cls-9" d="M40.77,83.23a6.52,6.52,0,0,1,1.35-.67l.26.27c-.13.27-.13.67-.26.81-.41.13-.81.13-1.21.26A2.72,2.72,0,0,0,40.77,83.23Z"/><path class="cls-9" d="M52.85,120.68c.14.14.27.27.27.4a1.77,1.77,0,0,1-.13.81c-.27,0-.81-.14-.81-.27a1.18,1.18,0,0,1,.14-.94Z"/><path class="cls-9" d="M95.13,7.53c-.53.14-1.07.14-1.2-.54a1,1,0,0,1,.53-.67C95.27,6.46,95.13,7,95.13,7.53Z"/><path class="cls-9" d="M95.4,8.61c-.27.26-.54.53-.67.67a1.83,1.83,0,0,0-.54-.54,4,4,0,0,1,.67-.81C94.86,8.2,95.13,8.34,95.4,8.61Z"/><path class="cls-9" d="M54.87,107.26c.4-.27.67-.67.8-.54a1.6,1.6,0,0,1,.67.67s-.4.54-.53.54A3.71,3.71,0,0,0,54.87,107.26Z"/><path class="cls-9" d="M59-.52c.27.4.53.54.67.8a2.14,2.14,0,0,1-.94.54c-.14,0-.54-.4-.4-.54A3.6,3.6,0,0,1,59-.52Z"/><path class="cls-9" d="M59.7,84c.13.27.4.54.4.8s-.4.41-.67.54c-.13-.27-.4-.4-.4-.67a1.14,1.14,0,0,1,.4-.67Z"/><path class="cls-9" d="M73.93,24.44c.13.27.26.41.4.67.13.41,0,.81-.54.68-.27,0-.54-.41-.54-.54s.27-.54.41-.81Z"/><path class="cls-9" d="M102.38,34.24c.27.4.54.67.54.94s-.4.54-.67.54-.41-.27-.67-.54A4.09,4.09,0,0,1,102.38,34.24Z"/><path class="cls-9" d="M102.78,16.52c-.67-.13-1.2-.26-1.07-1.07,0-.13.4-.4.4-.4C102.92,15.32,102.92,15.85,102.78,16.52Z"/><path class="cls-9" d="M90.3,1.09c.27.4.54.67.54.94s-.4.4-.54.67c-.27-.27-.54-.54-.54-.81S90,1.36,90.3,1.09Z"/><path class="cls-9" d="M106.14,62a6.09,6.09,0,0,1-1.21.67c-.13-.27-.4-.54-.67-1.08h1.61A1.25,1.25,0,0,0,106.14,62Z"/><path class="cls-9" d="M81.58,20.28c.27.41.53.67.53.81s-.4.53-.53.53a.57.57,0,0,1-.54-.53C80.91,20.82,81.31,20.55,81.58,20.28Z"/><path class="cls-9" d="M29.5,100.82c.13.26.4.53.27.67s-.41.4-.54.67c-.13-.27-.54-.4-.54-.67s.27-.41.41-.67S29.36,100.82,29.5,100.82Z"/><path class="cls-9" d="M33.39,102.7c-.4.26-.67.53-.8.53s-.41-.53-.54-.8.4-.41.54-.41A4,4,0,0,1,33.39,102.7Z"/><path class="cls-9" d="M77.15,42.56c.4-.26.67-.53.94-.53s.4.27.53.4c-.26.27-.4.54-.8.67C78,43.23,77.55,43,77.15,42.56Z"/><path class="cls-9" d="M56.61,63.5a4.49,4.49,0,0,1-1.07.67c-.14-.27-.41-.53-.41-.67a1.69,1.69,0,0,1,.68-.67C55.94,62.83,56.21,63.23,56.61,63.5Z"/><path class="cls-9" d="M53.52,75.85l.68.67c-.27.27-.41.54-.68.54a1,1,0,0,1-.53-.54C52.85,76.52,53.26,76.25,53.52,75.85Z"/><path class="cls-9" d="M83.19,9.28c.27.4.53.67.4.8a2.58,2.58,0,0,1-.54.67c-.13-.27-.53-.53-.53-.67A3.2,3.2,0,0,1,83.19,9.28Z"/><path class="cls-9" d="M102.25,62.29c-.41.27-.54.68-.81.68s-.4-.27-.67-.54a3.42,3.42,0,0,1,.81-.67A4,4,0,0,0,102.25,62.29Z"/><path class="cls-9" d="M71.51,108.47c.13-.54.27-.94.4-1.35.27.14.67.27.67.41s0,.67-.26.8C72.32,108.6,71.91,108.47,71.51,108.47Z"/><path class="cls-9" d="M97.55,59.88c.13.27.54.54.4.67s-.4.4-.54.67c-.13-.13-.53-.4-.4-.54s.27-.53.4-.8Z"/><path class="cls-9" d="M84.4,24.58c.53.27.93.67.67,1.21a1.26,1.26,0,0,1-.67.13C83.86,25.52,84,25,84.4,24.58Z"/><path class="cls-9" d="M90.3,5.52c-.4.27-.67.67-.8.54a1.71,1.71,0,0,1-.68-.68s.27-.53.41-.4S89.76,5.25,90.3,5.52Z"/><path class="cls-9" d="M62.79,3.64c.26.4.67.67.67.8s-.27.41-.54.68a3.42,3.42,0,0,1-.67-.81C62.25,4.18,62.52,3.91,62.79,3.64Z"/><path class="cls-9" d="M89.09,59.21l.54.53-.81.81C88.15,60.15,88.15,60.15,89.09,59.21Z"/><path class="cls-9" d="M32.32,92.09c.27.4.53.67.4.81a.89.89,0,0,1-.81.53c-.13,0-.53-.4-.4-.53A2.29,2.29,0,0,1,32.32,92.09Z"/><path class="cls-9" d="M35.81,118.27c.4-.27.67-.68.8-.54s.4.4.54.67-.27.54-.4.54C36.34,118.8,36.21,118.53,35.81,118.27Z"/><path class="cls-9" d="M69.5,38.81c.13-.41.27-.81.4-1.21.13,0,.13-.14.27-.14.13.27.53.54.53.81C70.44,38.81,70.17,39.21,69.5,38.81Z"/><path class="cls-9" d="M56.48,103.77c.4-.27.53-.54.67-.4a1.55,1.55,0,0,1,.67.67l-.67.67C57.15,104.31,56.88,104.17,56.48,103.77Z"/><path class="cls-9" d="M68,33.17c.27-.14.54-.54.81-.54s.4.4.67.54c-.14.13-.41.53-.54.53a2,2,0,0,1-.81-.26A.44.44,0,0,1,68,33.17Z"/><path class="cls-9" d="M52.05,91.69c-.41.27-.67.54-.94.67-.14-.27-.4-.4-.4-.67a.87.87,0,0,1,.53-.67A3.42,3.42,0,0,1,52.05,91.69Z"/><path class="cls-9" d="M72.32,73.84c.4-.27.53-.54.8-.67a1.07,1.07,0,0,1,.54.53,1.66,1.66,0,0,1-.67.67A5.5,5.5,0,0,0,72.32,73.84Z"/><path class="cls-9" d="M27.08,117.19c-.13-.54-.13-1.07.54-1.07a.94.94,0,0,1,.67.53C28.16,117.33,27.48,117.19,27.08,117.19Z"/><path class="cls-9" d="M67.48,36.79c-.4.27-.53.54-.8.67s-.67-.4-.54-.4c.14-.27.27-.67.54-.8S67.08,36.52,67.48,36.79Z"/><path class="cls-9" d="M63.86,34.64a3.71,3.71,0,0,1,.94-.53c.27.13.4.53.67.67-.27.13-.4.4-.67.4S64.26,34.91,63.86,34.64Z"/><path class="cls-9" d="M94.06,17.33c1.07-.54.94.67,1.48,1.07a1.66,1.66,0,0,1-.81.14C94.46,18.14,94.33,17.73,94.06,17.33Z"/><path class="cls-9" d="M86.54,94c.41-.27.67-.54.81-.4a2.58,2.58,0,0,1,.67.54c-.27.13-.4.53-.67.53S87,94.24,86.54,94Z"/><path class="cls-9" d="M59.7,2c-.14-.54-.14-.94.4-1.08.27,0,.67.27.67.54C60.77,2,60.37,2.16,59.7,2Z"/><path class="cls-9" d="M88.29,82.83c.27-.27.53-.4.67-.67.27.27.4.54.67.8-.27.14-.4.41-.54.41S88.69,83.1,88.29,82.83Z"/><path class="cls-9" d="M65.47,63.5c-.4.27-.67.67-.94.67s-.4-.27-.67-.53c.27-.14.4-.41.67-.54A3.48,3.48,0,0,1,65.47,63.5Z"/><path class="cls-9" d="M60.24,127.12c-.41-.4-.81-.8-.27-1.07s.94-.13,1.07.54C60.77,126.72,60.5,127,60.24,127.12Z"/><path class="cls-9" d="M23.73,101c.27.4.53.67.53.94a1.09,1.09,0,0,1-.4.67c-.27-.27-.54-.54-.54-.8S23.59,101.35,23.73,101Z"/><path class="cls-9" d="M63.86,88.2c0-.81.54-.54,1.21-.54a11.69,11.69,0,0,1-.54,1.61c-.27-.53-.54-.8-.67-1.07Z"/><path class="cls-9" d="M106,68.2c-.54-1.61-.41-1.88.53-2C106.41,66.86,106.14,67.53,106,68.2Z"/><path class="cls-9" d="M101,29.68a2.8,2.8,0,0,1,.67.4,1.51,1.51,0,0,1,.27.67c0,.14-.27.27-.4.27s-.54-.27-.54-.54C100.77,30.22,100.9,30,101,29.68Z"/><path class="cls-9" d="M29.23,99.61c-.27.54-.54.8-1.07.4-.14-.13-.27-.67-.14-.67C28.42,98.94,28.83,99.07,29.23,99.61Z"/><path class="cls-9" d="M90.44,7.8c.26.4.53.67.53.81s-.4.53-.53.8c-.14-.27-.54-.4-.54-.67S90.17,8.2,90.44,7.8Z"/><path class="cls-9" d="M87.62,9.68c-.27-.14-.67-.14-.81-.4s0-.54.14-.81.4-.13.53-.13c.14.27.27.67.41.94S87.75,9.54,87.62,9.68Z"/><path class="cls-9" d="M84.4,60.68c.26.41.53.67.53.81a2.79,2.79,0,0,1-.53.67s-.54-.27-.54-.4S84.13,61.22,84.4,60.68Z"/><path class="cls-9" d="M83.32,43.91c-.27.26-.54.53-.67.53a.88.88,0,0,1-.54-.67,1.09,1.09,0,0,1,.54-.54C82.78,43.23,82.92,43.5,83.32,43.91Z"/><path class="cls-9" d="M82.65,69.14c.13.27.4.4.4.67a1.07,1.07,0,0,1-.53.54,1.66,1.66,0,0,1-.67-.67c-.14-.27.13-.54.26-.81C82.38,69,82.52,69.14,82.65,69.14Z"/><path class="cls-9" d="M44.67,117.73c-.41.27-.68.54-.94.54s-.54-.41-.41-.54a1.66,1.66,0,0,1,.67-.67C44.13,117.06,44.4,117.46,44.67,117.73Z"/><path class="cls-9" d="M78.89,59.61a4.42,4.42,0,0,0,.81.81,13.08,13.08,0,0,0-1.34.4c-.14,0-.41,0-.41-.14a.48.48,0,0,1,.14-.4C78.22,60,78.49,59.88,78.89,59.61Z"/><path class="cls-9" d="M92.18,50.75c.27.27.54.54.54.67s-.41.54-.54.54-.4-.4-.67-.54A1.57,1.57,0,0,1,92.18,50.75Z"/><path class="cls-9" d="M95.8,5.25c.27-.13.54-.4.68-.4s.4.27.67.4a3.07,3.07,0,0,1-.54.67,1.14,1.14,0,0,1-.67-.4A.42.42,0,0,1,95.8,5.25Z"/><path class="cls-9" d="M66,32.9c.4-.27.67-.54,1.07-.54.13,0,.27.27.4.41a2.84,2.84,0,0,1-.8.53C66.54,33.44,66.41,33.17,66,32.9Z"/><path class="cls-9" d="M24.93,91c-.53.13-1.07.13-1.07-.54,0-.13.4-.54.54-.54C24.93,89.94,24.93,90.48,24.93,91Z"/><path class="cls-9" d="M72.18,33.3c.27.27.54.54.54.67a1.6,1.6,0,0,1-.67.67c-.14,0-.41-.26-.54-.4A2.38,2.38,0,0,1,72.18,33.3Z"/><path class="cls-9" d="M89.63,36.26c.4-.27.67-.54.94-.54s.4.27.67.4c-.27.27-.4.54-.8.67S89.9,36.52,89.63,36.26Z"/><path class="cls-9" d="M46,106.05c0,.27-.14.54-.14.94a1,1,0,0,1-.27.54.76.76,0,0,1-.53-.14.58.58,0,0,1,0-.67,2,2,0,0,1,.8-.67C45.87,105.92,45.87,105.92,46,106.05Z"/><path class="cls-9" d="M79.16,40.15c.54,1.34.54,1.34-.4,1.47C78.76,41.22,78,40.55,79.16,40.15Z"/><path class="cls-9" d="M78.76,93.3c.27.4.53.67.53.94s-.26.4-.53.54c-.14-.27-.54-.54-.54-.81S78.49,93.57,78.76,93.3Z"/><path class="cls-9" d="M65.47,89.68a1.75,1.75,0,0,1,.4.94c0,.13-.4.4-.67.4s-.4-.4-.67-.54A5.14,5.14,0,0,0,65.47,89.68Z"/><path class="cls-9" d="M61.31,17.2a1.75,1.75,0,0,1,.4.94c0,.26-.27.4-.4.67-.14-.27-.54-.41-.54-.67S61,17.6,61.31,17.2Z"/><path class="cls-9" d="M15.81,136.52c.13-.54.13-1.07.27-1.61.13,0,.13,0,.26-.14.14.27.41.54.41.68C16.75,136,16.75,136.52,15.81,136.52Z"/><path class="cls-9" d="M88.42,18.67c-.4,0-.8-.13-1.21-.13,0-.81.68-.94,1.08-.94C89,17.73,88.29,18.27,88.42,18.67Z"/><path class="cls-9" d="M38.22,82.83c.27.4.54.67.54.94s-.27.4-.4.54c-.27-.27-.54-.41-.54-.67C37.55,83.37,38,83.1,38.22,82.83Z"/><path class="cls-9" d="M29.23,120.82c.94-.14.94-.14.67,1.2C29.5,122.16,29.5,122.16,29.23,120.82Z"/><path class="cls-9" d="M22.79,138.53a2.28,2.28,0,0,0,.8.81c-.13.13-.4.4-.53.4a1.35,1.35,0,0,1-.68-.54A1.84,1.84,0,0,0,22.79,138.53Z"/><path class="cls-9" d="M21.85,95.18c.4.27.67.4,1.21.8a2.09,2.09,0,0,1-.81.54C21.85,96.25,21.44,95.85,21.85,95.18Z"/><path class="cls-9" d="M83.72,101.08c.41-.26.68-.53.94-.53s.41.27.67.4c-.26.13-.4.54-.67.54A1.85,1.85,0,0,1,83.72,101.08Z"/><path class="cls-9" d="M42,136.65c0-1.2.4-1.34,1.75-.8C43.05,136.12,42.52,136.39,42,136.65Z"/><path class="cls-9" d="M69.63,39.48c-.4.26-.67.53-.94.67s-.4-.41-.54-.54c.27-.13.41-.4.68-.54S69.23,39.21,69.63,39.48Z"/><path class="cls-9" d="M52.45,114.37c-.27.41.13,1.21-.67,1.21a.59.59,0,0,1-.4-.54C51.38,114.64,51.78,114.24,52.45,114.37Z"/><path class="cls-9" d="M102.92,44.31c-.14-.27-.4-.81-.27-.81a4.42,4.42,0,0,1,1.21-.53c0,.13.13.13.13.26-.27.41-.54.68-.8,1.08Z"/><path class="cls-9" d="M11.51,101.76c.41-.27.67-.54.94-.68s.54.41.4.54a.88.88,0,0,1-.67.54C12.18,102.29,11.92,102,11.51,101.76Z"/><path class="cls-9" d="M72.05,89.54c-.41.27-.67.54-.81.54a1.14,1.14,0,0,1-.67-.4c.13-.14.4-.54.54-.54A3.48,3.48,0,0,1,72.05,89.54Z"/><path class="cls-9" d="M110.57,23.77c0,.27.27.54.13.81s-.4.13-.67.13h-.94v-.27C109.63,24.18,110,24,110.57,23.77Z"/><path class="cls-9" d="M23.32,137.19c-.13,0-.13.13-.26.13h-.94a4,4,0,0,1,.4-.8c.4-.27.67.13.67.54a.13.13,0,0,1,.13.13Z"/><path class="cls-9" d="M48.69,122c.14.41.4.67.4.81a1.34,1.34,0,0,1-.67.54c-.13-.27-.53-.41-.4-.68S48.29,122.29,48.69,122Z"/><path class="cls-9" d="M50,131.55l.41-1.61c.67.14.4.67.53,1.08,0,.13-.4.4-.67.67A.42.42,0,0,1,50,131.55Z"/><path class="cls-9" d="M64.66,61.35a4,4,0,0,1,.81-.67,1.09,1.09,0,0,1,.54.54.88.88,0,0,1-.54.67C65.34,61.89,65.07,61.49,64.66,61.35Z"/><path class="cls-9" d="M11.78,109a6.58,6.58,0,0,1,.94.67v.27l-1.21.41-.13-.14C11.51,109.81,11.65,109.41,11.78,109Z"/><path class="cls-9" d="M77.15,59.34c.13.27.27.4.27.67s-.27.41-.41.67c-.27-.13-.53-.4-.53-.53a1.09,1.09,0,0,1,.4-.67C76.88,59.34,77,59.34,77.15,59.34Z"/><path class="cls-9" d="M109.9,42.43c.27-.27.53-.54.67-.54.27.27.4.54.67.67-.13.14-.4.41-.54.41S110.3,42.7,109.9,42.43Z"/><path class="cls-9" d="M79.83,36.39a7.26,7.26,0,0,1,1.48-.81c.13.27.13.54.27.81a5.69,5.69,0,0,0-.67.13c-.27,0-.54.14-.94.14A.42.42,0,0,1,79.83,36.39Z"/><path class="cls-9" d="M98,8.47c-.54-.27-.8-.54-.54-1.07a.6.6,0,0,1,.68,0C98.62,7.67,98.35,8.07,98,8.47Z"/><path class="cls-9" d="M91.37,45.65c-.26-.13-.53-.13-.8-.27s-.4-.13-.54-.27a.76.76,0,0,1,.14-.53c.13-.14.4,0,.53,0,.14.4,1.21.27.67,1.07Z"/><path class="cls-9" d="M14.87,140.81c.27.41.67.68.53.81a1.55,1.55,0,0,1-.67.67c-.13-.13-.4-.4-.4-.54A10.13,10.13,0,0,1,14.87,140.81Z"/><path class="cls-9" d="M49.23,94.11c0-.41-.14-.68-.14-1.08,0-.13.27-.4.27-.4A2.8,2.8,0,0,1,50,93,3.21,3.21,0,0,1,49.23,94.11Z"/><path class="cls-9" d="M58,98.53a4.45,4.45,0,0,0,.81-.67c.13.27.4.41.4.67s-.27.54-.4.41C58.49,99.07,58.36,98.8,58,98.53Z"/><path class="cls-9" d="M88.56,72a10.4,10.4,0,0,0,.94-1.08c.13.41.4.81.26.94s-.67.27-.94.41A.29.29,0,0,1,88.56,72Z"/><path class="cls-9" d="M11.78,125c-.13-.27-.4-.67-.27-.94s.41-.27.67-.41.14.14.27.14c0,.4-.13.8-.13,1.21Z"/><path class="cls-9" d="M24.53,98.8c-.13.54-.27.94-.4,1.48H24c-.14-.54-.14-1.07-.27-1.75A2,2,0,0,1,24.53,98.8Z"/><path class="cls-9" d="M106.81,22.3c.13.4.13.67.27,1.07a1.77,1.77,0,0,0-.81.13V22.43A1.06,1.06,0,0,1,106.81,22.3Z"/><path class="cls-9" d="M93,84.44c-.27-.4-.54-.67-.54-.8s.27-.41.4-.68c.14.14.54.27.54.54S93.12,84,93,84.44Z"/><path class="cls-9" d="M37.82,89.41c.13,1.34.13,1.34-.67,1.21C37,89.94,37,89.94,37.82,89.41Z"/><path class="cls-9" d="M91.91,70.21c.4.14.94-.13.94.67,0,.14-.27.27-.4.41-.27-.27-.54-.67-.81-.94C91.78,70.35,91.78,70.35,91.91,70.21Z"/><path class="cls-9" d="M45.2,120a8.24,8.24,0,0,1,.54-1.07,1.27,1.27,0,0,1,.67.53c-.4.27-.67.54-1.07.81C45.34,120.14,45.2,120.14,45.2,120Z"/><path class="cls-9" d="M41.18,94.64A4,4,0,0,1,42.52,94c.13.81-.27,1.07-1.21.94C41.31,94.78,41.31,94.78,41.18,94.64Z"/><path class="cls-9" d="M87.89,87.13c.26.26.53.53.53.67s-.4.53-.53.8c-.14-.13-.41-.4-.41-.54S87.75,87.53,87.89,87.13Z"/><path class="cls-9" d="M10,142.29c-.27.14-.54.4-.81.54a1.9,1.9,0,0,1-.8-.27c.4-1.21,1.07-.13,1.47-.54A.42.42,0,0,1,10,142.29Z"/><path class="cls-9" d="M74.87,56.25H73.79c-.13,0-.27-.26-.4-.53a1,1,0,0,1,.54-.27c.4.13.67.27,1.07.4A.51.51,0,0,0,74.87,56.25Z"/><path class="cls-9" d="M50.44,84a11.36,11.36,0,0,1,.94-.67c.13.27.4.53.27.67C51.51,84.44,51.11,84.44,50.44,84Z"/><path class="cls-9" d="M42.79,96.39c.13.67-.14.94-.67.94-.14,0-.54-.54-.41-.67C41.85,96,42.38,96.39,42.79,96.39Z"/><path class="cls-9" d="M42.25,128.87a13.79,13.79,0,0,0,1.48-1.34C43.32,129.27,43.32,129.27,42.25,128.87Z"/><path class="cls-9" d="M82.25,37.6c-.54.53-.54.53-1.21.13C81.44,36.66,81.58,36.66,82.25,37.6Z"/><path class="cls-9" d="M61.58,68.47c.94-.54.94-.54,1.34.8A10.09,10.09,0,0,1,61.58,68.47Z"/><path class="cls-9" d="M22.92,117.59c-.4-.13-.67-.13-1.07-.26,0-.14-.14-.14-.14-.27.27-.14.67-.41.94-.54a6.7,6.7,0,0,1,.41.94Z"/><path class="cls-9" d="M24.13,110.21c.4,0,.67-.13,1.07-.13l.14.13c-.14.27-.27.67-.41.67a2.35,2.35,0,0,1-.93-.27A.49.49,0,0,0,24.13,110.21Z"/><path class="cls-9" d="M76.34,23l-1.61-.41a.47.47,0,0,0,.14-.4C75.4,22.56,76.21,21.49,76.34,23Z"/><path class="cls-9" d="M102.25,18.4c.27-.13.67-.13.94-.26v.8c-.27,0-.67-.13-.94-.13Z"/><path class="cls-9" d="M105.33,14a5.32,5.32,0,0,1,.54.94c-.4.54-.8.41-1.07,0-.14-.13.13-.67.27-.94Z"/><path class="cls-9" d="M11.65,144.17c-.41-.13-1.21.54-1.48-.4C10.84,143.5,10.84,143.5,11.65,144.17Z"/><path class="cls-9" d="M59.7,4.18c-.14.53.67,1.34-.81,1.47.14-.53.27-1.07.41-1.47C59.56,4,59.56,4,59.7,4.18Z"/><path class="cls-9" d="M66.14,55.72a8.45,8.45,0,0,1,.94-1.08c.13,0,.13,0,.27.14-.14.4-.14.8-.27,1.21C67,56,66.68,55.85,66.14,55.72Z"/><path class="cls-9" d="M69.09,102c-.26.41-.53.68-.67.94-.13-.13-.4-.26-.4-.53C68,101.89,68.42,102,69.09,102Z"/><path class="cls-9" d="M75.94,107.93v-1.61C76.74,107.66,76.74,107.66,75.94,107.93Z"/><path class="cls-9" d="M62.79,112.9a1.84,1.84,0,0,1,.4.94c0,.13-.27.4-.4.53-.27-.13-.54-.4-.54-.53S62.52,113.3,62.79,112.9Z"/><path class="cls-9" d="M78.89,32.9c-.53.67-.94.8-1.21.27-.13-.14,0-.4-.13-.67C78,32.63,78.36,32.77,78.89,32.9Z"/><path class="cls-9" d="M61.58,5.12c-.27.53-.41.94-.81,1.61-.13-.67-.13-1.08-.27-1.61Z"/><path class="cls-9" d="M79.7,61.35c0,.41.13.68.13,1.08h-.67V61.35Z"/><path class="cls-9" d="M85.2,38a3,3,0,0,1-.13,1.07c-.27,0-.54-.13-.81-.13A3.49,3.49,0,0,1,84.8,38C84.93,37.87,85.07,38,85.2,38Z"/><path class="cls-9" d="M86.27,71c.27-.14.41-.4.68-.54.26.27.4.67.67.94-.27.14-.41.27-.67.4C86.68,71.69,86.54,71.42,86.27,71Z"/><path class="cls-9" d="M95.4,81.09a5.88,5.88,0,0,0-.94-.68c.14-.13.27-.4.4-.4.81-.13.41.67.68.81C95.54,81,95.4,81,95.4,81.09Z"/><path class="cls-9" d="M91.37,45.65c.94.27.41.94.81,1.48-.13,0-.13.13-.27.13-.27-.4-.54-.67-.8-1.07a.7.7,0,0,1,.26-.54Z"/><path class="cls-9" d="M83.46,11.56c1.07-.27,1.07-.27,1.07.67C83.72,12.63,83.72,12,83.46,11.56Z"/><path class="cls-9" d="M43.19,92.63c.27-.14.67-.14.94-.27a5.69,5.69,0,0,0,.13.67c-.27.4-.67.27-1.07,0Z"/><path class="cls-9" d="M75.81,75.45c.4.27.67.54,1.2.94a4.28,4.28,0,0,1-1.07.27c-.13-.41-.27-.67-.4-1.08A.42.42,0,0,1,75.81,75.45Z"/><path class="cls-9" d="M109.76,26.19a6.05,6.05,0,0,0-.53.94,4.92,4.92,0,0,0-.54-.4,1.63,1.63,0,0,1,.67-.68C109.49,25.92,109.63,26.05,109.76,26.19Z"/><path class="cls-9" d="M69.9,99.34c.4-.4.54-.67.8-.94.14,0,.14.13.27.13v1.21l-.13.14A8.05,8.05,0,0,1,69.9,99.34Z"/><path class="cls-9" d="M111,33.84a.56.56,0,0,0,.14.4,1.7,1.7,0,0,1-.14.67,3.81,3.81,0,0,0-1.07-.53v-.27C110.3,34,110.57,34,111,33.84Z"/><path class="cls-9" d="M73.25,62.29c.27.14.54.41.81.54v.27c-.27.13-.67.4-.81.27C72.85,63.1,72.85,62.7,73.25,62.29Z"/><path class="cls-9" d="M51.51,67.26c.13.27.4.54.54.81,0,0-.41.4-.54.4a.69.69,0,0,1-.27-.94A.29.29,0,0,1,51.51,67.26Z"/><path class="cls-9" d="M52.45,87.66c-.27.14-.4.4-.67.54-.4-.27-.54-.67-.27-.94s.54,0,.81,0A.5.5,0,0,1,52.45,87.66Z"/><path class="cls-9" d="M102.65,50.08c-.27-.13-.54-.4-.81-.54.14-.13.27-.53.41-.53.53,0,.53.53.67.8C102.78,49.81,102.78,50,102.65,50.08Z"/><path class="cls-9" d="M78.89,4.58c-.4-.54-.94-.94-.27-1.48C79.16,3.5,79.16,3.5,78.89,4.58Z"/><path class="cls-9" d="M43.46,82a4.45,4.45,0,0,0-.81-.68,6.75,6.75,0,0,1,1.48-.53.13.13,0,0,0,.13.13C44,81.35,43.73,81.62,43.46,82Z"/><path class="cls-9" d="M49.36,113.3c-.4.13-.67.4-.94.4s-.26-.27-.4-.54c.14-.13.4-.4.54-.26S49,113,49.36,113.3Z"/><path class="cls-9" d="M84.26,63.77c0-.67.14-1.07.67-1.07.14,0,.27.27.4.53A4.14,4.14,0,0,0,84.26,63.77Z"/><path class="cls-9" d="M79.29,66.46c.14.26.41.4.54.67-.27.53-.67.53-.94.26s0-.67,0-.93Z"/><path class="cls-9" d="M74.19,106.05c-.13.27-.26.67-.4.67s-.54-.27-.8-.4v-.27c.26-.13.67-.13.94-.27Z"/><path class="cls-9" d="M35.27,132.36a2.69,2.69,0,0,0,.13,1.07h-.53v-1.21A.48.48,0,0,0,35.27,132.36Z"/><path class="cls-9" d="M71.11,17.2a3.86,3.86,0,0,1-.41,1.2h-.13c-.13-.4-.27-.67-.4-1.07A2.72,2.72,0,0,0,71.11,17.2Z"/><path class="cls-9" d="M26.28,126.05a8.78,8.78,0,0,1,1.2-.54c0,.54,0,.94-.53,1.08C26.81,126.59,26.68,126.32,26.28,126.05Z"/><path class="cls-9" d="M69.23,96.92c-1.08-.26-.54-.8-.27-1.47C69,96,69.9,96.25,69.23,96.92Z"/><path class="cls-9" d="M96.48,23.24h0c-.68.13-.81-.14-.81-.68,0-.13.4-.26.81-.53Z"/><path class="cls-9" d="M17.82,104.57a2.79,2.79,0,0,0-.67.41c-.13,0-.13-.14-.27-.14.14-.27.14-.94.27-.94.54-.13.67.27.67.67Z"/><path class="cls-9" d="M23.32,137.19c.41-.13.68-.4,1.08-.54.67.41,0,.67-.27,1.08-.27-.14-.54-.41-.81-.54Z"/><path class="cls-9" d="M23.59,120.41c.54.27.67.67.41,1.08a.42.42,0,0,1-.54,0C22.92,121.08,23.59,120.82,23.59,120.41Z"/><path class="cls-9" d="M77.82,69.54c.27.14.67.27.94.4v.27a1.89,1.89,0,0,1-.94.27c-.14,0-.14-.4-.27-.67Z"/><path class="cls-9" d="M79.56,96c-.13-.26-.4-.53-.53-.8.26-.14.4-.14.67-.27.13.27.13.67.27.94C79.83,95.85,79.7,96,79.56,96Z"/><path class="cls-9" d="M60.24,92.49c.13-.4.13-.8.26-1.2a9.07,9.07,0,0,0,.94.26c-.4.41-.8.68-1.07.94Z"/><path class="cls-9" d="M92.31,75.05a2.88,2.88,0,0,1-.4.67c-.54-.14-.67-.54-.4-.94.13-.14.54-.14.8-.14C92.18,74.91,92.31,74.91,92.31,75.05Z"/><path class="cls-10" d="M20.37-62.94.37-51.12s-17.58-13.69-19.46-13S-30.5-42.27-30.5-42.27s-17.85-10.46-21.34-8.85S-54.66-30-54.66-30s-15.84-1.75-17.72-.54,1.21,22.42,1.21,22.42-18.66,6.31-20,6.84S-92.24,0-92.24,0l12.62,16.37S-97.34,33.57-97.07,35.45s19.59,15,19.59,15S-90.77,66.32-89.83,69.94s20.27,6.45,20.27,6.45S-74,91.69-73.18,93.7s22.41,2.55,22.41,2.55,3.09,19.46,3.22,20.81,1.08,1.34,1.08,1.34l18.25-9.66s4,18.79,5.64,18.65.94-.13.94-.13l19.86-12.89s17.72,14.9,19.6,14.23,11.41-21.88,11.41-21.88,17.85,10.47,21.34,8.86,2.82-21.07,2.82-21.07,15.84,1.74,17.72.53S69.9,72.63,69.9,72.63s18.66-6.31,20-6.85S91,64.44,91,64.44L78.36,48.07S96.07,30.89,95.8,29,76.21,14,76.21,14,89.5-1.86,88.56-5.49,68.29-11.8,68.29-11.8s4.43-15.3,3.62-17.31S49.5-31.66,49.5-31.66s-3.09-19.46-3.22-20.81-1.08-1.34-1.08-1.34L27-44.14s-4-18.8-5.64-18.66C19.7-62.94,20.37-62.94,20.37-62.94ZM61.44,32.77A61.58,61.58,0,0,1-.16,94.24,61.67,61.67,0,0,1-61.77,32.77,61.7,61.7,0,0,1-.16-28.84,61.78,61.78,0,0,1,61.44,32.77Z"/><path class="cls-11" d="M84.8,31c0,1.07-.81,3.49-13.29,16,.81,1.21,2.28,3.22,3.49,4.83,4.56,6,5.77,7.92,5.77,9.53h0c0,1.62,0,3.76-18,7C66.68,85.25,66,86.86,65.6,87.53c-.53,1.21-1.34,2.82-18.12,2.68,1.08,15.3,0,15.84-1.2,16.65s-2,1.2-19.06-5.64c-7.79,19.46-9.53,20-10.47,20.27-1.35.4-3.09,1.07-17.85-14.5l-16.38,10.34a2.44,2.44,0,0,1-2.15.13A2.28,2.28,0,0,1-21,115.71c-.8-5.63-1.88-12.08-2.55-14.89-1.48.53-3.89,1.61-5.64,2.41-7.24,3.09-9.53,4-11,3.63s-3.36-.67-5.77-16.51c-17.72.4-19.2-.67-19.74-1.21-1.07-.81-2.55-2,1.08-18.26-15.17-2.14-15.57-3.35-16-4.56s-.81-2.28,9.39-17.45C-88.62,37.19-88.75,35.45-88.89,34.51c-.13-1.34-.4-3.09,16.65-14.63-.81-1.34-2.15-3.62-3.22-5.37-4.16-6.84-5.24-8.86-5.1-10.33S-80.3.82-65-3.74c-2.82-17.59-1.88-19.06-1.48-19.73.67-1.21,1.61-2.69,18.25-1.48,0-15.3,1.21-15.84,2.29-16.51s2.14-1.07,18.52,7c9.13-18.79,10.87-19.33,11.81-19.6s2.68-.67,18.12,9.94C3.86-45.49,5.88-47.5,8-49.51,14.73-56,16.88-57,18.76-55.69c.67.54,2,1.48,4.3,16.78,1.47-.54,3.62-1.34,5.36-2,7.39-2.82,9.67-3.49,11.14-3.09s3.36.94,4.84,16.78c17.71.53,19.06,1.74,19.73,2.15,1.07.94,2.41,2-2,18.12,15,3,15.31,4.16,15.71,5.36S78.49.69,67.48,15.32C84.26,27.8,84.4,29.54,84.4,30.62,84.8,30.89,84.8,30.89,84.8,31Zm-4.43-.67Zm-14,16.24a1.24,1.24,0,0,1,.13-.67,1.86,1.86,0,0,1,.67-1.07C72.45,39.74,78.36,33.44,80,31,77.82,28.74,70,22.7,63.32,17.6a2.61,2.61,0,0,1-.94-1.48,2.61,2.61,0,0,1,.41-1.74C66.68,9.14,71.11,3.1,73,.15,70.17-.66,64.26-2,59.16-2.94A2,2,0,0,1,57.69-4a2.24,2.24,0,0,1-.27-1.88A120,120,0,0,0,61-21.73c-2.95-.54-11.27-.94-18.39-1.21a2.31,2.31,0,0,1-2.28-2c-.54-5.64-1.48-12.21-2.28-14.63-1.88.54-5.5,1.88-7.79,2.68-7.38,2.69-8.59,3.09-10.06,2.42A2.38,2.38,0,0,1,19-36.09c-.81-5.5-1.88-11.81-2.69-14.77A135.24,135.24,0,0,0,4.67-39.71a2.27,2.27,0,0,1-3,.26c-6-4.16-13.28-8.72-16-9.93-1.88,2.55-6.44,11.28-10.06,18.79a2.94,2.94,0,0,1-1.35,1.21,2.68,2.68,0,0,1-1.74-.13c-5.91-3-12.75-6-15.84-7.39a140.7,140.7,0,0,0-.4,14.23h0a2.37,2.37,0,0,1-.81,1.75,2.09,2.09,0,0,1-1.74.53,125.14,125.14,0,0,0-16.24-.53c0,3,1.07,11.27,2.28,18.25A2.28,2.28,0,0,1-61.77-.12a91.59,91.59,0,0,0-14,5c.8,1.74,2.82,5.1,4.16,7.25,4,6.71,4.7,7.91,4.16,9.39a2.14,2.14,0,0,1-.94,1.21c-6.17,4.16-13.15,9.13-15.57,11.41,2.55,2.28,10.34,7.78,17,12.21a2.25,2.25,0,0,1,.94,1.48,2.11,2.11,0,0,1-.41,1.74c-3.62,5.37-7.78,11.68-9.39,14.77,2.82.67,8.86,1.74,14,2.41a2.56,2.56,0,0,1,1.61.94,2.36,2.36,0,0,1,.4,1.88c-1.34,6-2.68,13.29-2.68,16,2.95.41,11.27.41,18.38.27a2.23,2.23,0,0,1,2.29,2,113.77,113.77,0,0,0,3,14.49c1.74-.53,5.37-2.14,7.65-3.08,7.25-3.09,8.46-3.63,9.93-3,1.08.54,2.15,1.08,4.3,15.44l15-9.4a2.24,2.24,0,0,1,2.82.41,157.62,157.62,0,0,0,14.49,14c1.75-3.08,5.51-11.67,8.46-19.06a2.13,2.13,0,0,1,1.21-1.2,2,2,0,0,1,1.74,0c6,2.55,13.16,5.23,16.38,6.17.13-3-.14-9-.54-14.23a2.24,2.24,0,0,1,.67-1.74,2.59,2.59,0,0,1,1.75-.67,133,133,0,0,0,16.24-.54,162.51,162.51,0,0,0-3.62-18A2.56,2.56,0,0,1,58,65.65a2,2,0,0,1,1.48-.94c6-1.07,13.29-2.68,16.11-3.76-1.08-1.61-3-4.29-4.3-6C67.48,49.54,66.41,47.93,66.41,46.59Zm9.8,15.17ZM73.79-1.19Zm-28.86,104ZM39-39.58Zm-54-10.07ZM-43-38.37Zm-1.75,1.07Z"/><path class="cls-9" d="M94.26,1892.9c-2.55.13-4.83-2.68-4.29-4.7a12.83,12.83,0,0,1,1.47-3.08c1.88-2.69,3.36-2.55,4.57.4a6.87,6.87,0,0,1-.41,6c-.13.67-.94,1.07-1.34,1.34"/><path class="cls-9" d="M108.49,1854.78a4.26,4.26,0,0,1-3.63-1.88,2.38,2.38,0,0,1-.13-1.34,11.65,11.65,0,0,1,4.3-5.23,1.2,1.2,0,0,1,1.34,0,3.5,3.5,0,0,1,1.47,4.16,32.22,32.22,0,0,1-2.14,3.49,3.14,3.14,0,0,1-1.21.8"/><path class="cls-9" d="M94.13,1863c.8-2.55,2-4.56,4.29-5.77a1.89,1.89,0,0,1,1.21.13,3.08,3.08,0,0,1,1.34,3.36,22.7,22.7,0,0,1-1.74,4.16,1.86,1.86,0,0,1-2.69.67,10.06,10.06,0,0,1-1.88-1.48c-.4-.27-.4-.8-.53-1.07"/><path class="cls-9" d="M103.66,1878.4c-1.48,0-3.22-1.2-3.49-2.28a2.19,2.19,0,0,1,0-1.34,13.17,13.17,0,0,1,3.35-4.7,1.4,1.4,0,0,1,2.28.41,3.94,3.94,0,0,1,.54,4.16,10,10,0,0,1-1.48,2.68c-.13.67-.8.81-1.2,1.07"/><path class="cls-9" d="M89.16,1858.27c-2.28-.13-3.76-2.15-3.09-3.89a15.73,15.73,0,0,1,2.29-4.16c.93-1.21,2.14-.94,3.08.4a4,4,0,0,1,.54,3.89,27.69,27.69,0,0,1-1.34,2.82c-.41.54-1.08.67-1.48.94"/><path class="cls-9" d="M112,1857.6c.67,1.07,1.21,1.74,1.61,2.55.8,1.88-.4,5-2.15,5.77a2.3,2.3,0,0,1-1.34.14,7.5,7.5,0,0,1-1.75-.94,2,2,0,0,1-.8-3,9.07,9.07,0,0,1,4.43-4.56"/><path class="cls-9" d="M102.72,1902a8.49,8.49,0,0,1-.67,1.88,2,2,0,0,1-2.69.8,6.53,6.53,0,0,1-2.15-1.61,2.92,2.92,0,0,1-.67-1.88,6.71,6.71,0,0,1,2.15-4.56,1.41,1.41,0,0,1,2.15.27,9.08,9.08,0,0,1,1.88,5.1"/><path class="cls-9" d="M95.87,1872.9c-.27.94-.4,1.75-.67,2.55-.94,2-2.15,2.42-4,1.21a7.64,7.64,0,0,1-1.07-.81,1.84,1.84,0,0,1-.54-2.14,6.56,6.56,0,0,1,3-3.63,1.43,1.43,0,0,1,1.88.14,12.8,12.8,0,0,1,1.47,2.68"/><path class="cls-9" d="M117.75,1853.3c-2.15,0-3.49-1.87-2.82-3.49a13,13,0,0,1,3.22-4.42,1.44,1.44,0,0,1,2.15.4,3.44,3.44,0,0,1,.4,3.89,32.44,32.44,0,0,1-1.74,3,5.22,5.22,0,0,1-1.21.67"/><path class="cls-9" d="M86.07,1841.9a5,5,0,0,1-1.88,4,1.82,1.82,0,0,1-2,.27,10.06,10.06,0,0,1-1.88-1.48,2.25,2.25,0,0,1-.4-1.61,7.73,7.73,0,0,1,2.42-4,1.51,1.51,0,0,1,2.41.27,9,9,0,0,1,1.34,2.55"/><path class="cls-9" d="M78.42,1853.3c-.4,1.48-.53,2.55-.94,3.63a1.74,1.74,0,0,1-2.55.94c-1.74-.81-2.41-1.88-1.88-3.89a6.19,6.19,0,0,1,1.75-3.63c.94-.8,1.88-.8,2.55.4a17.51,17.51,0,0,1,1.07,2.55"/><path class="cls-9" d="M84.06,1878c.4.67,1.21,1.34,1.21,2a18.3,18.3,0,0,1-.14,4.7,1.8,1.8,0,0,1-2.95,1.08,5.05,5.05,0,0,1-1.34-1.08,1.92,1.92,0,0,1-.67-2.41,6.8,6.8,0,0,1,3.89-4.3"/><path class="cls-9" d="M95.6,1844.18a2.86,2.86,0,0,1-2.68-4.3,12.83,12.83,0,0,1,2.15-2.55,1.54,1.54,0,0,1,2.41.4,4.07,4.07,0,0,1-.8,6,8.9,8.9,0,0,0-1.08.41"/><path class="cls-9" d="M84.46,1863a3.35,3.35,0,0,1,2,3,11,11,0,0,1-.67,3.63,2,2,0,0,1-2.69.94,5.16,5.16,0,0,1-1.74-1.21c-.27-.27-.68-.81-.54-1.21a18.11,18.11,0,0,1,1.07-2.82c.67-.94,1.21-2,2.55-2.28"/><path class="cls-9" d="M97.48,1848.74c.14-.54.14-.94.27-1.07a36.36,36.36,0,0,1,3-3.36,1.43,1.43,0,0,1,2.42.81,3.44,3.44,0,0,1,0,2,14.67,14.67,0,0,1-1.07,2.55c-.94,1.48-2.29,1.61-3.63.27a4.32,4.32,0,0,1-.94-1.21"/><path class="cls-9" d="M100.84,1913.44c-.14.53-.14,1.07-.4,1.34a2.43,2.43,0,0,1-1.35.8,3.55,3.55,0,0,1-3.08-2.81,5.38,5.38,0,0,1,.26-2c.41-.94.94-2,2-2.15,1.34-.13,1.61,1.21,2,2.15a16.41,16.41,0,0,0,.54,2.69"/><path class="cls-9" d="M81,1833.17c-.13.54-.13,1.08-.4,1.34a2.37,2.37,0,0,1-1.34.81,3.58,3.58,0,0,1-3.09-2.82,5.17,5.17,0,0,1,.27-2c.4-.94.94-2,2-2.15,1.35-.13,1.61,1.21,2,2.15s.26,1.88.53,2.68"/><path class="cls-9" d="M103.93,1883.91c1.61,1.34,1.87,3.22,1.47,5.23a1.69,1.69,0,0,1-2.68,1.08c-1.88-1.08-2.28-2.42-1.35-4.3.54-.94,1.08-2,2.56-2"/><path class="cls-9" d="M76.54,1867.53c0,.4-.13.81-.13,1.08a2.66,2.66,0,0,1-1.61,2.14,2.7,2.7,0,0,1-2.69-1.2,2.66,2.66,0,0,1-.4-1.21,5.26,5.26,0,0,1,2.42-3.63,1.32,1.32,0,0,1,1.21.14,2.87,2.87,0,0,1,1.2,2.68"/><path class="cls-9" d="M76,1843.64v.67c-.14,1.48-1.08,2.42-2.15,2.15a2.62,2.62,0,0,1-2.15-3c0-.27.14-.41.14-.67.53-1.35,1.47-2.29,2.28-2.15s1.88,1.61,1.88,3"/><path class="cls-9" d="M68.76,1866.06c-1.75.13-3.22-1.61-2.55-3a6.07,6.07,0,0,1,1.34-1.88,1,1,0,0,1,1.48.14,3.28,3.28,0,0,1,.67,3.76,2.18,2.18,0,0,1-.94.94"/><path class="cls-9" d="M93.32,1900.15a11.07,11.07,0,0,1-.54,1.61,1.08,1.08,0,0,1-1.47.54,2.42,2.42,0,0,1-1.75-2.29A2.35,2.35,0,0,1,91,1897.6a1.34,1.34,0,0,1,1.21.4,8.29,8.29,0,0,1,1.07,2.15"/><path class="cls-9" d="M80.84,1775.86c.8-.27,1.34-.67,2-.81a2.57,2.57,0,0,1,2.55.67c.81.94.14,1.75-.27,2.55a18.5,18.5,0,0,1-5,5.24,4.7,4.7,0,0,1-1.88.8,1.72,1.72,0,0,1-2.15-1.61,4.46,4.46,0,0,1,1.61-4.29c.94-.81,2-1.75,3.09-2.55"/><path class="cls-9" d="M110.9,1839.08c0-.27-.26-.54-.26-.94a13.86,13.86,0,0,1,.67-5.77,2.29,2.29,0,0,1,2.28-1.75,3.29,3.29,0,0,1,3.35,1.34,1.46,1.46,0,0,1,.27,1.35c-.13,2.68-1.47,4.69-3.35,6.57-.67.67-2.28.27-3-.8"/><path class="cls-9" d="M84.19,1828.61a8.9,8.9,0,0,1-.26-6.71,1.56,1.56,0,0,1,.94-.94c1.47-.67,3.89.4,4.29,1.88a6.57,6.57,0,0,1-.54,6.3c-1.2,1.88-3,1.35-4,.14a.73.73,0,0,0-.41-.67"/><path class="cls-9" d="M112.52,1792.1c1.34-.67,3.75,0,4.29.94a2.57,2.57,0,0,1,.27.94,10.51,10.51,0,0,1-3.09,7.51,1.89,1.89,0,0,1-3.22-1.07,4.69,4.69,0,0,1-.13-1.34c.26-1.88.67-3.89,1.07-5.77.13-.54.67-.94.81-1.21"/><path class="cls-9" d="M98.29,1821.9a4.57,4.57,0,0,1,3.49-.27A1.69,1.69,0,0,1,103,1824a17.82,17.82,0,0,1-4.7,5.78,2.32,2.32,0,0,1-2.28.26,2,2,0,0,1-1.08-2c-.13-2.82,1.48-4.56,3.36-6.17"/><path class="cls-9" d="M104.86,1780a2.91,2.91,0,0,1,3,.27,1.84,1.84,0,0,1,1.21,1.88,11,11,0,0,1-3.49,7,2,2,0,0,1-3.23-1.21c-.4-3,.68-5.37,2.29-7.79a.4.4,0,0,0,.26-.13"/><path class="cls-9" d="M123.12,1834.51c0-.26-.27-.67-.27-1.07a12.5,12.5,0,0,1,1.88-6.58,2.63,2.63,0,0,1,3-1.21,2.14,2.14,0,0,1,1.88,2.82,17.4,17.4,0,0,1-3.35,6.45,2.08,2.08,0,0,1-3.09-.41"/><path class="cls-9" d="M119.63,1816c.27-.13.4-.13.67-.27a2.63,2.63,0,0,1,3,.14,2.25,2.25,0,0,1,.27,2.82,32,32,0,0,1-2.82,4.69,2,2,0,0,1-2.14.81,2.18,2.18,0,0,1-1.62-2c-.4-2.42.81-5.24,2.69-6.18"/><path class="cls-9" d="M86.74,1791.56a11.83,11.83,0,0,1-.26-1.34,8.84,8.84,0,0,1,2-5.37,2.22,2.22,0,0,1,2.15-.8q3.83.2,2,3.62a28.91,28.91,0,0,1-2.82,4.3,1.93,1.93,0,0,1-3.09-.41"/><path class="cls-9" d="M107.15,1813.84a11.44,11.44,0,0,1-.27-1.34,14.74,14.74,0,0,1,1.61-5.9,1.52,1.52,0,0,1,1.74-.94,10.76,10.76,0,0,1,2,.53,1.46,1.46,0,0,1,.94,1.61,12.21,12.21,0,0,1-3.09,6.31,1.9,1.9,0,0,1-2.95-.27"/><path class="cls-9" d="M79.9,1811.16c0-.27-.27-.54-.27-.81a10.4,10.4,0,0,1,1.61-5.9,2.15,2.15,0,0,1,2.82-.54c1.07.4,1.61,1.07,1.48,2a9.36,9.36,0,0,1-3.22,5.91,1.83,1.83,0,0,1-2.42-.67"/><path class="cls-9" d="M90.1,1804.05c0-.27-.13-.81-.13-1.35a7.61,7.61,0,0,1,1.74-4.43A2.89,2.89,0,0,1,96,1798c.4.26.53,1.07.53,1.47a8.62,8.62,0,0,1-3.49,5.37,2,2,0,0,1-3-.8"/><path class="cls-9" d="M100.84,1817.06a1.67,1.67,0,0,1-2.28-.67,3.53,3.53,0,0,1-.41-1.61,11,11,0,0,1,1.35-5,1.74,1.74,0,0,1,1.61-1.08c1.07,0,2.14.14,2.68,1.21a2.3,2.3,0,0,1,.14,1.34,15.87,15.87,0,0,1-2.56,5.24c0,.27-.4.4-.53.53"/><path class="cls-9" d="M106.07,1796.26c0,.27.27.54.14.94a10.45,10.45,0,0,1-2.55,5.5,1.52,1.52,0,0,1-2.42-.13,4.74,4.74,0,0,1-.8-2.15,8.32,8.32,0,0,1,.8-3.62c.81-1.88,3-2.15,4.56-.81,0,0,.14,0,.27.27"/><path class="cls-9" d="M78.42,1800.69a1.85,1.85,0,0,1-2.82-1.07,7.46,7.46,0,0,1,1.61-6.18c.81-.94,1.88-.67,2.82-.27,1.21.41,1.75,1.21,1.35,2.28a48.7,48.7,0,0,1-2.29,4.57c-.13.4-.53.54-.67.67"/><path class="cls-9" d="M108,1823.1a9.23,9.23,0,0,1-.27-1.47,7,7,0,0,1,1.61-4.43,2.75,2.75,0,0,1,3.36-1.07c1.21.4,1.74,1.34,1.21,2.41a20.42,20.42,0,0,1-2.55,4,3.16,3.16,0,0,1-1.34.94,10.2,10.2,0,0,1-2-.41"/><path class="cls-9" d="M75.2,1822.17a8,8,0,0,1-.27-5.51,1.46,1.46,0,0,1,1.61-.94,3.36,3.36,0,0,1,3.09,4.7c-.27.67-.67,1.21-.94,1.88a1.8,1.8,0,0,1-2,1.07c-.54-.4-1.21-.94-1.48-1.2"/><path class="cls-9" d="M89.83,1817.06c0-.13-.27-.53-.27-.8.14-1.75.14-3.36.41-5.1.13-1.07.94-1.48,2-1.34a2.76,2.76,0,0,1,2.55,3.35,7,7,0,0,1-2.15,4.16,1.74,1.74,0,0,1-2.55-.27"/><path class="cls-9" d="M117.88,1809.41c0-.13-.26-.53-.13-.8.13-1.75.4-3.36.67-5.1a1.47,1.47,0,0,1,1.48-1.21,2.48,2.48,0,0,1,2.55,1.48c.53,1.88-.67,5.37-2.28,6.44a1.63,1.63,0,0,1-2.29-.81"/><path class="cls-9" d="M107,1827.4a3.46,3.46,0,0,1,1.34-.27c.81,0,1.75.14,2,.94a3,3,0,0,1-.27,1.88,35.05,35.05,0,0,1-2.82,3.36,1.44,1.44,0,0,1-1.88.13,1.82,1.82,0,0,1-.94-1.75c-.13-1.74.81-3.08,2.55-4.29"/><path class="cls-3" d="M1029.76,1505.9c11.44-165.24-77.82-120.63,6.21-454.46,42.83-170.51-47.62-194.7-8.5-340.7,61.13-229,70.22-177.4,70.22-177.4l66.75,826.4,8.2,102.81Z"/><path class="cls-1" d="M965,1941.83c24.55-93.62-107.27-52,31.44-241.85,67.84-92.79-21.1-130,29.51-211.51,79.14-127.68,84.11-97.9,84.11-97.9l.82,474v58.88Z"/><path class="cls-9" d="M983.48,1887.5c2.62.14,5-2.75,4.41-4.82a13,13,0,0,0-1.52-3.17c-1.93-2.76-3.44-2.62-4.68.41a7,7,0,0,0,.41,6.2c.14.69,1,1.11,1.38,1.38"/><path class="cls-9" d="M968.73,1848.48a4.36,4.36,0,0,0,3.72-1.93,2.43,2.43,0,0,0,.14-1.38,12,12,0,0,0-4.42-5.37,1.22,1.22,0,0,0-1.37,0,3.6,3.6,0,0,0-1.52,4.27,32,32,0,0,0,2.2,3.58c.42.42,1,.56,1.25.83"/><path class="cls-9" d="M983.62,1856.76c-.83-2.62-2.07-4.69-4.42-5.93a2,2,0,0,0-1.24.13,3.15,3.15,0,0,0-1.37,3.45,23,23,0,0,0,1.79,4.28,1.89,1.89,0,0,0,2.76.68,10.9,10.9,0,0,0,1.93-1.51c.27-.14.41-.69.55-1.1"/><path class="cls-9" d="M973.69,1872.61c1.52,0,3.31-1.24,3.58-2.34a2.32,2.32,0,0,0,0-1.38,13.47,13.47,0,0,0-3.44-4.83,1.44,1.44,0,0,0-2.35.42,4,4,0,0,0-.55,4.27,10.94,10.94,0,0,0,1.52,2.76c.14.69,1,1,1.24,1.1"/><path class="cls-9" d="M988.58,1851.93c2.35-.14,3.86-2.21,3.17-4a16.09,16.09,0,0,0-2.34-4.27c-1-1.24-2.21-1-3.17.41a4.15,4.15,0,0,0-.55,4,27,27,0,0,0,1.37,2.89,3.93,3.93,0,0,0,1.52,1"/><path class="cls-9" d="M965.14,1851.38c-.69,1.1-1.24,1.79-1.65,2.62a5.23,5.23,0,0,0,2.2,5.93,2.44,2.44,0,0,0,1.38.13,7.29,7.29,0,0,0,1.79-1,2,2,0,0,0,.83-3,8.78,8.78,0,0,0-4.55-4.69"/><path class="cls-9" d="M974.79,1897a8.64,8.64,0,0,0,.69,1.93,2,2,0,0,0,2.76.82,6.64,6.64,0,0,0,2.21-1.65,3,3,0,0,0,.69-1.93,6.86,6.86,0,0,0-2.21-4.69,1.45,1.45,0,0,0-2.21.28,8.11,8.11,0,0,0-1.93,5.24"/><path class="cls-9" d="M981.69,1867c.27,1,.41,1.79.69,2.62,1,2.07,2.2,2.48,4.13,1.24a7.63,7.63,0,0,0,1.11-.83,1.91,1.91,0,0,0,.55-2.2,6.72,6.72,0,0,0-3-3.73,1.47,1.47,0,0,0-1.93.14c-.55.83-1,1.79-1.51,2.76"/><path class="cls-9" d="M959.21,1846.83c2.21,0,3.59-1.93,2.9-3.59a13.35,13.35,0,0,0-3.31-4.55,1.49,1.49,0,0,0-2.21.42,3.53,3.53,0,0,0-.41,4,34.4,34.4,0,0,0,1.79,3,4,4,0,0,0,1.24.69"/><path class="cls-9" d="M991.75,1835.11a5.17,5.17,0,0,0,1.93,4.13,1.89,1.89,0,0,0,2.07.28,10.27,10.27,0,0,0,1.93-1.52,2.27,2.27,0,0,0,.41-1.65,8,8,0,0,0-2.48-4.14,1.55,1.55,0,0,0-2.48.28c-.55.83-1,1.93-1.38,2.62"/><path class="cls-9" d="M999.61,1847c.42,1.51.55,2.62,1,3.72a1.78,1.78,0,0,0,2.62,1c1.79-.82,2.48-1.93,1.93-4a6.35,6.35,0,0,0-1.8-3.72c-1-.83-1.93-.83-2.62.42-.41,1-.82,1.93-1.1,2.62"/><path class="cls-9" d="M994,1872.34c-.42.69-1.24,1.37-1.24,2.06a18.43,18.43,0,0,0,.14,4.83,1.84,1.84,0,0,0,3,1.1,5.48,5.48,0,0,0,1.38-1.1,2,2,0,0,0,.69-2.48,6.68,6.68,0,0,0-4-4.41"/><path class="cls-9" d="M982.1,1837.59a2.94,2.94,0,0,0,2.76-4.41,12.66,12.66,0,0,0-2.21-2.62,1.58,1.58,0,0,0-2.48.41,4.18,4.18,0,0,0,.83,6.21c.27.13.82.27,1.1.41"/><path class="cls-9" d="M993.54,1856.76a3.43,3.43,0,0,0-2.06,3,11,11,0,0,0,.69,3.72,2,2,0,0,0,2.75,1,5.43,5.43,0,0,0,1.8-1.24c.27-.28.69-.83.55-1.25a18,18,0,0,0-1.11-2.89c-.68-1-1.24-2.07-2.62-2.34"/><path class="cls-9" d="M980.17,1842.14c-.14-.55-.14-1-.28-1.1a35.61,35.61,0,0,0-3-3.45,1.47,1.47,0,0,0-2.48.83,3.48,3.48,0,0,0,0,2.07,20.75,20.75,0,0,0,1.1,2.61c1,1.66,2.35,1.8,3.72.42a8.73,8.73,0,0,0,1-1.38"/><path class="cls-9" d="M976.72,1908.6c.14.55.14,1.1.42,1.38a2.47,2.47,0,0,0,1.38.83,3.68,3.68,0,0,0,3.17-2.9,5.29,5.29,0,0,0-.28-2.07c-.41-1-1-2.07-2.07-2.2-1.38-.14-1.65,1.24-2.07,2.2a26.33,26.33,0,0,0-.55,2.76"/><path class="cls-9" d="M997.13,1826.28c.14.55.14,1.11.41,1.38a2.48,2.48,0,0,0,1.38.83,3.65,3.65,0,0,0,3.17-2.9,5.4,5.4,0,0,0-.27-2.06c-.42-1-1-2.07-2.07-2.21-1.38-.14-1.66,1.24-2.07,2.21a16.94,16.94,0,0,0-.55,2.75"/><path class="cls-9" d="M973.41,1878.4c-1.65,1.38-1.93,3.31-1.51,5.38a1.73,1.73,0,0,0,2.75,1.1c1.94-1.1,2.35-2.48,1.38-4.41a2.57,2.57,0,0,0-2.62-2.07"/><path class="cls-9" d="M1001.68,1861.44c0,.42.14.83.14,1.11a2.72,2.72,0,0,0,1.65,2.2,2.75,2.75,0,0,0,2.76-1.24,2.53,2.53,0,0,0,.41-1.24,5.32,5.32,0,0,0-2.48-3.72,1.32,1.32,0,0,0-1.24.14,2.93,2.93,0,0,0-1.24,2.75"/><path class="cls-9" d="M1002.09,1837v.69c.14,1.51,1.11,2.48,2.21,2.2a2.7,2.7,0,0,0,2.21-3c0-.28-.14-.41-.14-.69-.55-1.38-1.52-2.34-2.35-2.21s-1.79,1.52-1.93,3"/><path class="cls-9" d="M1009.68,1860.06c1.79.14,3.31-1.65,2.62-3a6.29,6.29,0,0,0-1.38-1.93,1,1,0,0,0-1.52.14,3.38,3.38,0,0,0-.69,3.86c.14.41.69.69,1,1"/><path class="cls-9" d="M984.44,1895.09a11.12,11.12,0,0,0,.56,1.65,1.1,1.1,0,0,0,1.51.55,2.48,2.48,0,0,0,1.8-2.34,2.42,2.42,0,0,0-1.52-2.48,1.37,1.37,0,0,0-1.24.41,6.76,6.76,0,0,0-1.11,2.21"/><path class="cls-9" d="M997.27,1767.41a21.23,21.23,0,0,0-2.07-.83,3,3,0,0,0-2.62.69c-.83,1-.14,1.79.28,2.62a18.82,18.82,0,0,0,5.1,5.38,4.75,4.75,0,0,0,1.93.82,1.76,1.76,0,0,0,2.2-1.65,4.55,4.55,0,0,0-1.65-4.41c-1.1-.83-2.07-1.8-3.17-2.62"/><path class="cls-9" d="M966.38,1832.21c0-.27.28-.55.28-1a14.29,14.29,0,0,0-.69-5.93,2.36,2.36,0,0,0-2.35-1.79,3.35,3.35,0,0,0-3.44,1.37,1.5,1.5,0,0,0-.28,1.38c.14,2.76,1.52,4.83,3.45,6.76.69.83,2.34.28,3-.83"/><path class="cls-9" d="M993.68,1821.46a9.15,9.15,0,0,0,.28-6.9,1.67,1.67,0,0,0-1-1c-1.51-.69-4,.41-4.41,1.93a6.78,6.78,0,0,0,.55,6.48c1.24,1.93,3,1.38,4.14.14.14-.28.27-.42.41-.69"/><path class="cls-9" d="M964.73,1784.09c-1.38-.69-3.86,0-4.41,1a2.5,2.5,0,0,0-.28,1,10.83,10.83,0,0,0,3.17,7.72,2,2,0,0,0,3.31-1.1,4.63,4.63,0,0,0,.14-1.38c-.28-1.93-.69-4-1.11-5.93-.27-.55-.68-1-.82-1.24"/><path class="cls-9" d="M979.2,1814.7a4.66,4.66,0,0,0-3.58-.27,1.73,1.73,0,0,0-1.24,2.48,18.34,18.34,0,0,0,4.82,5.93,2.38,2.38,0,0,0,2.35.27,2,2,0,0,0,1.1-2.07c.28-2.89-1.51-4.82-3.45-6.34"/><path class="cls-9" d="M972.59,1771.68a3,3,0,0,0-3,.28,1.89,1.89,0,0,0-1.24,1.93,11.24,11.24,0,0,0,3.59,7.17,2,2,0,0,0,3.31-1.24c.41-3-.69-5.52-2.35-8a.45.45,0,0,1-.27-.14"/><path class="cls-9" d="M953.83,1827.52c0-.27.28-.69.28-1.1a12.87,12.87,0,0,0-1.93-6.76,2.7,2.7,0,0,0-3-1.24,2.19,2.19,0,0,0-1.93,2.9,18,18,0,0,0,3.44,6.62,2,2,0,0,0,3.17-.42"/><path class="cls-9" d="M957.42,1808.5c-.28-.14-.41-.14-.69-.28a2.71,2.71,0,0,0-3,.14,2.3,2.3,0,0,0-.28,2.89,34,34,0,0,0,2.9,4.83,2.09,2.09,0,0,0,2.2.83,2.24,2.24,0,0,0,1.66-2.07c.41-2.35-.83-5.38-2.76-6.34"/><path class="cls-9" d="M991.2,1783.4a11.63,11.63,0,0,0,.28-1.38,9.07,9.07,0,0,0-2.07-5.51,2.29,2.29,0,0,0-2.21-.83q-3.93.21-2.07,3.72a30.85,30.85,0,0,0,2.9,4.42,2,2,0,0,0,3.17-.42"/><path class="cls-9" d="M970.24,1806.29a12.08,12.08,0,0,0,.28-1.38,15.3,15.3,0,0,0-1.66-6.07,1.57,1.57,0,0,0-1.79-1,11.32,11.32,0,0,0-2.07.55,1.5,1.5,0,0,0-1,1.66,12.47,12.47,0,0,0,3.17,6.48,1.89,1.89,0,0,0,3-.28"/><path class="cls-9" d="M998.23,1803.53c0-.27.28-.55.28-.82a10.56,10.56,0,0,0-1.66-6.07,2.2,2.2,0,0,0-2.89-.55c-1.1.41-1.66,1.1-1.52,2.06a9.55,9.55,0,0,0,3.31,6.07c.55.55,1.93.14,2.48-.69"/><path class="cls-9" d="M987.75,1796.22c0-.27.14-.82.14-1.37a7.78,7.78,0,0,0-1.79-4.55,3,3,0,0,0-4.41-.28,2.05,2.05,0,0,0-.55,1.52,8.88,8.88,0,0,0,3.58,5.51,2,2,0,0,0,3-.83"/><path class="cls-9" d="M976.59,1809.74a1.86,1.86,0,0,0,2.34-.69,3.76,3.76,0,0,0,.41-1.66,11.3,11.3,0,0,0-1.38-5.1,1.78,1.78,0,0,0-1.65-1.1c-1.1,0-2.21.14-2.76,1.24a2.43,2.43,0,0,0-.14,1.38,16.5,16.5,0,0,0,2.62,5.38c.14.27.42.41.56.55"/><path class="cls-9" d="M971.35,1788.23c0,.27-.28.55-.14,1a10.7,10.7,0,0,0,2.62,5.66,1.55,1.55,0,0,0,2.48-.14,4.9,4.9,0,0,0,.83-2.21,8.64,8.64,0,0,0-.83-3.72c-.83-1.93-3-2.21-4.69-.83-.14,0-.14.14-.27.28"/><path class="cls-9" d="M999.75,1792.92c1.1.68,2.76.13,2.9-1.11a7.63,7.63,0,0,0-1.66-6.34c-.83-1-1.93-.69-2.9-.28-1.24.42-1.79,1.24-1.37,2.35a50,50,0,0,0,2.34,4.69,3.45,3.45,0,0,0,.69.69"/><path class="cls-9" d="M969.28,1815.8a8.69,8.69,0,0,0,.27-1.51,7.12,7.12,0,0,0-1.65-4.55,2.84,2.84,0,0,0-3.45-1.11c-1.24.42-1.79,1.38-1.24,2.49a21.47,21.47,0,0,0,2.62,4.13,3.18,3.18,0,0,0,1.38,1,7.69,7.69,0,0,0,2.07-.42"/><path class="cls-9" d="M1003.06,1815a8,8,0,0,0,.27-5.66,1.48,1.48,0,0,0-1.65-1,3.44,3.44,0,0,0-3.17,4.82c.27.69.69,1.25,1,1.93a1.88,1.88,0,0,0,2.07,1.11c.55-.42,1.11-1.11,1.52-1.24"/><path class="cls-9" d="M988,1809.6c0-.14.28-.55.28-.83-.14-1.79-.14-3.45-.42-5.24-.14-1.1-1-1.51-2.07-1.38a2.85,2.85,0,0,0-2.62,3.45,7.2,7.2,0,0,0,2.21,4.28,1.63,1.63,0,0,0,2.62-.28"/><path class="cls-9" d="M959.21,1801.88c0-.14.28-.55.14-.83-.14-1.79-.41-3.45-.69-5.24a1.5,1.5,0,0,0-1.52-1.24,2.55,2.55,0,0,0-2.62,1.52c-.55,1.93.69,5.51,2.35,6.62a1.82,1.82,0,0,0,2.34-.83"/><path class="cls-9" d="M970.24,1820.35a3.56,3.56,0,0,0-1.38-.27c-.82,0-1.79.14-2.06,1a3,3,0,0,0,.27,1.93,34.36,34.36,0,0,0,2.9,3.45,1.47,1.47,0,0,0,1.93.14,1.87,1.87,0,0,0,1-1.79c.28-1.93-.69-3.31-2.62-4.42"/><path class="cls-8" d="M1096.48,1083.11a103,103,0,0,0-134.71-54.46l19.3,45.5a53.32,53.32,0,1,1,41.64,98.17l19.3,45.51c52.12-22.07,76.53-82.46,54.47-134.72"/><path class="cls-12" d="M1017.2,1159.23a39,39,0,0,0-30.48-71.84"/><path class="cls-4" d="M1073,78.63a99,99,0,0,0-131.41,47.84l50.74,23.72A42.84,42.84,0,0,1,1070,186.45l50.74,23.72A99,99,0,0,0,1073,78.63"/><path class="cls-11" d="M1105.9,491.61V249.76c-18.75,6.48-42.05,21.37-57.08,33.92a267.35,267.35,0,0,0-57.5,67.56c-4.55,7.59-8.68,15.45-11,23.86-3.44,12.27-7.86,37.36,2.21,46.6s31.3-.69,41.23,8.83c7.17,6.89,7.17,29.92,11.58,38.74,11.86,25,43.57,27,70.59,22.34"/><path class="cls-13" d="M1105.9,241.07S979.19,277.34,966.78,392.88c-9.65,89.49,46.74,19,53.5,63.43,8.82,57.91,85.62,43.71,85.62,43.71v14.34s-72.66,28.82-88,2.34-5.51-41.78-18.89-52.39S934.52,476.72,934.52,407c0-84.11,54.05-148.09,171.38-193.18Z"/><path class="cls-10" d="M1095.56,485c3.45-.14,6.9-.41,10.34-.69V481c-3.44.14-7,.28-10.48.28a112,112,0,0,1-13.65-.83,58.61,58.61,0,0,1-13.09-3,32.1,32.1,0,0,1-10.9-6.9,43.35,43.35,0,0,1-7.58-10.75,64,64,0,0,1-3-6.21c-.56-1.1-1-2.07-1.38-3s-1-2.07-1.38-3.17c-.83-2.07-1.79-4.28-2.62-6.48s-1.93-4.28-3-6.48a56,56,0,0,0-3.72-6.21,22.76,22.76,0,0,0-2.48-2.89,13.81,13.81,0,0,1-1.38-1.38,11.36,11.36,0,0,0-1.65-1.11,20,20,0,0,0-7-2.62,62.61,62.61,0,0,0-7.17-1l-7-.41a54.13,54.13,0,0,1-6.75-.83,17.8,17.8,0,0,1-6.35-2.35,13,13,0,0,1-4.55-4.55,19.53,19.53,0,0,1-2.2-6.2,35.74,35.74,0,0,1-.55-6.76,72.9,72.9,0,0,1,1.79-13.51c.55-2.21,1.1-4.41,1.79-6.62s1.38-4.41,2.21-6.48a91.83,91.83,0,0,1,6.06-12.27c1.11-1.93,2.35-4,3.59-5.93l3.72-5.79c2.48-3.86,5.24-7.58,8-11.31A261.31,261.31,0,0,1,1032.69,315c.83-.83,1.51-1.66,2.34-2.48l2.35-2.48c1.65-1.66,3.17-3.31,4.82-5,3.31-3.31,6.62-6.34,10.07-9.51,1.79-1.52,3.44-3,5.24-4.55s3.58-2.9,5.37-4.28c3.73-2.75,7.45-5.37,11.31-8s7.72-5.11,11.58-7.59,7.86-5,11.86-7.31c2.9-1.65,5.65-3.3,8.55-4.82v-3.59c-3.45,1.66-6.89,3.45-10.34,5.24-4.14,2.21-8.14,4.55-12.27,6.9s-8,4.82-12,7.31-7.86,5.1-11.72,7.85c-1.93,1.38-3.86,2.76-5.65,4.28s-3.73,3-5.52,4.41a217.61,217.61,0,0,0-38.05,41.5c-2.76,3.86-5.38,7.73-7.86,11.72s-4.83,8-7,12.28c-1.11,2.06-2.07,4.27-3,6.48a57.19,57.19,0,0,0-2.48,6.75c-.69,2.35-1.24,4.69-1.79,6.9s-1,4.68-1.38,6.89a72.74,72.74,0,0,0-1,14.2,42.59,42.59,0,0,0,.83,7.17,23.67,23.67,0,0,0,2.62,6.76,14.26,14.26,0,0,0,5.24,5.1,23.67,23.67,0,0,0,6.76,2.62,60.72,60.72,0,0,0,7,1.1c2.34.28,4.69.42,6.89.83a33.32,33.32,0,0,1,6.62,1.38,20.37,20.37,0,0,1,5.79,2.76,17,17,0,0,1,2.21,2.2c.69.83,1.24,1.66,1.93,2.62a40.75,40.75,0,0,1,3,5.93c.83,2.07,1.79,4.14,2.62,6.34s1.66,4.28,2.48,6.49a35.58,35.58,0,0,0,1.38,3.3A36.17,36.17,0,0,0,1043,456c1,2.07,2.07,4.28,3.17,6.35,2.34,4.13,5,8.41,8.69,11.85a30.4,30.4,0,0,0,5.93,4.55,37.26,37.26,0,0,0,6.75,3.18,63.92,63.92,0,0,0,14.2,3c4.28.14,9.1.27,13.79,0"/><path class="cls-8" d="M1100,462.38c.83-.14,3.31-4.28,6.07-9.38V295c-2.48-2.07-16.68-13.65-18.34-12.28-1.79,1.52-9.65,21.93-9.65,21.93s-23.85-6.48-25.51-4.55c-1.51,2.07,2.62,20.13,2.62,20.13s-24,6.07-25,7.58,6.61,19.58,6.61,19.58-20.54,11.72-20.13,14.76v.27c.83,2.07,17.65,16.13,17.65,16.13s-13.79,20.41-12.41,22.62,20,4,20,4-1.8,24.69-.69,26.06,20.68,0,20.68,0,4.55,23.17,7.58,23.86,15.58-11.17,15.58-11.17,12.69,18.89,14.89,18.48"/><path class="cls-9" d="M1110.28,318.68a55.57,55.57,0,0,0,0,111.13"/><path class="cls-9" d="M1016.83,474.23a5.23,5.23,0,0,0,3.86-2.62,2.77,2.77,0,0,0,0-1.51,15.39,15.39,0,0,0-3.86-5.1c-1-.83-1.79-.56-2.62.41a6.31,6.31,0,0,0,1.79,8.41,1,1,0,0,0,.83.41"/><path class="cls-9" d="M1014.21,483.61c1.38,0,3.31-1.52,3.45-2.62a1.74,1.74,0,0,0-.14-.83,10.09,10.09,0,0,0-3.86-4.13c-1.24-.56-1.93-.28-2.62,1a2.57,2.57,0,0,0-.14,2.62,15.42,15.42,0,0,0,2.07,3.17c.28.42,1,.55,1.24.83"/><path class="cls-9" d="M1062.88,522.91c1.11-1.24,1.11-4,.28-5a1.29,1.29,0,0,0-.83-.55c-2.2-.41-4.27-.69-6.34.28-1.52.55-1.79,1.51-1.24,3,.41,1.1,1,1.93,2.07,2.07a23.12,23.12,0,0,0,4.27.55,17.77,17.77,0,0,0,1.79-.41"/><path class="cls-9" d="M1032.14,510.64a3.46,3.46,0,0,0-3.45,2.89,2.71,2.71,0,0,0,.41,1.38,8,8,0,0,0,3.73,2.62,3.94,3.94,0,0,0,4.68-2.34,1.37,1.37,0,0,0-.13-1.25,5.85,5.85,0,0,0-5.24-3.3"/><path class="cls-9" d="M1046.75,517a8.31,8.31,0,0,0,5.52-1.79c1-.83,1-1.52.14-2.62-2.21-3.18-7.86-1.8-8.55,1.37-.28,1.38.13,2.49,1.51,2.9a5.15,5.15,0,0,0,1.38.14"/><path class="cls-9" d="M1030.21,501.53a2.8,2.8,0,0,0-.56-1.1c-1.1-1.79-2.89-2.89-4.41-4.27a1.5,1.5,0,0,0-1.93.27c-1.51,1.8-1.93,3-.27,4.83a17.08,17.08,0,0,0,2.06,2.34,2,2,0,0,0,2.76.42,10.69,10.69,0,0,0,1.93-1.52,3.26,3.26,0,0,0,.42-1"/><path class="cls-9" d="M1035.45,502.64a5.57,5.57,0,0,0,3-1.93,1.7,1.7,0,0,0,0-1.79,9.58,9.58,0,0,0-4.14-4,2.27,2.27,0,0,0-2.62,0c-.82.82-1.65,1.79-1.24,3a8,8,0,0,0,4.41,4.55c0,.14.28.14.56.14"/><path class="cls-9" d="M1037.1,504.57a3.33,3.33,0,0,0-3.58,3.31,1.75,1.75,0,0,0,1,1.38,28.48,28.48,0,0,0,4.83,1.79c1.24.41,3-1,3.17-2.21a3.79,3.79,0,0,0-.14-1.24,4,4,0,0,0-2.07-2.2c-1.1-.28-2.48-.69-3.17-.83"/><path class="cls-9" d="M949.82,399.92a4.31,4.31,0,0,0-2.34-2.35c-1.11-.55-1.93-.14-2.35,1.1a9.13,9.13,0,0,0,.14,6.35,2.49,2.49,0,0,0,.83,1.24,2.15,2.15,0,0,0,3,0,4.21,4.21,0,0,0,1.24-4,20.84,20.84,0,0,1-.55-2.34"/><path class="cls-9" d="M955.34,378.68c.13-.14.69-.41.82-.83a28.59,28.59,0,0,0,2.21-4.68c.69-1.93-1.52-4-3.45-3.45a1.94,1.94,0,0,0-1.1,1,13.62,13.62,0,0,0-1.52,6.48,2.14,2.14,0,0,0,3,1.52"/><path class="cls-9" d="M1021.93,484.16a7.61,7.61,0,0,0,1.66,4.55,2.2,2.2,0,0,0,3,.55,6.22,6.22,0,0,0,1.52-1.1,1.74,1.74,0,0,0,.55-2.21,26.56,26.56,0,0,0-2.76-4c-1.38-1.38-2.89-1-3.58.82a7.4,7.4,0,0,0-.42,1.38"/><path class="cls-9" d="M946.24,415.36c.55,1.51.82,3,1.37,4.41a1.64,1.64,0,0,0,2.62.69,7.12,7.12,0,0,0,1.66-1.24,2.52,2.52,0,0,0,.55-1.38,25.17,25.17,0,0,0-1.65-4.55,3.52,3.52,0,0,0-1.25-1.24,1.34,1.34,0,0,0-1.93.27,29.06,29.06,0,0,1-1.37,3"/><path class="cls-9" d="M1004.7,449.69c.14.28.14.83.27,1.24a11.76,11.76,0,0,0,3,3.86,1.91,1.91,0,0,0,2.62.14,11.08,11.08,0,0,0,1.51-1.1,1.15,1.15,0,0,0,.28-1.66,6.62,6.62,0,0,0-1.52-1.93c-1.1-1-2.34-1.65-3.44-2.48-1.66-1.1-2.49,0-2.76,1.52v.41"/><path class="cls-9" d="M994.36,451.62a3.43,3.43,0,0,0,.27,1,10.44,10.44,0,0,0,4.14,3.17,3.43,3.43,0,0,0,3.86-1.66,2.31,2.31,0,0,0,0-1.38,4.66,4.66,0,0,0-1.66-1.65,16.61,16.61,0,0,0-3.58-1.65c-1.52-.69-2.9.41-3,2.2"/><path class="cls-9" d="M961,436.45a5.61,5.61,0,0,0-1.38.14,2.36,2.36,0,0,0-1.65,2.07,1.65,1.65,0,0,0,1,1.79c1.38.69,2.76,1.38,4.14,1.93,1.1.42,3.31-.82,3.44-1.93a1.08,1.08,0,0,0-.27-1.1,5.76,5.76,0,0,0-5.24-2.9"/><path class="cls-9" d="M966.5,364.2c-.41-1.51-3-2.2-3.86-1.24a8.23,8.23,0,0,0-2.34,6.76,1.65,1.65,0,0,0,2.62,1.1,1.36,1.36,0,0,0,.69-.55c1-1.65,1.93-3.31,2.89-5.1v-1"/><path class="cls-9" d="M1017.11,494.5c2.34.14,4.13-2.34,3.31-4.13a10.26,10.26,0,0,0-2.9-4,1.32,1.32,0,0,0-1.93.27,5.08,5.08,0,0,0-1,1.93,7.05,7.05,0,0,0,1.37,5.24,6,6,0,0,0,1.11.69"/><path class="cls-9" d="M956.71,403.64c.28.14.83.69,1.38,1a1.49,1.49,0,0,0,1.8-.82,7.28,7.28,0,0,0,1-6.48,3.06,3.06,0,0,0-3-1.8,2.56,2.56,0,0,0-1,.69,17,17,0,0,0-.14,7.45"/><path class="cls-9" d="M952.72,365.44c-.42-1-2.49-1.93-3.45-1.51a1.88,1.88,0,0,0-1,.83,10,10,0,0,0-1.51,5.65c0,.27.13.55.13,1a1.71,1.71,0,0,0,2.76.83,12.22,12.22,0,0,0,3-5.93c.13-.41,0-.55,0-.83"/><path class="cls-9" d="M1002.91,461.55a1.42,1.42,0,0,0,.27.69,17.22,17.22,0,0,0,2.35,3.17c1,1.1,2.06,1.1,3.3.28.28-.28.69-.56,1-.83a1.75,1.75,0,0,0,.14-2.48,10.47,10.47,0,0,0-3.73-3.18c-1.93-.82-3.44.28-3.3,2.35"/><path class="cls-9" d="M951.61,443.21v.28c.55,1.93,2.21,2.62,3.86,3.17a3.09,3.09,0,0,0,3.45-1.38,1.27,1.27,0,0,0,0-1.66,8.25,8.25,0,0,0-3.45-3,2.69,2.69,0,0,0-3.86,2.62"/><path class="cls-9" d="M944.31,429a2.83,2.83,0,0,0,2.89-3.86,9.22,9.22,0,0,0-3.17-3.73,1.46,1.46,0,0,0-2.21.42,3.72,3.72,0,0,0-.82,2.62,7.24,7.24,0,0,0,1.93,3.86,4.31,4.31,0,0,0,1.38.69"/><path class="cls-9" d="M1023.31,511.32a4.24,4.24,0,0,0,2.76-1.93,1.29,1.29,0,0,0,0-1.24,9.19,9.19,0,0,0-3.17-3.72c-1-.69-1.93-.41-2.76.55a3.08,3.08,0,0,0,0,4.41,4.3,4.3,0,0,0,3.17,1.93"/><path class="cls-9" d="M985.39,444.31a2.42,2.42,0,0,0-2.62,1.93,1.71,1.71,0,0,0,.83,2.35c.83.55,1.79.83,2.76,1.38a2.77,2.77,0,0,0,3.31-.69,1.94,1.94,0,0,0,0-3.17c-1.24-1.38-2.9-1.38-4.28-1.8"/><path class="cls-9" d="M959.33,389.44c.14-.14.56-.28.69-.69a8.69,8.69,0,0,0,1.93-4.83c.14-1.52-1.93-3.17-3.31-2.62-.27.14-.82.41-.82.83a40.83,40.83,0,0,0-1.24,5.65c-.28,1.38,1.38,2.35,2.75,1.66"/><path class="cls-9" d="M940.58,380.47c.55,1.52,1.93,1.93,2.76,1a8.24,8.24,0,0,0,2.21-5.79,1.76,1.76,0,0,0-.56-1,4.41,4.41,0,0,0-1.37-.69c-1.52-.69-2.35-.27-2.62,1.38a34.42,34.42,0,0,0-.56,4c0,.28.14.83.14,1.1"/><path class="cls-9" d="M967.88,453.83a3.5,3.5,0,0,0,2.76-2.21,2.54,2.54,0,0,0-.28-1.1A6.13,6.13,0,0,0,966,447.9a2.65,2.65,0,0,0-2.89,3,1.75,1.75,0,0,0,.69,1,28.46,28.46,0,0,0,3.58,1.79c0,.28.28.14.55.14"/><path class="cls-9" d="M945.68,393.57c.14-.14.56-.41,1-.82a8.13,8.13,0,0,0,1.52-4.28,3.08,3.08,0,0,0-3.31-2.76,1.8,1.8,0,0,0-1,.69,10,10,0,0,0-.41,6.35,1.53,1.53,0,0,0,2.2.82"/><path class="cls-9" d="M949.68,390.4c.69,1.66,2.35,2.07,3.31.83a7.57,7.57,0,0,0,1.66-3.31,3.19,3.19,0,0,0-2.21-3.86c-.69-.28-1.38-.28-1.65.41a9.13,9.13,0,0,0-1.11,5.93"/><path class="cls-9" d="M944,411.36a6.55,6.55,0,0,0-1.79-4.14,1.23,1.23,0,0,0-2.07.28,6.09,6.09,0,0,0-.55,5.93,1.86,1.86,0,0,0,2.75,1,2.74,2.74,0,0,0,1.66-3"/><path class="cls-9" d="M1087.29,242.18a4,4,0,0,0,1.1-3.17c0-1.25-.69-1.8-2.07-1.66a8.36,8.36,0,0,0-5.51,2.9,6.1,6.1,0,0,0-.83,1.24,2,2,0,0,0,1.38,2.62c1.38.27,2.9.41,4.14-.69.55-.42,1.24-.83,1.79-1.24"/><path class="cls-9" d="M1077.5,235.42a2.78,2.78,0,0,0,4.69.83,8,8,0,0,0,1.93-4.55,1.48,1.48,0,0,0-1.24-1.79,3.36,3.36,0,0,0-2.62.41,9.07,9.07,0,0,0-2.62,3.45,3.56,3.56,0,0,0-.14,1.65"/><path class="cls-9" d="M954.23,433.83c2.21-.13,3.45-2.48,2.35-4a21.3,21.3,0,0,0-2.49-2.62,1.54,1.54,0,0,0-2.2.27,3,3,0,0,0-.28,4,10.69,10.69,0,0,0,1.52,1.93c.28.14.83.28,1.1.41"/><path class="cls-9" d="M1050.89,501.81a2.46,2.46,0,0,0-2.62,2.21,2,2,0,0,0,.55,1.38,6.37,6.37,0,0,0,3.86,1.79,2.29,2.29,0,0,0,2.21-.83,1.9,1.9,0,0,0,.27-2.48,5.79,5.79,0,0,0-4.27-2.07"/><path class="cls-9" d="M1012.42,274.3a3.46,3.46,0,0,1-3.45-2.89,2.61,2.61,0,0,1,.42-1.38,8,8,0,0,1,3.72-2.62,4,4,0,0,1,4.69,2.34,1.38,1.38,0,0,1-.14,1.24,5.69,5.69,0,0,1-5.24,3.31"/><path class="cls-9" d="M1025,264.93c2.06-1,3.86-1.38,5.65-.83,1.24.28,1.52,1,1.38,2.34-.55,3.73-6.07,5.11-8.27,2.76-1-1.1-1.11-2.2,0-3.17a7.34,7.34,0,0,1,1.24-1.1"/><path class="cls-9" d="M1008.28,291.81a2.76,2.76,0,0,1-.55,1.11c-1.1,1.79-2.89,2.89-4.41,4.27a1.5,1.5,0,0,1-1.93-.27c-1.52-1.8-1.93-3-.28-4.83a16.5,16.5,0,0,1,2.07-2.34,2,2,0,0,1,2.76-.42,10.69,10.69,0,0,1,1.93,1.52c.27.14.27.55.41,1"/><path class="cls-9" d="M1016.28,283.54a4.2,4.2,0,0,1,2.48,1.66c.42.41.28,1,0,1.51a8.69,8.69,0,0,1-3.58,3.45,1.88,1.88,0,0,1-2.21,0c-.69-.69-1.38-1.52-1-2.48a6.84,6.84,0,0,1,3.72-3.86c.14-.28.27-.28.55-.28"/><path class="cls-9" d="M1040.27,261.62a4.23,4.23,0,0,1,2.48,1.65c.42.42.28,1,0,1.52a8.57,8.57,0,0,1-3.58,3.45,1.88,1.88,0,0,1-2.21,0c-.69-.69-1.38-1.52-1-2.48a6.83,6.83,0,0,1,3.72-3.87c0-.27.28-.13.55-.27"/><path class="cls-9" d="M1017.52,280.37a3.33,3.33,0,0,1-3.58-3.31,1.75,1.75,0,0,1,1-1.38,28.48,28.48,0,0,1,4.83-1.79c1.24-.41,3,1,3.17,2.21a3.79,3.79,0,0,1-.14,1.24,4,4,0,0,1-2.07,2.2c-1.24.28-2.48.69-3.17.83"/><path class="cls-9" d="M1007.18,278a4.26,4.26,0,0,1,2.76,1.93,1.32,1.32,0,0,1,0,1.24,9.27,9.27,0,0,1-3.17,3.72c-1,.69-1.93.41-2.76-.55a3.08,3.08,0,0,1,0-4.41,4.3,4.3,0,0,1,3.17-1.93"/><path class="cls-9" d="M1031.31,260.65a2.45,2.45,0,0,1-2.62-2.2,2,2,0,0,1,.55-1.38,6.31,6.31,0,0,1,3.86-1.79,2.28,2.28,0,0,1,2.21.82,1.9,1.9,0,0,1,.27,2.49,6.27,6.27,0,0,1-4.27,2.06"/><path class="cls-9" d="M974.78,453.28c.14.27.27.82.69,1a39,39,0,0,0,4.27,1.79,2.24,2.24,0,0,0,2.35-1,1.27,1.27,0,0,0,0-1.66,6.78,6.78,0,0,0-5.8-2.34,2.53,2.53,0,0,0-1.51,2.21"/><path class="cls-9" d="M975.19,442.38A2.86,2.86,0,0,0,972.3,445c0,.28,0,.69.27.83a3.57,3.57,0,0,0,3.45,1.65,3,3,0,0,0,2.62-1.93,1.91,1.91,0,0,0-.14-1.51,4.07,4.07,0,0,0-3.31-1.66"/><path class="cls-9" d="M949.68,438a2.72,2.72,0,0,0,2.76-1.65,1.07,1.07,0,0,0-.28-1.11,8.54,8.54,0,0,0-3.17-2.75,1.51,1.51,0,0,0-1.93.41,2.23,2.23,0,0,0,.42,3.45,21.93,21.93,0,0,0,2.2,1.65"/><path class="cls-9" d="M1066.19,251.42a6.9,6.9,0,0,0,.69-1.11,2.63,2.63,0,0,0-.55-2.62,1.54,1.54,0,0,0-1.93-.41,23.2,23.2,0,0,0-4.14,2.07c-1,.55-1.37,3-.68,4a1.69,1.69,0,0,0,1.1.55,6.48,6.48,0,0,0,5.51-2.48"/><path class="cls-9" d="M1066.75,239.7c-.14,0-.14-.14-.28-.14-1.79-.69-3.45,0-5,1-1.25.83-1.38,2.21-1.11,3.59a1.31,1.31,0,0,0,1.24,1.1,8.86,8.86,0,0,0,4.55-.83c2.21-1,2.35-3.17.56-4.68"/><path class="cls-9" d="M1048.27,245.62c-.55.83-.69,2.9,0,3.45a1.53,1.53,0,0,0,1.1.41,6.89,6.89,0,0,0,4.83-1.65,2.61,2.61,0,0,0-.55-4.14,1.88,1.88,0,0,0-1.24-.13c-1.25.41-2.49,1.1-3.73,1.65l-.41.41"/><path class="cls-9" d="M1044.41,251.42c-.28,0-.83-.28-1.24-.14a38.33,38.33,0,0,0-4,2.2,2.11,2.11,0,0,0-.69,2.49,1.21,1.21,0,0,0,1.24,1.1c1.79.14,4.69-1.52,5.38-3a2.59,2.59,0,0,0-.69-2.62"/><path class="cls-9" d="M1052.54,258.59a2.81,2.81,0,0,0-.27-3.87c-.28-.13-.55-.41-.83-.41A3.69,3.69,0,0,0,1048,256a3.13,3.13,0,0,0-.13,3.3c.13.42.68.69,1.24.83a3.67,3.67,0,0,0,3.44-1.51"/><path class="cls-9" d="M1073.5,236.66a2.8,2.8,0,0,0-.27-3.86c-.28-.14-.56-.41-.83-.41A3.71,3.71,0,0,0,1069,234a3.17,3.17,0,0,0-.14,3.31,1.71,1.71,0,0,0,1.24.83,3.83,3.83,0,0,0,3.45-1.52"/><path class="cls-9" d="M1072.12,241.63c-.82,1-1.1,2.48-.55,3.17a1.8,1.8,0,0,0,1,.55,7,7,0,0,0,4.13-.83,1.49,1.49,0,0,0,.83-1.79,2.31,2.31,0,0,0-2.9-1.93c-1,.27-1.93.69-2.48.83"/><path class="cls-9" d="M954.51,421.29c0,.69.14,1.1.14,1.38.13,1.37.82,2.2,1.79,2.2a3,3,0,0,0,2.62-2.89,4.56,4.56,0,0,0-1.93-3c-.55-.27-1.38-.27-1.66.28-.41.83-.69,1.65-1,2.07"/><path class="cls-9" d="M951.75,408.88c0,.69.14,1.1.14,1.38.14,1.38.83,2.2,1.79,2.2a3,3,0,0,0,2.62-2.89,4.53,4.53,0,0,0-1.93-3c-.55-.27-1.38-.27-1.65.28-.42.69-.69,1.52-1,2.07"/><path class="cls-9" d="M1079.43,513.39a3.93,3.93,0,0,0-2.34,2.35c-.56,1.1-.14,1.93,1.1,2.34a9.11,9.11,0,0,0,6.34-.14,2.39,2.39,0,0,0,1.24-.82,2.17,2.17,0,0,0,0-3,4.24,4.24,0,0,0-4-1.24,18.05,18.05,0,0,1-2.34.55"/><path class="cls-9" d="M1086.05,510.77a15.7,15.7,0,0,0,1-1.38,1.48,1.48,0,0,0-.82-1.79,7.28,7.28,0,0,0-6.48-1,3.06,3.06,0,0,0-1.8,3,2.64,2.64,0,0,0,.69,1c1.66.55,5.66.82,7.45.13"/><path class="cls-9" d="M1072,508.29c-.13-.14-.27-.55-.68-.69a8.84,8.84,0,0,0-4.83-1.93c-1.52-.14-3.17,1.93-2.62,3.31.14.41.41.83.83.83a42.34,42.34,0,0,0,5.65,1.24,1.83,1.83,0,0,0,1.65-2.76"/><path class="cls-9" d="M1072.81,517.81c1.66-.69,2.07-2.35.83-3.31a7.57,7.57,0,0,0-3.31-1.66,3.19,3.19,0,0,0-3.86,2.21c-.28.69-.28,1.38.41,1.65a9.41,9.41,0,0,0,5.93,1.11"/><path class="cls-9" d="M969.54,327.8a3.86,3.86,0,0,0-1-3.17,1.55,1.55,0,0,0-2.62-.14,9.58,9.58,0,0,0-2.75,5.66,5.41,5.41,0,0,0,.13,1.51A2.06,2.06,0,0,0,966,333a4.37,4.37,0,0,0,2.9-2.89,9.37,9.37,0,0,1,.69-2.35"/><path class="cls-9" d="M984.15,311.53a2.64,2.64,0,0,0,1.24-.41,30.32,30.32,0,0,0,4.14-3.17c1.38-1.38.55-4.14-1.38-4.69a1.59,1.59,0,0,0-1.38.28,14.16,14.16,0,0,0-4.41,5.1,2,2,0,0,0,1.79,2.89"/><path class="cls-9" d="M959.2,339.94a27.46,27.46,0,0,0-.69,4.55,1.59,1.59,0,0,0,1.93,1.79,9.33,9.33,0,0,0,2.07-.28,1.9,1.9,0,0,0,1.1-1c.27-1.66.55-3.17.69-4.83a3.41,3.41,0,0,0-.55-1.65c-.42-.69-1.24-1.11-1.8-.69-1,.69-1.79,1.38-2.75,2.07"/><path class="cls-9" d="M1000.7,303.67c.27-1.51-1.66-3.44-2.9-2.89a8.29,8.29,0,0,0-5.24,4.82,1.7,1.7,0,0,0,1.8,2.21c.27,0,.69,0,.82-.14,1.66-1,3.31-2.07,5-3.17.27-.14.41-.55.55-.83"/><path class="cls-9" d="M974,334.28a8.39,8.39,0,0,0,.83,1.52,1.89,1.89,0,0,0,2.07.14,7.51,7.51,0,0,0,3.86-5.38,2.83,2.83,0,0,0-1.93-2.9,1.17,1.17,0,0,0-1.11.28,12.81,12.81,0,0,0-3.72,6.34"/><path class="cls-9" d="M987.88,298.57c0-1.1-1.38-2.89-2.35-2.89a4,4,0,0,0-1.24.27,9,9,0,0,0-3.86,4.28c-.14.27-.14.55-.28.82a1.83,1.83,0,0,0,2.07,2.07,11.74,11.74,0,0,0,5.38-4,.55.55,0,0,0,.28-.55"/><path class="cls-9" d="M951.2,351.1c1.93,1.11,4.27-.13,4.27-2.06a9.89,9.89,0,0,0-1.1-4.83,1.46,1.46,0,0,0-2.07-.69,3.37,3.37,0,0,0-1.93,1.93,7.61,7.61,0,0,0-.14,4.28c.42.69.83,1.1,1,1.37"/><path class="cls-9" d="M982.77,322.84a1.68,1.68,0,0,0,1-.28,10.26,10.26,0,0,0,4-3.31c.83-1.24-.28-3.72-1.79-3.86-.42,0-1,0-1.11.28a56.28,56.28,0,0,0-3.72,4.41,1.82,1.82,0,0,0,1.65,2.76"/><path class="cls-9" d="M993.25,291c-.13,1.51.83,2.48,2.07,2.2a8.58,8.58,0,0,0,4.69-4.13,1.08,1.08,0,0,0-.14-1.11,6.71,6.71,0,0,0-.83-1.24c-1.1-1.24-1.93-1.24-3,.14-.83,1.1-1.52,2.21-2.34,3.31a4.53,4.53,0,0,0-.42.83"/><path class="cls-9" d="M968.71,320.22a6.79,6.79,0,0,0,1.24-.28,7.36,7.36,0,0,0,3.31-3.17,2.91,2.91,0,0,0-1.79-4,1.17,1.17,0,0,0-1.11.28,10.47,10.47,0,0,0-3.3,5.38,1.62,1.62,0,0,0,1.65,1.79"/><path class="cls-9" d="M973.81,319.25c-.14,1.8,1.24,2.9,2.62,2.35a5.76,5.76,0,0,0,2.9-2.21,3.21,3.21,0,0,0-.14-4.41,1.18,1.18,0,0,0-1.66-.41,8.77,8.77,0,0,0-3.72,4.68"/><path class="cls-9" d="M959.06,335.39a6,6,0,0,0,.27-4.42,1.34,1.34,0,0,0-2.06-.69,6.34,6.34,0,0,0-3.31,5,1.87,1.87,0,0,0,2.07,2.2,3.22,3.22,0,0,0,3-2.06"/><path class="cls-9" d="M958,359.93c2.06.83,4.27-.55,4-2.48a17.06,17.06,0,0,0-1-3.59,1.46,1.46,0,0,0-2.07-.69,3,3,0,0,0-2.07,3.31,11.71,11.71,0,0,0,.42,2.35c0,.55.41.82.69,1.1"/><path class="cls-9" d="M963.88,349a12.23,12.23,0,0,1-.55,1.24c-.41,1.38-.27,2.34.55,2.75a2.8,2.8,0,0,0,3.59-1.37,4.6,4.6,0,0,0-.28-3.59,1.19,1.19,0,0,0-1.51-.55,11.05,11.05,0,0,0-1.8,1.52"/><path class="cls-9" d="M967.19,336.63a12.23,12.23,0,0,1-.55,1.24c-.41,1.38-.27,2.34.55,2.76a2.82,2.82,0,0,0,3.59-1.38,4.65,4.65,0,0,0-.28-3.59,1.19,1.19,0,0,0-1.51-.55c-.83.55-1.38,1.24-1.8,1.52"/><path class="cls-9" d="M1039.58,524.29c1.52.13,3.17,1.1,5.1.55,1.52-.42,2.07-1.24,1.8-2.9a2.5,2.5,0,0,0-1.93-2.2c-.42-.14-.83-.14-1.24-.28a3.52,3.52,0,0,0-3.73,1c-1.65,1.38-1.65,3,0,3.87"/></svg>