<svg xmlns="http://www.w3.org/2000/svg" xml:space="preserve" width="273.027" height="288.088" viewBox="293.027 0 273.027 288.088"><g fill="#ffffff"><path d="M429.456 252.535c-33.161 0-66.321 0-99.482-.002-1.475 0-2.949-.01-4.423-.008-.419 0-.833-.033-1.245-.107a3.681 3.681 0 0 1-1.97-1.02c-.879-.863-1.297-1.927-1.31-3.148-.008-.918.003-1.836.007-2.754 0-.195.009-.391.01-.584.006-3.367.016-6.732.016-10.1 0-3.504-.009-7.011-.016-10.515-.001-.694-.01-1.391-.014-2.086-.011-1.688 1.088-3.254 2.7-3.854.557-.205 1.135-.271 1.722-.271 3.95.002 7.9.008 11.852.013.277 0 .556-.005.834-.017.181-.006.292-.133.298-.33a18.6 18.6 0 0 0 .01-.668v-22.701c-.001-2.114-.009-4.227-.01-6.342 0-.334.006-.668.034-1 .166-1.949 1.679-3.322 3.202-3.615.355-.069.71-.129 1.074-.123.307.007.611 0 .918 0 17.137 0 34.273.002 51.41-.002 1.486 0 1.288.207 1.289-1.27.006-7.123.002-14.244.003-21.367.002-8.263.007-16.522.011-24.785 0-.278-.002-.557.011-.836.084-1.865 1.576-3.649 3.727-3.853.332-.028.667-.026 1.001-.026 2.42-.002 4.841-.002 7.261-.002 12.63 0 25.261 0 37.891.002 3.866 0 7.733.004 11.6.01.334 0 .668.006 1.001.027 1.879.118 3.594 1.545 3.789 3.774.031.359.028.726.029 1.084.003 1.252.001 2.504.001 3.756l.001 24.955c0 .306.013.611.023.916.003.103.111.207.214.217.109.011.221.021.332.023.277.004.556.002.834.002h51.327c.39 0 .778.002 1.168.01a4.02 4.02 0 0 1 1.46.318c1.543.66 2.409 1.828 2.572 3.5.038.387.026.779.026 1.168l.001 45.736v.75c.001.111.003.223.009.334.013.229.125.334.379.344.223.008.445.008.667.008 1.113.002 2.227.002 3.339 0 2.838-.004 5.675-.012 8.513-.01.556 0 1.113.035 1.645.229 1.572.58 2.512 1.693 2.772 3.351.069.438.081.887.082 1.332.003 1.694-.013 3.393-.014 5.09-.004 4.617 0 9.236-.003 13.854-.001 1.141-.017 2.28-.014 3.422.001.863.014 1.725.036 2.588.013.531-.032 1.059-.196 1.563-.485 1.494-1.525 2.419-3.014 2.857a4.398 4.398 0 0 1-1.318.18c-.473-.01-.945-.006-1.419-.006-7.649-.004-15.301-.008-22.951-.008h-79.701v-.003zm24.831-73.74v-37.961c0-.307 0-.611-.008-.918-.006-.262-.102-.377-.332-.387a23.828 23.828 0 0 0-1-.021H408.06c-.834 0-1.669.007-2.503.013a6.96 6.96 0 0 0-.5.018c-.133.008-.266.137-.271.27-.011.306-.021.611-.021.916v76.09c0 .308.004.613.012.918.004.16.105.273.247.279.223.012.445.021.667.021 15.88.002 31.76.002 47.64 0 .223 0 .444-.005.667-.013.143-.006.267-.125.27-.262.01-.334.018-.668.018-1l.001-37.963m-24.836 47.699h-91.966c-2.337 0-4.673 0-7.01.002-.25 0-.5.004-.75.012-.161.006-.263.102-.268.256-.01.277-.017.555-.017.832-.001 5.035-.003 10.07.003 15.107 0 .439-.063.887.068 1.322.449.219.928.108 1.392.108 29.543.006 59.085.004 88.628.004H528.19c.334 0 .667.002 1.001-.006.313-.008.409-.098.426-.385.017-.277.023-.558.032-.832.104-3.088.081-6.176.068-9.265-.01-2.028-.063-4.061-.102-6.092-.005-.274-.027-.553-.048-.832-.007-.1-.118-.205-.223-.209a27.8 27.8 0 0 0-1-.022h-98.893m58.098-8.461c7.842 0 15.683 0 23.525-.002.306 0 .611-.006.916-.016.148-.005.272-.115.278-.257.016-.332.03-.664.03-.998l.001-41.129c0-.221.001-.444-.003-.666a3.676 3.676 0 0 0-.022-.332c-.019-.178-.151-.313-.326-.319a17.82 17.82 0 0 0-.834-.017h-47.301c-.195 0-.389 0-.584.002-.083.002-.166.013-.249.021-.098.012-.208.115-.213.223-.014.305-.029.609-.029.916-.002 13.791-.003 27.584 0 41.377.001 1.371-.156 1.191 1.201 1.193 7.869.006 15.739.004 23.61.004m-115.867-26.326h-23.529c-.25 0-.501 0-.751.004-.11.002-.221.016-.331.025-.104.014-.216.117-.222.217-.016.25-.034.498-.037.748-.023 2.086-.064 4.172-.063 6.256.005 4.59.029 9.178.052 13.768.007 1.418.029 2.836.049 4.254.004.277.029.558.047.832.006.08.143.215.221.228.082.012.165.024.248.028.473.019.944.045 1.417.048 2.838.02 5.674.049 8.511.047 10.596 0 21.192.032 31.788-.097 2.142-.024 4.282-.047 6.424-.069.824-.013.855-.002.848-.824V192.81c0-.224.002-.445-.004-.669-.008-.307-.104-.413-.387-.422-.278-.01-.557-.01-.834-.01-7.816-.002-15.631-.002-23.447-.002M429.575 104.721c-.361.107-.611.337-.881.529-1.404 1-2.804 2.008-4.205 3.014-5.807 4.169-11.612 8.337-17.421 12.505-.36.26-.727.514-1.106.743a3.998 3.998 0 0 1-1.723.587c-2.282.213-4.134-1.3-4.535-3.22-.166-.791-.093-1.547.147-2.301.381-1.191.754-2.385 1.146-3.572 2.432-7.393 4.867-14.785 7.303-22.176.061-.186.115-.373.179-.555.205-.59.134-.621-.333-.965-.828-.611-1.666-1.209-2.502-1.81l-19.728-14.154c-.249-.178-.498-.356-.73-.555-.673-.576-1.137-1.287-1.359-2.151-.524-2.037.575-4.343 2.786-5.025a3.828 3.828 0 0 1 1.148-.188c.306.002.612-.002.918-.002 8.958 0 17.915.002 26.872-.004 1.257 0 1.037.189 1.43-1.008 2.778-8.449 5.553-16.9 8.329-25.35.096-.289.187-.584.309-.863.548-1.234 1.442-2.096 2.752-2.49 1.891-.572 3.838.295 4.756 1.863.212.363.361.752.491 1.146l1.329 4.041 7.169 21.781c.325.986.21.881 1.195.881 8.763.002 17.525.002 26.288.002.612 0 1.226-.028 1.835.017 1.709.129 2.92.998 3.601 2.563.734 1.687.202 3.578-1.091 4.715-.312.275-.651.521-.99.767-1.331.959-2.67 1.908-4.003 2.865l-17.284 12.405c-.361.261-.717.529-1.068.799a.341.341 0 0 0-.118.375c.075.271.156.535.242.8.997 3.037 1.992 6.073 2.992 9.11 1.747 5.306 3.498 10.611 5.243 15.918.165.5.322 1.002.423 1.525a3.729 3.729 0 0 1-.055 1.652c-.404 1.594-1.719 3.086-3.902 3.213-.766.043-1.488-.164-2.16-.533a6.609 6.609 0 0 1-.565-.355 71.159 71.159 0 0 1-1.367-.955c-6.936-4.979-13.869-9.963-20.806-14.942-.316-.226-.643-.435-.951-.642"/></g></svg>