<svg id="Capa_1" data-name="Capa 1" xmlns="http://www.w3.org/2000/svg" xmlns:xlink="http://www.w3.org/1999/xlink" viewBox="0 0 6363.57 4525.71"><defs><style>.cls-1{fill:none;}.cls-2{fill:#6e6f72;}.cls-3{fill:#a582ba;}.cls-4{fill:#fff;}.cls-5{clip-path:url(#clip-path);}.cls-6{fill:url(#Degradado_sin_nombre_2);}.cls-7{clip-path:url(#clip-path-2);}.cls-8{fill:url(#Degradado_sin_nombre_2-2);}</style><clipPath id="clip-path"><path class="cls-1" d="M3786.92,1684.66A655.52,655.52,0,0,0,3807,1845.6a15.62,15.62,0,0,1,2.88,1.33C3873.24,1892,4113,1948.8,4280.37,1919s169.33-186,162.76-253c-5.88-60.73-112.12-535.17-131.72-622.39-299.13,60.09-524.49,324.23-524.49,641"/></clipPath><linearGradient id="Degradado_sin_nombre_2" x1="-53.01" y1="3844.82" x2="0.41" y2="3844.82" gradientTransform="matrix(-17.16, 0, 0, 17.16, 3679.64, -64471.57)" gradientUnits="userSpaceOnUse"><stop offset="0" stop-color="#a580b9"/><stop offset="1" stop-color="#845ba2"/></linearGradient><clipPath id="clip-path-2"><path class="cls-1" d="M3101.93,1300.07a650.7,650.7,0,0,0-131.13,13.36c16.08,87.92,103.68,566.14,122,624.36,20.19,64.26,83,207.31,248.7,169.28s364.18-184,404.94-250.25a10.68,10.68,0,0,1,2.08-2.35,656.76,656.76,0,0,0-44.44-156c-105.76-248.91-347.63-398.37-602-398.37h-.16"/></clipPath><linearGradient id="Degradado_sin_nombre_2-2" x1="198.82" y1="3904.58" x2="252.24" y2="3904.58" gradientTransform="matrix(0, 16.85, 16.85, 0, -62436.83, -2181.86)" xlink:href="#Degradado_sin_nombre_2"/></defs><path class="cls-2" d="M368.62,3693.31c67.73,0,90.32-18.27,90.32-126.38,0-129.85-31.25-131.13-90.32-131.13-57.75,0-91.24,1.28-91.24,131.13,0,111.64,22.6,126.38,91.24,126.38m0-289.67c75.1,0,122.48,14.32,122.48,163.29,0,140.27-44.29,158.54-122.48,158.54s-123.34-13.94-123.34-158.54c0-149,50.37-163.29,123.34-163.29"/><path class="cls-2" d="M651.56,3694.19c28.21,0,43.86-28.25,43.86-84.71,0-70.78-16.08-87.71-43.86-87.71-33.43,0-55.17,3.47-85.14,11.27v141.18c23.5,9.56,50.85,20,85.14,20M534.75,3382.78H566V3507c27.83-11.27,66-17.36,85.57-17.36,65.6,0,76,60.84,76,119.87,0,53-13,116.82-76,116.82-29.53,0-73.81-19.93-85.14-28.21l-8.65,25.64h-23Z"/><path class="cls-2" d="M758.15,3548.25c0-35.57,15.17-57.31,59.93-57.31,22.59,0,90.75,4.81,113.35,6.94v24.79H818.08c-27.78,0-27.78,10.84-27.78,25.58v20c0,23.93,11.7,24.78,27.78,24.78h68.64c37.76,0,56.46,23.45,56.46,56v21.26c0,47.32-28.69,55.6-56.46,55.6-21.31,0-102.51-6.52-119-8.28v-23.87h119s24.3,2.61,24.3-23.45v-21.26c0-15.23-5.18-23.93-24.3-23.93H818.08c-40.81,0-59.93-12.13-59.93-56.89Z"/><path class="cls-2" d="M1109.68,3594.29c19.07,0,27.35-6.94,27.35-21.26,0-45.62-8.71-49.51-55.6-49.51-49.09,0-69.07.42-69.07,70.77ZM1081,3491.36c54.27,0,88.13,5.23,88.13,81.67,0,33.44-17.78,53-59.45,53h-97.32c0,54.27,10,67.73,43.85,67.73,40,0,76.07.43,108.6-4.33v24.31c-35.2,10-72.54,12.17-108.6,12.17-58.59,0-76-28.25-76-118.58,0-102.93,29.54-116,100.74-116"/><path class="cls-2" d="M1210.59,3493.09h22.54l9.62,29.12c26.49-15.23,50.37-31.73,85.94-31.73,12.61,0,26.93.91,32.16,3.47v31.73c-5.23-1.28-19.55-2.62-32.16-2.62-34.72,0-52.5,9.14-85.94,25.21v175.42h-32.16Z"/><polygon class="cls-2" points="1411.36 3493.09 1483.47 3676.36 1556.43 3493.09 1591.58 3493.09 1499.07 3723.69 1466.96 3723.69 1376.21 3493.09 1411.36 3493.09"/><path class="cls-2" d="M1664.71,3694.2c34.78,0,96.42-22.16,96.42-22.16v-62.13l-96.42,7c-18.64,1.76-25.58,14.31-25.58,28.25v21.69c0,20.83,10.84,27.4,25.58,27.4M1607,3642.5c0-34.72,21.74-57.75,57.74-57.75,0,0,96.42.43,96.42,0,0,0,.42-28.68,0-29.11,0-26.49-13.89-35.62-35.58-35.62-31.3,0-69.07,2.19-111.21,5.23V3501.8c30.87-8.71,69.49-12.6,112.49-13,36.06-.43,66.45,19.07,66.45,66.87v168.05H1769.4l-8.27-27.78c-.86,0-56.89,30.39-96.42,30.39-31.67,0-57.74-20.4-57.74-57.31Z"/><path class="cls-2" d="M1821.7,3500.49l43-7.8,7.8-64.31h24.3v64.31h67.36v32.1H1896.8v116.39c0,37.82,10,46.47,24.79,50,0,0,35.57,9.13,38.67,9.13v23H1922c-33.44,0-57.32-20.88-57.32-82.1V3524.79h-43Z"/><path class="cls-2" d="M2098.46,3693.74c46.9,0,69.49-6.09,69.49-82.1,0-82.47-18.69-88.56-69.49-88.56-48.66,0-69.49,5.61-69.49,88.56,0,76.87,24.78,82.1,69.49,82.1m0-202.81c77.72,0,101.6,29.11,101.6,120.71,0,85.58-23.88,114.26-101.6,114.26s-101.59-31.73-101.59-114.26c0-94.22,26-120.71,101.59-120.71"/><path class="cls-2" d="M2245.88,3493.09h22.59l9.56,29.12c26.44-15.23,50.37-31.73,85.95-31.73,12.6,0,26.92.91,32.15,3.47v31.73c-5.23-1.28-19.55-2.62-32.15-2.62-34.72,0-52.51,9.14-85.95,25.21v175.42h-32.15Z"/><path class="cls-2" d="M2428.83,3493.09h32.1v230.59h-32.1Zm-4.32-60.79c0-6.51,3.47-10.84,10.41-10.84h21.74c6.47,0,10,4.76,10,10.84v23.45c0,6.52-4,10-10,10h-21.74c-6.09,0-10.41-3.9-10.41-10Z"/><path class="cls-2" d="M2609.57,3693.74c46.9,0,69.5-6.09,69.5-82.1,0-82.47-18.7-88.56-69.5-88.56-48.66,0-69.49,5.61-69.49,88.56,0,76.87,24.78,82.1,69.49,82.1m0-202.81c77.72,0,101.6,29.11,101.6,120.71,0,85.58-23.88,114.26-101.6,114.26S2508,3694.17,2508,3611.64c0-94.22,26-120.71,101.59-120.71"/><path class="cls-2" d="M314.76,4114.82c34.35,0,61.64-10.47,85.15-20V3953.67c-30-7.8-51.71-11.27-85.15-11.27-27.77,0-43.85,16.93-43.85,87.7,0,56.46,15.65,84.72,43.85,84.72m0-204.58c19.55,0,57.32,6.09,85.15,17.36V3803.41h31.67V4144.3h-23l-8.65-25.58c-11.33,8.22-55.61,28.2-85.15,28.2-63,0-76-63.83-76-116.82,0-59.07,10.42-119.86,76-119.86"/><path class="cls-2" d="M606.81,4014.91c19.07,0,27.35-6.95,27.35-21.26,0-45.62-8.71-49.52-55.61-49.52-49.09,0-69.06.43-69.06,70.78ZM578.12,3912c54.27,0,88.14,5.23,88.14,81.67,0,33.44-17.79,53-59.45,53H509.49c0,54.26,10,67.72,43.85,67.72,39.95,0,76,.43,108.59-4.32v24.3c-35.2,10-72.54,12.18-108.59,12.18-58.6,0-76-28.26-76-118.58,0-102.93,29.54-116,100.74-116"/><polygon class="cls-2" points="842.88 3826.42 935.82 4093.07 1033.09 3826.42 1068.29 3826.42 951.47 4144.35 919.31 4144.35 807.67 3826.42 842.88 3826.42"/><path class="cls-2" d="M1103.22,3913.7h32.15v230.59h-32.15Zm-4.33-60.79c0-6.51,3.47-10.84,10.42-10.84h21.74c6.46,0,10,4.76,10,10.84v23.45c0,6.52-4,10-10,10h-21.74c-6.09,0-10.42-3.9-10.42-10Z"/><path class="cls-2" d="M1284,4114.35c46.9,0,69.49-6.09,69.49-82.1,0-82.47-18.69-88.56-69.49-88.56-48.66,0-69.49,5.66-69.49,88.56,0,76.87,24.78,82.1,69.49,82.1m0-202.81c77.72,0,101.59,29.11,101.59,120.71,0,85.58-23.87,114.26-101.59,114.26s-101.6-31.73-101.6-114.26c0-94.22,26-120.71,101.6-120.71"/><path class="cls-2" d="M1431.37,3804.28h32.11v257.95c0,37.81,10,46.47,24.78,49.94,0,0,35.63,9.13,38.67,9.13v23h-38.24c-33.44,0-57.32-20.89-57.32-82.1Z"/><path class="cls-2" d="M1663,4014.91c19.07,0,27.35-6.95,27.35-21.26,0-45.62-8.71-49.52-55.61-49.52-49.09,0-69.06.43-69.06,70.78ZM1634.27,3912c54.26,0,88.13,5.23,88.13,81.67,0,33.44-17.79,53-59.45,53h-97.32c0,54.26,10,67.72,43.85,67.72,40,0,76,.43,108.59-4.32v24.3c-35.2,10-72.48,12.18-108.59,12.18-58.6,0-76-28.26-76-118.58,0-102.93,29.54-116,100.75-116"/><path class="cls-2" d="M1763.86,3913.71h22.59l9.56,26.92c26.49-15.17,49.94-30.82,85.09-30.82,46,0,71.2,35.63,71.2,73.82V4144.3h-32.1V3983.63c0-28.69-16.93-41.67-39.1-41.67-34.72,0-51.65,8.66-85.09,24.73V4144.3h-32.15Z"/><path class="cls-2" d="M2065.44,3911.54c22.59,0,68.64,5.66,99,11.32v23.45s-60.36-2.62-99-2.62c-26.07,0-43.85,4.76-43.85,86.86,0,66.44,12.6,83.8,43.85,83.8,39.95,0,102-4.75,102-4.75v24.3c-35.14,10-66,12.18-102,12.61-43,0-76-16.51-76-117.73,0-100.74,31.73-117.24,76-117.24"/><path class="cls-2" d="M2208.92,3913.7h32.16v230.59h-32.16Zm-4.32-60.79c0-6.51,3.47-10.84,10.41-10.84h21.74c6.47,0,10,4.76,10,10.84v23.45c0,6.52-3.95,10-10,10H2215c-6.09,0-10.41-3.9-10.41-10Z"/><path class="cls-2" d="M2341.43,4114.81c34.77,0,96.41-22.16,96.41-22.16v-62.12l-96.41,6.94c-18.64,1.76-25.59,14.37-25.59,28.26v21.68c0,20.89,10.85,27.4,25.59,27.4m-57.74-51.7c0-34.72,21.74-57.74,57.74-57.74,0,0,96.41.42,96.41,0,0,0,.43-28.69,0-29.11,0-26.5-13.88-35.63-35.57-35.63-31.25,0-69.07,2.19-111.21,5.23v-23.45c30.87-8.7,69.49-12.6,112.49-13,36.06-.43,66.45,19.07,66.45,66.88v168.09h-23.88l-8.28-27.83c-.85,0-56.88,30.4-96.41,30.4-31.68,0-57.74-20.41-57.74-57.32Z"/><path class="cls-2" d="M2693.92,3911.54c22.59,0,68.64,5.66,99,11.32v23.45s-60.36-2.62-99-2.62c-26.07,0-43.85,4.76-43.85,86.86,0,66.44,12.6,83.8,43.85,83.8,39.95,0,102-4.75,102-4.75v24.3c-35.15,10-66,12.18-102,12.61-43,0-76-16.51-76-117.73,0-100.74,31.73-117.24,76-117.24"/><path class="cls-2" d="M2926,4114.35c46.9,0,69.49-6.09,69.49-82.1,0-82.47-18.69-88.56-69.49-88.56-48.66,0-69.49,5.66-69.49,88.56,0,76.87,24.78,82.1,69.49,82.1m0-202.81c77.72,0,101.6,29.11,101.6,120.71,0,85.58-23.88,114.26-101.6,114.26s-101.59-31.73-101.59-114.26c0-94.22,26-120.71,101.59-120.71"/><path class="cls-2" d="M3073.41,3913.71H3096l9.56,26.92c26.5-15.17,50-30.82,85.09-30.82,46,0,71.2,35.63,71.2,73.82V4144.3h-32.1V3983.63c0-28.69-16.93-41.67-39.1-41.67-34.72,0-51.65,8.66-85.09,24.73V4144.3h-32.15Z"/><path class="cls-2" d="M3286,3921.1l43-7.85,7.8-64.26h24.3v64.26h67.36v32.16h-67.36V4061.8c0,37.82,10,46.47,24.79,49.94,0,0,35.57,9.14,38.67,9.14v23h-38.25c-33.43,0-57.31-20.89-57.31-82.1V3945.41h-43Z"/><path class="cls-2" d="M3465.45,3913.71H3488l9.62,29.11c26.49-15.23,50.37-31.73,85.94-31.73,12.61,0,26.92.91,32.16,3.47v31.73c-5.24-1.28-19.55-2.62-32.16-2.62-34.72,0-52.5,9.14-85.94,25.21V4144.3h-32.16Z"/><path class="cls-2" d="M3697.46,4114.81c34.78,0,96.42-22.16,96.42-22.16v-62.12l-96.42,6.94c-18.64,1.76-25.58,14.37-25.58,28.26v21.68c0,20.89,10.84,27.4,25.58,27.4m-57.74-51.7c0-34.72,21.74-57.74,57.74-57.74,0,0,96.42.42,96.42,0,0,0,.42-28.69,0-29.11,0-26.5-13.89-35.63-35.58-35.63-31.3,0-69.06,2.19-111.21,5.23v-23.45c30.88-8.7,69.5-12.6,112.49-13,36.06-.43,66.45,19.07,66.45,66.88v168.09h-23.87l-8.28-27.83c-.86,0-56.89,30.4-96.42,30.4-31.67,0-57.74-20.41-57.74-57.32Z"/><path class="cls-2" d="M3978.3,3804.28h32.15v257.95c0,37.81,10,46.47,24.73,49.94,0,0,35.63,9.13,38.68,9.13v23h-38.25c-33.44,0-57.31-20.89-57.31-82.1Z"/><path class="cls-2" d="M4151.21,4114.81c34.78,0,96.42-22.16,96.42-22.16v-62.12l-96.42,6.94c-18.64,1.76-25.58,14.37-25.58,28.26v21.68c0,20.89,10.84,27.4,25.58,27.4m-57.74-51.7c0-34.72,21.74-57.74,57.74-57.74,0,0,96.42.42,96.42,0,0,0,.42-28.69,0-29.11,0-26.5-13.89-35.63-35.58-35.63-31.25,0-69.06,2.19-111.21,5.23v-23.45c30.87-8.7,69.5-12.6,112.49-13,36.06-.43,66.45,19.07,66.45,66.88v168.09h-23.87l-8.28-27.83c-.86,0-56.89,30.4-96.42,30.4-31.67,0-57.74-20.41-57.74-57.32Z"/><path class="cls-2" d="M4316.87,3968.87c0-35.63,15.23-57.32,59.93-57.32,22.6,0,90.76,4.81,113.35,6.95v24.78H4376.8c-27.77,0-27.77,10.85-27.77,25.59v20c0,23.93,11.7,24.78,27.77,24.78h68.64c37.77,0,56.46,23.39,56.46,56v21.26c0,47.33-28.68,55.55-56.46,55.55-21.31,0-102.5-6.46-119-8.22v-23.88h119s24.31,2.62,24.31-23.45v-21.26c0-15.22-5.24-23.93-24.31-23.93H4376.8c-40.8,0-59.93-12.12-59.93-56.88Z"/><polygon class="cls-2" points="4668.48 3826.42 4712.76 3826.42 4797.48 4090.88 4879.52 3826.42 4923.43 3826.42 4947.74 4144.35 4915.58 4144.35 4896.08 3884.59 4814.41 4144.35 4781.4 4144.35 4697.17 3884.59 4679.81 4144.35 4647.65 4144.35 4668.48 3826.42"/><path class="cls-2" d="M4991.42,3913.71h32.16v160.67c0,28.68,16.93,41.72,39.05,41.72,34.77,0,51.7-8.71,85.14-24.73V3913.71h32.1V4144.3h-22.54l-9.56-26.92c-26.49,15.22-49.94,30.87-85.14,30.87-46.05,0-71.21-35.63-71.21-73.87Z"/><path class="cls-2" d="M5234.78,3913.7h32.16v232.35c.42,37.34-.43,80.77-11.27,115.54h-20.89Zm-4.75-60.79c0-6.51,3.47-10.84,10.41-10.84h21.69c6.57,0,10,4.76,10,10.84v23.45c0,6.52-3.9,10-10,10h-21.69c-6.09,0-10.41-3.9-10.41-10Z"/><path class="cls-2" d="M5447.27,4014.91c19.06,0,27.34-6.95,27.34-21.26,0-45.62-8.7-49.52-55.6-49.52-49.09,0-69.07.43-69.07,70.78ZM5418.58,3912c54.27,0,88.14,5.23,88.14,81.67,0,33.44-17.79,53-59.45,53h-97.33c0,54.26,10.05,67.72,43.91,67.72,39.95,0,76,.43,108.54-4.32v24.3c-35.2,10-72.48,12.18-108.54,12.18-58.65,0-76-28.26-76-118.58,0-102.93,29.54-116,100.74-116"/><path class="cls-2" d="M5548.18,3913.71h22.6l9.5,29.11c26.5-15.23,50.43-31.73,86-31.73,12.61,0,26.92.91,32.16,3.47v31.73c-5.24-1.28-19.55-2.62-32.16-2.62-34.72,0-52.5,9.14-86,25.21V4144.3h-32.1Z"/><path class="cls-2" d="M5847.57,4014.91c19.07,0,27.35-6.95,27.35-21.26,0-45.62-8.7-49.52-55.6-49.52-49.09,0-69.07.43-69.07,70.78ZM5818.89,3912c54.27,0,88.14,5.23,88.14,81.67,0,33.44-17.79,53-59.46,53h-97.32c0,54.26,10,67.72,43.86,67.72,40,0,76,.43,108.59-4.32v24.3c-35.2,10-72.54,12.18-108.59,12.18-58.6,0-76-28.26-76-118.58,0-102.93,29.54-116,100.74-116"/><path class="cls-2" d="M5939.79,3968.87c0-35.63,15.22-57.32,59.93-57.32,22.6,0,90.75,4.81,113.35,6.95v24.78H5999.72c-27.77,0-27.77,10.85-27.77,25.59v20c0,23.93,11.69,24.78,27.77,24.78h68.64c37.76,0,56.46,23.39,56.46,56v21.26c0,47.33-28.69,55.55-56.46,55.55-21.31,0-102.5-6.46-119-8.22v-23.88h119s24.3,2.62,24.3-23.45v-21.26c0-15.22-5.18-23.93-24.3-23.93h-68.64c-40.81,0-59.93-12.12-59.93-56.88Z"/><path class="cls-3" d="M5296.8,1822c0,834.39-676.39,1510.79-1510.79,1510.79S2275.18,2656.34,2275.18,1822,2951.62,311.16,3786,311.16,5296.8,987.55,5296.8,1822"/><path class="cls-4" d="M4255.15,726.7H3316.87A282.66,282.66,0,0,0,3072.07,868l-469.15,812.6a282.5,282.5,0,0,0,0,282.67l469.15,812.55a282.54,282.54,0,0,0,244.8,141.33h938.28A282.54,282.54,0,0,0,4500,2775.86l469.15-812.55a282.79,282.79,0,0,0,0-282.67L4500,868a282.66,282.66,0,0,0-244.8-141.34"/><path class="cls-3" d="M4572,2159.93c-22.33-130.23-55.82-163.72-122.81-212.06s-243.68-27.93-351.57-37.23c-85.57-7.37-237.43-67.25-296.78-91.76,61.91,296.72,324.87,519.62,640,519.62a656,656,0,0,0,160.35-19.87c-6.51-32.53-16.61-85.15-29.21-158.7"/><path class="cls-3" d="M3167.28,2442.77c-30.35-128.57-12.61-172.47,30.12-243.2s213.39-120.93,309.06-171.67c75.9-40.22,192.29-154.69,237.32-200.47,59,297.31-95.93,605.3-386,728.48a656.56,656.56,0,0,1-155.39,44.38c-6.73-32.53-18-84.87-35.14-157.52"/><g class="cls-5"><rect class="cls-6" x="3560.99" y="984.12" width="1114.64" height="1024.18" transform="translate(778.2 4332.19) rotate(-60.3)"/></g><g class="cls-7"><rect class="cls-8" x="2785.48" y="1149.82" width="1148.36" height="1145.54" transform="translate(-198.11 2986.27) rotate(-46.7)"/></g><path class="cls-3" d="M1069.08,3340.59l-2.31-36.92q233.13-60.75,317.14-223.15T1467.85,2322V1015.52q0-324.87-68-400.8T1128.15,527V490.11q159.15-11.6,342.93-53.6t420.29-123.63Q1879.61,460,1875,644.49t-4.68,590.72v962.95q0,694.22,84.24,870.64t318.23,234.87v36.92q-119.25-7.44-251.25-11.07t-356.43-3.69q-210.37,0-342.41,3.69T1069.08,3340.59Z"/><path class="cls-3" d="M3435.52,2790.62l91.35-241h50.59l91,241h-45.67l-20-52.35h-104.7l-20,52.35Zm73.78-84.32h81.86l-40-109.27h-1.4Z"/><path class="cls-3" d="M3700.78,2790.62v-241h36.54l93.81,140.89,13.35,22.48,1.4-.35v-163h39.35v241h-37.59L3751,2645.16l-9.49-16.86-1.4.35v162Zm27.75-267.37a58.12,58.12,0,0,1,4.4-20.38,39.59,39.59,0,0,1,12.29-16.34q8.25-6.5,20.56-6.5,13.33,0,22.48,3.69a168.25,168.25,0,0,1,16.34,7.55,31.15,31.15,0,0,0,14.93,3.87q7.72,0,11.77-4a23.31,23.31,0,0,0,5.8-11.07h19.67a58.34,58.34,0,0,1-4.39,19.85,42,42,0,0,1-11.94,16.69q-7.91,6.67-20.56,6.68-13.35,0-22.83-3.87t-16.87-7.73a33,33,0,0,0-15.46-3.86q-6.67,0-10.36,3.69t-5.8,11.77Z"/><path class="cls-3" d="M4033.84,2794.13a111.48,111.48,0,0,1-38.29-6.5,85.4,85.4,0,0,1-31.62-20.2q-13.71-13.71-21.26-35.14t-7.55-51.29v-21.43q0-29.87,7.73-51.3t21.43-35.13a85.57,85.57,0,0,1,31.44-20.2,108.79,108.79,0,0,1,37.77-6.5h9.14a110.85,110.85,0,0,1,38.47,6.5,85.69,85.69,0,0,1,31.45,20.2q13.7,13.7,21.25,35.13t7.56,51.3V2681q0,29.86-7.73,51.29t-21.44,35.14a85.78,85.78,0,0,1-31.44,20.2,109,109,0,0,1-37.77,6.5Zm4.22-33.73a70.24,70.24,0,0,0,22.66-3.51,45.74,45.74,0,0,0,18.27-11.6q7.91-8.07,12.3-21.43t4.39-33.37v-40.06q0-20-4.39-33.55t-12.3-21.61a45.93,45.93,0,0,0-18.27-11.59,69.13,69.13,0,0,0-22.31-3.52,70.67,70.67,0,0,0-22.48,3.52,45.74,45.74,0,0,0-18.45,11.59q-7.91,8.08-12.3,21.43t-4.39,33.38v40.05q0,20,4.39,33.56t12.3,21.6a45.74,45.74,0,0,0,18.27,11.6A69.13,69.13,0,0,0,4038.06,2760.4Z"/><path class="cls-3" d="M4270,2794.13q-25.3,0-46-7.2t-33.2-23.19q-12.48-16-12.47-42.34v-3.69a18.48,18.48,0,0,1,.35-3.69H4219a17.58,17.58,0,0,0-.35,3.52v3.51q0,13,6.32,21.78t18.1,13.18q11.76,4.39,27.58,4.39,16.86,0,28.63-3.69t17.92-11.77q6.15-8.07,6.15-20.73,0-11.94-7.55-19.14t-20-11.6a268,268,0,0,0-27.41-7.9q-14.93-3.51-29.68-8.08a121.81,121.81,0,0,1-27.23-12.13,58.5,58.5,0,0,1-20-20q-7.56-12.47-7.55-31.8,0-22.83,12.47-37.77t32.85-22.31a130.13,130.13,0,0,1,44.62-7.38q24.24,0,44.09,7t31.8,22q11.94,14.94,11.95,38.82v4.57h-39.71v-4.92q0-10.89-6-18.44t-16.51-11.42q-10.54-3.87-24.95-3.87a91.22,91.22,0,0,0-24.42,3q-10.71,3-16.68,9.49t-6,17.39q0,11.59,7.56,18.44t20,10.89q12.48,4,27.58,7.56t30,7.9a115.54,115.54,0,0,1,27.41,12,58.56,58.56,0,0,1,20,20q7.56,12.48,7.56,31.8,0,27.41-13,44.09t-35.14,24.25Q4297.35,2794.13,4270,2794.13Z"/></svg>