<?xml version="1.0" encoding="utf-8"?>
<!-- Generator: Adobe Illustrator 24.3.0, SVG Export Plug-In . SVG Version: 6.00 Build 0)  -->
<svg version="1.1" id="Capa_1" xmlns="http://www.w3.org/2000/svg" xmlns:xlink="http://www.w3.org/1999/xlink" x="0px" y="0px"
	 viewBox="0 0 800 800" style="enable-background:new 0 0 800 800;" xml:space="preserve">
<style type="text/css">
	.st0{fill:#5F397C;}
</style>
<path class="st0" d="M76,165.4C37.4,218.6,11.6,281.6,3.1,350h793.8c-8.5-68.4-34.3-131.4-72.9-184.6c-2.1,1.2-4.2,2.3-6.3,3.5
	C643.4,209.4,535.2,250,400,250c-135.2,0-243.4-40.6-317.7-81.1C80.2,167.7,78.1,166.6,76,165.4z"/>
<path class="st0" d="M652.8,90c-62.2,31.3-147.9,60-252.8,60c-104.9,0-190.6-28.7-252.8-60C216.1,33.7,304.1,0,400,0
	C495.9,0,583.9,33.7,652.8,90z"/>
<path class="st0" d="M3.1,450c8.5,68.4,34.3,131.4,72.9,184.6c2.1-1.2,4.2-2.3,6.3-3.5C156.6,590.6,264.8,550,400,550
	s243.4,40.6,317.7,81.1c2.1,1.2,4.2,2.3,6.3,3.5c38.6-53.2,64.4-116.2,72.9-184.6H3.1z"/>
<path class="st0" d="M400,800c-95.9,0-183.9-33.7-252.8-90c62.2-31.3,147.9-60,252.8-60c104.9,0,190.6,28.7,252.8,60
	C583.9,766.3,495.9,800,400,800z"/>
</svg>
