<svg id="Capa_1" data-name="Capa 1" xmlns="http://www.w3.org/2000/svg" xmlns:xlink="http://www.w3.org/1999/xlink" viewBox="0 0 3209.14 545.14"><defs><style>.cls-1{fill:none;}.cls-2{fill:#6e6f72;}.cls-3{fill:#a582ba;}.cls-4{fill:#fff;}.cls-5{clip-path:url(#clip-path);}.cls-6{fill:url(#Degradado_sin_nombre);}.cls-7{clip-path:url(#clip-path-2);}.cls-8{fill:url(#Degradado_sin_nombre_2);}.cls-9{isolation:isolate;}</style><clipPath id="clip-path"><path class="cls-1" d="M466,260.25a99.12,99.12,0,0,0,3,24.31,2,2,0,0,1,.44.21c9.57,6.81,45.79,15.39,71.09,10.89s25.58-28.11,24.59-38.23c-.89-9.18-16.94-80.86-19.9-94A98.85,98.85,0,0,0,466,260.25"/></clipPath><linearGradient id="Degradado_sin_nombre" x1="1186.07" y1="302.56" x2="1194.14" y2="302.56" gradientTransform="translate(20940.04 5423.64) rotate(180) scale(17.16)" gradientUnits="userSpaceOnUse"><stop offset="0" stop-color="#a580b9"/><stop offset="1" stop-color="#845ba2"/></linearGradient><clipPath id="clip-path-2"><path class="cls-1" d="M362.51,202.14a97.72,97.72,0,0,0-19.82,2c2.43,13.28,15.67,85.54,18.44,94.34,3.05,9.7,12.54,31.32,37.58,25.57s55-27.8,61.18-37.81a2.17,2.17,0,0,1,.32-.36,98.89,98.89,0,0,0-97.68-83.76h0"/></clipPath><linearGradient id="Degradado_sin_nombre_2" x1="1111.22" y1="318.79" x2="1119.3" y2="318.79" gradientTransform="translate(5773.1 -18542) rotate(90) scale(16.85)" xlink:href="#Degradado_sin_nombre"/></defs><path class="cls-2" d="M796.27,241.85c28,0,37.29-7.54,37.29-52.17,0-53.61-12.9-54.14-37.29-54.14-23.84,0-37.66.53-37.66,54.14,0,46.09,9.33,52.17,37.66,52.17m0-119.58c31,0,50.57,5.91,50.57,67.41,0,57.91-18.28,65.45-50.57,65.45s-50.92-5.76-50.92-65.45c0-61.5,20.8-67.41,50.92-67.41"/><path class="cls-2" d="M913.09,242.22c11.64,0,18.1-11.67,18.1-35,0-29.22-6.64-36.21-18.1-36.21-13.81,0-22.78,1.44-35.15,4.66V234c9.7,3.95,21,8.25,35.15,8.25m-48.23-128.6h12.9v51.28c11.49-4.66,27.26-7.17,35.33-7.17,27.08,0,31.38,25.12,31.38,49.48,0,21.88-5.38,48.23-31.38,48.23-12.2,0-30.48-8.22-35.15-11.64l-3.58,10.58h-9.5Z"/><path class="cls-2" d="M957.09,182c0-14.69,6.26-23.66,24.74-23.66,9.33,0,37.47,2,46.8,2.86v10.2h-46.8c-11.46,0-11.46,4.48-11.46,10.57v8.25c0,9.87,4.82,10.23,11.46,10.23h28.34c15.59,0,23.31,9.68,23.31,23.13v8.78c0,19.54-11.84,22.95-23.31,22.95-8.8,0-42.32-2.69-49.13-3.41V242h49.13s10,1.08,10-9.68v-8.78c0-6.28-2.14-9.88-10-9.88H981.83c-16.85,0-24.74-5-24.74-23.48Z"/><path class="cls-2" d="M1102.22,201c7.87,0,11.29-2.86,11.29-8.77,0-18.84-3.59-20.45-23-20.45-20.26,0-28.51.18-28.51,29.22Zm-11.84-42.49c22.4,0,36.38,2.16,36.38,33.72,0,13.8-7.34,21.87-24.54,21.87H1062c0,22.41,4.12,28,18.11,28,16.51,0,31.4.18,44.83-1.78v10c-14.53,4.13-30,5-44.83,5-24.19,0-31.36-11.66-31.36-49,0-42.49,12.19-47.87,41.59-47.87"/><path class="cls-2" d="M1143.88,159.2h9.31l4,12c10.93-6.28,20.79-13.09,35.48-13.09,5.2,0,11.11.37,13.27,1.43v13.1a73.73,73.73,0,0,0-13.27-1.08c-14.34,0-21.68,3.77-35.48,10.41V254.4h-13.28Z"/><polygon class="cls-2" points="1226.77 159.2 1256.54 234.86 1286.66 159.2 1301.17 159.2 1262.98 254.4 1249.72 254.4 1212.26 159.2 1226.77 159.2"/><path class="cls-2" d="M1331.36,242.22c14.36,0,39.81-9.15,39.81-9.15V207.42l-39.81,2.87c-7.69.73-10.56,5.91-10.56,11.67v8.95c0,8.6,4.48,11.31,10.56,11.31m-23.84-21.34c0-14.34,9-23.84,23.84-23.84,0,0,39.81.17,39.81,0,0,0,.17-11.84,0-12,0-10.94-5.74-14.71-14.69-14.71-12.92,0-28.51.9-45.91,2.16v-9.68c12.74-3.59,28.69-5.2,46.44-5.38,14.88-.18,27.43,7.87,27.43,27.61V254.4h-9.85l-3.42-11.47c-.36,0-23.49,12.55-39.81,12.55-13.07,0-23.84-8.43-23.84-23.67Z"/><path class="cls-2" d="M1396.18,162.25l17.75-3.22,3.22-26.55h10V159H1455v13.25h-27.81V220.3c0,15.62,4.13,19.19,10.23,20.62,0,0,14.69,3.77,16,3.77v9.51h-15.79c-13.8,0-23.66-8.62-23.66-33.9v-48h-17.75Z"/><path class="cls-2" d="M1510.44,242c19.36,0,28.69-2.51,28.69-33.89,0-34-7.72-36.56-28.69-36.56-20.09,0-28.69,2.31-28.69,36.56,0,31.73,10.23,33.89,28.69,33.89m0-83.73c32.08,0,41.94,12,41.94,49.84,0,35.33-9.86,47.17-41.94,47.17s-42-13.1-42-47.17c0-38.9,10.74-49.84,42-49.84"/><path class="cls-2" d="M1571.3,159.2h9.32l4,12c10.92-6.28,20.8-13.09,35.48-13.09,5.21,0,11.12.37,13.28,1.43v13.1a73.91,73.91,0,0,0-13.28-1.08c-14.33,0-21.67,3.77-35.48,10.41V254.4H1571.3Z"/><path class="cls-2" d="M1646.83,159.19h13.25v95.2h-13.25ZM1645,134.1c0-2.69,1.44-4.48,4.3-4.48h9c2.67,0,4.12,2,4.12,4.48v9.68a3.78,3.78,0,0,1-3.41,4.12,4.21,4.21,0,0,1-.71,0h-9a4,4,0,0,1-4.29-3.69c0-.14,0-.29,0-.43Z"/><path class="cls-2" d="M1721.45,242c19.36,0,28.69-2.51,28.69-33.89,0-34-7.72-36.56-28.69-36.56-20.09,0-28.69,2.31-28.69,36.56,0,31.73,10.23,33.89,28.69,33.89m0-83.73c32.08,0,41.94,12,41.94,49.84,0,35.33-9.86,47.17-41.94,47.17s-42-13.1-42-47.17c0-38.9,10.74-49.84,42-49.84"/><path class="cls-2" d="M774,415.87c14.18,0,25.45-4.32,35.15-8.27V349.34A124.61,124.61,0,0,0,774,344.69c-11.47,0-18.11,7-18.11,36.21,0,23.31,6.47,35,18.11,35m0-84.46c8.07,0,23.66,2.52,35.15,7.17v-51.3h13.08V428.05h-9.51l-3.57-10.57c-4.67,3.4-23,11.65-35.15,11.65-26,0-31.38-26.36-31.38-48.23,0-24.39,4.3-49.49,31.38-49.49"/><path class="cls-2" d="M894.61,374.62c7.87,0,11.29-2.86,11.29-8.77,0-18.83-3.59-20.44-23-20.44-20.26,0-28.51.17-28.51,29.21Zm-11.84-42.49c22.4,0,36.38,2.16,36.38,33.72,0,13.8-7.34,21.87-24.54,21.87H854.43c0,22.41,4.12,28,18.11,28,16.49,0,31.38.17,44.83-1.79v10c-14.54,4.13-30,5-44.83,5-24.2,0-31.36-11.66-31.36-48.95,0-42.5,12.19-47.88,41.59-47.88"/><polygon class="cls-2" points="992.07 296.81 1030.44 406.89 1070.6 296.81 1085.13 296.81 1036.9 428.06 1023.63 428.06 977.54 296.81 992.07 296.81"/><path class="cls-2" d="M1099.55,332.84h13.28V428h-13.28Zm-1.78-25.09c0-2.69,1.43-4.48,4.3-4.48h9c2.67,0,4.12,2,4.12,4.48v9.68a3.78,3.78,0,0,1-3.41,4.12,4.21,4.21,0,0,1-.71,0h-9a4,4,0,0,1-4.29-3.69c0-.14,0-.29,0-.43Z"/><path class="cls-2" d="M1174.17,415.68c19.36,0,28.69-2.51,28.69-33.89,0-34.05-7.72-36.57-28.69-36.57-20.09,0-28.69,2.34-28.69,36.57,0,31.73,10.23,33.89,28.69,33.89m0-83.73c32.09,0,41.94,12,41.94,49.84,0,35.32-9.85,47.17-41.94,47.17s-41.94-13.1-41.94-47.17c0-38.9,10.74-49.84,41.94-49.84"/><path class="cls-2" d="M1235,287.67h13.25V394.16c0,15.61,4.15,19.19,10.23,20.62,0,0,14.71,3.77,16,3.77v9.5h-15.79c-13.8,0-23.66-8.62-23.66-33.89Z"/><path class="cls-2" d="M1330.63,374.62c7.88,0,11.3-2.86,11.3-8.77,0-18.83-3.6-20.44-23-20.44-20.27,0-28.51.17-28.51,29.21Zm-11.84-42.49c22.41,0,36.39,2.16,36.39,33.72,0,13.8-7.34,21.87-24.55,21.87h-40.17c0,22.41,4.14,28,18.1,28,16.52,0,31.38.17,44.83-1.79v10c-14.53,4.13-29.92,5-44.83,5-24.19,0-31.36-11.66-31.36-48.95,0-42.5,12.2-47.88,41.59-47.88"/><path class="cls-2" d="M1372.29,332.84h9.33l4,11.12c10.94-6.26,20.62-12.73,35.13-12.73,19,0,29.39,14.71,29.39,30.48V428h-13.25V361.71c0-11.84-7-17.2-16.14-17.2-14.34,0-21.33,3.57-35.13,10.21V428h-13.28Z"/><path class="cls-2" d="M1496.8,332c9.33,0,28.34,2.34,40.89,4.67v9.68s-24.92-1.08-40.89-1.08c-10.76,0-18.1,2-18.1,35.86,0,27.43,5.2,34.6,18.1,34.6,16.5,0,42.12-2,42.12-2v10c-14.51,4.13-27.23,5-42.12,5.21-17.75,0-31.38-6.82-31.38-48.61,0-41.59,13.1-48.4,31.38-48.4"/><path class="cls-2" d="M1556,332.84h13.27V428H1556Zm-1.79-25.09c0-2.69,1.44-4.48,4.3-4.48h9c2.67,0,4.12,2,4.12,4.48v9.68a3.78,3.78,0,0,1-3.41,4.12,4.21,4.21,0,0,1-.71,0h-9a4,4,0,0,1-4.29-3.69c0-.14,0-.29,0-.43Z"/><path class="cls-2" d="M1610.74,415.87c14.36,0,39.81-9.15,39.81-9.15V381.07l-39.81,2.87c-7.69.73-10.56,5.93-10.56,11.67v8.95c0,8.62,4.48,11.31,10.56,11.31m-23.83-21.35c0-14.33,9-23.83,23.83-23.83,0,0,39.81.17,39.81,0,0,0,.18-11.85,0-12,0-10.94-5.74-14.71-14.69-14.71-12.9,0-28.51.9-45.91,2.16v-9.68c12.75-3.6,28.69-5.21,46.44-5.38,14.89-.18,27.43,7.87,27.43,27.61v69.4H1654l-3.42-11.49c-.35,0-23.49,12.54-39.81,12.54-13.07,0-23.83-8.42-23.83-23.66Z"/><path class="cls-2" d="M1756.27,332c9.33,0,28.34,2.34,40.88,4.67v9.68s-24.91-1.08-40.88-1.08c-10.76,0-18.11,2-18.11,35.86,0,27.43,5.21,34.6,18.11,34.6,16.49,0,42.12-2,42.12-2v10c-14.51,4.13-27.24,5-42.12,5.21-17.75,0-31.38-6.82-31.38-48.61,0-41.59,13.1-48.4,31.38-48.4"/><path class="cls-2" d="M1852.08,415.68c19.36,0,28.69-2.51,28.69-33.89,0-34.05-7.72-36.57-28.69-36.57-20.09,0-28.69,2.34-28.69,36.57,0,31.73,10.23,33.89,28.69,33.89m0-83.73c32.09,0,41.94,12,41.94,49.84,0,35.32-9.85,47.17-41.94,47.17s-41.94-13.1-41.94-47.17c0-38.9,10.74-49.84,41.94-49.84"/><path class="cls-2" d="M1912.94,332.84h9.33l4,11.12c10.93-6.26,20.61-12.73,35.12-12.73,19,0,29.4,14.71,29.4,30.48V428h-13.25V361.71c0-11.84-7-17.2-16.15-17.2-14.33,0-21.32,3.57-35.12,10.21V428H1913Z"/><path class="cls-2" d="M2000.69,335.9l17.75-3.24,3.22-26.53h10v26.53h27.81v13.27h-27.81V394c0,15.62,4.15,19.19,10.24,20.62,0,0,14.68,3.77,16,3.77v9.51h-15.8c-13.8,0-23.66-8.62-23.66-33.9V345.93h-17.75Z"/><path class="cls-2" d="M2074.79,332.84h9.31l4,12c10.94-6.28,20.79-13.1,35.48-13.1,5.21,0,11.12.38,13.28,1.44v13.1a73.91,73.91,0,0,0-13.28-1.08c-14.33,0-21.68,3.77-35.48,10.4V428h-13.28Z"/><path class="cls-2" d="M2170.58,415.87c14.36,0,39.8-9.15,39.8-9.15V381.07l-39.8,2.87c-7.7.73-10.56,5.93-10.56,11.67v8.95c0,8.62,4.47,11.31,10.56,11.31m-23.84-21.35c0-14.33,9-23.83,23.84-23.83,0,0,39.8.17,39.8,0,0,0,.18-11.85,0-12,0-10.94-5.73-14.71-14.68-14.71-12.93,0-28.52.9-45.92,2.16v-9.68c12.75-3.6,28.69-5.21,46.45-5.38,14.88-.18,27.43,7.87,27.43,27.61v69.4h-9.86l-3.42-11.49c-.35,0-23.48,12.54-39.8,12.54-13.08,0-23.84-8.42-23.84-23.66Z"/><path class="cls-2" d="M2286.52,287.67h13.28V394.16c0,15.61,4.12,19.19,10.21,20.62,0,0,14.71,3.77,16,3.77v9.5h-15.79c-13.8,0-23.66-8.62-23.66-33.89Z"/><path class="cls-2" d="M2357.91,415.87c14.36,0,39.8-9.15,39.8-9.15V381.07l-39.8,2.87c-7.7.73-10.56,5.93-10.56,11.67v8.95c0,8.62,4.47,11.31,10.56,11.31m-23.84-21.35c0-14.33,9-23.83,23.84-23.83,0,0,39.8.17,39.8,0,0,0,.18-11.85,0-12,0-10.94-5.73-14.71-14.68-14.71-12.9,0-28.52.9-45.92,2.16v-9.68c12.75-3.6,28.69-5.21,46.45-5.38,14.88-.18,27.43,7.87,27.43,27.61v69.4h-9.86l-3.42-11.49c-.35,0-23.48,12.54-39.8,12.54-13.08,0-23.84-8.42-23.84-23.66Z"/><path class="cls-2" d="M2426.3,355.62c0-14.71,6.29-23.66,24.74-23.66,9.33,0,37.47,2,46.8,2.86v10.23H2451c-11.46,0-11.46,4.48-11.46,10.57v8.25c0,9.87,4.83,10.23,11.46,10.23h28.34c15.59,0,23.31,9.66,23.31,23.13V406c0,19.54-11.84,22.93-23.31,22.93-8.8,0-42.32-2.67-49.13-3.39v-9.86h49.13s10,1.08,10-9.68v-8.78c0-6.28-2.17-9.88-10-9.88H2451c-16.84,0-24.74-5-24.74-23.48Z"/><polygon class="cls-2" points="2571.46 296.81 2589.74 296.81 2624.72 405.99 2658.59 296.81 2676.72 296.81 2686.75 428.06 2673.48 428.06 2665.43 320.82 2631.71 428.06 2618.08 428.06 2583.3 320.82 2576.14 428.06 2562.86 428.06 2571.46 296.81"/><path class="cls-2" d="M2704.79,332.84h13.27v66.34c0,11.84,7,17.22,16.12,17.22,14.36,0,21.35-3.59,35.16-10.21V332.84h13.25V428h-9.31l-3.94-11.11c-10.94,6.28-20.62,12.75-35.16,12.75-19,0-29.39-14.71-29.39-30.5Z"/><path class="cls-2" d="M2805.26,332.84h13.27v95.93c.18,15.41-.17,33.34-4.65,47.7h-8.62Zm-2-25.09c0-2.69,1.43-4.48,4.3-4.48h9c2.71,0,4.14,2,4.14,4.48v9.68a3.77,3.77,0,0,1-3.38,4.12,3.22,3.22,0,0,1-.76,0h-9a4,4,0,0,1-4.29-3.69c0-.14,0-.29,0-.43Z"/><path class="cls-2" d="M2893,374.62c7.87,0,11.29-2.86,11.29-8.77,0-18.83-3.59-20.44-22.95-20.44-20.27,0-28.52.17-28.52,29.21Zm-11.84-42.49c22.4,0,36.39,2.16,36.39,33.72,0,13.8-7.35,21.87-24.55,21.87h-40.2c0,22.41,4.15,28,18.13,28,16.49,0,31.36.17,44.81-1.79v10c-14.53,4.13-29.93,5-44.81,5-24.21,0-31.38-11.66-31.38-48.95,0-42.5,12.19-47.88,41.59-47.88"/><path class="cls-2" d="M2934.65,332.84H2944l3.93,12c10.94-6.28,20.82-13.1,35.5-13.1,5.21,0,11.12.38,13.28,1.44v13.1a73.91,73.91,0,0,0-13.28-1.08c-14.33,0-21.67,3.77-35.5,10.4V428h-13.25Z"/><path class="cls-2" d="M3058.25,374.62c7.87,0,11.29-2.86,11.29-8.77,0-18.83-3.6-20.44-23-20.44-20.26,0-28.51.17-28.51,29.21Zm-11.84-42.49c22.4,0,36.38,2.16,36.38,33.72,0,13.8-7.34,21.87-24.54,21.87h-40.18c0,22.41,4.12,28,18.1,28,16.5,0,31.38.17,44.84-1.79v10c-14.54,4.13-30,5-44.84,5-24.19,0-31.35-11.66-31.35-48.95,0-42.5,12.19-47.88,41.59-47.88"/><path class="cls-2" d="M3096.32,355.62c0-14.71,6.28-23.66,24.74-23.66,9.33,0,37.47,2,46.8,2.86v10.23h-46.8c-11.47,0-11.47,4.48-11.47,10.57v8.25c0,9.87,4.83,10.23,11.47,10.23h28.34c15.59,0,23.31,9.66,23.31,23.13V406c0,19.54-11.84,22.93-23.31,22.93-8.8,0-42.32-2.67-49.13-3.39v-9.86h49.13s10,1.08,10-9.68v-8.78c0-6.28-2.14-9.88-10-9.88h-28.34c-16.85,0-24.74-5-24.74-23.48Z"/><path class="cls-3" d="M694.15,281c0,126.08-102.21,228.28-228.28,228.28S237.59,407.07,237.59,281,339.8,52.72,465.87,52.72,694.15,154.92,694.15,281"/><path class="cls-4" d="M536.76,115.5H395a42.7,42.7,0,0,0-37,21.36L287.11,259.64a42.71,42.71,0,0,0,0,42.71L358,425.12a42.69,42.69,0,0,0,37,21.36H536.76a42.69,42.69,0,0,0,37-21.36l70.89-122.77a42.71,42.71,0,0,0,0-42.71L573.74,136.86a42.7,42.7,0,0,0-37-21.36"/><path class="cls-3" d="M584.63,332.06c-3.38-19.68-8.44-24.74-18.56-32s-36.82-4.22-53.12-5.63c-12.93-1.11-35.87-10.16-44.84-13.86a98.89,98.89,0,0,0,117.2,76.29c1.23-.27,2.46-.55,3.69-.86-1-4.92-2.51-12.87-4.41-24"/><path class="cls-3" d="M372.38,374.8c-4.58-19.43-1.9-26.06,4.55-36.75s32.25-18.27,46.7-25.94c11.47-6.08,29.06-23.37,35.86-30.29a98.88,98.88,0,0,1-77.94,116.1c-1.28.25-2.57.48-3.86.68-1-4.92-2.72-12.83-5.31-23.8"/><g class="cls-5"><rect class="cls-6" x="431.87" y="154.4" width="168.42" height="154.75" transform="translate(59.06 565.22) rotate(-60.3)"/></g><g class="cls-7"><rect class="cls-8" x="314.7" y="179.44" width="173.51" height="173.09" transform="translate(-67.45 375.74) rotate(-46.7)"/></g><g class="cls-9"><path class="cls-3" d="M47.68,503.84l-.34-5.47q34.2-8.89,46.52-32.67t12.32-111V163.46q0-47.55-9.92-58.67T56.57,92V86.49a336.11,336.11,0,0,0,50.12-7.87A603.12,603.12,0,0,0,168.1,60.49q-1.72,21.56-2.4,48.58T165,195.62V336.56q0,101.6,12.31,127.43t46.53,34.38v5.47q-17.45-1-36.78-1.54t-52.17-.51q-30.78,0-50.11.51T47.68,503.84Z"/></g><path class="cls-3" d="M412.92,427.35l13.8-36.41h7.64l13.75,36.41h-6.9l-3-7.91H422.36l-3,7.91Zm11.14-12.74h12.37l-6.05-16.51h-.21Z"/><path class="cls-3" d="M453,427.35V390.94h5.52l14.18,21.28,2,3.4.21-.05V390.94h5.94v36.41h-5.68l-14.6-22-1.43-2.55-.21.05v24.47ZM457.2,387a8.59,8.59,0,0,1,.66-3.08,6,6,0,0,1,1.86-2.47,4.82,4.82,0,0,1,3.1-1,9.16,9.16,0,0,1,3.4.55c.92.38,1.75.76,2.47,1.14a4.82,4.82,0,0,0,2.26.59,2.39,2.39,0,0,0,1.78-.61,3.68,3.68,0,0,0,.87-1.67h3a8.6,8.6,0,0,1-.66,3,6.46,6.46,0,0,1-1.8,2.52,4.67,4.67,0,0,1-3.11,1,9,9,0,0,1-3.45-.59q-1.44-.58-2.55-1.17a5,5,0,0,0-2.33-.58,2.1,2.1,0,0,0-1.57.56,4,4,0,0,0-.88,1.78Z"/><path class="cls-3" d="M503.32,427.89a16.84,16.84,0,0,1-5.79-1,13,13,0,0,1-4.78-3,14.06,14.06,0,0,1-3.21-5.31,23.42,23.42,0,0,1-1.14-7.75v-3.24a22.94,22.94,0,0,1,1.17-7.75,14.13,14.13,0,0,1,3.24-5.31,13,13,0,0,1,4.75-3,16.58,16.58,0,0,1,5.71-1h1.38a16.91,16.91,0,0,1,5.81,1,13,13,0,0,1,4.75,3,13.93,13.93,0,0,1,3.21,5.31,23.42,23.42,0,0,1,1.14,7.75v3.24a23.18,23.18,0,0,1-1.16,7.75,14.13,14.13,0,0,1-3.24,5.31,13.09,13.09,0,0,1-4.75,3,16.35,16.35,0,0,1-5.71,1Zm.64-5.1a10.72,10.72,0,0,0,3.42-.53,7.11,7.11,0,0,0,2.76-1.75,8.16,8.16,0,0,0,1.86-3.24,16.57,16.57,0,0,0,.66-5v-6a16.75,16.75,0,0,0-.66-5.07,8.11,8.11,0,0,0-1.86-3.26,6.82,6.82,0,0,0-2.76-1.75,10.42,10.42,0,0,0-3.37-.53,10.64,10.64,0,0,0-3.4.53,6.82,6.82,0,0,0-2.78,1.75,8.16,8.16,0,0,0-1.86,3.24,16,16,0,0,0-.67,5v6.05a16.41,16.41,0,0,0,.67,5.07,8.27,8.27,0,0,0,1.86,3.27,7,7,0,0,0,2.76,1.75,10.38,10.38,0,0,0,3.41.52Z"/><path class="cls-3" d="M539,427.89a21.35,21.35,0,0,1-7-1.09,10.72,10.72,0,0,1-5-3.51,10.08,10.08,0,0,1-1.88-6.39v-.56a2.59,2.59,0,0,1,0-.56h6.1a4.69,4.69,0,0,0,0,.53v.53a5.44,5.44,0,0,0,1,3.29,5.63,5.63,0,0,0,2.73,2,11.84,11.84,0,0,0,4.17.67,14.65,14.65,0,0,0,4.32-.56,5.18,5.18,0,0,0,2.71-1.78,5,5,0,0,0,.93-3.13,3.82,3.82,0,0,0-1.14-2.89,8.18,8.18,0,0,0-3-1.75,37.61,37.61,0,0,0-4.14-1.2c-1.5-.35-3-.76-4.48-1.22a18.3,18.3,0,0,1-4.12-1.83,8.79,8.79,0,0,1-3-3,9.14,9.14,0,0,1-1.14-4.8,8.62,8.62,0,0,1,1.88-5.71,11.35,11.35,0,0,1,5-3.37,21.21,21.21,0,0,1,13.41,0,10.47,10.47,0,0,1,4.8,3.32,9,9,0,0,1,1.81,5.86v.69h-6v-.74a4.38,4.38,0,0,0-.9-2.79,5.58,5.58,0,0,0-2.5-1.72,10.74,10.74,0,0,0-3.77-.59A13.79,13.79,0,0,0,536,396a5.2,5.2,0,0,0-2.52,1.44,3.68,3.68,0,0,0-.9,2.62,3.59,3.59,0,0,0,1.14,2.79,8.25,8.25,0,0,0,3,1.65c1.25.41,2.64.79,4.16,1.14s3,.75,4.54,1.19a17.53,17.53,0,0,1,4.14,1.81,8.79,8.79,0,0,1,3,3,9.17,9.17,0,0,1,1.14,4.81,10.53,10.53,0,0,1-2,6.66,11.13,11.13,0,0,1-5.31,3.66A23.17,23.17,0,0,1,539,427.89Z"/></svg>