<svg xmlns="http://www.w3.org/2000/svg" xmlns:xlink="http://www.w3.org/1999/xlink" x="0px" y="0px" width="273.027" height="288.088" viewBox="0 0 273.027 288.088" xml:space="preserve"><g id="Layer_1" fill="#ffffff"></g><g id="Layer_6" fill="#ffffff"></g><g id="Layer_7" fill="#ffffff"></g><g id="Layer_2" fill="#ffffff"></g><g id="Layer_3" fill="#ffffff">	<g fill="#ffffff">		<path fill="#ffffff" d="M249.019,91.653c-0.953-1.433-2.381-3.12-5.039-3.491c-4.32-0.601-8.627-1.236-12.939-1.871   c-5.471-0.802-10.941-1.607-16.418-2.343c-1.334-0.18-1.922-0.617-2.525-1.867c-5.088-10.479-9.047-18.496-12.848-26.003   c-0.771-1.526-2.063-2.907-3.363-3.601c-1.094-0.58-2.254-0.7-3.348-0.35c-1.438,0.459-2.678,1.681-3.596,3.524   c-4.389,8.854-8.781,17.707-13.098,26.597c-0.531,1.101-1.117,1.509-2.422,1.685c-5.457,0.75-10.912,1.553-16.357,2.357   c-4.113,0.605-8.23,1.211-12.348,1.794c-2.338,0.335-4.625,1.011-5.52,3.708c-0.949,2.852,0.623,4.872,2.277,6.476   c3.506,3.384,6.994,6.785,10.482,10.188c3.49,3.405,6.982,6.809,10.488,10.197c0.764,0.734,0.945,1.254,0.775,2.227   c-0.861,4.831-1.68,9.67-2.504,14.508c-0.816,4.833-1.641,9.662-2.496,14.493c-0.404,2.298-0.471,4.662,1.801,6.39   c1.008,0.768,2.014,1.061,3.004,1.061c1.357,0,2.674-0.556,3.863-1.188c3.412-1.805,6.83-3.602,10.242-5.399   c5.209-2.732,10.406-5.469,15.588-8.235c0.977-0.525,1.578-0.525,2.561,0.003c5.186,2.766,10.393,5.5,15.596,8.232   c3.48,1.827,6.965,3.653,10.439,5.491c1.752,0.927,4.078,1.798,6.455,0.204c2.523-1.691,2.436-4.286,2.078-6.356l-0.932-5.388   c-1.355-7.873-2.717-15.745-4.107-23.613c-0.201-1.096,0-1.726,0.775-2.473c6.992-6.71,13.836-13.406,20.184-19.642   c0.799-0.786,1.52-1.647,2.219-2.486c0.314-0.377,0.631-0.76,0.957-1.134l0.219-0.249v-3.223L249.019,91.653z M213.957,119.908   c1.049,5.775,2.035,11.561,3.039,17.477l0.867,5.125l-7.986-4.182c-4.203-2.197-8.41-4.394-12.584-6.64   c-2.232-1.197-4.342-1.193-6.609,0.019c-5.184,2.774-10.391,5.502-15.807,8.34l-4.715,2.473l2.826-16.602   c0.342-2.045,0.678-4.092,1.08-6.127c0.516-2.605-0.193-4.724-2.238-6.665c-3.756-3.582-7.467-7.212-11.176-10.843l-5.09-4.971   c-0.047-0.044-0.092-0.091-0.145-0.132l1.91-0.289c2.805-0.434,5.393-0.825,7.984-1.201c4.379-0.637,8.768-1.27,13.152-1.856   c2.436-0.324,4.168-1.62,5.309-3.968c2.574-5.319,5.205-10.608,7.9-16.03l2.336-4.721l4.371,8.802   c1.91,3.821,3.881,7.774,5.723,11.702c1.213,2.577,3.068,3.907,6.031,4.303c5.705,0.764,11.396,1.597,17.258,2.463l5.205,0.76   c-0.197,0.203-0.383,0.389-0.574,0.575l-4.068,3.972c-3.939,3.862-7.885,7.727-11.879,11.534   C214.136,115.074,213.461,117.2,213.957,119.908"></path>		<path fill="#ffffff" d="M203.461,199.588c-8.977-0.243-18.102-0.224-26.934-0.208c-3.832,0.002-7.664,0.006-11.496,0h-1.494   c0.008-0.016,0.014-0.027,0.02-0.039c3.715-8.341,2.268-16.443-4.086-22.826c-14.957-15.04-29.654-29.731-43.669-43.671   c-7.825-7.787-16.935-11.787-27.081-11.897c-14.136-0.15-28.503-0.144-42.402-0.131c-5.146,0.003-10.288,0.003-15.438,0.003   h-0.015c-2.633,0-4.3,0.499-5.406,1.619c-1.106,1.115-1.597,2.795-1.597,5.45v57.391c0,5.136,2.021,7.138,7.215,7.144l6.682,0.014   c6.962,0.022,14.172,0.038,21.264-0.046c3.863-0.066,7.172,1.014,10.437,3.34c5.822,4.151,11.678,8.258,17.527,12.367   c9.221,6.474,18.761,13.174,28.022,19.914c7.521,5.479,15.75,8.146,25.135,8.146c0.199,0,0.4-0.003,0.607-0.003   c13.148-0.161,26.52-0.133,39.445-0.104c5.16,0.013,10.311,0.023,15.471,0.023c2.639,0.004,5.227,0.011,8.201-0.241   c9.234-0.787,16.619-9.005,16.459-18.313C220.172,207.879,212.601,199.838,203.461,199.588 M122.724,220.535   c-8.212-5.851-16.454-11.663-24.694-17.472c-6.796-4.786-13.586-9.577-20.361-14.39c-3.804-2.7-8.494-6.033-14.373-6.599v-50.7   c0.314-0.022,0.612-0.045,0.904-0.045h8.773c4.57,0.004,9.141,0.008,13.708-0.007h0.099c8.374,0,15.652,3.017,21.627,8.971   c9.472,9.43,18.92,18.887,28.37,28.343l15.16,15.16c2.918,2.914,3.805,6.066,2.707,9.643c-0.836,2.763-2.852,4.821-5.525,5.652   c-2.967,0.918-6.217,0.208-8.91-1.938c-3.873-3.091-7.629-6.487-11.263-9.768c-1.59-1.435-3.178-2.873-4.782-4.29   c-0.683-0.604-1.355-1.213-2.031-1.821c-1.327-1.204-2.661-2.407-4.045-3.545c-2.44-2.004-5.52-1.892-7.486,0.277   c-0.94,1.036-1.417,2.361-1.348,3.722c0.075,1.42,0.741,2.76,1.882,3.783c7.593,6.8,15.047,13.451,22.78,20.048   c3.383,2.88,7.813,4.344,13.16,4.346l21.213-0.008c10.896-0.006,21.799-0.016,32.691,0.006c3.186,0.002,5.918,1.233,7.488,3.371   c1.385,1.875,1.73,4.246,0.979,6.67c-0.965,3.104-3.076,4.932-6.295,5.429c-1.078,0.164-2.184,0.186-3.121,0.189l-19.422-0.004   c-13.969-0.005-27.939-0.014-41.91,0.047C132.775,225.623,127.544,223.97,122.724,220.535 M52.54,181.736H34.432v-50.237H52.54   V181.736z"></path>		<path fill="#ffffff" d="M101.584,164.521h-0.007c-1.381,0-2.688,0.545-3.678,1.524c-0.996,0.982-1.541,2.277-1.539,3.648   c0.007,2.801,2.394,5.162,5.224,5.162h0.011c1.375-0.005,2.683-0.544,3.674-1.532c0.998-0.986,1.545-2.282,1.542-3.652   C106.802,166.83,104.463,164.521,101.584,164.521"></path>	</g></g><g id="Layer_4" fill="#ffffff"></g><g id="Layer_5" fill="#ffffff"></g></svg>