<?xml version="1.0" encoding="utf-8"?>
<!-- Generator: Adobe Illustrator 24.3.0, SVG Export Plug-In . SVG Version: 6.00 Build 0)  -->
<svg version="1.1" xmlns="http://www.w3.org/2000/svg" xmlns:xlink="http://www.w3.org/1999/xlink" x="0px" y="0px"
	 viewBox="0 0 273 288.1" style="enable-background:new 0 0 273 288.1;" xml:space="preserve">
<style type="text/css">
	.st0{display:none;}
	.st1{display:inline;fill:#FF1E1E;stroke:#000000;stroke-miterlimit:10;}
	.st2{fill-rule:evenodd;clip-rule:evenodd;fill:#FFFFFF;}
	.st3{fill:#FFFFFF;}
</style>
<g id="Capa_2" class="st0">
	<rect x="-12" y="-12" class="st1" width="305" height="317"/>
</g>
<g id="Capa_3">
	<g>
		<g id="g2491_1_" transform="matrix(11.8081,0,0,11.8081,-28.341412,-65.135806)">
			<path class="st2" d="M11.4,22.3c0.2,0.3,0.4,0.6,0.7,0.8c0,0,0,0.1,0,0.2c-0.1,0.1,0,0.1,0,0.2c-0.1,0,0,0.1-0.1,0.1
				c0.3,0.5-0.8-0.2-1.1-0.2c-0.2,0-0.1-0.1-0.2-0.1c-0.1-0.2,0-0.2-0.2-0.2c0,0,0,0.1-0.1,0c-0.1,0-0.2,0.2-0.2,0.3
				c-0.1,0.1-0.2,0.1-0.2,0.3c-0.1,0.3,0,0.4-0.4,0.2c-0.2-0.2-0.3-0.4-0.5-0.7C8.9,23.1,9,23,8.9,23c-0.5-0.5-1.1-1.5,0.1-1.3
				c0.4-0.3,0.2-0.9,0.2-1.3c-2.1,0-4.8,0.1-6.5-0.5c0.1-0.1,0.2-0.1,0.3,0c0.3-0.2,0.2,0,0.1-0.4C3,19.3,2.9,19.2,2.8,19
				c0-0.3-0.5-0.2-0.4-0.6c0-0.1,0-0.2,0-0.2c0.1-0.1,0.2-0.1,0.1-0.3c0,0,0,0,0.1,0c0.1,0.1,0.1,0,0.1,0c0.1,0,0.1-0.1,0.2-0.2
				s0-0.1,0.1-0.2c0.1-0.2,0.2,0.2,0.3-0.1c0-0.1,0.1-0.1,0.1-0.1c1-0.4,2.1-0.8,3.1-1.2c0.1-0.4,0.3-0.8,0.4-1.1
				c0.1,0.1,0.2,0.2,0.4,0.3c0.4,0.3,0.2,0.1,0.2,0.5c0.4-0.1,0,0.1,0.4,0.1c0.3,0.6,0.5,0.1,0.5,0.4c0,0.1,0.1,0.1,0.1,0.1
				c0.2,0.2,0.3,0.1,0.5,0.2c0.1,0,0.1-0.1,0.2,0c0.1-0.1,0.3-0.1,0.3-0.3c0.1,0,0.1-0.1,0.1-0.1C9.7,15.9,10,16,9.9,15.5
				c0.1-0.4,0-0.7-0.1-1.1c0-0.2,0-0.8,0.3-0.5c0.1,0,0.2,0,0.3,0.1c0.2-0.1,0.4,0.1,0.6,0.2c0.4,0.1-0.1,1.1,0.2,1.5
				c0,0.1,0,0.2,0.1,0.2l0,0C10.1,17.8,10.1,20.3,11.4,22.3z"/>
			<path class="st2" d="M20.2,17.4c0.4,0.9,0.4,2,0,2.9c-0.2,0.5-0.5,0.9-0.9,1.3c-0.3,0-0.8,0-1.6,0c0,0.1,0,0.1,0,0.2
				c-0.2,0-0.4,0-0.5,0c-0.3-0.3-0.5,0.4-0.7,0.8c-1.5-0.1-2.8-1-3.3-2.4c-0.4-0.9-0.3-2,0-2.8l0,0c0.1,0,0.1,0,0.2,0
				c0.1,0.1-0.1,0,0,0.1c0.4,0.1,0.5-0.3,0.6,0c0.3,0.2,0.1,0.2,0.3,0.3c0.1,0,0.6,0.2,0.5,0c0.1-0.4,0.2-0.3,0.4-0.1
				c0.1,0,0.1,0.1,0.1,0.2c0.1,0,0.1,0.2,0.2,0.1c0.1,0,0.1,0,0.1-0.1s0.1-0.1,0.2-0.2s0.1-0.1,0.2-0.1c0.1,0,0.1-0.2,0.3-0.2
				c0.1,0,0.2,0,0.3,0c0.2,0,0.1-0.3,0.3-0.3c0.2-0.2,0.2-1.1,0.1-2C18.6,15.2,19.7,16,20.2,17.4z"/>
			<path class="st2" d="M22.8,17.9c-0.1-0.9-0.4-1.8-0.9-2.5c-1.1-1.8-3.1-2.8-5.2-2.8c-0.7,0-1.6,0.1-2.3,0.4c0-0.2,0-0.4-0.1-0.5
				c-0.4,0-0.7,0-0.7-0.5c-0.1,0-0.1-0.1-0.1-0.2c-0.1-0.1-0.1-0.3,0-0.4c0-0.1,0-0.1-0.1-0.1c0-0.1-0.2,0-0.1-0.2
				c0-0.1,0-0.2,0-0.3c0.1-0.1,0.1-0.1,0.1-0.2l0.1-0.1c-0.1-0.1,0.2-0.2,0.2-0.3s0-0.3,0.1-0.5c0.1-0.1,0.1-0.1,0.1-0.2
				c0-0.1,0.2-0.1,0.3-0.1c0.3-0.1,0.5,0.1,0.8,0.1c0.1,0.1,0.3,0.2,0.4,0.2c0.1,0,0.1,0,0.2,0c0.1,0,0.2,0,0.2,0.2
				c0,0,0.1,0,0.2,0.1c0,0,0.1,0,0.1,0.1c0,0-0.1,0,0,0.1c0,0-0.1,0-0.1,0.1c0,0.2,0.1,0.1,0.2,0.3c0,0.1,0,0,0,0.1l0,0
				c0,0,0,0,0.1,0.1v0.1V11c0,0,0,0,0,0.1c0.2,0.1,0,0.2,0,0.3v0.1l0,0l0.1,0.1v0.1v0.1l0,0c-0.1,0,0,0,0,0c0.1,0,0.2,0.1,0.1,0.2
				c0,0.1,0.1,0.2,0,0.3c0,0,0.2,0,0.1-0.1c0,0,0.1,0,0-0.1c0-0.1,0.1-0.3,0.1-0.5c0-0.1,0.1-0.1,0-0.2c0-0.2,0.1-0.3,0.2-0.4
				c0.1,0,0.1-0.1,0.1-0.2h0.1v-0.1c0.1-0.1,0.1-0.4,0.2-0.4l0,0l0,0c0,0,0,0,0-0.1l0,0l0,0c0-0.1,0.1,0,0.1-0.3
				c0-0.1,0-0.1,0.1-0.2l0,0l0,0c0-0.1,0-0.1,0-0.1c0.2,0,0.8-0.1,0.8,0.1c0,0.1,0.1,0,0.1-0.1c1.1-0.3,2.8-0.7,3.3-0.3
				C22,9.3,21.8,9.4,22,9.6c0,0,0-0.1,0.1-0.1l0.1,0.1c0.1,0.1,0.1,0.1,0.2,0.2c0,0.1,0.1,0.2,0.1,0.1V10l0,0l0.1,0.1h0.1l0,0l0,0
				l0.1,0.1l0,0c0,0,0,0,0,0.1l0.1,0.1l0,0l0,0c0.1,0.1,0,0,0.1,0c0,0,0,0.1,0.1,0.1v0.1c0,0,0-0.1,0,0c0,0,0,0,0.1,0
				c0,0.1,0.1,0,0.1,0.1l0,0h0.1c0.1,0,0,0.3,0,0.3C23.2,14.2,24.1,15.8,22.8,17.9z"/>
		</g>
		<g>
			<g>
				<g>
					<path class="st3" d="M265.6,232.2l-38.9-38.9c7.7-12.4,11.1-26.6,10.2-40.5c-0.7-11.7-4.6-23.3-11.3-33.7
						c-12.8-19.3-34.2-30.8-57.4-30.8c-9.1,0-18,1.8-26.3,5.3c-4,1.7-7.9,3.7-11.6,6.2c-9,6-16.2,13.7-21.3,22.4
						c-12.9,22-13.1,50.3,1.9,73c2.7,4,5.7,7.7,9,11c12.8,12.7,30.1,19.8,48.4,19.8c12.9,0,25.3-3.5,36.2-10.4l38.9,38.9
						c3,3,6.9,4.6,11.1,4.6c4.1,0,8.2-1.7,11.2-4.6C271.7,248.4,271.7,238.4,265.6,232.2z M187.6,203.7l-0.5,0.2
						c-6,2.5-12.4,3.7-18.9,3.7l-0.1,2.6v-2.6l0,0c-1.2,0-2.5,0-3.7-0.1c-19.3-1.3-36-13.5-43.3-31.6c-4.9-12.1-4.8-25-0.6-36.4
						c4.8-13,14.8-24.1,28.6-29.7c4.7-1.9,9.5-3.1,14.5-3.5c0.6-0.1,1.2-0.1,1.9-0.1c0.8,0,1.8-0.1,2.6-0.1c2.3,0,4.7,0.1,6.8,0.4
						c17.9,2.4,33.3,14.2,40.1,31.3c5.1,12.5,5,26.3-0.3,38.8c-0.2,0.4-0.3,0.8-0.5,1.2l0,0C208.9,189.7,199.5,198.8,187.6,203.7z"
						/>
				</g>
			</g>
		</g>
	</g>
</g>
</svg>
